<?xml version="1.0" encoding="UTF-8" standalone="no"?>
<!DOCTYPE svg PUBLIC "-//W3C//DTD SVG 1.1//EN" "http://www.w3.org/Graphics/SVG/1.1/DTD/svg11.dtd">
<svg width="100%" height="100%" viewBox="0 0 128 128" version="1.1" xmlns="http://www.w3.org/2000/svg" xmlns:xlink="http://www.w3.org/1999/xlink" xml:space="preserve" xmlns:serif="http://www.serif.com/" style="fill-rule:evenodd;clip-rule:evenodd;stroke-linejoin:round;stroke-miterlimit:2;">
    <g transform="matrix(1,0,0,1,20,0)">
        <path d="M32,24C32,28.418 28.418,32 24,32C19.582,32 16,28.418 16,24C16,19.582 19.582,16 24,16C28.418,16 32,19.582 32,24Z" style="fill-rule:nonzero;"/>
        <path d="M40,32C40,36.418 36.418,40 32,40C27.582,40 24,36.418 24,32C24,27.582 27.582,24 32,24C36.418,24 40,27.582 40,32Z" style="fill-rule:nonzero;"/>
        <path d="M48,40C48,44.418 44.418,48 40,48C35.582,48 32,44.418 32,40C32,35.582 35.582,32 40,32C44.418,32 48,35.582 48,40Z" style="fill-rule:nonzero;"/>
        <path d="M56,48C56,52.418 52.418,56 48,56C43.582,56 40,52.418 40,48C40,43.582 43.582,40 48,40C52.418,40 56,43.582 56,48Z" style="fill-rule:nonzero;"/>
        <path d="M64,56C64,60.418 60.418,64 56,64C51.582,64 48,60.418 48,56C48,51.582 51.582,48 56,48C60.418,48 64,51.582 64,56Z" style="fill-rule:nonzero;"/>
        <path d="M72,64C72,68.418 68.418,72 64,72C59.582,72 56,68.418 56,64C56,59.582 59.582,56 64,56C68.418,56 72,59.582 72,64Z" style="fill-rule:nonzero;"/>
        <path d="M32,104C32,108.418 28.418,112 24,112C19.582,112 16,108.418 16,104C16,99.582 19.582,96 24,96C28.418,96 32,99.582 32,104Z" style="fill-rule:nonzero;"/>
        <path d="M40,96C40,100.418 36.418,104 32,104C27.582,104 24,100.418 24,96C24,91.582 27.582,88 32,88C36.418,88 40,91.582 40,96Z" style="fill-rule:nonzero;"/>
        <path d="M48,88C48,92.418 44.418,96 40,96C35.582,96 32,92.418 32,88C32,83.582 35.582,80 40,80C44.418,80 48,83.582 48,88Z" style="fill-rule:nonzero;"/>
        <path d="M56,80C56,84.418 52.418,88 48,88C43.582,88 40,84.418 40,80C40,75.582 43.582,72 48,72C52.418,72 56,75.582 56,80Z" style="fill-rule:nonzero;"/>
        <path d="M64,72C64,76.418 60.418,80 56,80C51.582,80 48,76.418 48,72C48,67.582 51.582,64 56,64C60.418,64 64,67.582 64,72Z" style="fill-rule:nonzero;"/>
        <path d="M72,64C72,68.418 68.418,72 64,72C59.582,72 56,68.418 56,64C56,59.582 59.582,56 64,56C68.418,56 72,59.582 72,64Z" style="fill-rule:nonzero;"/>
    </g>
</svg>
