<svg width="128" height="128" viewBox="0 0 128 128" fill="none" xmlns="http://www.w3.org/2000/svg">
<path d="M32 24C32 28.4183 28.4183 32 24 32C19.5817 32 16 28.4183 16 24C16 19.5817 19.5817 16 24 16C28.4183 16 32 19.5817 32 24Z" fill="black"/>
<path d="M40 32C40 36.4183 36.4183 40 32 40C27.5817 40 24 36.4183 24 32C24 27.5817 27.5817 24 32 24C36.4183 24 40 27.5817 40 32Z" fill="black"/>
<path d="M48 40C48 44.4183 44.4183 48 40 48C35.5817 48 32 44.4183 32 40C32 35.5817 35.5817 32 40 32C44.4183 32 48 35.5817 48 40Z" fill="black"/>
<path d="M56 48C56 52.4183 52.4183 56 48 56C43.5817 56 40 52.4183 40 48C40 43.5817 43.5817 40 48 40C52.4183 40 56 43.5817 56 48Z" fill="black"/>
<path d="M64 56C64 60.4183 60.4183 64 56 64C51.5817 64 48 60.4183 48 56C48 51.5817 51.5817 48 56 48C60.4183 48 64 51.5817 64 56Z" fill="black"/>
<path d="M72 64C72 68.4183 68.4183 72 64 72C59.5817 72 56 68.4183 56 64C56 59.5817 59.5817 56 64 56C68.4183 56 72 59.5817 72 64Z" fill="black"/>
<path d="M80 72C80 76.4183 76.4183 80 72 80C67.5817 80 64 76.4183 64 72C64 67.5817 67.5817 64 72 64C76.4183 64 80 67.5817 80 72Z" fill="black"/>
<path d="M88 80C88 84.4183 84.4183 88 80 88C75.5817 88 72 84.4183 72 80C72 75.5817 75.5817 72 80 72C84.4183 72 88 75.5817 88 80Z" fill="black"/>
<path d="M96 88C96 92.4183 92.4183 96 88 96C83.5817 96 80 92.4183 80 88C80 83.5817 83.5817 80 88 80C92.4183 80 96 83.5817 96 88Z" fill="black"/>
<path d="M104 96C104 100.418 100.418 104 96 104C91.5817 104 88 100.418 88 96C88 91.5817 91.5817 88 96 88C100.418 88 104 91.5817 104 96Z" fill="black"/>
<path d="M112 104C112 108.418 108.418 112 104 112C99.5817 112 96 108.418 96 104C96 99.5817 99.5817 96 104 96C108.418 96 112 99.5817 112 104Z" fill="black"/>
<path d="M32 104C32 108.418 28.4183 112 24 112C19.5817 112 16 108.418 16 104C16 99.5817 19.5817 96 24 96C28.4183 96 32 99.5817 32 104Z" fill="black"/>
<path d="M40 96C40 100.418 36.4183 104 32 104C27.5817 104 24 100.418 24 96C24 91.5817 27.5817 88 32 88C36.4183 88 40 91.5817 40 96Z" fill="black"/>
<path d="M48 88C48 92.4183 44.4183 96 40 96C35.5817 96 32 92.4183 32 88C32 83.5817 35.5817 80 40 80C44.4183 80 48 83.5817 48 88Z" fill="black"/>
<path d="M56 80C56 84.4183 52.4183 88 48 88C43.5817 88 40 84.4183 40 80C40 75.5817 43.5817 72 48 72C52.4183 72 56 75.5817 56 80Z" fill="black"/>
<path d="M64 72C64 76.4183 60.4183 80 56 80C51.5817 80 48 76.4183 48 72C48 67.5817 51.5817 64 56 64C60.4183 64 64 67.5817 64 72Z" fill="black"/>
<path d="M72 64C72 68.4183 68.4183 72 64 72C59.5817 72 56 68.4183 56 64C56 59.5817 59.5817 56 64 56C68.4183 56 72 59.5817 72 64Z" fill="black"/>
<path d="M80 56C80 60.4183 76.4183 64 72 64C67.5817 64 64 60.4183 64 56C64 51.5817 67.5817 48 72 48C76.4183 48 80 51.5817 80 56Z" fill="black"/>
<path d="M88 48C88 52.4183 84.4183 56 80 56C75.5817 56 72 52.4183 72 48C72 43.5817 75.5817 40 80 40C84.4183 40 88 43.5817 88 48Z" fill="black"/>
<path d="M96 40C96 44.4183 92.4183 48 88 48C83.5817 48 80 44.4183 80 40C80 35.5817 83.5817 32 88 32C92.4183 32 96 35.5817 96 40Z" fill="black"/>
<path d="M104 32C104 36.4183 100.418 40 96 40C91.5817 40 88 36.4183 88 32C88 27.5817 91.5817 24 96 24C100.418 24 104 27.5817 104 32Z" fill="black"/>
<path d="M112 24C112 28.4183 108.418 32 104 32C99.5817 32 96 28.4183 96 24C96 19.5817 99.5817 16 104 16C108.418 16 112 19.5817 112 24Z" fill="black"/>
</svg>
