<?xml version="1.0" encoding="UTF-8"?>
<svg id="Layer_2" xmlns="http://www.w3.org/2000/svg" width="19.89319" height="19.89319" viewBox="0 0 19.89319 19.89319">
  <g id="Ebene_1">
    <path d="M7.25967,12.92278l-.28925-.28925c-.72597.72597-1.88865,1.30731-3.04849,1.30731-2.1779,0-3.92192-1.74402-3.92192-3.92192,0-2.32253,1.74402-4.06371,3.92192-4.06371,1.15985,0,2.32253.5785,3.04849,1.30447l.28925-.28925c-.87059-.72597-1.30447-1.74119-1.30447-3.04849,0-2.1779,1.74119-3.92192,3.91909-3.92192s4.06655,1.74402,4.06655,3.92192c0,1.30731-.58134,2.32253-1.45193,3.04849q.28925.14463.43388.28925c.72597-.72597,1.74402-1.30447,2.90387-1.30447,2.1779,0,4.06655,1.74119,4.06655,4.06371,0,2.1779-1.88865,3.92192-4.06655,3.92192-1.15985,0-2.1779-.58134-2.90387-1.30731q-.14463.14463-.43388.28925c.87059.72597,1.45193,1.74402,1.45193,3.05133,0,2.1779-1.88865,3.91909-4.06655,3.91909s-3.91909-1.74119-3.91909-3.91909c0-1.30731.43388-2.32536,1.30447-3.05133Z"/>
  </g>
</svg>