<svg width="128" height="128" viewBox="0 0 128 128" fill="none" xmlns="http://www.w3.org/2000/svg">
<path d="M32 104C32 108.418 28.4183 112 24 112C19.5817 112 16 108.418 16 104C16 99.5817 19.5817 96 24 96C28.4183 96 32 99.5817 32 104Z" fill="black"/>
<path d="M40 96C40 100.418 36.4183 104 32 104C27.5817 104 24 100.418 24 96C24 91.5817 27.5817 88 32 88C36.4183 88 40 91.5817 40 96Z" fill="black"/>
<path d="M48 88C48 92.4183 44.4183 96 40 96C35.5817 96 32 92.4183 32 88C32 83.5817 35.5817 80 40 80C44.4183 80 48 83.5817 48 88Z" fill="black"/>
<path d="M56 80C56 84.4183 52.4183 88 48 88C43.5817 88 40 84.4183 40 80C40 75.5817 43.5817 72 48 72C52.4183 72 56 75.5817 56 80Z" fill="black"/>
<path d="M56 80C56 84.4183 52.4183 88 48 88C43.5817 88 40 84.4183 40 80C40 75.5817 43.5817 72 48 72C52.4183 72 56 75.5817 56 80Z" fill="black"/>
<path d="M88 48C88 52.4183 84.4183 56 80 56C75.5817 56 72 52.4183 72 48C72 43.5817 75.5817 40 80 40C84.4183 40 88 43.5817 88 48Z" fill="black"/>
<path d="M96 40C96 44.4183 92.4183 48 88 48C83.5817 48 80 44.4183 80 40C80 35.5817 83.5817 32 88 32C92.4183 32 96 35.5817 96 40Z" fill="black"/>
<path d="M104 32C104 36.4183 100.418 40 96 40C91.5817 40 88 36.4183 88 32C88 27.5817 91.5817 24 96 24C100.418 24 104 27.5817 104 32Z" fill="black"/>
<path d="M112 24C112 28.4183 108.418 32 104 32C99.5817 32 96 28.4183 96 24C96 19.5817 99.5817 16 104 16C108.418 16 112 19.5817 112 24Z" fill="black"/>
<path d="M72 64C67.5817 64 64 60.4183 64 56C64 51.5817 67.5817 48 72 48L104 48C108.418 48 112 51.5817 112 56C112 60.4183 108.418 64 104 64H72Z" fill="black"/>
<path d="M56 64C60.4183 64 64 67.5817 64 72C64 76.4183 60.4183 80 56 80L24 80C19.5817 80 16 76.4183 16 72C16 67.5817 19.5817 64 24 64H56Z" fill="black"/>
<path d="M64 24C64 19.5817 67.5817 16 72 16C76.4183 16 80 19.5817 80 24V56C80 60.4183 76.4183 64 72 64C67.5817 64 64 60.4183 64 56V24Z" fill="black"/>
<path d="M64 104C64 108.418 60.4183 112 56 112C51.5817 112 48 108.418 48 104L48 72C48 67.5817 51.5817 64 56 64C60.4183 64 64 67.5817 64 72V104Z" fill="black"/>
</svg>
