<svg width="128" height="128" viewBox="0 0 128 128" fill="none" xmlns="http://www.w3.org/2000/svg">
<path d="M32 24C32 28.4183 28.4183 32 24 32C19.5817 32 16 28.4183 16 24C16 19.5817 19.5817 16 24 16C28.4183 16 32 19.5817 32 24Z" fill="black"/>
<path d="M32 32C32 36.4183 28.4183 40 24 40C19.5817 40 16 36.4183 16 32C16 27.5817 19.5817 24 24 24C28.4183 24 32 27.5817 32 32Z" fill="black"/>
<path d="M32 40C32 44.4183 28.4183 48 24 48C19.5817 48 16 44.4183 16 40C16 35.5817 19.5817 32 24 32C28.4183 32 32 35.5817 32 40Z" fill="black"/>
<path d="M32 48C32 52.4183 28.4183 56 24 56C19.5817 56 16 52.4183 16 48C16 43.5817 19.5817 40 24 40C28.4183 40 32 43.5817 32 48Z" fill="black"/>
<path d="M32 56C32 60.4183 28.4183 64 24 64C19.5817 64 16 60.4183 16 56C16 51.5817 19.5817 48 24 48C28.4183 48 32 51.5817 32 56Z" fill="black"/>
<path d="M32 64C32 68.4183 28.4183 72 24 72C19.5817 72 16 68.4183 16 64C16 59.5817 19.5817 56 24 56C28.4183 56 32 59.5817 32 64Z" fill="black"/>
<path d="M32 72C32 76.4183 28.4183 80 24 80C19.5817 80 16 76.4183 16 72C16 67.5817 19.5817 64 24 64C28.4183 64 32 67.5817 32 72Z" fill="black"/>
<path d="M32 80C32 84.4183 28.4183 88 24 88C19.5817 88 16 84.4183 16 80C16 75.5817 19.5817 72 24 72C28.4183 72 32 75.5817 32 80Z" fill="black"/>
<path d="M32 88C32 92.4183 28.4183 96 24 96C19.5817 96 16 92.4183 16 88C16 83.5817 19.5817 80 24 80C28.4183 80 32 83.5817 32 88Z" fill="black"/>
<path d="M32 96C32 100.418 28.4183 104 24 104C19.5817 104 16 100.418 16 96C16 91.5817 19.5817 88 24 88C28.4183 88 32 91.5817 32 96Z" fill="black"/>
<path d="M32 104C32 108.418 28.4183 112 24 112C19.5817 112 16 108.418 16 104C16 99.5817 19.5817 96 24 96C28.4183 96 32 99.5817 32 104Z" fill="black"/>
<path d="M16 24C16 19.5817 19.5817 16 24 16H32C36.4183 16 40 19.5817 40 24C40 28.4183 36.4183 32 32 32H24C19.5817 32 16 28.4183 16 24Z" fill="black"/>
<path d="M32 32C32 27.5817 35.5817 24 40 24H48C52.4183 24 56 27.5817 56 32C56 36.4183 52.4183 40 48 40H40C35.5817 40 32 36.4183 32 32Z" fill="black"/>
<path d="M16 40C16 35.5817 19.5817 32 24 32H64C68.4183 32 72 35.5817 72 40C72 44.4183 68.4183 48 64 48H24C19.5817 48 16 44.4183 16 40Z" fill="black"/>
<path d="M64 48C64 43.5817 67.5817 40 72 40H80C84.4183 40 88 43.5817 88 48C88 52.4183 84.4183 56 80 56H72C67.5817 56 64 52.4183 64 48Z" fill="black"/>
<path d="M16 56C16 51.5817 19.5817 48 24 48H96C100.418 48 104 51.5817 104 56C104 60.4183 100.418 64 96 64H24C19.5817 64 16 60.4183 16 56Z" fill="black"/>
<path d="M96 64C96 59.5817 99.5817 56 104 56H112C116.418 56 120 59.5817 120 64C120 68.4183 116.418 72 112 72H104C99.5817 72 96 68.4183 96 64Z" fill="black"/>
<path d="M16 72C16 67.5817 19.5817 64 24 64H96C100.418 64 104 67.5817 104 72C104 76.4183 100.418 80 96 80H24C19.5817 80 16 76.4183 16 72Z" fill="black"/>
<path d="M64 80C64 75.5817 67.5817 72 72 72H80C84.4183 72 88 75.5817 88 80C88 84.4183 84.4183 88 80 88H72C67.5817 88 64 84.4183 64 80Z" fill="black"/>
<path d="M16 88C16 83.5817 19.5817 80 24 80H64C68.4183 80 72 83.5817 72 88C72 92.4183 68.4183 96 64 96H24C19.5817 96 16 92.4183 16 88Z" fill="black"/>
<path d="M32 96C32 91.5817 35.5817 88 40 88H48C52.4183 88 56 91.5817 56 96C56 100.418 52.4183 104 48 104H40C35.5817 104 32 100.418 32 96Z" fill="black"/>
<path d="M16 104C16 99.5817 19.5817 96 24 96H32C36.4183 96 40 99.5817 40 104C40 108.418 36.4183 112 32 112H24C19.5817 112 16 108.418 16 104Z" fill="black"/>
</svg>
