<?xml version="1.0" encoding="UTF-8"?>
<svg id="Layer_2" xmlns="http://www.w3.org/2000/svg" width="551.88858" height="302.54317" viewBox="0 0 551.88858 302.54317">
  <defs>
    <style>
      .cls-1 {
        fill: #fff;
        stroke: #000;
        stroke-miterlimit: 10;
        stroke-width: 3.95185px;
      }
    </style>
  </defs>
  <g id="Ebene_1">
    <g>
      <path class="cls-1" d="M533.17519,140.44108h-15.873c-.02701-1.25425-.1891-2.48148-.47854-3.67012.31646-1.31986.4824-2.69374.4824-4.0985,0-1.37003-.16595-2.71304-.4824-4.00588.31646-1.316.4824-2.68988.4824-4.09464,0-1.38546-.16981-2.74005-.49398-4.04447.32417-1.316.49398-2.67444.49398-4.05605,0-1.40476-.16595-2.77864-.4824-4.0985.31646-1.29284.4824-2.63585.4824-4.00588,0-1.40476-.16595-2.77864-.4824-4.09464.31646-1.29284.4824-2.63585.4824-4.00588,0-1.40476-.16595-2.77864-.4824-4.09464.31646-1.29284.4824-2.63585.4824-4.00588,0-1.42791-.16209-2.80952-.47468-4.12937.3126-1.28512.47468-2.61656.47468-3.975,0-1.43563-.16595-2.82495-.4824-4.14867.31646-1.32371.4824-2.71304.4824-4.14867,0-6.65331-3.94799-12.39969-9.62105-15.02397-2.62427-5.6692-8.37066-9.61719-15.02011-9.61719h-8.10051c-6.75365,0-12.58494,3.97114-15.22465,9.67508-1.94505.90692-3.6817,2.17274-5.12891,3.71258-1.44721-1.53983-3.18386-2.80566-5.12891-3.71258-2.63971-5.70394-8.471-9.67508-15.22465-9.67508h-8.10051c-6.64945,0-12.39583,3.94799-15.02011,9.61719-.66765.30874-1.31214.65993-1.92575,1.05357-2.37342-6.23265-8.40925-10.67076-15.46006-10.67076h-40.70711c-9.11935,0-16.54064,7.42129-16.54064,16.54064,0,9.22741,7.42129,16.7336,16.54064,16.7336h15.873c.02701,1.24267.19682,2.4699.5017,3.66626-.33189,1.32757-.50556,2.70532-.50556,4.10236,0,1.36617.17367,2.71689.51328,4.02903-.33575,1.32757-.51328,2.6976-.51328,4.07148,0,1.37774.17752,2.73619.521,4.05605-.33961,1.33143-.521,2.69374-.521,4.04447,0,1.37774.17752,2.74005.521,4.05605-.33961,1.33143-.521,2.6976-.521,4.04833,0,1.3816.17367,2.73233.51714,4.05605-.33961,1.316-.51714,2.67058-.51714,4.04447s.17752,2.74391.51328,4.07148c-.33961,1.31214-.51328,2.66287-.51328,4.02903,0,1.35073.18138,2.71689.521,4.04833-.31646,1.2118-.49012,2.45833-.51714,3.72029h-11.27762c-.04631-1.16259-.19296-2.31071-.4853-3.42699.34347-1.32371.52485-2.69374.52485-4.06762,0-1.37003-.18138-2.72461-.52485-4.03289.34347-1.32757.52485-2.69374.52485-4.06762s-.18138-2.72847-.52485-4.03675c.39364-1.5051.52485-2.89056.52485-4.06376,0-1.37388-.18138-2.74391-.52485-4.06762.34347-1.31214.52485-2.66287.52485-4.03675,0-9.22741-7.50619-16.7336-16.7336-16.7336-2.83267,0-5.4994.72553-7.83423,1.99908.04245-.4824.06561-.97252.06561-1.46651,0-1.42791-.16209-2.80952-.47854-4.12937.31646-1.28512.47854-2.61656.47854-3.975,0-6.72277-3.94027-12.53477-9.60947-15.18991-1.64789-3.58136-4.53845-6.47578-8.11595-8.13139-2.62427-5.6692-8.3668-9.61719-15.01625-9.61719h-32.6066c-6.64945,0-12.39197,3.94799-15.01625,9.61719-.43513.20164-.82394.47565-1.23785.71299-.61748-.39364-1.23688-.78825-1.90742-1.09891-2.62427-5.6692-8.37066-9.61719-15.02011-9.61719h-8.10051c-6.75365,0-12.58494,3.97114-15.22465,9.67508-.6059.28558-1.18864.60204-1.75209.94937-2.4014-6.17669-8.45074-10.57621-15.52952-10.61673.20261-.36373.44574-.70093.62134-1.08058,3.56978-1.65175,6.45648-4.53845,8.10823-8.10823,3.55049-1.64017,6.42175-4.50758,8.07736-8.05034,5.79656-2.60112,9.84103-8.37452,9.84103-15.06642,0-9.22741-7.51005-16.73746-16.73746-16.73746-6.0011,0-11.26508,3.24947-14.16336,8.10051h-85.29661c-2.89828-4.85105-8.16226-8.10051-14.16336-8.10051-6.70348,0-12.50003,3.96342-15.17062,9.66736-3.55435,1.66719-6.43333,4.54617-8.09666,8.10051-3.56207,1.66333-6.44105,4.54617-8.10437,8.10437-3.61224,1.69034-6.52595,4.63107-8.1777,8.2626-3.55435,1.65175-6.42947,4.53073-8.07736,8.0928-3.56592,1.64789-6.44877,4.53073-8.09666,8.09666-5.67692,2.62427-9.62491,8.37066-9.62491,15.02397,0,9.22741,7.42129,16.7336,16.54064,16.7336,6.79224,0,12.6544-4.06762,15.27482-9.89505,3.55049-1.67104,6.41403-4.54617,8.0542-8.08122,3.54663-1.65947,6.41789-4.51143,8.06578-8.03491,3.06037-1.40476,5.61903-3.72029,7.32867-6.59156h1.98364c6.03969,0,11.33455-3.25719,14.22125-8.10437h1.65175c.01158.53257.04631,1.06129.10806,1.58614-2.92143,1.70578-5.2717,4.27988-6.69576,7.36726-5.67306,2.62041-9.62105,8.37066-9.62105,15.02011,0,.62905.03473,1.25039.10034,1.86787-3.01406,1.7135-5.43765,4.33005-6.89258,7.47146-5.67306,2.65129-9.60947,8.35908-9.60947,14.96222,0,.67536.03859,1.34301.11578,2.00294-4.91279,2.91757-8.21629,8.27804-8.21629,14.39877,0,.6059.03473,1.2118.1042,1.80998-2.86355,1.70192-5.17908,4.23357-6.61085,7.26306-5.71551,2.63585-9.69823,8.47486-9.69823,15.23236,0,.64449.03859,1.28512.11578,1.91804-2.42745,1.4202-4.46126,3.43857-5.8969,5.85059h-26.28905c-9.22741,0-16.73746,7.41743-16.73746,16.53678,0,9.22741,7.51005,16.73746,16.73746,16.73746h89.31406c9.11935,0,16.54064-7.51005,16.54064-16.73746,0-9.11935-7.42129-16.53678-16.54064-16.53678h-15.86914c-.01158-.52485-.05017-1.05357-.11578-1.58228,2.92143-1.70578,5.2717-4.27988,6.69962-7.36726,5.67306-2.62427,9.62105-8.37066,9.62105-15.02011,0-.64835-.03473-1.28898-.1042-1.92575,4.90508-2.87126,8.20857-8.197,8.20857-14.27914,0-.65993-.03473-1.31214-.1042-1.94891,2.87512-1.70578,5.19838-4.26059,6.62629-7.32481,5.70394-2.64357,9.67894-8.47486,9.67894-15.2285,0-.62905-.03473-1.25039-.1042-1.86401,3.01406-1.71736,5.44151-4.33777,6.89644-7.48304,5.67306-2.64743,9.60947-8.35908,9.60947-14.95836,0-.65993-.04245-1.316-.1235-1.96821,2.41588-1.41634,4.44197-3.41541,5.8776-5.80042h11.5468c-.15823.29716-.3126.59818-.45539.90692-3.38068,1.57891-6.10819,4.27023-7.79081,7.56408-6.82408,2.08784-11.82949,8.30988-11.82949,15.7302,0,9.22741,7.51005,16.7336,16.73746,16.7336h15.873c.02316,1.24267.18524,2.46219.47083,3.63925-.3126,1.31986-.47468,2.70146-.47468,4.12937,0,1.37003.16595,2.71304.4824,4.00588-.31646,1.316-.4824,2.68988-.4824,4.09464,0,1.37003.16595,2.71304.4824,4.00588-.31646,1.316-.4824,2.68988-.4824,4.09464,0,1.37003.16595,2.71304.4824,4.00588-.31646,1.31986-.4824,2.69374-.4824,4.0985,0,1.3816.16981,2.74005.49398,4.05605-.32417,1.30442-.49398,2.65901-.49398,4.04447,0,1.40476.16595,2.77864.4824,4.09464-.31646,1.29284-.4824,2.63585-.4824,4.00588,0,1.40476.16595,2.77864.4824,4.0985-.28944,1.18864-.45153,2.41588-.47854,3.67012h-15.873c-9.22741,0-16.73746,7.41743-16.73746,16.53678,0,9.22741,7.51005,16.73746,16.73746,16.73746h81.21355c7.08457,0,13.09532-4.55485,15.44655-10.90424.85192.6223,1.74148,1.19443,2.70339,1.64596,2.5934,5.74253,8.27804,9.64421,15.03168,9.64421h16.40171c7.00449,0,13.00559-4.43039,15.41375-10.6669.5866.37049,1.19636.70238,1.82927.99954,2.66672,5.70394,8.46328,9.66736,15.16676,9.66736h16.20103c3.89878,0,7.46857-1.39607,10.30027-3.68942,2.76996,2.11437,6.17476,3.41541,9.90277,3.41541h56.90814c2.94073,0,5.70779-.78342,8.10051-2.14959,2.39658,1.36617,5.16364,2.14959,8.10437,2.14959h32.40592c2.99862,0,5.78884-.75255,8.20085-2.08012,2.41202,1.32757,5.20224,2.08012,8.20085,2.08012h48.61081c9.22741,0,16.73746-7.51005,16.73746-16.73746,0-9.11935-7.51005-16.53678-16.73746-16.53678ZM262.40805,109.82971c-5.67306,2.62041-9.61719,8.3668-9.61719,15.01625,0,1.40476.16595,2.77864.4824,4.09464-.31646,1.29284-.4824,2.63585-.4824,4.00588,0,1.40476.16595,2.77864.4824,4.0985-.31646,1.29284-.4824,2.63585-.4824,4.00588,0,.603.04535,1.19588.10516,1.78489-2.52393-1.56106-5.46949-2.50657-8.64949-2.50657h-23.97351c-.02701-1.25811-.20454-2.49692-.521-3.701.34347-1.32371.52485-2.69374.52485-4.06762,0-1.37003-.18138-2.72461-.52485-4.03289.34347-1.32757.52485-2.69374.52485-4.06762s-.18138-2.72847-.52485-4.03675c.39364-1.5051.52485-2.89056.52485-4.06376,0-1.37388-.18138-2.74391-.52485-4.06762.31646-1.20408.49398-2.44675.521-3.70486,6.51051-.12735,12.11025-4.03675,14.68821-9.61719.38978-.17752.76799-.37049,1.13847-.57888.33189.18524.67536.36277,1.02269.52485,2.64357,5.70394,8.47486,9.67508,15.2285,9.67508,2.96581,0,5.72999-.81912,8.14007-2.19204.93297.59287,1.92382,1.10326,2.97064,1.50124-.39364.61748-.74483,1.26197-1.05357,1.92961ZM301.40939,91.90746h-7.57952c-.52871,0-1.04971.02701-1.56299.07333,1.16163-2.1959,1.84085-4.67738,1.89488-7.30937h7.24377c.02701,1.23495.19682,2.45447.50556,3.63925-.2933,1.15777-.46311,2.36185-.5017,3.5968ZM427.80289,128.66659c-.31646,1.29284-.4824,2.63585-.4824,4.00588,0,1.40476.16595,2.77864.4824,4.0985-.31646,1.29284-.4824,2.63585-.4824,4.00588,0,.55573.02701,1.10374.07718,1.64789-2.24607-1.21566-4.80088-1.92575-7.51391-1.97978-.02701-1.26197-.20068-2.51236-.51714-3.72415.33961-1.33143.521-2.6976.521-4.04833,0-1.36617-.17367-2.71689-.51328-4.02903.33575-1.32757.51328-2.6976.51328-4.07148s-.17752-2.72847-.51714-4.04447c.34347-1.32371.51714-2.67444.51714-4.05605,0-1.35073-.18138-2.71689-.521-4.04833.31646-1.2118.49012-2.46219.51714-3.72415,2.71304-.05403,5.26784-.76413,7.51391-1.97978-.05017.54415-.07718,1.09216-.07718,1.64789,0,1.37003.16595,2.71304.4824,4.00588-.31646,1.31986-.4824,2.69374-.4824,4.0985,0,1.3816.16981,2.74005.49398,4.05605-.32417,1.30442-.49398,2.65901-.49398,4.04447,0,1.40476.16595,2.77864.4824,4.09464ZM476.45615,120.5352c-.34347,1.30828-.52485,2.66287-.52485,4.03675s.18138,2.74005.52485,4.06762c-.34347,1.30828-.52485,2.65901-.52485,4.03289s.18138,2.74391.52485,4.06762c-.34347,1.30828-.52485,2.66287-.52485,4.03675,0,.53643.02701,1.06901.08104,1.60158-2.1959-1.15777-4.68124-1.84857-7.32095-1.92961-.02701-1.25811-.20454-2.50078-.521-3.70872.34347-1.32371.52485-2.69374.52485-4.06762,0-1.37003-.18138-2.72461-.52485-4.03289.34347-1.32757.52485-2.69374.52485-4.06762s-.18138-2.72847-.52485-4.03675c.39364-1.5051.52485-2.89056.52485-4.06376,0-1.37388-.18138-2.74391-.52485-4.06762.31646-1.20794.49398-2.45061.521-3.70872,2.63971-.08104,5.12505-.77185,7.32095-1.92961-.05403.53257-.08104,1.06515-.08104,1.60158,0,1.37388.18138,2.72847.52485,4.03675-.34347,1.32371-.52485,2.69374-.52485,4.06762,0,1.1732.13121,2.55867.52485,4.06376Z"/>
      <g>
        <path d="M210.78252,26.8157c0,2.96389-2.36956,5.33345-5.33345,5.33345h-3.36139c.3975.79114.59432,1.7791.59432,2.76706,0,2.96389-2.37342,5.33731-5.33731,5.33731h-3.35753c.39364.78728.59046,1.7791.59046,2.76706,0,2.96389-2.36956,5.33345-5.33345,5.33345s-5.53413-2.36956-5.53413-5.33345c0-1.58228.79114-3.16457,1.97592-4.15253-1.18478-.98796-1.97592-2.36956-1.97592-3.95185,0-.98796.3975-1.97592.79114-2.76706h-39.32165c.39364.79114.78728,1.7791.78728,2.76706,0,2.96389-2.56639,5.33731-5.53027,5.33731h-3.36139c.3975.78728.79114,1.7791.79114,2.76706,0,1.57842-.79114,2.96389-1.97592,3.95185,1.18478.98796,1.97592,2.56639,1.97592,4.14867,0,2.96389-2.57024,5.33345-5.53413,5.33345h-3.35753c.39364.79114.79114,1.7791.79114,2.76706,0,2.96389-2.57024,5.33731-5.53413,5.33731h-3.35753c.39364.78728.59046,1.77524.59046,2.76706,0,1.57842-.59046,3.16071-1.7791,4.14867,1.18864.98796,1.7791,2.36956,1.7791,3.95185,0,2.96389-2.36956,5.53413-5.33345,5.53413h-3.36139c.3975.78728.59432,1.57842.59432,2.56639,0,2.96389-2.37342,5.53413-5.33731,5.53413h-3.35753c.39364.79114.59432,1.57842.59432,2.56639,0,1.7791-.59432,3.16457-1.7791,4.15253,1.18478.98796,1.7791,2.36956,1.7791,4.14867,0,2.96389-2.37342,5.33345-5.33731,5.33345h-3.55821c.59432.79114.79114,1.7791.79114,2.76706,0,1.58228-.59046,2.96389-1.7791,3.95185,1.18864.98796,1.7791,2.57024,1.7791,4.15253,0,2.96389-2.36956,5.33345-5.33345,5.33345h-3.55821c.59432.79114.79114,1.7791.79114,2.76706,0,2.96389-2.37342,5.33345-5.33731,5.33345h-3.55435c.59046.79114.79114,1.7791.79114,2.76706,0,1.58228-.79114,2.96389-1.7791,3.95185.98796.98796,1.7791,2.57024,1.7791,4.15253,0,2.96389-2.37342,5.33345-5.33731,5.33345h-3.55821c.59432.79114.79114,1.7791.79114,2.76706s-.19682,1.97592-.79114,2.76706h35.96412c2.96389,0,5.33731,2.36956,5.33731,5.33345s-2.37342,5.53413-5.33731,5.53413H18.71271c-2.96389,0-5.53413-2.57024-5.53413-5.53413s2.57024-5.33345,5.53413-5.33345h35.96412c-.59432-.79114-.79114-1.7791-.79114-2.76706,0-2.96389,2.36956-5.33345,5.33345-5.33345h3.55821c-.59432-.79114-.79114-1.7791-.79114-2.76706,0-1.58228.79114-3.16457,1.7791-4.15253-.98796-.98796-1.7791-2.36956-1.7791-3.95185,0-2.96389,2.37342-5.53027,5.33731-5.53027h3.55435c-.59046-.79114-.79114-1.58228-.79114-2.57024,0-2.96389,2.37342-5.53413,5.53413-5.53413h3.36139c-.3975-.78728-.79114-1.57842-.79114-2.56639,0-1.58228.79114-3.16457,1.97592-4.15253-1.18478-.98796-1.97592-2.36956-1.97592-3.95185,0-3.16071,2.56639-5.53027,5.53027-5.53027h3.36139c-.3975-.79114-.79114-1.7791-.79114-2.57024,0-1.7791.79114-3.16071,1.97592-4.14867-1.18478-.98796-1.97592-2.37342-1.97592-4.15253,0-2.96389,2.57024-5.33345,5.53413-5.33345h3.35753c-.39364-.79114-.79114-1.7791-.79114-2.76706,0-2.96389,2.57024-5.33345,5.53413-5.33345h3.36139c-.3975-.79114-.59432-1.7791-.59432-2.76706,0-1.58228.59432-2.96389,1.7791-3.95185-1.18478-.98796-1.7791-2.57024-1.7791-4.14867,0-2.96774,2.36956-5.33731,5.33345-5.33731h3.36139c-.3975-.79114-.59432-1.7791-.59432-2.76706,0-2.96389,2.37342-5.33345,5.33731-5.33345h3.35753c-.39364-.79114-.59046-1.7791-.59046-2.76706,0-1.58228.59046-3.16071,1.77524-4.14867-1.18478-.98796-1.77524-2.37342-1.77524-3.95185,0-2.96774,2.36956-5.53413,5.33345-5.53413h3.55821c-.59432-.79114-.79114-1.58228-.79114-2.57024s.19682-1.97592.79114-2.76706h-31.42182c.59432.79114.79114,1.7791.79114,2.76706,0,2.96389-2.36956,5.33731-5.33345,5.33731h-8.10437c-2.96389,0-5.53027-2.37342-5.53027-5.33731s2.56639-5.53413,5.53027-5.53413h3.36139c-.3975-.78728-.79114-1.57842-.79114-2.56639,0-2.96389,2.57024-5.53413,5.53413-5.53413h3.35753c-.39364-.79114-.79114-1.57842-.79114-2.56639,0-3.16457,2.57024-5.53413,5.53413-5.53413s5.33731,2.36956,5.33731,5.53413c0,.98796-.20068,1.77524-.59432,2.56639h100.77982c2.96389,0,5.33345,2.57024,5.33345,5.53413ZM45.78132,67.32599c0-2.96774,2.37342-5.33731,5.33731-5.33731s5.53413,2.36956,5.53413,5.33731c0,2.96389-2.57024,5.53027-5.53413,5.53027s-5.33731-2.56639-5.33731-5.53027ZM53.88569,59.22161c0-2.96389,2.36956-5.33345,5.33345-5.33345s5.53413,2.36956,5.53413,5.33345-2.57024,5.33731-5.53413,5.33731-5.33345-2.37342-5.33345-5.33731ZM61.98621,51.1211c0-2.96389,2.37342-5.33731,5.33731-5.33731,3.16071,0,5.53027,2.37342,5.53027,5.33731s-2.36956,5.33345-5.53027,5.33345c-2.96389,0-5.33731-2.36956-5.33731-5.33345ZM70.08672,43.02059c0-2.96774,2.37342-5.53413,5.53413-5.53413,2.96389,0,5.33731,2.56639,5.33731,5.53413,0,2.96389-2.37342,5.33345-5.33731,5.33345-3.16071,0-5.53413-2.36956-5.53413-5.33345ZM170.27222,67.32599c0,2.96389-2.36956,5.53027-5.33345,5.53027-3.16071,0-5.53413-2.56639-5.53413-5.53027,0-2.96774,2.37342-5.33731,5.53413-5.33731,2.96389,0,5.33345,2.36956,5.33345,5.33731ZM178.3766,59.22161c0,2.96389-2.37342,5.33731-5.33731,5.33731s-5.53027-2.37342-5.53027-5.33731,2.56639-5.33345,5.53027-5.33345,5.33731,2.36956,5.33731,5.33345ZM186.47711,51.1211c0,2.96389-2.36956,5.33345-5.33345,5.33345s-5.53413-2.36956-5.53413-5.33345,2.57024-5.33731,5.53413-5.33731,5.33345,2.37342,5.33345,5.33731ZM219.08371,18.71518c0,2.96389-2.57024,5.33345-5.53413,5.33345s-5.33731-2.36956-5.33731-5.33345c0-3.16457,2.37342-5.53413,5.33731-5.53413s5.53413,2.36956,5.53413,5.53413Z"/>
        <path d="M249.58289,156.86545c0,3.16457-2.37342,5.53413-5.33731,5.53413h-81.21355c-2.96389,0-5.53413-2.36956-5.53413-5.53413,0-2.96389,2.57024-5.33345,5.53413-5.33345h27.66293c-.39364-.79114-.59046-1.7791-.59046-2.76706,0-1.58228.59046-2.96389,1.7791-3.95185-1.18864-.98796-1.7791-2.57024-1.7791-4.14867,0-1.58228.59046-2.96389,1.7791-3.95185-1.18864-.98796-1.7791-2.57024-1.7791-4.15253,0-1.57842.59046-2.96389,1.7791-3.95185-1.18864-.98796-1.7791-2.56639-1.7791-4.14867s.59046-2.96389,1.7791-3.95185c-1.18864-1.18478-1.7791-2.57024-1.7791-4.14867,0-1.58228.59046-3.16457,1.7791-4.15253-1.18864-.98796-1.7791-2.36956-1.7791-3.95185,0-1.57842.59046-3.16071,1.7791-4.14867-1.18864-.98796-1.7791-2.36956-1.7791-3.95185s.59046-3.16071,1.7791-4.14867c-1.18864-.98796-1.7791-2.37342-1.7791-3.95185,0-1.7791.59046-3.16457,1.7791-4.15253-1.18864-.98796-1.7791-2.36956-1.7791-3.95185,0-1.77524.59046-3.16071,1.7791-4.14867-1.18864-.98796-1.7791-2.36956-1.7791-4.14867,0-.98796.19682-1.7791.59046-2.57024h-27.66293c-2.96389,0-5.53413-2.36956-5.53413-5.53027,0-2.96774,2.57024-5.33731,5.53413-5.33731h40.51029c2.96389,0,5.53027,2.36956,5.53027,5.33731,0,1.77524-.79114,3.16071-1.97592,4.14867,1.18478.98796,1.97592,2.36956,1.97592,3.95185,0,1.7791-.79114,3.16071-1.97592,4.14867,1.18478.98796,1.97592,2.37342,1.97592,4.14867,0,.98796-.39364,1.7791-.79114,2.57024h11.65872c2.96389,0,5.33731,2.57024,5.33731,5.53413s-2.37342,5.33345-5.33731,5.33345h-11.65872c.3975.79114.79114,1.7791.79114,2.76706,0,1.58228-.79114,2.96389-1.97592,3.95185,1.18478.98796,1.97592,2.57024,1.97592,4.14867,0,1.58228-.79114,2.96389-1.97592,3.95185,1.18478.98796,1.97592,2.57024,1.97592,4.15253,0,1.57842-.79114,2.96389-1.97592,4.14867,1.18478.98796,1.97592,2.36956,1.97592,3.95185s-.79114,3.16071-1.97592,4.14867c1.18478.98796,1.97592,2.37342,1.97592,3.95185,0,1.58228-.79114,3.16457-1.97592,4.15253,1.18478.98796,1.97592,2.36956,1.97592,3.95185,0,1.57842-.79114,3.16071-1.97592,4.14867,1.18478.98796,1.97592,2.36956,1.97592,3.95185,0,.98796-.39364,1.97592-.79114,2.76706h35.96412c2.96389,0,5.33731,2.36956,5.33731,5.33345ZM224.28953,79.80057c-.98796-.98796-1.7791-2.36956-1.7791-4.14867,0-2.96389,2.36956-5.33731,5.53413-5.33731,2.96389,0,5.33345,2.37342,5.33345,5.33731,0,1.7791-.79114,3.16071-1.7791,4.14867.98796.98796,1.7791,2.37342,1.7791,4.14867,0,2.96389-2.36956,5.33731-5.33345,5.33731-3.16457,0-5.53413-2.37342-5.53413-5.33731,0-1.77524.79114-3.16071,1.7791-4.14867ZM230.61094,67.55139c0-2.96774,2.57024-5.33731,5.53413-5.33731h8.10051c2.96389,0,5.33731,2.36956,5.33731,5.33731,0,3.16071-2.37342,5.53027-5.33731,5.53027h-8.10051c-2.96389,0-5.53413-2.36956-5.53413-5.53027ZM265.78778,83.94924c0,2.96389-2.37342,5.33731-5.33731,5.33731-1.58228,0-3.16071-.79114-4.14867-1.7791q-.19682.19682-.3975.39364c1.18864.98796,1.7791,2.37342,1.7791,4.15253,0,2.96389-2.36956,5.33345-5.33345,5.33345s-5.53413-2.36956-5.53413-5.33345c0-1.7791.79114-3.16457,1.97592-4.15253q-.39364-.19682-.59432-.39364c-.98796.98796-2.36956,1.7791-3.95185,1.7791-2.96389,0-5.53027-2.37342-5.53027-5.33731,0-3.16071,2.56639-5.53027,5.53027-5.53027,1.58228,0,2.96389.78728,3.95185,1.77524q.20068-.19682.59432-.39364c-1.18478-.98796-1.97592-2.36956-1.97592-4.14867,0-2.96389,2.57024-5.33731,5.53413-5.33731s5.33345,2.37342,5.33345,5.33731c0,1.7791-.59046,3.16071-1.7791,4.14867.20068.19682.3975.39364.3975.39364.98796-.98796,2.56639-1.77524,4.14867-1.77524,2.96389,0,5.33731,2.36956,5.33731,5.53027Z"/>
        <path d="M265.76902,88.28646l-.39364-.39364c-.98796.98796-2.57024,1.7791-4.14867,1.7791-2.96389,0-5.33731-2.37342-5.33731-5.33731,0-3.16071,2.37342-5.53027,5.33731-5.53027,1.57842,0,3.16071.78728,4.14867,1.77524l.39364-.39364c-1.18478-.98796-1.77524-2.36956-1.77524-4.14867,0-2.96389,2.36956-5.33731,5.33345-5.33731s5.53413,2.37342,5.53413,5.33731c0,1.7791-.79114,3.16071-1.97592,4.14867q.39364.19682.59046.39364c.98796-.98796,2.37342-1.77524,3.95185-1.77524,2.96389,0,5.53413,2.36956,5.53413,5.53027,0,2.96389-2.57024,5.33731-5.53413,5.33731-1.57842,0-2.96389-.79114-3.95185-1.7791q-.19682.19682-.59046.39364c1.18478.98796,1.97592,2.37342,1.97592,4.15253,0,2.96389-2.57024,5.33345-5.53413,5.33345s-5.33345-2.36956-5.33345-5.33345c0-1.7791.59046-3.16457,1.77524-4.15253ZM297.38765,153.29898c.98796.98796,1.7791,2.37342,1.7791,3.95185,0,3.16457-2.37342,5.53413-5.33731,5.53413h-16.40171c-2.96389,0-5.33345-2.36956-5.33345-5.53413,0-.98796.19682-1.7791.79114-2.56639h-3.55821c-2.96389,0-5.33345-2.57024-5.33345-5.53413,0-1.58228.59046-2.96389,1.77524-3.95185-1.18478-.98796-1.77524-2.57024-1.77524-4.14867,0-1.58228.59046-2.96389,1.77524-3.95185-1.18478-.98796-1.77524-2.57024-1.77524-4.15253,0-1.57842.59046-2.96389,1.77524-3.95185-1.18478-.98796-1.77524-2.56639-1.77524-4.14867,0-2.96389,2.36956-5.33345,5.33345-5.33345h3.55821c-.59432-.79114-.79114-1.7791-.79114-2.76706,0-2.96389,2.36956-5.33731,5.33345-5.33731h8.10437c3.16071,0,5.53027,2.37342,5.53027,5.33731s-2.36956,5.33345-5.53027,5.33345h-3.36139c.3975.79114.79114,1.7791.79114,2.76706,0,1.58228-.79114,3.16071-1.97592,4.14867,1.18478.98796,1.97592,2.37342,1.97592,3.95185,0,1.58228-.79114,3.16457-1.97592,4.15253,1.18478.98796,1.97592,2.36956,1.97592,3.95185,0,1.57842-.79114,3.16071-1.97592,4.14867,1.18478.98796,1.97592,2.36956,1.97592,3.95185,0,.98796-.39364,1.97592-.79114,2.76706h6.91573c-.59046-.79114-.78728-1.7791-.78728-2.76706,0-2.96389,2.36956-5.33345,5.53027-5.33345,2.96389,0,5.33731,2.36956,5.33731,5.33345,0,1.7791-.79114,3.16071-1.7791,4.14867ZM272.09429,67.93676c0-2.96774,2.36956-5.33731,5.33345-5.33731h32.6066c2.96389,0,5.33345,2.36956,5.33345,5.33731,0,3.16071-2.36956,5.53027-5.33345,5.53027h-32.6066c-2.96389,0-5.33345-2.36956-5.33345-5.53027ZM347.77756,157.25083c0,3.16457-2.37342,5.53413-5.33731,5.53413h-16.20103c-2.96389,0-5.53413-2.36956-5.53413-5.53413,0-.98796.39364-1.7791.79114-2.56639h-3.36139c-2.96389,0-5.53027-2.57024-5.53027-5.53413,0-.98796.39364-1.7791.78728-2.57024h-11.45804c-3.16457,0-5.53413-2.56639-5.53413-5.53027s2.36956-5.33731,5.53413-5.33731h11.45804c-.39364-.79114-.78728-1.7791-.78728-2.76706,0-1.57842.78728-2.96389,1.97592-3.95185-1.18864-.98796-1.97592-2.56639-1.97592-4.14867s.78728-2.96389,1.97592-3.95185c-1.18864-1.18478-1.97592-2.57024-1.97592-4.14867,0-.98796.39364-1.97592.78728-2.76706h-19.56242c-3.16071,0-5.53027-2.37342-5.53027-5.33731s2.36956-5.53027,5.53027-5.53027h19.56242c-.39364-.79114-.78728-1.58228-.78728-2.57024,0-1.58228.78728-3.16071,1.97592-4.14867-1.18864-.98796-1.97592-2.37342-1.97592-3.95185,0-1.7791.78728-3.16457,1.97592-4.15253-1.18864-.98796-1.97592-2.36956-1.97592-3.95185,0-1.77524.78728-3.16071,1.97592-4.14867-1.18864-.98796-1.97592-2.36956-1.97592-4.14867,0-2.96389,2.56639-5.33731,5.53027-5.33731s5.33731,2.37342,5.33731,5.33731c0,.98796-.19682,1.97592-.59432,2.76706h3.36139c2.96389,0,5.33345,2.36956,5.33345,5.53027,0,1.58228-.59432,2.96389-1.7791,3.95185,1.18478.98796,1.7791,2.37342,1.7791,4.15253,0,1.57842-.59432,2.96389-1.7791,3.95185,1.18478.98796,1.7791,2.56639,1.7791,4.14867s-.59432,2.96389-1.7791,3.95185c1.18478.98796,1.7791,2.57024,1.7791,4.14867,0,1.58228-.59432,2.96389-1.7791,3.95185,1.18478.98796,1.7791,2.57024,1.7791,4.15253,0,1.57842-.59432,2.96389-1.7791,4.14867,1.18478.98796,1.7791,2.36956,1.7791,3.95185s-.59432,3.16071-1.7791,4.14867c1.18478.98796,1.7791,2.37342,1.7791,3.95185,0,1.58228-.59432,3.16457-1.7791,4.15253,1.18478.98796,1.7791,2.36956,1.7791,3.95185,0,1.57842-.59432,3.16071-1.7791,4.14867,1.18478.98796,1.7791,2.36956,1.7791,3.95185,0,.98796-.19682,1.97592-.59432,2.76706h11.4619c2.96389,0,5.33731,2.36956,5.33731,5.33345ZM354.09898,120.89306c1.18478.98796,1.97592,2.36956,1.97592,3.95185s-.79114,3.16071-1.97592,4.14867c1.18478.98796,1.97592,2.37342,1.97592,3.95185,0,1.58228-.79114,3.16457-1.97592,4.15253,1.18478.98796,1.97592,2.36956,1.97592,3.95185,0,1.57842-.79114,3.16071-1.97592,4.14867,1.18478.98796,1.97592,2.36956,1.97592,3.95185,0,2.96389-2.56639,5.53413-5.53027,5.53413s-5.33731-2.57024-5.33731-5.53413c0-1.58228.59432-2.96389,1.7791-3.95185-1.18478-.98796-1.7791-2.57024-1.7791-4.14867,0-1.58228.59432-2.96389,1.7791-3.95185-1.18478-.98796-1.7791-2.57024-1.7791-4.15253,0-1.57842.59432-2.96389,1.7791-3.95185-1.18478-.98796-1.7791-2.56639-1.7791-4.14867s.59432-2.96389,1.7791-3.95185c-1.18478-1.18478-1.7791-2.57024-1.7791-4.14867,0-1.58228.59432-3.16457,1.7791-4.15253-1.18478-.98796-1.7791-2.36956-1.7791-3.95185,0-2.96389,2.37342-5.53027,5.33731-5.53027s5.53027,2.56639,5.53027,5.53027c0,1.58228-.79114,2.96389-1.97592,3.95185,1.18478.98796,1.97592,2.57024,1.97592,4.15253,0,1.57842-.79114,2.96389-1.97592,4.14867Z"/>
        <path d="M424.88842,92.16686c0,2.96389-2.37342,5.33345-5.33731,5.33345h-11.65872c.59432.79114.79114,1.7791.79114,2.76706,0,1.58228-.79114,2.96389-1.7791,3.95185.98796.98796,1.7791,2.57024,1.7791,4.14867,0,1.58228-.79114,2.96389-1.7791,3.95185.98796.98796,1.7791,2.57024,1.7791,4.15253,0,1.57842-.79114,2.96389-1.7791,4.14867.98796.98796,1.7791,2.36956,1.7791,3.95185s-.79114,3.16071-1.7791,4.14867c.98796.98796,1.7791,2.37342,1.7791,3.95185,0,1.58228-.79114,3.16457-1.7791,4.15253.98796.98796,1.7791,2.36956,1.7791,3.95185,0,1.57842-.79114,3.16071-1.7791,4.14867.98796.98796,1.7791,2.36956,1.7791,3.95185,0,.98796-.19682,1.97592-.79114,2.76706h11.65872c2.96389,0,5.33731,2.36956,5.33731,5.33345,0,3.16457-2.37342,5.53413-5.33731,5.53413h-56.90814c-2.96389,0-5.33731-2.36956-5.33731-5.53413,0-2.96389,2.37342-5.33345,5.33731-5.33345h27.85975c-.39364-.79114-.78728-1.7791-.78728-2.76706,0-1.58228.78728-2.96389,1.77524-3.95185-.98796-.98796-1.77524-2.57024-1.77524-4.14867,0-1.58228.78728-2.96389,1.77524-3.95185-.98796-.98796-1.77524-2.57024-1.77524-4.15253,0-1.57842.78728-2.96389,1.77524-3.95185-.98796-.98796-1.77524-2.56639-1.77524-4.14867s.78728-2.96389,1.77524-3.95185c-.98796-1.18478-1.77524-2.57024-1.77524-4.14867,0-1.58228.78728-3.16457,1.77524-4.15253-.98796-.98796-1.77524-2.36956-1.77524-3.95185,0-1.57842.78728-3.16071,1.77524-4.14867-.98796-.98796-1.77524-2.36956-1.77524-3.95185s.78728-3.16071,1.77524-4.14867c-.98796-.98796-1.77524-2.37342-1.77524-3.95185,0-1.7791.78728-3.16457,1.77524-4.15253-.98796-.98796-1.77524-2.36956-1.77524-3.95185,0-1.77524.78728-3.16071,1.77524-4.14867-.98796-.98796-1.77524-2.36956-1.77524-4.14867,0-.98796.39364-1.7791.78728-2.57024h-27.85975c-2.96389,0-5.33731-2.36956-5.33731-5.53027,0-2.96774,2.37342-5.33731,5.33731-5.33731h40.70711c2.96389,0,5.33345,2.36956,5.33345,5.33731,0,1.77524-.79114,3.16071-1.7791,4.14867.98796.98796,1.7791,2.36956,1.7791,3.95185,0,1.7791-.79114,3.16071-1.7791,4.14867.98796.98796,1.7791,2.37342,1.7791,4.14867,0,.98796-.19682,1.7791-.79114,2.57024h11.65872c2.96389,0,5.33731,2.57024,5.33731,5.53413ZM427.65162,89.3998c-2.96389,0-5.33345-2.37342-5.33345-5.33731,0-1.77524.59432-3.16071,1.7791-4.14867-1.18478-.98796-1.7791-2.36956-1.7791-4.14867,0-2.96389,2.36956-5.33731,5.33345-5.33731,2.96774,0,5.33731,2.37342,5.33731,5.33731,0,1.7791-.59432,3.16071-1.7791,4.14867,1.18478.98796,1.7791,2.37342,1.7791,4.14867,0,2.96389-2.36956,5.33731-5.33731,5.33731ZM456.70001,97.50031c.3975.79114.79114,1.7791.79114,2.76706,0,1.58228-.79114,2.96389-1.97592,3.95185,1.18478.98796,1.97592,2.57024,1.97592,4.14867,0,1.58228-.79114,2.96389-1.97592,3.95185,1.18478.98796,1.97592,2.57024,1.97592,4.15253,0,1.57842-.79114,2.96389-1.97592,4.14867,1.18478.98796,1.97592,2.36956,1.97592,3.95185s-.79114,3.16071-1.97592,4.14867c1.18478.98796,1.97592,2.37342,1.97592,3.95185,0,1.58228-.79114,3.16457-1.97592,4.15253,1.18478.98796,1.97592,2.36956,1.97592,3.95185,0,1.57842-.79114,3.16071-1.97592,4.14867,1.18478.98796,1.97592,2.36956,1.97592,3.95185,0,.98796-.39364,1.97592-.79114,2.76706h11.4619c3.16071,0,5.53413,2.36956,5.53413,5.33345,0,3.16457-2.37342,5.53413-5.53413,5.53413h-32.40592c-2.96389,0-5.33731-2.36956-5.33731-5.53413,0-2.96389,2.37342-5.33345,5.33731-5.33345h3.35753c-.39364-.79114-.59046-1.7791-.59046-2.76706,0-1.58228.59046-2.96389,1.7791-3.95185-1.18864-.98796-1.7791-2.57024-1.7791-4.14867,0-1.58228.59046-2.96389,1.7791-3.95185-1.18864-.98796-1.7791-2.57024-1.7791-4.15253,0-1.57842.59046-2.96389,1.7791-3.95185-1.18864-.98796-1.7791-2.56639-1.7791-4.14867s.59046-2.96389,1.7791-3.95185c-1.18864-1.18478-1.7791-2.57024-1.7791-4.14867,0-1.58228.59046-3.16457,1.7791-4.15253-1.18864-.98796-1.7791-2.36956-1.7791-3.95185,0-1.57842.59046-3.16071,1.7791-4.14867-1.18864-.98796-1.7791-2.36956-1.7791-3.95185s.59046-3.16071,1.7791-4.14867c-1.18864-.98796-1.7791-2.37342-1.7791-3.95185,0-1.7791.59046-3.16457,1.7791-4.15253-1.18864-.98796-1.7791-2.36956-1.7791-3.95185,0-1.77524.59046-3.16071,1.7791-4.14867-1.18864-.98796-1.7791-2.36956-1.7791-4.14867,0-.98796.19682-1.7791.59046-2.57024h-3.35753c-2.96389,0-5.33731-2.36956-5.33731-5.53027,0-2.96774,2.37342-5.33731,5.33731-5.33731h8.10051c2.96389,0,5.53413,2.36956,5.53413,5.33731,0,.98796-.3975,1.97592-.79114,2.76321h3.35753c2.96774,0,5.53413,2.37342,5.53413,5.33731,0,1.7791-.79114,3.16071-1.97592,4.14867,1.18478.98796,1.97592,2.37342,1.97592,4.14867,0,.98796-.39364,1.7791-.79114,2.57024h11.4619c3.16071,0,5.53413,2.57024,5.53413,5.53413s-2.37342,5.33345-5.53413,5.33345h-11.4619ZM476.46311,89.3998c-3.16457,0-5.53413-2.37342-5.53413-5.33731,0-1.77524.79114-3.16071,1.7791-4.14867-.98796-.98796-1.7791-2.36956-1.7791-4.14867,0-2.96389,2.36956-5.33731,5.53413-5.33731,2.96389,0,5.33345,2.37342,5.33345,5.33731,0,1.7791-.79114,3.16071-1.7791,4.14867.98796.98796,1.7791,2.37342,1.7791,4.14867,0,2.96389-2.36956,5.33731-5.33345,5.33731ZM538.70856,156.9787c0,3.16457-2.57024,5.53413-5.53413,5.53413h-48.61081c-3.16071,0-5.53413-2.36956-5.53413-5.53413,0-2.96389,2.37342-5.33345,5.53413-5.33345h3.35753c-.39364-.79114-.78728-1.7791-.78728-2.76706,0-1.58228.78728-2.96389,1.97592-3.95185-1.18864-.98796-1.97592-2.57024-1.97592-4.14867,0-1.58228.78728-2.96389,1.97592-3.95185-1.18864-.98796-1.97592-2.57024-1.97592-4.15253,0-1.57842.78728-2.96389,1.97592-3.95185-1.18864-.98796-1.97592-2.56639-1.97592-4.14867s.78728-2.96389,1.97592-3.95185c-1.18864-1.18478-1.97592-2.57024-1.97592-4.14867,0-1.58228.78728-3.16457,1.97592-4.15253-1.18864-.98796-1.97592-2.36956-1.97592-3.95185,0-1.57842.78728-3.16071,1.97592-4.14867-1.18864-.98796-1.97592-2.36956-1.97592-3.95185s.78728-3.16071,1.97592-4.14867c-1.18864-.98796-1.97592-2.37342-1.97592-3.95185,0-1.7791.78728-3.16457,1.97592-4.15253-1.18864-.98796-1.97592-2.36956-1.97592-3.95185,0-1.77524.78728-3.16071,1.97592-4.14867-1.18864-.98796-1.97592-2.36956-1.97592-4.14867,0-.98796.39364-1.7791.78728-2.57024h-3.35753c-3.16071,0-5.53413-2.36956-5.53413-5.53027,0-2.96774,2.37342-5.33731,5.53413-5.33731h8.10051c2.96389,0,5.33731,2.36956,5.33731,5.33731,0,.98796-.19682,1.97592-.79114,2.76321h3.55821c2.96389,0,5.33345,2.37342,5.33345,5.33731,0,1.7791-.59046,3.16071-1.7791,4.14867,1.18864.98796,1.7791,2.37342,1.7791,4.14867,0,1.58228-.59046,2.96389-1.7791,3.95185,1.18864.98796,1.7791,2.37342,1.7791,4.15253,0,1.57842-.59046,2.96389-1.7791,3.95185,1.18864.98796,1.7791,2.56639,1.7791,4.14867s-.59046,2.96389-1.7791,3.95185c1.18864.98796,1.7791,2.57024,1.7791,4.14867,0,1.58228-.59046,2.96389-1.7791,3.95185,1.18864.98796,1.7791,2.57024,1.7791,4.15253,0,1.57842-.59046,2.96389-1.7791,4.14867,1.18864.98796,1.7791,2.36956,1.7791,3.95185s-.59046,3.16071-1.7791,4.14867c1.18864.98796,1.7791,2.37342,1.7791,3.95185,0,1.58228-.59046,3.16457-1.7791,4.15253,1.18864.98796,1.7791,2.36956,1.7791,3.95185,0,1.57842-.59046,3.16071-1.7791,4.14867,1.18864.98796,1.7791,2.36956,1.7791,3.95185,0,.98796-.19682,1.97592-.59046,2.76706h27.66293c2.96389,0,5.53413,2.36956,5.53413,5.33345Z"/>
      </g>
      <path class="cls-1" d="M477.9424,181.92307c.34347-1.32371.52485-2.69374.52485-4.06762,0-9.11935-7.50619-16.53678-16.7336-16.53678-6.086,0-11.41559,3.3035-14.28685,8.21243-.62905-.07333-1.26969-.11192-1.91804-.11192h-32.40592c-6.87714,0-12.66598,3.90554-15.26324,9.64035-2.32229,1.08444-4.30786,2.73088-5.894,4.70826-.08008-.466-.1534-.93297-.27304-1.38932.34347-1.32371.52485-2.69374.52485-4.06762,0-9.11935-7.50619-16.53678-16.7336-16.53678-6.086,0-11.41559,3.3035-14.28685,8.21243-.62905-.07333-1.26969-.11192-1.91804-.11192h-32.40592c-6.87714,0-12.66598,3.90554-15.26324,9.64035-3.55435,1.65947-6.42561,4.54231-8.06578,8.10437-5.6692,2.65901-9.61333,8.46714-9.61333,15.19377,0,1.35845.17367,2.6976.50556,4.00202-.33189,1.32757-.50556,2.70532-.50556,4.10236,0,.28462.03859.56393.05403.84614-.40136-.02894-.78439-.1206-1.1925-.1206-2.83267,0-5.4994.72553-7.83423,1.99908.04245-.4824.06561-.97252.06561-1.46651,0-1.42791-.16209-2.80952-.47854-4.12937.31646-1.28512.47854-2.61656.47854-3.975,0-6.72277-3.94027-12.53477-9.60947-15.18991-1.64789-3.58136-4.53845-6.47578-8.11595-8.13139-2.62427-5.6692-8.3668-9.61719-15.01625-9.61719h-27.30499c-.01447-.05789-.0193-.11964-.03377-.17752.33575-1.29284.50942-2.62427.50942-3.975,0-1.42791-.17367-2.81723-.51328-4.14867.33961-1.33143.51328-2.72075.51328-4.14867,0-6.60314-3.93641-12.31479-9.60947-14.96222-2.64357-5.70394-8.47486-9.67894-15.2285-9.67894h-1.98364c-2.8867-4.84719-8.18156-8.10437-14.22125-8.10437h-65.01252c-9.11935,0-16.53678,7.42129-16.53678,16.54064,0,9.22741,7.41743,16.73746,16.53678,16.73746h7.77634c.01544.47468.05017.94551.1042,1.41248-2.87898,1.70192-5.2061,4.26059-6.63787,7.32867-5.70394,2.64357-9.67894,8.47486-9.67894,15.2285,0,.64449.03859,1.28126.11578,1.91418-2.91757,1.70964-5.2717,4.28374-6.69962,7.37112-5.67306,2.62427-9.61719,8.37066-9.61719,15.02011,0,.64835.03473,1.28898.1042,1.92189-4.90508,2.87126-8.20857,8.197-8.20857,14.27914,0,.64835.03473,1.29284.1042,1.92575-2.89828,1.69806-5.23697,4.25287-6.66488,7.31323-5.79656,2.60112-9.84103,8.37452-9.84103,15.06642,0,.67536.03859,1.34687.11578,2.00294-2.37728,1.41248-4.38022,3.39998-5.81199,5.76568h-18.27343c-9.11935,0-16.53678,7.51005-16.53678,16.73746,0,9.11935,7.41743,16.53678,16.53678,16.53678h97.61911c6.03969,0,11.33069-3.25719,14.21739-8.10051h1.98364c6.65331,0,12.39969-3.94799,15.02397-9.62491,3.55049-1.64017,6.42561-4.50758,8.07736-8.05034,3.60838-1.63631,6.49122-4.53459,8.13525-8.17384,1.34205-.62905,2.57796-1.44721,3.6981-2.40044,0,1.40235.16595,2.77382.48144,4.09078-.31646,1.29284-.4824,2.63585-.4824,4.00588,0,1.40476.16595,2.77864.4824,4.09464-.31646,1.29284-.4824,2.63585-.4824,4.00588,0,6.72663,3.94027,12.53477,9.60561,15.19377,2.5934,5.74253,8.27804,9.64421,15.03168,9.64421h16.40171c7.00449,0,13.00559-4.43039,15.41375-10.6669.5866.37049,1.19636.70238,1.82927.99954,2.66672,5.70394,8.46328,9.66736,15.16676,9.66736h16.20103c3.9393,0,7.54575-1.42212,10.39097-3.75792,2.39561,6.18537,8.37163,10.60033,15.39252,10.60033,6.15547,0,11.5468-3.3035,14.4528-8.20857.63677.06947,1.28898.10806,1.94891.10806h32.40592c6.75365,0,12.43828-3.90168,15.03168-9.64421,2.41298-1.13075,4.4767-2.86306,6.09179-4.96345.08201.5263.16498,1.0526.29523,1.56733-.33961,1.34301-.51714,2.73619-.51714,4.14867,0,9.11935,7.42129,16.53678,16.54064,16.53678,6.15547,0,11.5468-3.3035,14.4528-8.20857.63677.06947,1.28898.10806,1.94891.10806h32.40592c6.75365,0,12.43828-3.90168,15.03168-9.64421,3.50804-1.64403,6.35229-4.496,8.01175-8.02333,5.82743-2.62041,9.89505-8.47872,9.89505-15.27096,0-1.37388-.18138-2.72847-.52485-4.03675.34347-1.32371.52485-2.69374.52485-4.06762s-.18138-2.72461-.52485-4.03289c.34347-1.32757.52485-2.69374.52485-4.06762,0-4.80088-2.08012-9.13093-5.39906-12.1527,3.31893-3.02177,5.39906-7.35183,5.39906-12.1527,0-1.37388-.18138-2.74005-.52485-4.06762.34347-1.30828.52485-2.65901.52485-4.03289,0-1.4202-.17367-2.80566-.50942-4.12937.33575-1.28898.50942-2.62427.50942-3.975,0-1.42791-.17367-2.81723-.51328-4.14867.33961-1.33143.51328-2.72075.51328-4.14867,0-1.35073-.17367-2.68602-.50942-3.975.33575-1.32371.50942-2.70532.50942-4.12551,0-1.37388-.18138-2.72847-.52485-4.03675ZM159.76853,231.79584c0,.62905.03473,1.25425.10034,1.86787-3.01791,1.72121-5.44537,4.34549-6.89644,7.49462-3.52733,1.67104-6.38316,4.53845-8.03491,8.0735-3.02177,1.41248-5.55343,3.701-7.26692,6.53367h-26.04591c-.01544-.47854-.04631-.94937-.09648-1.41634,2.85969-1.69806,5.17522-4.23743,6.60699-7.28236,5.82743-2.62041,9.89891-8.47872,9.89891-15.27096,0-.60976-.03473-1.2118-.1042-1.80998,4.81631-2.8674,8.08122-8.08508,8.20085-14.05916h25.95715c.82202,1.37774,1.84085,2.63199,3.01406,3.71643-3.27648,3.02177-5.33345,7.35183-5.33345,12.1527ZM184.16656,168.73995c-2.38114,1.41634-4.38794,3.41927-5.81585,5.80813h-2.04153c-6.08214,0-11.40787,3.34209-14.28299,8.30119h-3.52733c.14665-.27786.28944-.55959.42066-.84517,5.67306-2.62427,9.62105-8.37452,9.62105-15.02397,0-.65221-.03859-1.30056-.11192-1.94505,2.39272-1.41634,4.40338-3.42313,5.83901-5.81971h4.08306c1.43177,2.39272,3.43857,4.39952,5.82743,5.81585-.06947.63677-.1042,1.28898-.1042,1.94891,0,.59046.03087,1.18092.09262,1.75981ZM243.65652,211.64297h-7.57952c-.52871,0-1.04971.02701-1.56299.07333,1.16163-2.1959,1.84085-4.67738,1.89488-7.30937h7.24377c.02701,1.23495.19682,2.45447.50556,3.63925-.2933,1.15777-.46311,2.36185-.5017,3.5968ZM332.96287,259.19249c-1.43949-2.385-3.46558-4.38408-5.88146-5.79656.08104-.65607.1235-1.31214.1235-1.97206,0-.53643-.02701-1.07286-.08104-1.60158,2.34255,1.23495,5.01313,1.93733,7.84967,1.93733h15.873c.05403,2.6783.72939,5.20224,1.89102,7.43287h-19.77467ZM358.95089,210.38486h-23.64934c-.0849-2.60498-.76413-5.0633-1.91032-7.23605h19.82484c1.43177,2.39658,3.44243,4.40338,5.83129,5.81971-.05017.46697-.08104.93779-.09648,1.41634ZM419.2127,258.7371c-1.43949-2.385-3.46558-4.38408-5.88146-5.79656.08104-.65607.1235-1.31214.1235-1.97206,0-.53643-.02701-1.07286-.08104-1.60158,2.34255,1.23495,5.01313,1.93733,7.84967,1.93733h15.873c.05403,2.6783.72939,5.20224,1.89102,7.43287h-19.77467ZM445.20073,209.92947h-23.64934c-.0849-2.60498-.76413-5.0633-1.91032-7.23605h19.82484c1.43177,2.39658,3.44243,4.40338,5.83129,5.81971-.05017.46697-.08104.93779-.09648,1.41634Z"/>
      <g>
        <path d="M149.23663,272.50154c0,2.96389-2.36956,5.33345-5.33345,5.33345H46.28406c-2.96389,0-5.33345-2.36956-5.33345-5.33345,0-2.96774,2.36956-5.53413,5.33345-5.53413h27.86361c-.3975-.79114-.79114-1.58228-.79114-2.57024,0-2.96389,2.57024-5.53027,5.53413-5.53027h3.35753c-.39364-.79114-.79114-1.58228-.79114-2.57024,0-1.7791.79114-3.16071,1.97592-4.14867-1.18478-.98796-1.97592-2.37342-1.97592-4.15253,0-2.96389,2.57024-5.33345,5.53413-5.33345h3.36139c-.3975-.79114-.59432-1.7791-.59432-2.76706,0-2.96389,2.36956-5.33345,5.33345-5.33345h3.36139c-.3975-.79114-.59432-1.7791-.59432-2.76706,0-1.58228.59432-2.96389,1.7791-3.95185-1.18478-.98796-1.7791-2.57024-1.7791-4.15253,0-2.96389,2.37342-5.33345,5.33731-5.33345h3.35753c-.39364-.79114-.59046-1.7791-.59046-2.76706,0-1.58228.59046-2.96389,1.77524-3.95185-1.18478-.98796-1.77524-2.57024-1.77524-4.14867,0-2.96389,2.36956-5.33731,5.33345-5.33731h3.55821c-.59432-.79114-.79114-1.7791-.79114-2.76706,0-2.96389,2.36956-5.33345,5.33345-5.33345h3.55821c-.59432-.98796-.79114-1.7791-.79114-2.76706,0-1.58228.79114-3.16071,1.7791-4.14867-.98796-.98796-1.7791-2.37342-1.7791-3.95185,0-2.96389,2.37342-5.53413,5.33731-5.53413h3.55435c-.59046-.79114-.78728-1.58228-.78728-2.57024,0-3.16071,2.36956-5.53027,5.33345-5.53027h3.55821c-.59432-.79114-.79114-1.58228-.79114-2.57024,0-1.7791.79114-3.16071,1.7791-4.14867-.98796-.98796-1.7791-2.37342-1.7791-4.14867,0-2.96774,2.36956-5.33731,5.53413-5.33731h3.35753c-.39364-.79114-.79114-1.7791-.79114-2.76706s.3975-1.7791.79114-2.56639h-27.86361c-2.96389,0-5.33345-2.57024-5.33345-5.53413s2.36956-5.33731,5.33345-5.33731h65.01252c2.96389,0,5.33731,2.37342,5.33731,5.33731s-2.37342,5.53413-5.33731,5.53413h-19.75924c.59432.78728.79114,1.57842.79114,2.56639,0,2.96389-2.37342,5.53413-5.33731,5.53413h-3.55435c.59046.79114.78728,1.58228.78728,2.57024,0,1.77524-.78728,3.16071-1.77524,4.14867.98796.98796,1.77524,2.36956,1.77524,4.14867,0,2.96389-2.36956,5.33731-5.33345,5.33731h-3.55821c.59432.78728.79114,1.77524.79114,2.76321,0,2.96389-2.36956,5.33731-5.33345,5.33731h-3.55821c.39364.79114.79114,1.7791.79114,2.76706,0,1.57842-.79114,2.96389-1.7791,3.95185.98796.98796,1.7791,2.56639,1.7791,4.14867,0,.98796-.3975,1.7791-.79114,2.76706h27.86361c2.96389,0,5.33345,2.36956,5.33345,5.33345s-2.36956,5.33731-5.33345,5.33731h-44.0685c.3975.79114.79114,1.7791.79114,2.76706,0,1.57842-.79114,3.16071-1.97592,4.14867,1.18478.98796,1.97592,2.36956,1.97592,3.95185,0,2.96389-2.57024,5.53413-5.53413,5.53413h-3.35753c.39364.79114.79114,1.57842.79114,2.56639,0,1.58228-.79114,3.16457-1.97592,4.15253,1.18478.98796,1.97592,2.36956,1.97592,3.95185,0,2.96389-2.57024,5.53027-5.53413,5.53027h-3.35753c.39364.79114.59046,1.58228.59046,2.57024,0,3.16071-2.36956,5.53413-5.33345,5.53413h-3.36139c.3975.78728.59432,1.57842.59432,2.56639,0,1.7791-.59432,3.16457-1.7791,4.15253,1.18478.98796,1.7791,2.36956,1.7791,4.14867,0,2.96389-2.37342,5.33345-5.33731,5.33345h-3.35753c.39364.79114.59432,1.7791.59432,2.76706s-.20068,1.7791-.59432,2.57024h52.16901c2.96389,0,5.33345,2.56639,5.33345,5.53413ZM198.04426,215.58954c0,1.58228-.79114,3.16071-1.97592,4.14867,1.18478.98796,1.97592,2.37342,1.97592,3.95185,0,2.96389-2.56639,5.53413-5.53027,5.53413h-3.36139c.39364.79114.59432,1.58228.59432,2.57024,0,1.57842-.59432,3.16071-1.7791,4.14867,1.18478.98796,1.7791,2.36956,1.7791,3.95185,0,3.16071-2.37342,5.53413-5.33731,5.53413h-3.35753c.39364.78728.59046,1.57842.59046,2.56639,0,3.16457-2.36956,5.53413-5.33345,5.53413h-3.36139c.3975.79114.59432,1.7791.59432,2.76706,0,2.96389-2.36956,5.33345-5.33345,5.33345h-3.55821c.59432.79114.79114,1.7791.79114,2.76706,0,2.96389-2.37342,5.33731-5.33731,5.33731h-8.10051c-2.96389,0-5.53413-2.37342-5.53413-5.33731s2.57024-5.53027,5.53413-5.53027h3.35753c-.39364-.79114-.78728-1.58228-.78728-2.57024,0-3.16071,2.56639-5.53413,5.53027-5.53413h3.36139c-.3975-.79114-.79114-1.7791-.79114-2.76706,0-2.96389,2.57024-5.33345,5.53413-5.33345h3.35753c-.39364-.79114-.59432-1.7791-.59432-2.76706,0-1.58228.59432-2.96389,1.7791-3.95185-1.18478-.98796-1.7791-2.57024-1.7791-4.14867,0-2.96389,2.37342-5.33731,5.33731-5.33731h3.35753c-.39364-.79114-.59046-1.7791-.59046-2.76706,0-1.57842.59046-2.96389,1.7791-3.95185-1.18864-.98796-1.7791-2.56639-1.7791-4.14867,0-.98796.19682-1.97592.59046-2.76706h-3.35753c-2.96389,0-5.33731-2.36956-5.33731-5.33345s2.37342-5.33731,5.33731-5.33731h8.10051c2.96389,0,5.33731,2.37342,5.33731,5.33731,0,.98796-.20068,1.97592-.59432,2.76706h3.36139c2.96389,0,5.53027,2.36956,5.53027,5.33345ZM212.27322,162.83006c1.18478.98796,1.97592,2.36956,1.97592,4.14867,0,1.58228-.79114,2.96389-1.97592,3.95185,1.18478.98796,1.97592,2.37342,1.97592,4.14867,0,2.96389-2.57024,5.33731-5.53413,5.33731h-3.35753c.39364.79114.79114,1.7791.79114,2.76706,0,2.96389-2.57024,5.33345-5.53413,5.33345h-3.36139c.3975.79114.79114,1.7791.79114,2.76706,0,2.96389-2.56639,5.33731-5.53027,5.33731h-16.20489c-2.96389,0-5.33731-2.37342-5.33731-5.33731s2.37342-5.53413,5.33731-5.53413h11.4619c-.3975-.78728-.59432-1.57842-.59432-2.56639,0-2.96389,2.36956-5.53413,5.33731-5.53413h3.35753c-.39364-.79114-.59432-1.58228-.59432-2.57024,0-1.77524.59432-3.16071,1.7791-4.14867-1.18478-.98796-1.7791-2.36956-1.7791-3.95185,0-1.7791.59432-3.16071,1.7791-4.14867-1.18478-.98796-1.7791-2.37342-1.7791-4.14867,0-.98796.20068-1.7791.59432-2.57024h-3.35753c-2.96774,0-5.33731-2.57024-5.33731-5.53413s2.36956-5.33345,5.33731-5.33345h8.10051c2.96389,0,5.53413,2.36956,5.53413,5.33345,0,.98796-.3975,1.97592-.79114,2.76706h3.35753c2.96389,0,5.53413,2.36956,5.53413,5.33731,0,1.77524-.79114,3.16071-1.97592,4.14867Z"/>
        <path d="M208.01714,208.02246l-.39364-.39364c-.98796.98796-2.57024,1.7791-4.14867,1.7791-2.96389,0-5.33731-2.37342-5.33731-5.33731,0-3.16071,2.37342-5.53027,5.33731-5.53027,1.57842,0,3.16071.78728,4.14867,1.77524l.39364-.39364c-1.18478-.98796-1.77524-2.36956-1.77524-4.14867,0-2.96389,2.36956-5.33731,5.33345-5.33731s5.53413,2.37342,5.53413,5.33731c0,1.7791-.79114,3.16071-1.97592,4.14867q.39364.19682.59046.39364c.98796-.98796,2.37342-1.77524,3.95185-1.77524,2.96389,0,5.53413,2.36956,5.53413,5.53027,0,2.96389-2.57024,5.33731-5.53413,5.33731-1.57842,0-2.96389-.79114-3.95185-1.7791q-.19682.19682-.59046.39364c1.18478.98796,1.97592,2.37342,1.97592,4.15253,0,2.96389-2.57024,5.33345-5.53413,5.33345s-5.33345-2.36956-5.33345-5.33345c0-1.7791.59046-3.16457,1.77524-4.15253ZM239.63577,273.03498c.98796.98796,1.7791,2.37342,1.7791,3.95185,0,3.16457-2.37342,5.53413-5.33731,5.53413h-16.40171c-2.96389,0-5.33345-2.36956-5.33345-5.53413,0-.98796.19682-1.7791.79114-2.56639h-3.55821c-2.96389,0-5.33345-2.57024-5.33345-5.53413,0-1.58228.59046-2.96389,1.77524-3.95185-1.18478-.98796-1.77524-2.57024-1.77524-4.14867,0-1.58228.59046-2.96389,1.77524-3.95185-1.18478-.98796-1.77524-2.57024-1.77524-4.15253,0-1.57842.59046-2.96389,1.77524-3.95185-1.18478-.98796-1.77524-2.56639-1.77524-4.14867,0-2.96389,2.36956-5.33345,5.33345-5.33345h3.55821c-.59432-.79114-.79114-1.7791-.79114-2.76706,0-2.96389,2.36956-5.33731,5.33345-5.33731h8.10437c3.16071,0,5.53027,2.37342,5.53027,5.33731s-2.36956,5.33345-5.53027,5.33345h-3.36139c.3975.79114.79114,1.7791.79114,2.76706,0,1.58228-.79114,3.16071-1.97592,4.14867,1.18478.98796,1.97592,2.37342,1.97592,3.95185,0,1.58228-.79114,3.16457-1.97592,4.15253,1.18478.98796,1.97592,2.36956,1.97592,3.95185,0,1.57842-.79114,3.16071-1.97592,4.14867,1.18478.98796,1.97592,2.36956,1.97592,3.95185,0,.98796-.39364,1.97592-.79114,2.76706h6.91573c-.59046-.79114-.78728-1.7791-.78728-2.76706,0-2.96389,2.36956-5.33345,5.53027-5.33345,2.96389,0,5.33731,2.36956,5.33731,5.33345,0,1.7791-.79114,3.16071-1.7791,4.14867ZM214.34241,187.67277c0-2.96774,2.36956-5.33731,5.33345-5.33731h32.6066c2.96389,0,5.33345,2.36956,5.33345,5.33731,0,3.16071-2.36956,5.53027-5.33345,5.53027h-32.6066c-2.96389,0-5.33345-2.36956-5.33345-5.53027ZM290.02568,276.98683c0,3.16457-2.37342,5.53413-5.33731,5.53413h-16.20103c-2.96389,0-5.53413-2.36956-5.53413-5.53413,0-.98796.39364-1.7791.79114-2.56639h-3.36139c-2.96389,0-5.53027-2.57024-5.53027-5.53413,0-.98796.39364-1.7791.78728-2.57024h-11.45804c-3.16457,0-5.53413-2.56639-5.53413-5.53027s2.36956-5.33731,5.53413-5.33731h11.45804c-.39364-.79114-.78728-1.7791-.78728-2.76706,0-1.57842.78728-2.96389,1.97592-3.95185-1.18864-.98796-1.97592-2.56639-1.97592-4.14867s.78728-2.96389,1.97592-3.95185c-1.18864-1.18478-1.97592-2.57024-1.97592-4.14867,0-.98796.39364-1.97592.78728-2.76706h-19.56242c-3.16071,0-5.53027-2.37342-5.53027-5.33731s2.36956-5.53027,5.53027-5.53027h19.56242c-.39364-.79114-.78728-1.58228-.78728-2.57024,0-1.58228.78728-3.16071,1.97592-4.14867-1.18864-.98796-1.97592-2.37342-1.97592-3.95185,0-1.7791.78728-3.16457,1.97592-4.15253-1.18864-.98796-1.97592-2.36956-1.97592-3.95185,0-1.77524.78728-3.16071,1.97592-4.14867-1.18864-.98796-1.97592-2.36956-1.97592-4.14867,0-2.96389,2.56639-5.33731,5.53027-5.33731s5.33731,2.37342,5.33731,5.33731c0,.98796-.19682,1.97592-.59432,2.76706h3.36139c2.96389,0,5.33345,2.36956,5.33345,5.53027,0,1.58228-.59432,2.96389-1.7791,3.95185,1.18478.98796,1.7791,2.37342,1.7791,4.15253,0,1.57842-.59432,2.96389-1.7791,3.95185,1.18478.98796,1.7791,2.56639,1.7791,4.14867s-.59432,2.96389-1.7791,3.95185c1.18478.98796,1.7791,2.57024,1.7791,4.14867,0,1.58228-.59432,2.96389-1.7791,3.95185,1.18478.98796,1.7791,2.57024,1.7791,4.15253,0,1.57842-.59432,2.96389-1.7791,4.14867,1.18478.98796,1.7791,2.36956,1.7791,3.95185s-.59432,3.16071-1.7791,4.14867c1.18478.98796,1.7791,2.37342,1.7791,3.95185,0,1.58228-.59432,3.16457-1.7791,4.15253,1.18478.98796,1.7791,2.36956,1.7791,3.95185,0,1.57842-.59432,3.16071-1.7791,4.14867,1.18478.98796,1.7791,2.36956,1.7791,3.95185,0,.98796-.19682,1.97592-.59432,2.76706h11.4619c2.96389,0,5.33731,2.36956,5.33731,5.33345ZM296.34709,240.62906c1.18478.98796,1.97592,2.36956,1.97592,3.95185s-.79114,3.16071-1.97592,4.14867c1.18478.98796,1.97592,2.37342,1.97592,3.95185,0,1.58228-.79114,3.16457-1.97592,4.15253,1.18478.98796,1.97592,2.36956,1.97592,3.95185,0,1.57842-.79114,3.16071-1.97592,4.14867,1.18478.98796,1.97592,2.36956,1.97592,3.95185,0,2.96389-2.56639,5.53413-5.53027,5.53413s-5.33731-2.57024-5.33731-5.53413c0-1.58228.59432-2.96389,1.7791-3.95185-1.18478-.98796-1.7791-2.57024-1.7791-4.14867,0-1.58228.59432-2.96389,1.7791-3.95185-1.18478-.98796-1.7791-2.57024-1.7791-4.15253,0-1.57842.59432-2.96389,1.7791-3.95185-1.18478-.98796-1.7791-2.56639-1.7791-4.14867s.59432-2.96389,1.7791-3.95185c-1.18478-1.18478-1.7791-2.57024-1.7791-4.14867,0-1.58228.59432-3.16457,1.7791-4.15253-1.18478-.98796-1.7791-2.36956-1.7791-3.95185,0-2.96389,2.37342-5.53027,5.33731-5.53027s5.53027,2.56639,5.53027,5.53027c0,1.58228-.79114,2.96389-1.97592,3.95185,1.18478.98796,1.97592,2.57024,1.97592,4.15253,0,1.57842-.79114,2.96389-1.97592,4.14867Z"/>
        <path d="M381.01569,243.32266c0,1.58228-.79114,3.16071-1.97592,4.14867,1.18478.98796,1.97592,2.37342,1.97592,3.95185,0,1.58228-.79114,3.16457-1.97592,4.15253,1.18478.98796,1.97592,2.36956,1.97592,3.95185,0,2.96389-2.56639,5.53027-5.53027,5.53027s-5.33731-2.56639-5.33731-5.53027c0-.98796.19682-1.7791.59432-2.57024h-3.36139c-2.96389,0-5.33345-2.57024-5.33345-5.53413,0-1.57842.59046-2.96389,1.7791-3.95185-1.18864-.98796-1.7791-2.56639-1.7791-4.14867,0-.98796.19682-1.97592.59046-2.76706h-27.66293c-2.96389,0-5.53413-2.36956-5.53413-5.33345,0-.98796.3975-1.97592.79114-2.76706h-11.65872c-2.96389,0-5.33345-2.37342-5.33345-5.33731,0-.98796.19682-1.97592.78728-2.76706h-3.55435c-2.96389,0-5.33731-2.36956-5.33731-5.33345,0-1.58228.79114-3.16071,1.7791-4.14867-.98796-.98796-1.7791-2.37342-1.7791-3.95185,0-1.7791.79114-3.16457,1.7791-4.15253-.98796-.98796-1.7791-2.36956-1.7791-3.95185,0-3.16071,2.37342-5.53027,5.33731-5.53027s5.53027,2.36956,5.53027,5.53027c0,.98796-.39364,1.7791-.78728,2.57024h3.35753c3.16071,0,5.53413,2.57024,5.53413,5.53413,0,1.57842-.79114,2.96389-1.7791,3.95185.98796.98796,1.7791,2.56639,1.7791,4.14867,0,.98796-.19682,1.7791-.79114,2.57024h35.96412c2.96389,0,5.33345,2.56639,5.33345,5.53027,0,.98796-.19682,1.97592-.59046,2.76706h3.35753c2.96389,0,5.33731,2.37342,5.33731,5.33731,0,.98796-.19682,1.97592-.59432,2.76706h3.36139c2.96389,0,5.53027,2.36956,5.53027,5.33345ZM314.02725,271.77674c1.18864.98796,1.97592,2.37342,1.97592,3.95185,0,1.7791-.78728,3.16457-1.97592,4.15253,1.18864.98796,1.97592,2.36956,1.97592,4.14867,0,2.96389-2.56639,5.33345-5.53027,5.33345s-5.33731-2.36956-5.33731-5.33345c0-1.7791.79114-3.16071,1.7791-4.14867-.98796-.98796-1.7791-2.37342-1.7791-4.15253,0-1.57842.79114-2.96389,1.7791-3.95185-.98796-.98796-1.7791-2.36956-1.7791-4.14867,0-1.58228.79114-2.96389,1.7791-3.95185-.98796-.98796-1.7791-2.57024-1.7791-4.14867,0-1.58228.79114-2.96389,1.7791-3.95185-.98796-.98796-1.7791-2.57024-1.7791-4.15253,0-1.57842.79114-2.96389,1.7791-3.95185-.98796-.98796-1.7791-2.56639-1.7791-4.14867,0-2.96389,2.37342-5.33345,5.33731-5.33345s5.53027,2.36956,5.53027,5.33345c0,1.58228-.78728,3.16071-1.97592,4.14867,1.18864.98796,1.97592,2.37342,1.97592,3.95185,0,1.58228-.78728,3.16457-1.97592,4.15253,1.18864.98796,1.97592,2.36956,1.97592,3.95185,0,1.57842-.78728,3.16071-1.97592,4.14867q.3975.19682.59432.39364c.98796-.98796,2.37342-1.77524,3.95185-1.77524,3.16071,0,5.53413,2.36956,5.53413,5.33345s-2.37342,5.53413-5.53413,5.53413c-1.57842,0-2.96389-.79114-3.95185-1.97592-.19682.19682-.39364.39364-.59432.59046ZM313.23997,194.51504c0-2.96389,2.36956-5.33731,5.33345-5.33731,3.16071,0,5.53413,2.37342,5.53413,5.33731,0,3.16071-2.37342,5.53413-5.53413,5.53413-2.96389,0-5.33345-2.37342-5.33345-5.53413ZM321.34048,186.41452c0-2.96774,2.36956-5.33731,5.53413-5.33731h32.40592c2.96389,0,5.33345,2.36956,5.33345,5.33731,0,3.16071-2.36956,5.53027-5.33345,5.53027h-32.40592c-3.16457,0-5.53413-2.36956-5.53413-5.53027ZM364.61398,275.72858c0,3.16457-2.36956,5.53413-5.33345,5.53413h-32.40592c-3.16457,0-5.53413-2.36956-5.53413-5.53413,0-2.96389,2.36956-5.33345,5.53413-5.33345h32.40592c2.96389,0,5.33345,2.36956,5.33345,5.33345ZM379.03976,190.56319c1.18478.98796,1.97592,2.36956,1.97592,3.95185,0,1.7791-.79114,3.16071-1.97592,4.14867,1.18478.98796,1.97592,2.37342,1.97592,4.14867,0,1.58228-.79114,2.96389-1.97592,3.95185,1.18478.98796,1.97592,2.37342,1.97592,4.15253,0,1.57842-.79114,2.96389-1.97592,3.95185,1.18478.98796,1.97592,2.56639,1.97592,4.14867,0,2.96389-2.56639,5.33345-5.53027,5.33345s-5.33731-2.36956-5.33731-5.33345c0-1.58228.59432-3.16071,1.7791-4.14867-1.18478-.98796-1.7791-2.37342-1.7791-3.95185,0-1.7791.59432-3.16457,1.7791-4.15253-1.18478-.98796-1.7791-2.36956-1.7791-3.95185,0-1.77524.59432-3.16071,1.7791-4.14867l-.39364-.39364c-.98796.98796-2.57024,1.7791-4.15253,1.7791-2.96389,0-5.33345-2.37342-5.33345-5.53413,0-2.96389,2.36956-5.33731,5.33345-5.33731,1.58228,0,3.16457.79114,4.15253,1.7791l.39364-.39364c-1.18478-.98796-1.7791-2.37342-1.7791-4.14867,0-1.58228.59432-2.96774,1.7791-3.95571-1.18478-.98796-1.7791-2.56639-1.7791-4.14867,0-2.96389,2.37342-5.33345,5.33731-5.33345s5.53027,2.36956,5.53027,5.33345c0,1.58228-.79114,3.16071-1.97592,4.14867,1.18478.98796,1.97592,2.37342,1.97592,3.95571,0,1.77524-.79114,3.16071-1.97592,4.14867ZM372.71835,267.62807c0,2.96389-2.37342,5.53413-5.33731,5.53413s-5.33345-2.57024-5.33345-5.53413,2.36956-5.33345,5.33345-5.33345,5.33731,2.36956,5.33731,5.33345Z"/>
        <path d="M467.26487,242.86644c0,1.58228-.78728,3.16071-1.97592,4.14867,1.18864.98796,1.97592,2.37342,1.97592,3.95185,0,1.58228-.78728,3.16457-1.97592,4.15253,1.18864.98796,1.97592,2.36956,1.97592,3.95185,0,2.96389-2.56639,5.53027-5.53027,5.53027s-5.33731-2.56639-5.33731-5.53027c0-.98796.19682-1.7791.59432-2.57024h-3.36139c-2.96389,0-5.33345-2.57024-5.33345-5.53413,0-1.57842.59046-2.96389,1.7791-3.95185-1.18864-.98796-1.7791-2.56639-1.7791-4.14867,0-.98796.19682-1.97592.59046-2.76706h-27.66293c-2.96389,0-5.53413-2.36956-5.53413-5.33345,0-.98796.3975-1.97592.79114-2.76706h-11.65872c-2.96389,0-5.33345-2.37342-5.33345-5.33731,0-.98796.19682-1.97592.78728-2.76706h-3.55435c-2.96389,0-5.33731-2.36956-5.33731-5.33345,0-1.58228.79114-3.16071,1.7791-4.14867-.98796-.98796-1.7791-2.37342-1.7791-3.95185,0-1.7791.79114-3.16457,1.7791-4.15253-.98796-.98796-1.7791-2.36956-1.7791-3.95185,0-3.16071,2.37342-5.53027,5.33731-5.53027s5.53027,2.36956,5.53027,5.53027c0,.98796-.39364,1.7791-.78728,2.57024h3.35753c3.16071,0,5.53413,2.57024,5.53413,5.53413,0,1.57842-.79114,2.96389-1.7791,3.95185.98796.98796,1.7791,2.56639,1.7791,4.14867,0,.98796-.19682,1.7791-.79114,2.57024h35.96412c2.96389,0,5.33345,2.56639,5.33345,5.53027,0,.98796-.19682,1.97592-.59046,2.76706h3.35753c2.96389,0,5.33731,2.37342,5.33731,5.33731,0,.98796-.19682,1.97592-.59432,2.76706h3.36139c2.96389,0,5.53027,2.36956,5.53027,5.33345ZM400.27643,271.32052c1.18864.98796,1.97592,2.37342,1.97592,3.95185,0,1.7791-.78728,3.16457-1.97592,4.15253,1.18864.98796,1.97592,2.36956,1.97592,4.14867,0,2.96389-2.56639,5.33345-5.53027,5.33345s-5.33731-2.36956-5.33731-5.33345c0-1.7791.79114-3.16071,1.7791-4.14867-.98796-.98796-1.7791-2.37342-1.7791-4.15253,0-1.57842.79114-2.96389,1.7791-3.95185-.98796-.98796-1.7791-2.36956-1.7791-4.14867,0-1.58228.79114-2.96389,1.7791-3.95185-.98796-.98796-1.7791-2.57024-1.7791-4.14867,0-1.58228.79114-2.96389,1.7791-3.95185-.98796-.98796-1.7791-2.57024-1.7791-4.15253,0-1.57842.79114-2.96389,1.7791-3.95185-.98796-.98796-1.7791-2.56639-1.7791-4.14867,0-2.96389,2.37342-5.33345,5.33731-5.33345s5.53027,2.36956,5.53027,5.33345c0,1.58228-.78728,3.16071-1.97592,4.14867,1.18864.98796,1.97592,2.37342,1.97592,3.95185,0,1.58228-.78728,3.16457-1.97592,4.15253,1.18864.98796,1.97592,2.36956,1.97592,3.95185,0,1.57842-.78728,3.16071-1.97592,4.14867q.3975.19682.59432.39364c.98796-.98796,2.36956-1.77524,3.95185-1.77524,3.16071,0,5.53413,2.36956,5.53413,5.33345s-2.37342,5.53413-5.53413,5.53413c-1.58228,0-2.96389-.79114-3.95185-1.97592-.19682.19682-.39364.39364-.59432.59046ZM399.48915,194.05882c0-2.96389,2.36956-5.33731,5.33345-5.33731,3.16071,0,5.53413,2.37342,5.53413,5.33731,0,3.16071-2.37342,5.53413-5.53413,5.53413-2.96389,0-5.33345-2.37342-5.33345-5.53413ZM407.58966,185.9583c0-2.96774,2.36956-5.33731,5.53413-5.33731h32.40592c2.96389,0,5.33345,2.36956,5.33345,5.33731,0,3.16071-2.36956,5.53027-5.33345,5.53027h-32.40592c-3.16457,0-5.53413-2.36956-5.53413-5.53027ZM450.86316,275.27236c0,3.16457-2.36956,5.53413-5.33345,5.53413h-32.40592c-3.16457,0-5.53413-2.36956-5.53413-5.53413,0-2.96389,2.36956-5.33345,5.53413-5.33345h32.40592c2.96389,0,5.33345,2.36956,5.33345,5.33345ZM465.28894,190.10697c1.18864.98796,1.97592,2.36956,1.97592,3.95185,0,1.7791-.78728,3.16071-1.97592,4.14867,1.18864.98796,1.97592,2.37342,1.97592,4.14867,0,1.58228-.78728,2.96389-1.97592,3.95185,1.18864.98796,1.97592,2.37342,1.97592,4.15253,0,1.57842-.78728,2.96389-1.97592,3.95185,1.18864.98796,1.97592,2.56639,1.97592,4.14867,0,2.96389-2.56639,5.33345-5.53027,5.33345s-5.33731-2.36956-5.33731-5.33345c0-1.58228.59432-3.16071,1.7791-4.14867-1.18478-.98796-1.7791-2.37342-1.7791-3.95185,0-1.7791.59432-3.16457,1.7791-4.15253-1.18478-.98796-1.7791-2.36956-1.7791-3.95185,0-1.77524.59432-3.16071,1.7791-4.14867l-.39364-.39364c-.98796.98796-2.57024,1.7791-4.15253,1.7791-2.96389,0-5.33345-2.37342-5.33345-5.53413,0-2.96389,2.36956-5.33731,5.33345-5.33731,1.58228,0,3.16457.79114,4.15253,1.7791l.39364-.39364c-1.18478-.98796-1.7791-2.37342-1.7791-4.14867,0-1.58228.59432-2.96774,1.7791-3.95571-1.18478-.98796-1.7791-2.56639-1.7791-4.14867,0-2.96389,2.37342-5.33345,5.33731-5.33345s5.53027,2.36956,5.53027,5.33345c0,1.58228-.78728,3.16071-1.97592,4.14867,1.18864.98796,1.97592,2.37342,1.97592,3.95571,0,1.77524-.78728,3.16071-1.97592,4.14867ZM458.96753,267.17185c0,2.96389-2.37342,5.53413-5.33731,5.53413s-5.33345-2.57024-5.33345-5.53413,2.36956-5.33345,5.33345-5.33345,5.33731,2.36956,5.33731,5.33345Z"/>
      </g>
    </g>
  </g>
</svg>