<svg width="128" height="128" viewBox="0 0 128 128" fill="none" xmlns="http://www.w3.org/2000/svg">
<path d="M32 64C32 68.4183 28.4183 72 24 72C19.5817 72 16 68.4183 16 64C16 59.5817 19.5817 56 24 56C28.4183 56 32 59.5817 32 64Z" fill="black"/>
<path d="M24 64C24 68.4183 20.4183 72 16 72C11.5817 72 8 68.4183 8 64C8 59.5817 11.5817 56 16 56C20.4183 56 24 59.5817 24 64Z" fill="black"/>
<path d="M40 64C40 68.4183 36.4183 72 32 72C27.5817 72 24 68.4183 24 64C24 59.5817 27.5817 56 32 56C36.4183 56 40 59.5817 40 64Z" fill="black"/>
<path d="M48 64C48 68.4183 44.4183 72 40 72C35.5817 72 32 68.4183 32 64C32 59.5817 35.5817 56 40 56C44.4183 56 48 59.5817 48 64Z" fill="black"/>
<path d="M56 64C56 68.4183 52.4183 72 48 72C43.5817 72 40 68.4183 40 64C40 59.5817 43.5817 56 48 56C52.4183 56 56 59.5817 56 64Z" fill="black"/>
<path d="M64 64C64 68.4183 60.4183 72 56 72C51.5817 72 48 68.4183 48 64C48 59.5817 51.5817 56 56 56C60.4183 56 64 59.5817 64 64Z" fill="black"/>
<path d="M72 64C72 68.4183 68.4183 72 64 72C59.5817 72 56 68.4183 56 64C56 59.5817 59.5817 56 64 56C68.4183 56 72 59.5817 72 64Z" fill="black"/>
<path d="M80 64C80 68.4183 76.4183 72 72 72C67.5817 72 64 68.4183 64 64C64 59.5817 67.5817 56 72 56C76.4183 56 80 59.5817 80 64Z" fill="black"/>
<path d="M88 64C88 68.4183 84.4183 72 80 72C75.5817 72 72 68.4183 72 64C72 59.5817 75.5817 56 80 56C84.4183 56 88 59.5817 88 64Z" fill="black"/>
<path d="M96 64C96 68.4183 92.4183 72 88 72C83.5817 72 80 68.4183 80 64C80 59.5817 83.5817 56 88 56C92.4183 56 96 59.5817 96 64Z" fill="black"/>
<path d="M104 64C104 68.4183 100.418 72 96 72C91.5817 72 88 68.4183 88 64C88 59.5817 91.5817 56 96 56C100.418 56 104 59.5817 104 64Z" fill="black"/>
<path d="M112 64C112 68.4183 108.418 72 104 72C99.5817 72 96 68.4183 96 64C96 59.5817 99.5817 56 104 56C108.418 56 112 59.5817 112 64Z" fill="black"/>
<path d="M120 64C120 68.4183 116.418 72 112 72C107.582 72 104 68.4183 104 64C104 59.5817 107.582 56 112 56C116.418 56 120 59.5817 120 64Z" fill="black"/>
<path d="M72 104C72 108.418 68.4183 112 64 112C59.5817 112 56 108.418 56 104C56 99.5817 59.5817 96 64 96C68.4183 96 72 99.5817 72 104Z" fill="black"/>
<path d="M72 112C72 116.418 68.4183 120 64 120C59.5817 120 56 116.418 56 112C56 107.582 59.5817 104 64 104C68.4183 104 72 107.582 72 112Z" fill="black"/>
<path d="M72 96C72 100.418 68.4183 104 64 104C59.5817 104 56 100.418 56 96C56 91.5817 59.5817 88 64 88C68.4183 88 72 91.5817 72 96Z" fill="black"/>
<path d="M72 88C72 92.4183 68.4183 96 64 96C59.5817 96 56 92.4183 56 88C56 83.5817 59.5817 80 64 80C68.4183 80 72 83.5817 72 88Z" fill="black"/>
<path d="M72 80C72 84.4183 68.4183 88 64 88C59.5817 88 56 84.4183 56 80C56 75.5817 59.5817 72 64 72C68.4183 72 72 75.5817 72 80Z" fill="black"/>
<path d="M72 72C72 76.4183 68.4183 80 64 80C59.5817 80 56 76.4183 56 72C56 67.5817 59.5817 64 64 64C68.4183 64 72 67.5817 72 72Z" fill="black"/>
<path d="M72 64C72 68.4183 68.4183 72 64 72C59.5817 72 56 68.4183 56 64C56 59.5817 59.5817 56 64 56C68.4183 56 72 59.5817 72 64Z" fill="black"/>
<path d="M72 56C72 60.4183 68.4183 64 64 64C59.5817 64 56 60.4183 56 56C56 51.5817 59.5817 48 64 48C68.4183 48 72 51.5817 72 56Z" fill="black"/>
<path d="M72 48C72 52.4183 68.4183 56 64 56C59.5817 56 56 52.4183 56 48C56 43.5817 59.5817 40 64 40C68.4183 40 72 43.5817 72 48Z" fill="black"/>
<path d="M72 40C72 44.4183 68.4183 48 64 48C59.5817 48 56 44.4183 56 40C56 35.5817 59.5817 32 64 32C68.4183 32 72 35.5817 72 40Z" fill="black"/>
<path d="M72 32C72 36.4183 68.4183 40 64 40C59.5817 40 56 36.4183 56 32C56 27.5817 59.5817 24 64 24C68.4183 24 72 27.5817 72 32Z" fill="black"/>
<path d="M72 24C72 28.4183 68.4183 32 64 32C59.5817 32 56 28.4183 56 24C56 19.5817 59.5817 16 64 16C68.4183 16 72 19.5817 72 24Z" fill="black"/>
<path d="M72 16C72 20.4183 68.4183 24 64 24C59.5817 24 56 20.4183 56 16C56 11.5817 59.5817 8 64 8C68.4183 8 72 11.5817 72 16Z" fill="black"/>
</svg>
