<svg width="128" height="128" viewBox="0 0 128 128" fill="none" xmlns="http://www.w3.org/2000/svg">
<path d="M48 24C48 28.4183 44.4183 32 40 32C35.5817 32 32 28.4183 32 24C32 19.5817 35.5817 16 40 16C44.4183 16 48 19.5817 48 24Z" fill="black"/>
<path d="M48 32C48 36.4183 44.4183 40 40 40C35.5817 40 32 36.4183 32 32C32 27.5817 35.5817 24 40 24C44.4183 24 48 27.5817 48 32Z" fill="black"/>
<path d="M48 40C48 44.4183 44.4183 48 40 48C35.5817 48 32 44.4183 32 40C32 35.5817 35.5817 32 40 32C44.4183 32 48 35.5817 48 40Z" fill="black"/>
<path d="M48 48C48 52.4183 44.4183 56 40 56C35.5817 56 32 52.4183 32 48C32 43.5817 35.5817 40 40 40C44.4183 40 48 43.5817 48 48Z" fill="black"/>
<path d="M48 56C48 60.4183 44.4183 64 40 64C35.5817 64 32 60.4183 32 56C32 51.5817 35.5817 48 40 48C44.4183 48 48 51.5817 48 56Z" fill="black"/>
<path d="M48 64C48 68.4183 44.4183 72 40 72C35.5817 72 32 68.4183 32 64C32 59.5817 35.5817 56 40 56C44.4183 56 48 59.5817 48 64Z" fill="black"/>
<path d="M48 72C48 76.4183 44.4183 80 40 80C35.5817 80 32 76.4183 32 72C32 67.5817 35.5817 64 40 64C44.4183 64 48 67.5817 48 72Z" fill="black"/>
<path d="M48 80C48 84.4183 44.4183 88 40 88C35.5817 88 32 84.4183 32 80C32 75.5817 35.5817 72 40 72C44.4183 72 48 75.5817 48 80Z" fill="black"/>
<path d="M48 88C48 92.4183 44.4183 96 40 96C35.5817 96 32 92.4183 32 88C32 83.5817 35.5817 80 40 80C44.4183 80 48 83.5817 48 88Z" fill="black"/>
<path d="M48 96C48 100.418 44.4183 104 40 104C35.5817 104 32 100.418 32 96C32 91.5817 35.5817 88 40 88C44.4183 88 48 91.5817 48 96Z" fill="black"/>
<path d="M48 104C48 108.418 44.4183 112 40 112C35.5817 112 32 108.418 32 104C32 99.5817 35.5817 96 40 96C44.4183 96 48 99.5817 48 104Z" fill="black"/>
<path d="M56 24C56 28.4183 52.4183 32 48 32C43.5817 32 40 28.4183 40 24C40 19.5817 43.5817 16 48 16C52.4183 16 56 19.5817 56 24Z" fill="black"/>
<path d="M56 32C56 36.4183 52.4183 40 48 40C43.5817 40 40 36.4183 40 32C40 27.5817 43.5817 24 48 24C52.4183 24 56 27.5817 56 32Z" fill="black"/>
<path d="M56 40C56 44.4183 52.4183 48 48 48C43.5817 48 40 44.4183 40 40C40 35.5817 43.5817 32 48 32C52.4183 32 56 35.5817 56 40Z" fill="black"/>
<path d="M56 48C56 52.4183 52.4183 56 48 56C43.5817 56 40 52.4183 40 48C40 43.5817 43.5817 40 48 40C52.4183 40 56 43.5817 56 48Z" fill="black"/>
<path d="M56 56C56 60.4183 52.4183 64 48 64C43.5817 64 40 60.4183 40 56C40 51.5817 43.5817 48 48 48C52.4183 48 56 51.5817 56 56Z" fill="black"/>
<path d="M56 64C56 68.4183 52.4183 72 48 72C43.5817 72 40 68.4183 40 64C40 59.5817 43.5817 56 48 56C52.4183 56 56 59.5817 56 64Z" fill="black"/>
<path d="M56 72C56 76.4183 52.4183 80 48 80C43.5817 80 40 76.4183 40 72C40 67.5817 43.5817 64 48 64C52.4183 64 56 67.5817 56 72Z" fill="black"/>
<path d="M56 80C56 84.4183 52.4183 88 48 88C43.5817 88 40 84.4183 40 80C40 75.5817 43.5817 72 48 72C52.4183 72 56 75.5817 56 80Z" fill="black"/>
<path d="M56 88C56 92.4183 52.4183 96 48 96C43.5817 96 40 92.4183 40 88C40 83.5817 43.5817 80 48 80C52.4183 80 56 83.5817 56 88Z" fill="black"/>
<path d="M56 96C56 100.418 52.4183 104 48 104C43.5817 104 40 100.418 40 96C40 91.5817 43.5817 88 48 88C52.4183 88 56 91.5817 56 96Z" fill="black"/>
<path d="M56 104C56 108.418 52.4183 112 48 112C43.5817 112 40 108.418 40 104C40 99.5817 43.5817 96 48 96C52.4183 96 56 99.5817 56 104Z" fill="black"/>
<path d="M88 24C88 28.4183 84.4183 32 80 32C75.5817 32 72 28.4183 72 24C72 19.5817 75.5817 16 80 16C84.4183 16 88 19.5817 88 24Z" fill="black"/>
<path d="M88 32C88 36.4183 84.4183 40 80 40C75.5817 40 72 36.4183 72 32C72 27.5817 75.5817 24 80 24C84.4183 24 88 27.5817 88 32Z" fill="black"/>
<path d="M88 40C88 44.4183 84.4183 48 80 48C75.5817 48 72 44.4183 72 40C72 35.5817 75.5817 32 80 32C84.4183 32 88 35.5817 88 40Z" fill="black"/>
<path d="M88 48C88 52.4183 84.4183 56 80 56C75.5817 56 72 52.4183 72 48C72 43.5817 75.5817 40 80 40C84.4183 40 88 43.5817 88 48Z" fill="black"/>
<path d="M88 56C88 60.4183 84.4183 64 80 64C75.5817 64 72 60.4183 72 56C72 51.5817 75.5817 48 80 48C84.4183 48 88 51.5817 88 56Z" fill="black"/>
<path d="M88 64C88 68.4183 84.4183 72 80 72C75.5817 72 72 68.4183 72 64C72 59.5817 75.5817 56 80 56C84.4183 56 88 59.5817 88 64Z" fill="black"/>
<path d="M88 72C88 76.4183 84.4183 80 80 80C75.5817 80 72 76.4183 72 72C72 67.5817 75.5817 64 80 64C84.4183 64 88 67.5817 88 72Z" fill="black"/>
<path d="M88 80C88 84.4183 84.4183 88 80 88C75.5817 88 72 84.4183 72 80C72 75.5817 75.5817 72 80 72C84.4183 72 88 75.5817 88 80Z" fill="black"/>
<path d="M88 88C88 92.4183 84.4183 96 80 96C75.5817 96 72 92.4183 72 88C72 83.5817 75.5817 80 80 80C84.4183 80 88 83.5817 88 88Z" fill="black"/>
<path d="M88 96C88 100.418 84.4183 104 80 104C75.5817 104 72 100.418 72 96C72 91.5817 75.5817 88 80 88C84.4183 88 88 91.5817 88 96Z" fill="black"/>
<path d="M88 104C88 108.418 84.4183 112 80 112C75.5817 112 72 108.418 72 104C72 99.5817 75.5817 96 80 96C84.4183 96 88 99.5817 88 104Z" fill="black"/>
<path d="M96 24C96 28.4183 92.4183 32 88 32C83.5817 32 80 28.4183 80 24C80 19.5817 83.5817 16 88 16C92.4183 16 96 19.5817 96 24Z" fill="black"/>
<path d="M96 32C96 36.4183 92.4183 40 88 40C83.5817 40 80 36.4183 80 32C80 27.5817 83.5817 24 88 24C92.4183 24 96 27.5817 96 32Z" fill="black"/>
<path d="M96 40C96 44.4183 92.4183 48 88 48C83.5817 48 80 44.4183 80 40C80 35.5817 83.5817 32 88 32C92.4183 32 96 35.5817 96 40Z" fill="black"/>
<path d="M96 48C96 52.4183 92.4183 56 88 56C83.5817 56 80 52.4183 80 48C80 43.5817 83.5817 40 88 40C92.4183 40 96 43.5817 96 48Z" fill="black"/>
<path d="M96 56C96 60.4183 92.4183 64 88 64C83.5817 64 80 60.4183 80 56C80 51.5817 83.5817 48 88 48C92.4183 48 96 51.5817 96 56Z" fill="black"/>
<path d="M96 64C96 68.4183 92.4183 72 88 72C83.5817 72 80 68.4183 80 64C80 59.5817 83.5817 56 88 56C92.4183 56 96 59.5817 96 64Z" fill="black"/>
<path d="M96 72C96 76.4183 92.4183 80 88 80C83.5817 80 80 76.4183 80 72C80 67.5817 83.5817 64 88 64C92.4183 64 96 67.5817 96 72Z" fill="black"/>
<path d="M96 80C96 84.4183 92.4183 88 88 88C83.5817 88 80 84.4183 80 80C80 75.5817 83.5817 72 88 72C92.4183 72 96 75.5817 96 80Z" fill="black"/>
<path d="M96 88C96 92.4183 92.4183 96 88 96C83.5817 96 80 92.4183 80 88C80 83.5817 83.5817 80 88 80C92.4183 80 96 83.5817 96 88Z" fill="black"/>
<path d="M96 96C96 100.418 92.4183 104 88 104C83.5817 104 80 100.418 80 96C80 91.5817 83.5817 88 88 88C92.4183 88 96 91.5817 96 96Z" fill="black"/>
<path d="M96 104C96 108.418 92.4183 112 88 112C83.5817 112 80 108.418 80 104C80 99.5817 83.5817 96 88 96C92.4183 96 96 99.5817 96 104Z" fill="black"/>
<path d="M104 24C104 28.4183 100.418 32 96 32C91.5817 32 88 28.4183 88 24C88 19.5817 91.5817 16 96 16C100.418 16 104 19.5817 104 24Z" fill="black"/>
<path d="M104 32C104 36.4183 100.418 40 96 40C91.5817 40 88 36.4183 88 32C88 27.5817 91.5817 24 96 24C100.418 24 104 27.5817 104 32Z" fill="black"/>
<path d="M104 40C104 44.4183 100.418 48 96 48C91.5817 48 88 44.4183 88 40C88 35.5817 91.5817 32 96 32C100.418 32 104 35.5817 104 40Z" fill="black"/>
<path d="M104 48C104 52.4183 100.418 56 96 56C91.5817 56 88 52.4183 88 48C88 43.5817 91.5817 40 96 40C100.418 40 104 43.5817 104 48Z" fill="black"/>
<path d="M104 56C104 60.4183 100.418 64 96 64C91.5817 64 88 60.4183 88 56C88 51.5817 91.5817 48 96 48C100.418 48 104 51.5817 104 56Z" fill="black"/>
<path d="M104 64C104 68.4183 100.418 72 96 72C91.5817 72 88 68.4183 88 64C88 59.5817 91.5817 56 96 56C100.418 56 104 59.5817 104 64Z" fill="black"/>
<path d="M104 72C104 76.4183 100.418 80 96 80C91.5817 80 88 76.4183 88 72C88 67.5817 91.5817 64 96 64C100.418 64 104 67.5817 104 72Z" fill="black"/>
<path d="M104 80C104 84.4183 100.418 88 96 88C91.5817 88 88 84.4183 88 80C88 75.5817 91.5817 72 96 72C100.418 72 104 75.5817 104 80Z" fill="black"/>
<path d="M104 88C104 92.4183 100.418 96 96 96C91.5817 96 88 92.4183 88 88C88 83.5817 91.5817 80 96 80C100.418 80 104 83.5817 104 88Z" fill="black"/>
<path d="M104 96C104 100.418 100.418 104 96 104C91.5817 104 88 100.418 88 96C88 91.5817 91.5817 88 96 88C100.418 88 104 91.5817 104 96Z" fill="black"/>
<path d="M104 104C104 108.418 100.418 112 96 112C91.5817 112 88 108.418 88 104C88 99.5817 91.5817 96 96 96C100.418 96 104 99.5817 104 104Z" fill="black"/>
<path d="M40 24C40 28.4183 36.4183 32 32 32C27.5817 32 24 28.4183 24 24C24 19.5817 27.5817 16 32 16C36.4183 16 40 19.5817 40 24Z" fill="black"/>
<path d="M40 32C40 36.4183 36.4183 40 32 40C27.5817 40 24 36.4183 24 32C24 27.5817 27.5817 24 32 24C36.4183 24 40 27.5817 40 32Z" fill="black"/>
<path d="M40 40C40 44.4183 36.4183 48 32 48C27.5817 48 24 44.4183 24 40C24 35.5817 27.5817 32 32 32C36.4183 32 40 35.5817 40 40Z" fill="black"/>
<path d="M40 48C40 52.4183 36.4183 56 32 56C27.5817 56 24 52.4183 24 48C24 43.5817 27.5817 40 32 40C36.4183 40 40 43.5817 40 48Z" fill="black"/>
<path d="M40 56C40 60.4183 36.4183 64 32 64C27.5817 64 24 60.4183 24 56C24 51.5817 27.5817 48 32 48C36.4183 48 40 51.5817 40 56Z" fill="black"/>
<path d="M40 64C40 68.4183 36.4183 72 32 72C27.5817 72 24 68.4183 24 64C24 59.5817 27.5817 56 32 56C36.4183 56 40 59.5817 40 64Z" fill="black"/>
<path d="M40 72C40 76.4183 36.4183 80 32 80C27.5817 80 24 76.4183 24 72C24 67.5817 27.5817 64 32 64C36.4183 64 40 67.5817 40 72Z" fill="black"/>
<path d="M40 80C40 84.4183 36.4183 88 32 88C27.5817 88 24 84.4183 24 80C24 75.5817 27.5817 72 32 72C36.4183 72 40 75.5817 40 80Z" fill="black"/>
<path d="M40 88C40 92.4183 36.4183 96 32 96C27.5817 96 24 92.4183 24 88C24 83.5817 27.5817 80 32 80C36.4183 80 40 83.5817 40 88Z" fill="black"/>
<path d="M40 96C40 100.418 36.4183 104 32 104C27.5817 104 24 100.418 24 96C24 91.5817 27.5817 88 32 88C36.4183 88 40 91.5817 40 96Z" fill="black"/>
<path d="M40 104C40 108.418 36.4183 112 32 112C27.5817 112 24 108.418 24 104C24 99.5817 27.5817 96 32 96C36.4183 96 40 99.5817 40 104Z" fill="black"/>
</svg>
