<svg width="731" height="326" viewBox="0 0 731 326" fill="none" xmlns="http://www.w3.org/2000/svg">
<g clip-path="url(#clip0_2905_11085)">
<rect width="729.855" height="324.931" transform="translate(0.90918 0.344116)" fill="white"/>
<path fill-rule="evenodd" clip-rule="evenodd" d="M95.4782 1.37923C93.2812 2.25723 84.7832 8.87823 76.9092 15.8462C67.7952 23.9122 63.1332 27.1552 65.0042 24.1262C65.4502 23.4052 65.2782 23.2442 64.5472 23.6962C63.9032 24.0942 63.6052 24.7892 63.8842 25.2412C64.3962 26.0682 61.3942 28.9742 51.4502 37.2812C43.6792 43.7722 41.4982 46.3382 40.3972 50.2812C39.0392 55.1462 39.1632 57.7552 40.9572 62.0632C42.8952 66.7172 46.6292 69.9942 51.4852 71.3012C55.2902 72.3262 64.4952 72.2582 63.8592 71.2102C63.6682 70.8962 65.7472 69.8352 68.4782 68.8532C71.9532 67.6042 76.0662 67.1032 82.1762 67.1842C90.2952 67.2922 107.429 68.9672 108.189 69.7282C108.373 69.9122 106.854 72.6742 104.812 75.8652C96.8462 88.3182 91.2952 103.497 89.8822 116.688L89.1762 123.281H82.2502C64.5802 123.281 42.3722 131.353 27.4092 143.214C19.1512 149.76 10.5222 159.129 4.76218 167.804C1.33618 172.965 0.90918 174.29 0.90918 179.772C0.90918 185.025 1.33518 186.496 3.79118 189.715C7.05418 193.993 11.6492 196.281 16.9762 196.281C21.5792 196.281 25.8362 194.258 30.9092 189.659C39.4362 181.928 50.3842 179.823 61.3452 183.806C68.5162 186.411 80.0232 197.482 83.6672 205.281C85.0812 208.306 87.2942 211.772 88.5872 212.983C91.6802 215.883 97.5542 218.281 101.561 218.281C105.972 218.281 112.55 214.896 114.638 211.551C127.228 191.386 137.564 178.713 148.659 169.839C153.888 165.657 154.297 166.023 151.57 172.448C148.506 179.67 147.156 190.915 148.399 198.864C151.936 221.486 168.563 236.533 198.931 244.594L207.659 246.911L210.6 255.346C212.218 259.985 213.587 264.344 213.642 265.031C213.697 265.719 214.117 266.281 214.576 266.281C215.034 266.281 215.409 266.793 215.409 267.42C215.409 268.046 217.844 272.208 220.821 276.67C228.826 288.667 244.243 303.007 255.265 308.706C257.03 309.619 258.211 310.792 257.89 311.312C257.568 311.832 257.912 312.025 258.654 311.741C259.395 311.456 263.356 312.755 267.456 314.628C282.094 321.314 302.586 325.286 322.383 325.275C359.777 325.254 403.276 308.848 430.546 284.48L433.182 282.124L437.839 287.103C440.4 289.841 445.064 293.364 448.202 294.931C451.341 296.499 454.134 298.006 454.409 298.281C455.082 298.954 456.694 299.301 464.832 300.529C481.639 303.065 503.296 295.101 523.027 279.13C538.165 266.877 549.259 251.213 556.389 232.028C558.874 225.344 561.375 214.684 561.394 210.699L561.409 207.616L566.904 208.072C577.264 208.931 581.199 205.558 586.678 191.116C588.627 185.982 590.401 181.141 590.622 180.358C590.863 179.506 592.241 180.909 594.057 183.858C598.102 190.423 606.41 199.395 613.491 204.844C616.662 207.284 619.559 209.281 619.929 209.281C620.298 209.281 621.91 210.213 623.51 211.353C627.573 214.246 641.472 219.181 650.409 220.905C673.386 225.335 701.507 220.108 712.393 209.384C716.709 205.132 717.589 203.332 723.927 185.781C731.722 164.199 732.341 159.735 728.351 153.886C725.437 149.614 720 146.708 712.146 145.223C702.968 143.488 693.444 138.142 686.711 130.945C675.831 119.314 673.23 110.18 677.528 98.6932C685.183 78.2332 663.654 65.8362 647.032 81.1332C645.45 82.5902 642.343 86.0312 640.129 88.7812C636.579 93.1892 636.185 93.4412 636.805 90.9102C637.192 89.3312 637.485 81.4562 637.457 73.4102C637.381 51.5822 634.21 39.8422 624.824 26.6352C617.882 16.8672 608.208 9.99023 595.409 5.72523C588.341 3.36923 571.516 3.31222 562.909 5.61422C548.306 9.52122 534.197 16.8812 525.953 24.8942C523.423 27.3532 520.95 29.1162 520.458 28.8112C519.966 28.5072 519.28 26.9702 518.934 25.3952C516.803 15.6942 499.826 12.9912 491.909 21.0922C490.809 22.2182 487.884 25.2552 485.409 27.8422C479.843 33.6592 466.283 40.3702 454.909 42.9362C448.304 44.4272 442.027 44.7582 418.909 44.8382C401.066 44.9002 388.37 45.3952 383.909 46.2032C368.489 48.9972 355.72 52.7942 344.537 57.9122C341.583 59.2642 338.96 60.1662 338.71 59.9152C338.459 59.6652 339.155 56.1572 340.256 52.1202C342.915 42.3732 343.477 38.3962 343.622 28.2812C343.768 18.0622 341.952 13.4112 336.182 9.23223C331.252 5.66023 327.637 4.87323 322.507 6.25523C318.811 7.25023 311.409 13.3392 311.409 15.3842C311.409 17.2572 304.928 25.5462 300.295 29.6002C294.747 34.4532 290.263 35.8552 277.615 36.6902C272.544 37.0252 269.261 37.8272 266.842 39.3222L263.363 41.4722L259.511 37.9922C254.47 33.4382 247.545 29.4282 241.649 27.6492C232.046 24.7512 107.7 0.28323 102.888 0.34423C100.149 0.37923 96.8152 0.845234 95.4782 1.37923ZM97.3002 20.1102C94.8852 22.2162 84.6682 30.8122 74.5962 39.2142C64.5242 47.6152 56.4442 54.6492 56.6392 54.8452C56.8352 55.0402 59.9012 54.2402 63.4522 53.0672C68.5612 51.3792 72.3102 50.9382 81.4092 50.9562C91.1892 50.9752 127.578 54.1122 138.229 55.8552L141.549 56.3982L135.159 63.5892C115.138 86.1192 108.791 98.7052 105.821 121.765C104.181 134.506 102.947 141.076 102.023 142.001C101.712 142.311 98.6352 141.938 95.1842 141.173C69.5252 135.481 40.8582 147.655 21.8992 172.294C19.4302 175.503 17.4092 178.418 17.4092 178.772C17.4092 179.126 19.3222 177.853 21.6592 175.944C41.0662 160.094 66.2842 162.12 86.1482 181.125C90.3662 185.159 97.7902 195.755 98.9412 199.381C99.6842 201.724 101.971 201.864 102.833 199.619C105.385 192.968 121.873 171.714 130.832 163.526C138.669 156.363 175.742 130.328 178.148 130.297C179.548 130.279 191.181 139.929 192.707 142.375C193.494 143.636 192.688 144.89 188.848 148.375C172.799 162.941 165.75 174.732 164.687 188.789C163.049 210.452 179.24 224.788 211.361 230.115L221.814 231.848L223.505 240.315C226.924 257.433 232.654 267.848 245.78 280.804C281.545 316.105 346.162 318.488 399.909 286.488C407.937 281.709 416.366 275.233 425.212 267.049C432.328 260.465 435.928 258.499 438.826 259.611C439.608 259.911 441.654 263.104 443.374 266.707C446.942 274.185 452.683 279.604 460.123 282.519C463.89 283.996 466.867 284.32 474.106 284.044C482.865 283.71 483.795 283.448 493.606 278.544C530.186 260.263 550.964 223.012 543.975 188.244C541.068 173.78 534.641 160.447 520.287 139.1C503.766 114.53 497.316 101.718 496.628 92.1052C496.167 85.6542 497.553 79.2812 499.418 79.2812C501.031 79.2812 523.898 89.3472 524.978 90.5332C525.604 91.2192 528.391 97.4062 531.173 104.281C533.954 111.156 539.233 124.206 542.904 133.281C556.347 166.516 567.708 192.382 568.509 191.581C569.372 190.718 575.309 175.201 579.814 162.033L582.464 154.285L572.841 132.533C567.547 120.569 560.737 105.156 557.707 98.2812C541.725 62.0262 543.415 65.0802 537.619 61.9602C534.737 60.4082 532.605 58.7732 532.881 58.3262C533.158 57.8792 535.527 56.4982 538.146 55.2562C552.38 48.5122 566.514 48.6962 580.409 55.8072C589.768 60.5962 597.31 70.1522 601.065 81.9762C603.819 90.6492 604.019 97.6762 601.996 114.811C598.322 145.936 599.017 156.98 605.475 170.095C612.284 183.922 626.198 196.189 640.977 201.393C660.111 208.132 679.798 207.898 696.074 200.738C698.915 199.488 701.683 197.637 702.225 196.623C703.684 193.896 714.409 164.843 714.409 163.619C714.409 163.041 711.371 161.832 707.659 160.931C695.432 157.965 684.897 151.982 675.82 142.85C660.367 127.303 655.372 110.272 661.772 94.9562C662.606 92.9592 662.921 91.0972 662.471 90.8192C660.686 89.7162 652.395 98.5632 649.277 104.898C641.56 120.573 645.9 144.146 659.493 160.381C661.786 163.12 663.391 165.632 663.06 165.963C662.071 166.952 650.866 166.481 646.33 165.26C630.742 161.062 622.156 153.373 617.446 139.391C614.711 131.273 614.849 122.868 617.996 105.781C621.477 86.8802 622.296 66.3642 619.983 55.9692C616.64 40.9422 608.153 29.2472 596.421 23.5012C591.407 21.0462 589.87 20.8012 579.409 20.7982C569.863 20.7942 566.72 21.2022 560.909 23.1992C546.95 27.9952 534.236 37.6662 525.775 49.9232L522.225 55.0662L514.882 51.6732C510.844 49.8082 507.066 48.2812 506.487 48.2812C505.046 48.2812 501.238 54.5052 494.945 67.1452C485.293 86.5322 479.392 107.62 477.254 130.372L476.07 142.964L492.046 164.872C517.68 200.025 523.76 210.779 525.066 223.272C526.814 239.993 514.367 253.395 495.631 254.966C489.99 255.439 487.989 255.156 483.594 253.265C462.477 244.181 460.756 207.046 480.43 185.031C483.257 181.868 484.94 179.281 484.17 179.281C481.619 179.281 470.405 186.728 463.414 193.065C453.866 201.719 445.211 213.714 438.726 227.281C427.93 249.869 426.144 253.118 421.798 258.087C404.389 277.988 375.396 289.708 343.909 289.573C300.236 289.386 271.299 272.435 260.356 240.628C257.551 232.473 257.746 229.485 261.141 228.633C265.281 227.594 269.135 227.809 270.774 229.169C271.584 229.841 274.595 234.528 277.467 239.586C289.822 261.347 301.253 270.803 321.999 276.424C328.351 278.145 332.864 278.582 344.909 278.639C364.167 278.73 376.691 276.107 390.909 269.003C406.065 261.431 421.105 245.544 426.512 231.395C429.227 224.293 430.179 208.884 428.449 200.046C427.217 193.75 422.437 182.577 418.392 176.536C416.74 174.07 416.542 173.203 417.564 172.923C418.304 172.72 421.159 172.026 423.909 171.38C437.801 168.119 451.898 156.077 459.144 141.281C464.279 130.795 467.322 119.508 468.107 108.031C468.798 97.9252 467.688 96.7362 464.986 104.686C457.983 125.287 435.839 133.138 416.9 121.733C413.747 119.835 410.82 118.281 410.396 118.281C409.972 118.281 406.647 124.145 403.007 131.312C395.188 146.705 394.249 148.283 392.918 148.274C391.208 148.262 382.086 136.523 378.707 129.985C372.66 118.289 370.81 103.193 374.302 94.0502L375.345 91.3192L387.627 91.9332C414.425 93.2712 442.932 88.0762 462.409 78.3062C477.381 70.7952 491.457 57.6632 499.128 44.0472C505.736 32.3182 505.641 30.8022 498.739 37.8072C491.437 45.2172 485.477 49.2332 475.81 53.2582C459.862 59.8972 456.144 60.4232 418.909 61.3112C382.421 62.1812 380.462 62.4362 361.403 68.7832C333.427 78.1002 304.013 100.75 297.773 117.781C297.235 119.25 298.096 118.836 301.014 116.224C311.128 107.17 324.024 100.451 339.142 96.3582C350.192 93.3672 358.409 91.8462 358.409 92.7912C358.409 93.0852 356.662 96.8032 354.528 101.053C349.434 111.195 345.789 122.96 344.347 133.916C343.705 138.792 342.808 143.489 342.353 144.355C341.322 146.319 334.972 148.281 329.648 148.281C323.63 148.281 313.659 144.83 307.016 140.447C300.509 136.154 288.735 124.884 287.853 122.104C287.084 119.682 297.084 100.456 310.331 78.8852C321.622 60.5002 327.998 41.0172 327.22 27.2812L326.909 21.7982L323.425 27.2902C313.092 43.5752 300.677 51.4732 282.909 53.0642L274.909 53.7812L267.865 73.9922C263.99 85.1082 260.531 94.4922 260.177 94.8462C259.823 95.2002 256.374 93.7822 252.511 91.6962L245.489 87.9032L249.963 83.1202C255.34 77.3722 256.409 74.8272 256.409 67.7812C256.409 61.1352 255.265 58.0312 250.81 52.5952C244.233 44.5682 241.57 43.8052 169.813 29.3732C134.011 22.1722 104.037 16.2812 103.204 16.2812C102.372 16.2812 99.7152 18.0042 97.3002 20.1102ZM155.6 61.3992C151.219 65.6822 145.994 74.5622 143.521 81.9282C142.386 85.3082 140.315 96.1082 138.918 105.928C135.376 130.831 131.487 144.784 125.23 155.031C124.083 156.911 123.717 158.281 124.364 158.281C124.979 158.281 131.203 154.086 138.196 148.958C150.122 140.213 159.819 133.695 183.909 118.229C192.586 112.659 203.746 105.06 206.909 102.569C207.459 102.135 209.593 100.656 211.652 99.2812C213.711 97.9062 215.398 96.2802 215.402 95.6672C215.412 94.0002 207.151 93.1922 201.347 94.2932C195.057 95.4862 188.911 98.1522 182.872 102.306C180.34 104.048 178.109 105.314 177.913 105.119C177.718 104.923 179.556 102.444 181.998 99.6102C191.316 88.7942 203.761 83.1682 218.909 82.9232C223.859 82.8432 228.472 82.4152 229.159 81.9702C229.847 81.5262 230.409 79.4052 230.409 77.2572C230.409 74.3472 229.648 72.4832 227.423 69.9502C224.157 66.2302 220.581 64.9782 208.409 63.2942C200.601 62.2142 163.074 58.3072 160.349 58.2912C159.491 58.2852 157.354 59.6842 155.6 61.3992ZM218.557 104.266C208.12 111.107 208.338 110.627 213.462 115.528C220.095 121.872 227.409 130.066 227.409 131.152C227.409 131.678 224.415 133.783 220.756 135.829C206.552 143.773 195.412 158.747 195.41 169.897C195.409 177.56 200.819 187.635 209.814 196.717C216.918 203.891 222.058 207.966 222.918 207.105C223.163 206.86 224.524 202.636 225.941 197.72C229.037 186.977 240.226 153.284 247.296 133.409C250.108 125.504 252.409 118.643 252.409 118.162C252.409 114.562 232.474 99.1902 228.031 99.3642C226.864 99.4102 222.6 101.616 218.557 104.266ZM268.136 170.031C260.101 193.815 258.531 199.892 257.728 210.303L257.113 218.281L260.011 218.273C270.137 218.247 286.457 213.589 298.132 207.393C302.104 205.285 305.592 203.797 305.882 204.087C306.172 204.377 306.409 205.842 306.409 207.342C306.409 211.689 310.288 223.242 313.996 229.941C320.595 241.861 335.239 252.414 351.409 256.901C356.158 258.219 361.546 258.713 371.409 258.735C387.171 258.771 392.942 257.085 400.84 250.133C406.617 245.048 408.409 241.652 408.409 235.791C408.409 226.326 402.209 219.001 376.542 198.143C360.309 184.951 350.926 173.946 346.817 163.281C345.864 160.806 344.976 158.637 344.844 158.462C344.711 158.286 341.848 160.17 338.481 162.649C329.32 169.393 322.698 171.569 312.909 171.052C301.35 170.442 291.25 165.117 280.409 153.918C278.484 151.929 276.436 150.298 275.859 150.292C275.281 150.286 271.806 159.168 268.136 170.031Z" fill="black"/>
</g>
<defs>
<clipPath id="clip0_2905_11085">
<rect width="729.855" height="324.931" fill="white" transform="translate(0.90918 0.344116)"/>
</clipPath>
</defs>
</svg>
