<svg width="800" height="147" viewBox="0 0 800 147" fill="none" xmlns="http://www.w3.org/2000/svg">
<g clip-path="url(#clip0_9_2)">
<path d="M240.545 138.71C235.545 138.71 231.218 135.776 229.194 131.539C228.85 131.375 228.515 131.195 228.188 131.002C226.306 135.526 221.879 138.71 216.73 138.71H204.678C199.753 138.71 195.489 135.796 193.48 131.582C192.893 131.304 192.33 130.98 191.796 130.616C189.937 135.194 185.482 138.427 180.295 138.427H120.618C113.687 138.427 108.048 132.788 108.048 125.856C108.048 119.007 113.687 113.434 120.618 113.434H132.018C132.052 112.606 132.165 111.795 132.355 111.007C132.126 110.037 132.008 109.027 132.008 107.996C132.008 106.99 132.126 106.004 132.354 105.053C132.126 104.083 132.008 103.074 132.008 102.044C132.008 101.028 132.129 100.031 132.362 99.0713C132.128 98.1045 132.008 97.1064 132.008 96.0918C132.008 95.0605 132.126 94.0508 132.355 93.081C132.126 92.1299 132.008 91.1426 132.008 90.1367C132.008 89.1064 132.126 88.0967 132.354 87.1269C132.126 86.1767 132.008 85.1894 132.008 84.1836C132.008 83.1533 132.126 82.1435 132.354 81.1748C132.126 80.2236 132.008 79.2373 132.008 78.2314C132.008 77.1836 132.124 76.1679 132.349 75.1972C132.164 74.417 132.052 73.6133 132.019 72.7949H120.618C113.687 72.7949 108.048 67.1572 108.048 60.2275C108.048 54.6836 111.74 49.9765 116.82 48.3808C118.074 46.0039 120.084 44.0752 122.532 42.9082C122.562 42.8447 122.594 42.7803 122.625 42.7168H114.741C113.698 44.4004 112.262 45.8203 110.559 46.8506C110.606 47.2832 110.63 47.7178 110.63 48.1543C110.63 53.0781 107.716 57.3428 103.502 59.3515C102.429 61.6201 100.683 63.5176 98.5195 64.791C98.5586 65.1943 98.5781 65.6025 98.5781 66.0137C98.5781 71.0498 95.6362 75.4033 91.3999 77.4082C90.3476 79.6162 88.6753 81.4668 86.6137 82.7295C86.6533 83.1533 86.6733 83.583 86.6733 84.0185C86.6733 88.5254 84.2602 92.4795 80.6582 94.6572C80.6977 95.0752 80.7182 95.499 80.7182 95.9258C80.7182 100.886 77.7963 105.177 73.583 107.166C72.5322 109.391 70.8403 111.255 68.7475 112.52C68.7734 112.768 68.7919 113.018 68.8022 113.268H80.1997C87.0512 113.268 92.6255 118.841 92.6255 125.69C92.6255 132.622 87.0512 138.261 80.1997 138.261H14.5708C7.63916 138.261 2 132.622 2 125.69C2 118.841 7.63916 113.268 14.5708 113.268H33.7339C34.7778 111.563 36.2202 110.13 37.9312 109.097C37.8872 108.678 37.8647 108.256 37.8647 107.831C37.8647 102.79 40.814 98.4326 45.0591 96.4316C46.1123 94.249 47.7778 92.416 49.8316 91.1562C49.792 90.7637 49.772 90.3681 49.772 89.9707C49.772 85.4375 52.1841 81.458 55.7925 79.2471C55.7476 78.8096 55.7246 78.3672 55.7246 77.9189C55.7246 72.9941 58.6392 68.7295 62.853 66.7207C63.9253 64.4541 65.6709 62.5586 67.833 61.2851C67.7959 60.8818 67.7769 60.4726 67.7769 60.0615C67.7769 55.1006 70.6987 50.8086 74.9116 48.8184C75.9624 46.5947 77.6538 44.7305 79.7471 43.4658C79.7222 43.2178 79.7046 42.9678 79.6944 42.7168H78.8975C76.7119 46.2861 72.7769 48.6719 68.2949 48.6719H66.9917C65.7237 50.7412 63.8677 52.4121 61.6572 53.4521C60.4248 56.0254 58.3237 58.1162 55.73 59.3525C54.5064 61.9385 52.4082 64.042 49.814 65.2891C47.8257 69.6162 43.4492 72.6289 38.3828 72.6289C31.5313 72.6289 25.9571 66.9912 25.9571 60.0615C25.9571 55.0996 28.8804 50.8076 33.0947 48.8174C34.3267 46.2109 36.4395 44.0976 39.0469 42.8662C40.2754 40.2637 42.3809 38.1553 44.9805 36.9209C46.2144 34.2656 48.3491 32.1103 50.9898 30.8496C52.232 28.2471 54.3428 26.1357 56.9444 24.8936C58.1865 22.2939 60.2959 20.1846 62.896 18.9424C64.9195 14.7061 69.2476 11.7715 74.2476 11.7715C78.7007 11.7715 82.6138 14.1533 84.8081 17.7236H147.179C149.373 14.1533 153.286 11.7715 157.739 11.7715C164.67 11.7715 170.31 17.4102 170.31 24.3418C170.31 29.333 167.316 33.6455 163.01 35.6191C161.775 38.21 159.67 40.3086 157.075 41.5342C155.843 44.1436 153.729 46.2578 151.12 47.4893C151.068 47.5986 151.015 47.707 150.96 47.8145C155.944 48.0371 160.181 51.1436 162.001 55.4814C162.309 55.3008 162.626 55.1338 162.95 54.9785C164.955 50.7432 169.308 47.8018 174.343 47.8018H180.295C185.255 47.8018 189.546 50.7236 191.537 54.9355C191.947 55.1299 192.346 55.3457 192.731 55.582C192.962 55.4541 193.198 55.333 193.438 55.2197C195.428 51.0059 199.718 48.084 204.678 48.084H228.638C233.597 48.084 237.887 51.0059 239.877 55.2188C242.492 56.4541 244.611 58.5752 245.842 61.1924C250.05 63.207 252.968 67.5459 252.968 72.5596C252.968 73.5566 252.852 74.5361 252.626 75.4805C252.853 76.4512 252.968 77.4668 252.968 78.5147C252.968 78.7197 252.963 78.9238 252.954 79.127C254.6 78.3105 256.451 77.8516 258.405 77.8516C265.335 77.8516 270.973 83.4893 270.973 90.4199C270.973 91.4277 270.844 92.4229 270.597 93.3857C270.843 94.3613 270.973 95.3652 270.973 96.375C270.973 97.2383 270.879 98.2568 270.597 99.3623C270.844 100.324 270.973 101.319 270.973 102.327C270.973 103.336 270.843 104.34 270.597 105.314C270.844 106.276 270.973 107.271 270.973 108.279C270.973 109.289 270.843 110.293 270.597 111.269C270.785 112.002 270.905 112.754 270.951 113.517H278.695C278.731 112.688 278.851 111.871 279.052 111.073C278.81 110.095 278.684 109.089 278.684 108.079C278.684 107.074 278.809 106.082 279.051 105.118C278.81 104.141 278.684 103.136 278.684 102.127C278.684 101.119 278.81 100.123 279.054 99.1562C278.808 98.1836 278.684 97.1885 278.684 96.1748C278.684 95.165 278.81 94.1601 279.052 93.1816C278.809 92.2178 278.684 91.2246 278.684 90.2197C278.684 89.2109 278.81 88.2061 279.051 87.2285C278.809 86.2656 278.684 85.2725 278.684 84.2676C278.684 83.2588 278.81 82.2529 279.051 81.2754C278.809 80.3125 278.684 79.3193 278.684 78.3144C278.684 77.2881 278.807 76.2773 279.046 75.2998C278.849 74.5088 278.73 73.6982 278.695 72.8779H267.295C260.443 72.8779 254.869 67.2402 254.869 60.3105C254.869 53.459 260.443 47.8848 267.295 47.8848H297.207C302.389 47.8848 306.84 51.0742 308.7 55.5937C309.049 55.3857 309.408 55.1933 309.778 55.0185C311.769 50.8066 316.06 47.8847 321.02 47.8847H326.972C332.007 47.8847 336.36 50.8262 338.365 55.0615C339.7 55.6982 340.905 56.5615 341.928 57.5996C342.951 56.5615 344.155 55.6982 345.491 55.0625C347.496 50.8262 351.849 47.8848 356.884 47.8848H362.836C367.797 47.8848 372.088 50.8057 374.079 55.0195C378.293 57.0088 381.214 61.3008 381.214 66.2627C381.214 67.3154 381.097 68.3359 380.869 69.3105C381.098 70.2861 381.214 71.3066 381.214 72.3594C381.214 73.3564 381.098 74.3359 380.873 75.2803C381.099 76.251 381.214 77.2666 381.214 78.3144C381.214 79.3203 381.096 80.3066 380.868 81.2578C381.096 82.2275 381.214 83.2373 381.214 84.2676C381.214 85.2734 381.096 86.2598 380.868 87.2109C381.096 88.1807 381.214 89.1895 381.214 90.2197C381.214 91.2256 381.096 92.2129 380.867 93.1641C381.096 94.1338 381.214 95.1436 381.214 96.1748C381.214 97.1895 381.094 98.1875 380.86 99.1543C381.094 100.114 381.214 101.111 381.214 102.127C381.214 103.157 381.096 104.166 380.868 105.136C381.096 106.087 381.214 107.073 381.214 108.079C381.214 109.11 381.096 110.12 380.867 111.091C381.057 111.878 381.17 112.689 381.204 113.517H392.604C399.535 113.517 405.174 119.09 405.174 125.939C405.174 132.871 399.535 138.51 392.604 138.51H356.884C354.686 138.51 352.637 137.974 350.858 137.021C349.078 137.974 347.029 138.51 344.832 138.51H321.02C318.864 138.51 316.835 137.952 315.065 136.971C313.297 137.952 311.268 138.51 309.112 138.51H267.295C264.574 138.51 262.054 137.62 260.005 136.113C257.91 137.741 255.29 138.71 252.45 138.71L240.545 138.71ZM180.295 113.434C182.481 113.434 184.538 114.001 186.324 114.996C186.31 114.744 186.302 114.489 186.302 114.234C186.302 113.228 186.42 112.241 186.649 111.29C186.421 110.32 186.302 109.311 186.302 108.279C186.302 107.273 186.42 106.287 186.649 105.336C186.42 104.366 186.302 103.357 186.302 102.327C186.302 97.3672 189.224 93.0771 193.437 91.0869C193.611 90.7168 193.803 90.3574 194.012 90.0088C193.397 89.7558 192.806 89.4541 192.245 89.1103C190.467 90.0937 188.423 90.6543 186.25 90.6543C181.215 90.6543 176.861 87.7129 174.856 83.4775C174.671 83.3887 174.488 83.2969 174.308 83.1992C174.102 83.3115 173.892 83.4189 173.678 83.5195C171.756 87.5879 167.688 90.4521 162.943 90.6445C162.907 91.4785 162.783 92.3017 162.578 93.1025C162.824 94.0781 162.954 95.082 162.954 96.0918C162.954 96.9551 162.86 97.9736 162.578 99.0791C162.825 100.041 162.954 101.036 162.954 102.044C162.954 103.053 162.824 104.057 162.578 105.03C162.825 105.993 162.954 106.988 162.954 107.996C162.954 109.005 162.824 110.01 162.578 110.985C162.783 111.782 162.906 112.603 162.942 113.434H180.295Z" fill="#FF6213" stroke="#010101" stroke-width="4"/>
<path d="M155.706 30.294C155.706 32.4719 153.965 34.213 151.787 34.213H149.317C149.609 34.7944 149.754 35.5204 149.754 36.2463C149.754 38.4242 148.01 40.1682 145.832 40.1682H143.365C143.654 40.7467 143.798 41.4755 143.798 42.2015C143.798 44.3794 142.057 46.1206 139.879 46.1206C137.701 46.1206 135.813 44.3794 135.813 42.2015C135.813 41.0388 136.394 39.8761 137.265 39.1502C136.394 38.4242 135.813 37.409 135.813 36.2463C135.813 35.5203 136.105 34.7944 136.394 34.213H107.5C107.789 34.7944 108.079 35.5203 108.079 36.2463C108.079 38.4242 106.193 40.1682 104.015 40.1682H101.545C101.837 40.7467 102.126 41.4755 102.126 42.2015C102.126 43.3613 101.545 44.3794 100.674 45.1054C101.545 45.8313 102.126 46.9912 102.126 48.1539C102.126 50.3318 100.238 52.0729 98.0597 52.0729H95.5926C95.8818 52.6543 96.1739 53.3803 96.1739 54.1062C96.1739 56.2841 94.2853 58.0281 92.1074 58.0281H89.6402C89.9295 58.6066 90.0741 59.3326 90.0741 60.0614C90.0741 61.2213 89.6402 62.3839 88.7668 63.1099C89.6402 63.8359 90.0741 64.8511 90.0741 66.0138C90.0741 68.1917 88.3329 70.0803 86.155 70.0803H83.685C83.9771 70.6588 84.1217 71.2402 84.1217 71.9661C84.1217 74.144 82.3777 76.0327 80.1998 76.0327H77.7327C78.0219 76.614 78.1694 77.1925 78.1694 77.9185C78.1694 79.2258 77.7327 80.2438 76.8621 80.9698C77.7326 81.6958 78.1694 82.711 78.1694 84.0183C78.1694 86.1962 76.4253 87.9374 74.2474 87.9374H71.6328C72.0695 88.5187 72.2142 89.2447 72.2142 89.9707C72.2142 91.1333 71.7803 92.1486 70.9068 92.8745C71.7803 93.6005 72.2142 94.7632 72.2142 95.9259C72.2142 98.1038 70.473 99.845 68.2951 99.845H65.6804C66.1172 100.426 66.2618 101.152 66.2618 101.878C66.2618 104.056 64.5178 105.797 62.3399 105.797H59.7281C60.162 106.379 60.3094 107.105 60.3094 107.831C60.3094 108.993 59.7281 110.008 59.0021 110.734C59.7281 111.46 60.3094 112.623 60.3094 113.786C60.3094 115.964 58.5654 117.705 56.3875 117.705H53.7729C54.2096 118.286 54.3542 119.012 54.3542 119.738C54.3542 120.464 54.2096 121.19 53.7729 121.771H80.1998C82.3777 121.771 84.1217 123.513 84.1217 125.691C84.1217 127.868 82.3777 129.757 80.1998 129.757H14.5707C12.3928 129.757 10.5042 127.868 10.5042 125.691C10.5042 123.513 12.3928 121.771 14.5707 121.771H40.9976C40.5609 121.19 40.4163 120.464 40.4163 119.738C40.4163 117.56 42.1574 115.819 44.3354 115.819H46.95C46.5133 115.238 46.3686 114.512 46.3686 113.786C46.3686 112.623 46.95 111.46 47.6759 110.734C46.95 110.008 46.3686 108.993 46.3686 107.831C46.3686 105.653 48.1127 103.767 50.2906 103.767H52.9023C52.4684 103.186 52.321 102.604 52.321 101.878C52.321 99.7003 54.065 97.8117 56.3875 97.8117H58.8575C58.5654 97.2332 58.2762 96.6518 58.2762 95.9259C58.2762 94.7632 58.8575 93.6005 59.7281 92.8745C58.8575 92.1486 58.2762 91.1333 58.2762 89.9707C58.2762 87.6481 60.162 85.907 62.3399 85.907H64.8099C64.5178 85.3256 64.2285 84.5996 64.2285 84.0183C64.2285 82.711 64.8099 81.6958 65.6805 80.9698C64.8099 80.2438 64.2285 79.2258 64.2285 77.9185C64.2285 75.7406 66.1172 73.9994 68.2951 73.9994H70.7622C70.473 73.4181 70.1809 72.6921 70.1809 71.9661C70.1809 69.7882 72.0696 68.047 74.2475 68.047H76.7175C76.4254 67.4657 76.2807 66.7397 76.2807 66.0138C76.2807 64.8511 76.7175 63.8359 77.5881 63.1099C76.7175 62.3839 76.2807 61.2212 76.2807 60.0614C76.2807 57.8807 78.0219 56.1395 80.1998 56.1395H82.6698C82.3777 55.5581 82.2331 54.8322 82.2331 54.1062C82.2331 51.9283 83.9771 50.1871 86.155 50.1871H88.6222C88.3329 49.6058 88.1883 48.8798 88.1883 48.1539C88.1883 46.9912 88.6222 45.8313 89.4928 45.1054C88.6222 44.3794 88.1883 43.3613 88.1883 42.2015C88.1883 40.0208 89.9295 38.1349 92.1074 38.1349H94.722C94.2853 37.5536 94.1407 36.9723 94.1407 36.2463C94.1407 35.5203 94.2853 34.7944 94.722 34.213H71.6329C72.0696 34.7944 72.2142 35.5203 72.2142 36.2463C72.2142 38.4242 70.473 40.1682 68.2951 40.1682H62.3399C60.162 40.1682 58.2762 38.4242 58.2762 36.2463C58.2762 34.0684 60.162 32.1797 62.3399 32.1797H64.8099C64.5178 31.6012 64.2286 31.0199 64.2286 30.2939C64.2286 28.116 66.1172 26.2274 68.2951 26.2274H70.7623C70.473 25.646 70.1809 25.0675 70.1809 24.3416C70.1809 22.0162 72.0696 20.275 74.2475 20.275C76.4254 20.275 78.1694 22.0162 78.1694 24.3416C78.1694 25.0675 78.0219 25.646 77.7327 26.2274H151.787C153.965 26.2274 155.706 28.1161 155.706 30.294ZM34.461 60.0614C34.461 57.8807 36.2051 56.1395 38.383 56.1395C40.5609 56.1395 42.4495 57.8807 42.4495 60.0614C42.4495 62.2393 40.5609 64.1251 38.383 64.1251C36.2051 64.1251 34.461 62.2393 34.461 60.0614ZM40.4162 54.1062C40.4162 51.9283 42.1574 50.1871 44.3353 50.1871C46.5132 50.1871 48.4019 51.9283 48.4019 54.1062C48.4019 56.2841 46.5132 58.0282 44.3353 58.0282C42.1574 58.0282 40.4162 56.2841 40.4162 54.1062ZM46.3686 48.1539C46.3686 45.976 48.1126 44.232 50.2905 44.232C52.6131 44.232 54.3542 45.976 54.3542 48.1539C54.3542 50.3318 52.6131 52.073 50.2905 52.073C48.1126 52.073 46.3686 50.3318 46.3686 48.1539ZM52.321 42.2015C52.321 40.0208 54.065 38.135 56.3875 38.135C58.5654 38.135 60.3094 40.0208 60.3094 42.2015C60.3094 44.3794 58.5654 46.1206 56.3875 46.1206C54.065 46.1206 52.321 44.3794 52.321 42.2015ZM125.939 60.0614C125.939 62.2393 124.197 64.1251 122.019 64.1251C119.697 64.1251 117.953 62.2393 117.953 60.0614C117.953 57.8807 119.697 56.1395 122.019 56.1395C124.197 56.1395 125.939 57.8807 125.939 60.0614ZM131.894 54.1062C131.894 56.2841 130.15 58.0282 127.972 58.0282C125.794 58.0282 123.908 56.2841 123.908 54.1062C123.908 51.9283 125.794 50.1871 127.972 50.1871C130.15 50.1871 131.894 51.9283 131.894 54.1062ZM137.846 48.1539C137.846 50.3318 136.105 52.073 133.927 52.073C131.749 52.073 129.86 50.3318 129.86 48.1539C129.86 45.976 131.749 44.232 133.927 44.232C136.105 44.232 137.846 45.976 137.846 48.1539ZM161.806 24.3416C161.806 26.5195 159.917 28.2607 157.739 28.2607C155.561 28.2607 153.817 26.5195 153.817 24.3416C153.817 22.0162 155.561 20.275 157.739 20.275C159.917 20.275 161.806 22.0162 161.806 24.3416ZM184.217 125.856C184.217 128.182 182.473 129.923 180.295 129.923H120.618C118.44 129.923 116.552 128.182 116.552 125.856C116.552 123.678 118.44 121.937 120.618 121.937H140.945C140.656 121.356 140.512 120.63 140.512 119.904C140.512 118.741 140.945 117.726 141.819 117C140.945 116.274 140.512 115.111 140.512 113.951C140.512 112.789 140.945 111.774 141.819 111.048C140.945 110.322 140.512 109.159 140.512 107.996C140.512 106.836 140.945 105.818 141.819 105.092C140.945 104.366 140.512 103.207 140.512 102.044C140.512 100.881 140.945 99.866 141.819 99.14C140.945 98.2694 140.512 97.2514 140.512 96.0915C140.512 94.9288 140.945 93.7662 141.819 93.0402C140.945 92.3142 140.512 91.299 140.512 90.1363C140.512 88.9765 140.945 87.8138 141.819 87.0878C140.945 86.3619 140.512 85.3466 140.512 84.184C140.512 83.0213 140.945 81.8614 141.819 81.1355C140.945 80.4095 140.512 79.3915 140.512 78.2316C140.512 76.9243 140.945 75.9062 141.819 75.1803C140.945 74.4543 140.512 73.4391 140.512 72.2764C140.512 70.9719 140.945 69.9539 141.819 69.2279C140.945 68.5019 140.512 67.4867 140.512 66.1794C140.512 65.4535 140.656 64.8721 140.945 64.2908H120.618C118.44 64.2908 116.552 62.5496 116.552 60.2271C116.552 58.0463 118.44 56.3051 120.618 56.3051H150.386C152.564 56.3051 154.45 58.0463 154.45 60.2271C154.45 61.5315 153.868 62.5496 152.998 63.2756C153.868 64.0015 154.45 65.0167 154.45 66.1794C154.45 67.4867 153.868 68.502 152.998 69.2279C153.868 69.9539 154.45 70.9719 154.45 72.2764C154.45 73.0024 154.16 73.5837 153.868 74.1651H162.435C164.613 74.1651 166.357 76.0537 166.357 78.2316C166.357 80.4095 164.613 82.1507 162.435 82.1507H153.868C154.16 82.732 154.45 83.458 154.45 84.184C154.45 85.3466 153.868 86.3619 152.998 87.0878C153.868 87.8138 154.45 88.9765 154.45 90.1363C154.45 91.299 153.868 92.3142 152.998 93.0402C153.868 93.7662 154.45 94.9288 154.45 96.0915C154.45 97.2514 153.868 98.2694 152.998 99.14C153.868 99.866 154.45 100.881 154.45 102.044C154.45 103.207 153.868 104.366 152.998 105.092C153.868 105.818 154.45 106.836 154.45 107.996C154.45 109.159 153.868 110.322 152.998 111.048C153.868 111.774 154.45 112.789 154.45 113.951C154.45 115.111 153.868 116.274 152.998 117C153.868 117.726 154.45 118.741 154.45 119.904C154.45 120.63 154.16 121.356 153.868 121.937H180.295C182.473 121.937 184.217 123.678 184.217 125.856ZM165.631 69.2279C164.905 68.5019 164.324 67.4867 164.324 66.1794C164.324 64.0015 166.065 62.2575 168.39 62.2575C170.568 62.2575 172.309 64.0015 172.309 66.1794C172.309 67.4867 171.728 68.502 171.002 69.2279C171.728 69.9539 172.309 70.9719 172.309 72.2764C172.309 74.4543 170.568 76.1983 168.39 76.1983C166.065 76.1983 164.324 74.4543 164.324 72.2764C164.324 70.9719 164.905 69.9539 165.631 69.2279ZM170.276 60.2271C170.276 58.0463 172.165 56.3051 174.343 56.3051H180.295C182.473 56.3051 184.217 58.0463 184.217 60.2271C184.217 62.5496 182.473 64.2908 180.295 64.2908H174.343C172.165 64.2908 170.276 62.5496 170.276 60.2271ZM196.125 72.2764C196.125 74.4543 194.381 76.1983 192.203 76.1983C191.04 76.1983 189.88 75.617 189.154 74.891C189.058 74.9874 188.96 75.0839 188.862 75.1803C189.736 75.9062 190.169 76.9243 190.169 78.2316C190.169 80.4095 188.428 82.1507 186.25 82.1507C184.072 82.1507 182.184 80.4095 182.184 78.2316C182.184 76.9243 182.765 75.9062 183.636 75.1803C183.443 75.0838 183.297 74.9874 183.199 74.891C182.473 75.617 181.458 76.1983 180.295 76.1983C178.117 76.1983 176.231 74.4543 176.231 72.2764C176.231 69.9539 178.117 68.2127 180.295 68.2127C181.458 68.2127 182.473 68.7912 183.199 69.5172C183.297 69.4207 183.443 69.3243 183.636 69.2279C182.765 68.5019 182.184 67.4867 182.184 66.1794C182.184 64.0015 184.072 62.2575 186.25 62.2575C188.428 62.2575 190.169 64.0015 190.169 66.1794C190.169 67.4867 189.736 68.502 188.862 69.2279C189.01 69.3725 189.154 69.5172 189.154 69.5172C189.88 68.7912 191.04 68.2127 192.203 68.2127C194.381 68.2127 196.125 69.9539 196.125 72.2764ZM196.111 75.4635L195.822 75.1742C195.096 75.9002 193.933 76.4815 192.773 76.4815C190.595 76.4815 188.851 74.7375 188.851 72.5596C188.851 70.2371 190.595 68.4959 192.773 68.4959C193.933 68.4959 195.096 69.0744 195.822 69.8004L196.111 69.5111C195.24 68.7851 194.806 67.7699 194.806 66.4626C194.806 64.2847 196.548 62.5407 198.725 62.5407C200.903 62.5407 202.792 64.2847 202.792 66.4626C202.792 67.7699 202.211 68.7851 201.34 69.5111C201.533 69.6075 201.678 69.7039 201.774 69.8004C202.5 69.0744 203.518 68.4959 204.678 68.4959C206.856 68.4959 208.744 70.2371 208.744 72.5596C208.744 74.7375 206.856 76.4815 204.678 76.4815C203.518 76.4815 202.5 75.9002 201.774 75.1742C201.678 75.2706 201.533 75.367 201.34 75.4635C202.211 76.1894 202.792 77.2075 202.792 78.5148C202.792 80.6927 200.903 82.4339 198.725 82.4339C196.548 82.4339 194.806 80.6927 194.806 78.5148C194.806 77.2075 195.24 76.1894 196.111 75.4635ZM219.345 123.235C220.071 123.961 220.652 124.979 220.652 126.139C220.652 128.465 218.908 130.206 216.73 130.206H204.678C202.5 130.206 200.759 128.465 200.759 126.139C200.759 125.413 200.903 124.832 201.34 124.254H198.725C196.548 124.254 194.806 122.365 194.806 120.187C194.806 119.024 195.24 118.009 196.111 117.283C195.24 116.557 194.806 115.394 194.806 114.235C194.806 113.072 195.24 112.057 196.111 111.331C195.24 110.605 194.806 109.442 194.806 108.279C194.806 107.12 195.24 106.102 196.111 105.376C195.24 104.65 194.806 103.49 194.806 102.327C194.806 100.149 196.548 98.408 198.725 98.408H201.34C200.903 97.8266 200.759 97.1007 200.759 96.3747C200.759 94.1968 202.5 92.4528 204.678 92.4528H210.633C212.956 92.4528 214.697 94.1968 214.697 96.3747C214.697 98.5526 212.956 100.294 210.633 100.294H208.163C208.455 100.875 208.744 101.601 208.744 102.327C208.744 103.49 208.163 104.65 207.292 105.376C208.163 106.102 208.744 107.12 208.744 108.279C208.744 109.442 208.163 110.605 207.292 111.331C208.163 112.057 208.744 113.072 208.744 114.235C208.744 115.394 208.163 116.557 207.292 117.283C208.163 118.009 208.744 119.024 208.744 120.187C208.744 120.913 208.455 121.639 208.163 122.22H213.245C212.811 121.639 212.666 120.913 212.666 120.187C212.666 118.009 214.407 116.268 216.73 116.268C218.908 116.268 220.652 118.009 220.652 120.187C220.652 121.494 220.071 122.51 219.345 123.235ZM200.759 60.5102C200.759 58.3295 202.5 56.5883 204.678 56.5883H228.638C230.815 56.5883 232.557 58.3295 232.557 60.5102C232.557 62.8328 230.815 64.5739 228.638 64.5739H204.678C202.5 64.5739 200.759 62.8328 200.759 60.5102ZM256.372 126.139C256.372 128.465 254.628 130.206 252.45 130.206H240.545C238.367 130.206 236.479 128.465 236.479 126.139C236.479 125.413 236.768 124.832 237.06 124.254H234.59C232.412 124.254 230.526 122.365 230.526 120.187C230.526 119.461 230.815 118.88 231.105 118.298H222.685C220.36 118.298 218.619 116.413 218.619 114.235C218.619 112.057 220.36 110.313 222.685 110.313H231.105C230.815 109.731 230.526 109.005 230.526 108.279C230.526 107.12 231.105 106.102 231.978 105.376C231.105 104.65 230.526 103.49 230.526 102.327C230.526 101.164 231.105 100.149 231.978 99.4232C231.105 98.5526 230.526 97.5346 230.526 96.3747C230.526 95.6487 230.815 94.9228 231.105 94.3414H216.73C214.407 94.3414 212.666 92.5974 212.666 90.4195C212.666 88.2416 214.407 86.3558 216.73 86.3558H231.105C230.815 85.7745 230.526 85.1931 230.526 84.4672C230.526 83.3045 231.105 82.1446 231.978 81.4187C231.105 80.6927 230.526 79.6747 230.526 78.5148C230.526 77.2075 231.105 76.1894 231.978 75.4635C231.105 74.7375 230.526 73.7223 230.526 72.5596C230.526 71.2551 231.105 70.2371 231.978 69.5111C231.105 68.7851 230.526 67.7699 230.526 66.4626C230.526 64.2847 232.412 62.5407 234.59 62.5407C236.768 62.5407 238.512 64.2847 238.512 66.4626C238.512 67.1886 238.367 67.9146 238.075 68.4959H240.545C242.723 68.4959 244.464 70.2371 244.464 72.5596C244.464 73.7223 244.027 74.7375 243.157 75.4635C244.027 76.1894 244.464 77.2075 244.464 78.5148C244.464 79.6747 244.027 80.6927 243.157 81.4187C244.027 82.1446 244.464 83.3045 244.464 84.4672C244.464 85.6298 244.027 86.6451 243.157 87.371C244.027 88.097 244.464 89.2597 244.464 90.4195C244.464 91.5822 244.027 92.5974 243.157 93.3234C244.027 94.0494 244.464 95.212 244.464 96.3747C244.464 97.5346 244.027 98.5526 243.157 99.4232C244.027 100.149 244.464 101.164 244.464 102.327C244.464 103.49 244.027 104.65 243.157 105.376C244.027 106.102 244.464 107.12 244.464 108.279C244.464 109.442 244.027 110.605 243.157 111.331C244.027 112.057 244.464 113.072 244.464 114.235C244.464 115.394 244.027 116.557 243.157 117.283C244.027 118.009 244.464 119.024 244.464 120.187C244.464 120.913 244.32 121.639 244.027 122.22H252.45C254.628 122.22 256.372 123.961 256.372 126.139ZM261.017 99.4232C261.887 100.149 262.469 101.164 262.469 102.327C262.469 103.49 261.887 104.65 261.017 105.376C261.887 106.102 262.469 107.12 262.469 108.279C262.469 109.442 261.887 110.605 261.017 111.331C261.887 112.057 262.469 113.072 262.469 114.235C262.469 115.394 261.887 116.557 261.017 117.283C261.887 118.009 262.469 119.024 262.469 120.187C262.469 122.365 260.583 124.254 258.405 124.254C256.227 124.254 254.483 122.365 254.483 120.187C254.483 119.024 254.92 118.009 255.79 117.283C254.92 116.557 254.483 115.394 254.483 114.235C254.483 113.072 254.92 112.057 255.79 111.331C254.92 110.605 254.483 109.442 254.483 108.279C254.483 107.12 254.92 106.102 255.79 105.376C254.92 104.65 254.483 103.49 254.483 102.327C254.483 101.164 254.92 100.149 255.79 99.4232C254.92 98.5526 254.483 97.5345 254.483 96.3747C254.483 95.212 254.92 94.0493 255.79 93.3234C254.92 92.5974 254.483 91.5822 254.483 90.4195C254.483 88.2416 256.227 86.3558 258.405 86.3558C260.583 86.3558 262.469 88.2416 262.469 90.4195C262.469 91.5822 261.887 92.5974 261.017 93.3234C261.887 94.0493 262.469 95.212 262.469 96.3747C262.469 97.5346 261.887 98.5526 261.017 99.4232ZM313.034 78.3148C313.034 80.4927 311.29 82.2339 309.112 82.2339H300.545C300.982 82.8153 301.126 83.5412 301.126 84.2672C301.126 85.4299 300.545 86.4451 299.819 87.1711C300.545 87.897 301.126 89.0597 301.126 90.2195C301.126 91.3822 300.545 92.3974 299.819 93.1234C300.545 93.8494 301.126 95.0121 301.126 96.1747C301.126 97.3346 300.545 98.3526 299.819 99.2232C300.545 99.9492 301.126 100.964 301.126 102.127C301.126 103.29 300.545 104.45 299.819 105.176C300.545 105.902 301.126 106.92 301.126 108.079C301.126 109.242 300.545 110.405 299.819 111.131C300.545 111.857 301.126 112.872 301.126 114.035C301.126 115.195 300.545 116.357 299.819 117.083C300.545 117.809 301.126 118.824 301.126 119.987C301.126 120.713 300.982 121.439 300.545 122.02H309.112C311.29 122.02 313.034 123.761 313.034 125.939C313.034 128.265 311.29 130.006 309.112 130.006H267.295C265.117 130.006 263.373 128.265 263.373 125.939C263.373 123.761 265.117 122.02 267.295 122.02H287.767C287.478 121.439 287.188 120.713 287.188 119.987C287.188 118.824 287.767 117.809 288.493 117.083C287.767 116.357 287.188 115.195 287.188 114.035C287.188 112.872 287.767 111.857 288.493 111.131C287.767 110.405 287.188 109.242 287.188 108.079C287.188 106.92 287.767 105.902 288.493 105.176C287.767 104.45 287.188 103.29 287.188 102.127C287.188 100.964 287.767 99.9492 288.493 99.2232C287.767 98.3526 287.188 97.3346 287.188 96.1747C287.188 95.0121 287.767 93.8494 288.493 93.1234C287.767 92.3974 287.188 91.3822 287.188 90.2195C287.188 89.0597 287.767 87.897 288.493 87.1711C287.767 86.4451 287.188 85.4299 287.188 84.2672C287.188 83.1045 287.767 81.9447 288.493 81.2187C287.767 80.4927 287.188 79.4747 287.188 78.3148C287.188 77.0075 287.767 75.9895 288.493 75.2635C287.767 74.5375 287.188 73.5223 287.188 72.3596C287.188 71.0552 287.767 70.0371 288.493 69.3111C287.767 68.5852 287.188 67.5699 287.188 66.2626C287.188 65.5367 287.478 64.9553 287.767 64.374H267.295C265.117 64.374 263.373 62.6328 263.373 60.3103C263.373 58.1295 265.117 56.3884 267.295 56.3884H297.207C299.385 56.3884 301.126 58.1296 301.126 60.3103C301.126 61.6148 300.545 62.6328 299.819 63.3588C300.545 64.0847 301.126 65.1 301.126 66.2626C301.126 67.57 300.545 68.5852 299.819 69.3111C300.545 70.0371 301.126 71.0552 301.126 72.3596C301.126 73.0856 300.982 73.6669 300.545 74.2483H309.112C311.29 74.2483 313.034 76.1369 313.034 78.3148ZM315.064 76.2815C312.886 76.2815 311.145 74.5375 311.145 72.3596C311.145 71.0552 311.582 70.0371 312.452 69.3111C311.582 68.5852 311.145 67.5699 311.145 66.2626C311.145 64.0847 312.886 62.3407 315.064 62.3407C317.245 62.3407 318.986 64.0847 318.986 66.2626C318.986 67.57 318.549 68.5852 317.679 69.3111C318.549 70.0371 318.986 71.0552 318.986 72.3596C318.986 74.5375 317.245 76.2815 315.064 76.2815ZM336.409 82.2339C336.701 82.8152 336.991 83.5412 336.991 84.2672C336.991 85.4299 336.409 86.4451 335.539 87.171C336.409 87.897 336.991 89.0597 336.991 90.2195C336.991 91.3822 336.409 92.3974 335.539 93.1234C336.409 93.8494 336.991 95.0121 336.991 96.1747C336.991 97.3346 336.409 98.3526 335.539 99.2232C336.409 99.9492 336.991 100.964 336.991 102.127C336.991 103.29 336.409 104.45 335.539 105.176C336.409 105.902 336.991 106.92 336.991 108.079C336.991 109.242 336.409 110.405 335.539 111.131C336.409 111.857 336.991 112.872 336.991 114.035C336.991 115.195 336.409 116.357 335.539 117.083C336.409 117.809 336.991 118.824 336.991 119.987C336.991 120.713 336.701 121.439 336.409 122.02H344.832C347.154 122.02 348.898 123.761 348.898 125.939C348.898 128.265 347.154 130.006 344.832 130.006H321.019C318.842 130.006 317.098 128.265 317.098 125.939C317.098 123.761 318.842 122.02 321.019 122.02H323.487C323.197 121.439 323.053 120.713 323.053 119.987C323.053 118.824 323.487 117.809 324.36 117.083C323.487 116.357 323.053 115.194 323.053 114.035C323.053 112.872 323.487 111.857 324.36 111.131C323.487 110.405 323.053 109.242 323.053 108.079C323.053 106.92 323.487 105.902 324.36 105.176C323.487 104.45 323.053 103.29 323.053 102.127C323.053 100.964 323.487 99.9492 324.36 99.2232C323.487 98.3526 323.053 97.3346 323.053 96.1747C323.053 95.0121 323.487 93.8494 324.36 93.1234C323.487 92.3974 323.053 91.3822 323.053 90.2195C323.053 89.0597 323.487 87.897 324.36 87.171C323.487 86.4451 323.053 85.4299 323.053 84.2672C323.053 83.1045 323.487 81.9446 324.36 81.2187C323.487 80.4927 323.053 79.4747 323.053 78.3148C323.053 77.0075 323.487 75.9895 324.36 75.2635C323.487 74.5375 323.053 73.5223 323.053 72.3596C323.053 71.0551 323.487 70.0371 324.36 69.3111C323.487 68.5852 323.053 67.5699 323.053 66.2626C323.053 65.5367 323.197 64.9553 323.487 64.374H321.019C318.842 64.374 317.098 62.6328 317.098 60.3103C317.098 58.1295 318.842 56.3884 321.019 56.3884H326.972C329.15 56.3884 331.038 58.1295 331.038 60.3103C331.038 61.0362 330.746 61.7622 330.457 62.3407H332.924C335.105 62.3407 336.991 64.0847 336.991 66.2626C336.991 67.5699 336.409 68.5852 335.539 69.3111C336.409 70.0371 336.991 71.0551 336.991 72.3596C336.991 73.0856 336.701 73.6669 336.409 74.2483H344.832C347.154 74.2483 348.898 76.1369 348.898 78.3148C348.898 80.4927 347.154 82.2339 344.832 82.2339H336.409ZM350.932 76.2815C348.606 76.2815 346.865 74.5375 346.865 72.3596C346.865 71.0552 347.446 70.0371 348.172 69.3111C347.446 68.5852 346.865 67.5699 346.865 66.2626C346.865 64.0847 348.606 62.3407 350.932 62.3407C353.109 62.3407 354.851 64.0847 354.851 66.2626C354.851 67.57 354.269 68.5852 353.543 69.3111C354.269 70.0371 354.851 71.0552 354.851 72.3596C354.851 74.5375 353.109 76.2815 350.932 76.2815ZM396.67 125.939C396.67 128.265 394.782 130.006 392.604 130.006H356.884C354.561 130.006 352.817 128.265 352.817 125.939C352.817 123.761 354.561 122.02 356.884 122.02H359.351C359.062 121.439 358.773 120.713 358.773 119.987C358.773 118.824 359.351 117.809 360.224 117.083C359.351 116.357 358.773 115.195 358.773 114.035C358.773 112.872 359.351 111.857 360.224 111.131C359.351 110.405 358.773 109.242 358.773 108.079C358.773 106.92 359.351 105.902 360.224 105.176C359.351 104.45 358.773 103.29 358.773 102.127C358.773 100.964 359.351 99.9492 360.224 99.2232C359.351 98.3526 358.773 97.3346 358.773 96.1747C358.773 95.0121 359.351 93.8494 360.224 93.1234C359.351 92.3974 358.773 91.3822 358.773 90.2195C358.773 89.0597 359.351 87.897 360.224 87.1711C359.351 86.4451 358.773 85.4299 358.773 84.2672C358.773 83.1045 359.351 81.9447 360.224 81.2187C359.351 80.4927 358.773 79.4747 358.773 78.3148C358.773 77.0075 359.351 75.9895 360.224 75.2635C359.351 74.5375 358.773 73.5223 358.773 72.3596C358.773 71.0552 359.351 70.0371 360.224 69.3111C359.351 68.5852 358.773 67.5699 358.773 66.2626C358.773 65.5367 359.062 64.9553 359.351 64.374H356.884C354.561 64.374 352.817 62.6328 352.817 60.3103C352.817 58.1295 354.561 56.3884 356.884 56.3884H362.836C365.014 56.3884 366.758 58.1296 366.758 60.3103C366.758 61.0363 366.614 61.7622 366.177 62.3407H368.791C370.969 62.3407 372.711 64.0847 372.711 66.2626C372.711 67.57 372.277 68.5852 371.403 69.3111C372.277 70.0371 372.711 71.0552 372.711 72.3596C372.711 73.5223 372.277 74.5375 371.403 75.2635C372.277 75.9895 372.711 77.0075 372.711 78.3148C372.711 79.4747 372.277 80.4927 371.403 81.2187C372.277 81.9447 372.711 83.1045 372.711 84.2672C372.711 85.4299 372.277 86.4451 371.403 87.1711C372.277 87.897 372.711 89.0597 372.711 90.2195C372.711 91.3822 372.277 92.3974 371.403 93.1234C372.277 93.8494 372.711 95.0121 372.711 96.1747C372.711 97.3346 372.277 98.3526 371.403 99.2232C372.277 99.9492 372.711 100.964 372.711 102.127C372.711 103.29 372.277 104.45 371.403 105.176C372.277 105.902 372.711 106.92 372.711 108.079C372.711 109.242 372.277 110.405 371.403 111.131C372.277 111.857 372.711 112.872 372.711 114.035C372.711 115.195 372.277 116.357 371.403 117.083C372.277 117.809 372.711 118.824 372.711 119.987C372.711 120.713 372.566 121.439 372.277 122.02H392.604C394.782 122.02 396.67 123.761 396.67 125.939Z" fill="#010101"/>
<path d="M673.32 144.773C667.908 144.773 663.292 141.296 661.592 136.458C659.556 137.934 657.062 138.803 654.372 138.803H642.468C637.468 138.803 633.141 135.869 631.117 131.633C630.772 131.468 630.437 131.288 630.111 131.095C628.229 135.619 623.801 138.803 618.652 138.803H606.6C601.675 138.803 597.411 135.889 595.403 131.675C591.167 129.67 588.225 125.316 588.225 120.28C588.225 119.274 588.343 118.288 588.572 117.337C588.343 116.367 588.225 115.357 588.225 114.327C588.225 113.732 588.267 113.144 588.348 112.564C587.605 113.154 586.795 113.661 585.931 114.069C584.695 116.663 582.604 118.765 580.031 119.997C578.8 122.612 576.684 124.732 574.07 125.967C572.081 130.182 567.789 133.105 562.826 133.105H561.523C559.337 136.673 555.403 139.058 550.921 139.058H479.19C472.34 139.058 466.767 133.484 466.767 126.635C466.767 119.703 472.34 114.063 479.19 114.063H492.465C493.504 112.394 494.922 110.983 496.599 109.956C496.554 109.519 496.531 109.075 496.531 108.627C496.531 103.636 499.525 99.3223 503.832 97.3496C504.883 95.1436 506.565 93.2939 508.644 92.0371C508.604 91.6182 508.583 91.1943 508.583 90.7676C508.583 86.2598 510.996 82.3057 514.599 80.1279C514.559 79.7109 514.539 79.2881 514.539 78.8623C514.539 73.9014 517.461 69.6094 521.674 67.6191C522.724 65.3945 524.416 63.5303 526.509 62.2656C526.465 61.8477 526.443 61.4268 526.443 61.0029C526.443 55.9658 529.386 51.6113 533.624 49.6074C534.677 47.3975 536.351 45.5449 538.416 44.2822C538.395 44.0762 538.379 43.8691 538.368 43.6611H532.914C526.064 43.6611 520.491 38.0225 520.491 31.0908C520.491 24.2383 526.064 18.6641 532.914 18.6641H580.686C585.169 18.6641 589.105 21.0508 591.291 24.6201H592.594C597.63 24.6201 601.983 27.5615 603.988 31.7978C608.202 33.8066 611.117 38.0723 611.117 42.998C611.117 44.0459 610.992 45.0664 610.749 46.0459C610.92 46.7383 611.033 47.4502 611.084 48.1777H630.56C635.519 48.1777 639.809 51.0986 641.799 55.3115C644.415 56.5459 646.533 58.667 647.764 61.2851C651.973 63.2998 654.891 67.6377 654.891 72.6523C654.891 73.6494 654.774 74.6289 654.549 75.5732C654.775 76.5439 654.891 77.5596 654.891 78.6074C654.891 78.8125 654.886 79.0176 654.876 79.2207C656.523 78.4043 658.373 77.9453 660.328 77.9453C660.523 77.9453 660.718 77.9502 660.912 77.959C660.954 77.1611 661.07 76.376 661.257 75.6113C661.018 74.6543 660.895 73.6689 660.895 72.6709C660.895 67.6562 663.813 63.3174 668.023 61.3027C669.248 58.6982 671.351 56.585 673.948 55.3476C675.92 51.0869 680.242 48.1953 685.373 48.1953H709.185C709.611 48.1953 710.034 48.2168 710.45 48.2588C712.627 44.6563 716.583 42.2432 721.092 42.2432C728.022 42.2432 733.66 47.8164 733.66 54.666C733.66 55.6748 733.53 56.6787 733.284 57.6533C733.327 57.8232 733.367 57.9941 733.403 58.166C734.498 56.9463 735.83 55.9424 737.325 55.2305C739.297 50.9687 743.619 48.0772 748.75 48.0772H772.562C772.988 48.0772 773.411 48.0986 773.827 48.1406C776.004 44.5381 779.96 42.125 784.469 42.125C791.399 42.125 797.037 47.6982 797.037 54.5479C797.037 55.5576 796.908 56.5615 796.662 57.5361C796.909 58.4981 797.037 59.4942 797.037 60.5029C797.037 61.5459 796.914 62.5615 796.673 63.5361C796.913 64.4844 797.037 65.4639 797.037 66.4561C797.037 67.5039 796.913 68.5254 796.669 69.5049C796.913 70.4844 797.037 71.5049 797.037 72.5527C797.037 73.5449 796.913 74.5244 796.673 75.4727C796.914 76.4482 797.037 77.4639 797.037 78.5078C797.037 79.5156 796.909 80.5107 796.662 81.4727C796.908 82.4473 797.037 83.4512 797.037 84.46C797.037 87.9619 795.564 91.1299 793.198 93.3896C795.564 95.6504 797.037 98.8184 797.037 102.32C797.037 103.329 796.908 104.333 796.662 105.307C796.909 106.27 797.037 107.264 797.037 108.272C797.037 109.282 796.908 110.286 796.662 111.262C796.909 112.224 797.037 113.219 797.037 114.228C797.037 119.292 794.025 123.667 789.699 125.655C788.452 128.251 786.347 130.352 783.759 131.575C781.75 135.789 777.486 138.703 772.562 138.703H748.75C748.313 138.703 747.883 138.682 747.46 138.641C745.257 142.242 741.257 144.655 736.697 144.655C729.846 144.655 724.271 139.082 724.271 132.232C724.271 131.194 724.398 130.172 724.643 129.184C724.591 128.974 724.544 128.763 724.503 128.55C723.367 129.867 721.965 130.944 720.382 131.692C718.374 135.906 714.109 138.82 709.185 138.82H685.373C684.937 138.82 684.507 138.799 684.083 138.758C681.881 142.36 677.88 144.773 673.32 144.773Z" fill="#FF6213" stroke="#010101" stroke-width="4"/>
<path d="M554.841 126.634C554.841 128.812 553.1 130.553 550.922 130.553H479.19C477.012 130.553 475.271 128.812 475.271 126.634C475.271 124.454 477.012 122.568 479.19 122.568H499.664C499.372 121.987 499.083 121.405 499.083 120.679C499.083 118.501 500.972 116.615 503.15 116.615H505.617C505.327 116.034 505.035 115.453 505.035 114.727C505.035 113.42 505.617 112.404 506.487 111.678C505.617 110.952 505.035 109.934 505.035 108.627C505.035 106.449 506.924 104.708 509.102 104.708H511.572C511.28 104.127 511.135 103.401 511.135 102.675C511.135 100.497 512.876 98.7556 515.054 98.7556H517.524C517.232 98.1742 517.088 97.4483 517.088 96.7223C517.088 95.5596 517.524 94.5444 518.395 93.8184C517.524 93.0925 517.088 91.9298 517.088 90.7671C517.088 88.5892 518.832 86.848 521.01 86.848H523.477C523.187 86.2667 523.043 85.5407 523.043 84.8147C523.043 83.6521 523.477 82.6368 524.347 81.9109C523.477 81.1849 523.043 80.0222 523.043 78.8624C523.043 76.6845 524.784 74.9405 526.962 74.9405H529.577C529.14 74.3591 528.995 73.6331 528.995 72.9072C528.995 70.7293 530.736 68.9881 532.914 68.9881H535.529C535.092 68.2621 534.948 67.6808 534.948 66.9548C534.948 65.7921 535.529 64.6323 536.255 63.9063C535.529 63.1804 534.948 62.1623 534.948 61.0025C534.948 58.8246 536.692 56.9359 538.869 56.9359H541.481C541.047 56.3546 540.903 55.7732 540.903 55.0473C540.903 52.7247 542.644 50.9836 544.822 50.9836H547.436C547 50.4022 546.855 49.8209 546.855 49.0949C546.855 47.7876 547.436 46.7724 548.162 46.0464C547.436 45.3204 546.855 44.3024 546.855 42.9979C546.855 40.8172 548.596 39.076 550.922 39.076H553.389C553.1 38.4947 552.807 37.7687 552.807 37.0427C552.807 36.3168 553.1 35.7354 553.389 35.1569H532.914C530.736 35.1569 528.995 33.2683 528.995 31.0904C528.995 28.9125 530.736 27.1685 532.914 27.1685H580.686C582.864 27.1685 584.608 28.9125 584.608 31.0904C584.608 33.2683 582.864 35.1569 580.686 35.1569H566.167C566.604 35.7354 566.748 36.3168 566.748 37.0427C566.748 39.2206 565.004 41.1093 562.826 41.1093H560.215C560.648 41.6906 560.793 42.272 560.793 42.9979C560.793 44.3024 560.215 45.3205 559.489 46.0464C560.215 46.7724 560.793 47.7876 560.793 49.0949C560.793 51.2728 559.052 53.0168 556.874 53.0168H554.259C554.696 53.5953 554.841 54.3213 554.841 55.0473C554.841 57.2252 553.1 58.9692 550.922 58.9692H548.307C548.596 59.5505 548.888 60.2765 548.888 61.0025C548.888 62.1623 548.307 63.1804 547.581 63.9063C548.307 64.6323 548.888 65.7921 548.888 66.9548C548.888 67.6808 548.596 68.2621 548.307 68.9881H568.782C570.959 68.9881 572.701 70.7293 572.701 72.9072C572.701 75.0851 570.959 76.8291 568.782 76.8291H536.399C536.692 77.4104 536.981 78.1364 536.981 78.8624C536.981 80.0222 536.399 81.1849 535.529 81.9109C536.399 82.6368 536.981 83.6521 536.981 84.8147C536.981 86.9926 535.092 88.8813 532.914 88.8813H530.447C530.736 89.4626 531.028 90.0411 531.028 90.7671C531.028 91.9298 530.447 93.0925 529.577 93.8184C530.447 94.5444 531.028 95.5596 531.028 96.7223C531.028 98.9002 529.14 100.786 526.962 100.786H524.495C524.784 101.367 524.929 101.949 524.929 102.675C524.929 104.997 523.187 106.741 521.01 106.741H518.54C518.832 107.32 518.976 107.901 518.976 108.627C518.976 109.934 518.54 110.952 517.669 111.678C518.54 112.404 518.976 113.42 518.976 114.727C518.976 116.905 517.232 118.646 515.054 118.646H512.587C512.876 119.227 513.024 119.953 513.024 120.679C513.024 121.405 512.876 121.987 512.587 122.568H550.922C553.1 122.568 554.841 124.454 554.841 126.634ZM590.705 84.8147C590.705 85.9774 590.124 87.1373 589.253 87.8632C590.124 88.5892 590.705 89.6072 590.705 90.7671C590.705 92.945 588.819 94.8336 586.641 94.8336H584.171C584.461 95.415 584.608 95.9963 584.608 96.7223C584.608 97.8821 584.171 99.0448 583.301 99.7708C584.171 100.497 584.608 101.512 584.608 102.675C584.608 104.997 582.864 106.741 580.686 106.741H578.219C578.508 107.32 578.653 107.901 578.653 108.627C578.653 110.952 576.912 112.694 574.734 112.694H572.264C572.556 113.275 572.701 114.001 572.701 114.727C572.701 116.905 570.959 118.646 568.782 118.646H566.167C566.604 119.227 566.748 119.953 566.748 120.679C566.748 122.857 565.004 124.601 562.826 124.601H556.874C554.696 124.601 552.807 122.857 552.807 120.679C552.807 118.501 554.696 116.615 556.874 116.615H559.341C559.052 116.034 558.763 115.453 558.763 114.727C558.763 112.404 560.648 110.66 562.826 110.66H565.296C565.004 110.079 564.715 109.353 564.715 108.627C564.715 106.449 566.604 104.708 568.782 104.708H571.249C570.959 104.127 570.812 103.401 570.812 102.675C570.812 101.512 571.249 100.497 572.119 99.7708C571.249 99.0448 570.812 97.8821 570.812 96.7223C570.812 94.5444 572.556 92.8004 574.734 92.8004H577.201C576.912 92.219 576.767 91.4931 576.767 90.7671C576.767 89.6073 577.201 88.5892 578.074 87.8632C577.201 87.1373 576.767 85.9774 576.767 84.8147C576.767 84.0888 576.912 83.3628 577.201 82.7815H574.734C572.556 82.7815 570.812 81.0403 570.812 78.8624C570.812 76.6845 572.556 74.9405 574.734 74.9405H580.686C582.864 74.9405 584.608 76.6845 584.608 78.8624C584.608 79.5884 584.461 80.3143 584.171 80.8957H586.641C588.819 80.8957 590.705 82.6368 590.705 84.8147ZM601.161 46.0464C602.031 46.7724 602.613 47.7876 602.613 49.0949C602.613 50.2576 602.031 51.2728 601.161 51.9988C602.031 52.7247 602.613 53.7428 602.613 55.0472C602.613 57.2251 600.724 58.9692 598.546 58.9692H596.079C596.368 59.5505 596.66 60.2765 596.66 61.0024C596.66 63.1803 594.772 64.9215 592.594 64.9215H590.124C590.416 65.5029 590.705 66.2288 590.705 66.9548C590.705 69.1327 588.819 70.8767 586.641 70.8767H574.734C572.556 70.8767 570.812 69.1327 570.812 66.9548C570.812 64.7769 572.556 62.8882 574.734 62.8882H583.156C582.864 62.3097 582.72 61.7284 582.72 61.0024C582.72 58.8245 584.461 56.9359 586.641 56.9359H589.109C588.819 56.3545 588.672 55.7732 588.672 55.0472C588.672 53.7428 589.109 52.7247 589.979 51.9987C589.109 51.2728 588.672 50.2576 588.672 49.0949C588.672 47.7876 589.109 46.7723 589.979 46.0464C589.109 45.3204 588.672 44.3024 588.672 42.9979C588.672 42.2719 588.819 41.6906 589.109 41.1092H586.641C584.461 41.1092 582.72 39.2206 582.72 37.0427C582.72 34.8648 584.461 33.1236 586.641 33.1236H592.594C594.772 33.1236 596.66 34.8648 596.66 37.0427C596.66 37.7687 596.368 38.4946 596.079 39.076H598.546C600.724 39.076 602.613 40.8172 602.613 42.9979C602.613 44.3024 602.031 45.3204 601.161 46.0464ZM598.033 75.5564L597.744 75.2671C597.018 75.9931 595.855 76.5744 594.696 76.5744C592.518 76.5744 590.774 74.8304 590.774 72.6525C590.774 70.33 592.518 68.5888 594.696 68.5888C595.855 68.5888 597.018 69.1673 597.744 69.8933L598.033 69.604C597.163 68.8781 596.729 67.8628 596.729 66.5555C596.729 64.3776 598.47 62.6336 600.648 62.6336C602.826 62.6336 604.715 64.3776 604.715 66.5555C604.715 67.8629 604.133 68.8781 603.263 69.604C603.455 69.7005 603.6 69.7969 603.697 69.8933C604.422 69.1673 605.441 68.5888 606.6 68.5888C608.778 68.5888 610.667 70.33 610.667 72.6525C610.667 74.8304 608.778 76.5744 606.6 76.5744C605.441 76.5744 604.422 75.9931 603.697 75.2671C603.6 75.3636 603.455 75.46 603.263 75.5564C604.133 76.2824 604.715 77.3004 604.715 78.6077C604.715 80.7856 602.826 82.5268 600.648 82.5268C598.47 82.5268 596.729 80.7856 596.729 78.6077C596.729 77.3004 597.163 76.2824 598.033 75.5564ZM621.267 123.328C621.993 124.054 622.574 125.072 622.574 126.232C622.574 128.558 620.83 130.299 618.653 130.299H606.6C604.422 130.299 602.681 128.558 602.681 126.232C602.681 125.506 602.826 124.925 603.263 124.346H600.648C598.47 124.346 596.729 122.458 596.729 120.28C596.729 119.117 597.163 118.102 598.033 117.376C597.163 116.65 596.729 115.487 596.729 114.328C596.729 113.165 597.163 112.15 598.033 111.424C597.163 110.698 596.729 109.535 596.729 108.372C596.729 107.213 597.163 106.194 598.033 105.468C597.163 104.743 596.729 103.583 596.729 102.42C596.729 100.242 598.47 98.5009 600.648 98.5009H603.263C602.826 97.9196 602.681 97.1936 602.681 96.4676C602.681 94.2897 604.422 92.5457 606.6 92.5457H612.556C614.878 92.5457 616.619 94.2897 616.619 96.4676C616.619 98.6455 614.878 100.387 612.556 100.387H610.086C610.378 100.968 610.667 101.694 610.667 102.42C610.667 103.583 610.086 104.743 609.215 105.468C610.086 106.194 610.667 107.213 610.667 108.372C610.667 109.535 610.086 110.698 609.215 111.424C610.086 112.15 610.667 113.165 610.667 114.328C610.667 115.487 610.086 116.65 609.215 117.376C610.086 118.102 610.667 119.117 610.667 120.28C610.667 121.006 610.378 121.732 610.086 122.313H615.167C614.733 121.732 614.589 121.006 614.589 120.28C614.589 118.102 616.33 116.361 618.653 116.361C620.83 116.361 622.574 118.102 622.574 120.28C622.574 121.587 621.993 122.602 621.267 123.328ZM602.681 60.6032C602.681 58.4224 604.422 56.6812 606.6 56.6812H630.56C632.738 56.6812 634.479 58.4224 634.479 60.6032C634.479 62.9257 632.738 64.6669 630.56 64.6669H606.6C604.422 64.6669 602.681 62.9257 602.681 60.6032ZM658.294 126.232C658.294 128.558 656.55 130.299 654.372 130.299H642.468C640.29 130.299 638.401 128.558 638.401 126.232C638.401 125.506 638.69 124.925 638.982 124.346H636.512C634.335 124.346 632.449 122.458 632.449 120.28C632.449 119.554 632.738 118.973 633.027 118.391H624.608C622.282 118.391 620.541 116.505 620.541 114.328C620.541 112.15 622.282 110.406 624.608 110.406H633.027C632.738 109.824 632.449 109.098 632.449 108.372C632.449 107.213 633.027 106.194 633.901 105.468C633.027 104.743 632.449 103.583 632.449 102.42C632.449 101.257 633.027 100.242 633.901 99.5161C633.027 98.6455 632.449 97.6275 632.449 96.4676C632.449 95.7417 632.738 95.0157 633.027 94.4344H618.653C616.33 94.4344 614.589 92.6904 614.589 90.5125C614.589 88.3346 616.33 86.4487 618.653 86.4487H633.027C632.738 85.8674 632.449 85.2861 632.449 84.5601C632.449 83.3974 633.027 82.2376 633.901 81.5116C633.027 80.7856 632.449 79.7676 632.449 78.6077C632.449 77.3004 633.027 76.2824 633.901 75.5564C633.027 74.8304 632.449 73.8152 632.449 72.6525C632.449 71.3481 633.027 70.33 633.901 69.604C633.027 68.8781 632.449 67.8629 632.449 66.5556C632.449 64.3777 634.335 62.6336 636.512 62.6336C638.69 62.6336 640.434 64.3777 640.434 66.5556C640.434 67.2815 640.29 68.0075 639.998 68.5888H642.468C644.646 68.5888 646.387 70.33 646.387 72.6525C646.387 73.8152 645.95 74.8304 645.079 75.5564C645.95 76.2824 646.387 77.3004 646.387 78.6077C646.387 79.7676 645.95 80.7856 645.079 81.5116C645.95 82.2376 646.387 83.3974 646.387 84.5601C646.387 85.7228 645.95 86.738 645.079 87.464C645.95 88.1899 646.387 89.3526 646.387 90.5125C646.387 91.6751 645.95 92.6904 645.079 93.4163C645.95 94.1423 646.387 95.305 646.387 96.4677C646.387 97.6275 645.95 98.6456 645.079 99.5161C645.95 100.242 646.387 101.257 646.387 102.42C646.387 103.583 645.95 104.743 645.079 105.469C645.95 106.194 646.387 107.213 646.387 108.372C646.387 109.535 645.95 110.698 645.079 111.424C645.95 112.15 646.387 113.165 646.387 114.328C646.387 115.487 645.95 116.65 645.079 117.376C645.95 118.102 646.387 119.117 646.387 120.28C646.387 121.006 646.242 121.732 645.95 122.313H654.372C656.55 122.313 658.294 124.054 658.294 126.232ZM662.939 99.5161C663.81 100.242 664.391 101.257 664.391 102.42C664.391 103.583 663.81 104.743 662.939 105.468C663.81 106.194 664.391 107.213 664.391 108.372C664.391 109.535 663.81 110.698 662.939 111.424C663.81 112.15 664.391 113.165 664.391 114.328C664.391 115.487 663.81 116.65 662.939 117.376C663.81 118.102 664.391 119.117 664.391 120.28C664.391 122.458 662.505 124.346 660.328 124.346C658.15 124.346 656.406 122.458 656.406 120.28C656.406 119.117 656.842 118.102 657.713 117.376C656.842 116.65 656.406 115.487 656.406 114.328C656.406 113.165 656.842 112.15 657.713 111.424C656.842 110.698 656.406 109.535 656.406 108.372C656.406 107.213 656.842 106.194 657.713 105.468C656.842 104.743 656.406 103.583 656.406 102.42C656.406 101.257 656.842 100.242 657.713 99.5161C656.842 98.6455 656.406 97.6275 656.406 96.4676C656.406 95.305 656.842 94.1423 657.713 93.4163C656.842 92.6903 656.406 91.6751 656.406 90.5124C656.406 88.3345 658.15 86.4487 660.328 86.4487C662.505 86.4487 664.391 88.3345 664.391 90.5124C664.391 91.6751 663.81 92.6903 662.939 93.4163C663.81 94.1423 664.391 95.305 664.391 96.4676C664.391 97.6275 663.81 98.6455 662.939 99.5161ZM725.156 102.438C725.156 103.601 724.575 104.76 723.704 105.486C724.575 106.212 725.156 107.23 725.156 108.39C725.156 109.553 724.575 110.716 723.704 111.442C724.575 112.168 725.156 113.183 725.156 114.345C725.156 116.523 723.27 118.409 721.092 118.409C718.914 118.409 717.17 116.523 717.17 114.345C717.17 113.619 717.315 113.038 717.607 112.457H715.137C712.959 112.457 711.218 110.568 711.218 108.39C711.218 107.23 711.652 106.212 712.525 105.486C711.652 104.76 711.218 103.601 711.218 102.438C711.218 101.712 711.363 100.986 711.652 100.405H691.325C689.147 100.405 687.258 98.6634 687.258 96.4855C687.258 95.7596 687.55 95.0336 687.84 94.4523H679.273C677.095 94.4523 675.354 92.7082 675.354 90.5303C675.354 89.8044 675.498 89.0784 675.932 88.4971H673.32C671.142 88.4971 669.398 86.7559 669.398 84.578C669.398 83.4153 669.98 82.2555 670.706 81.5295C669.98 80.8035 669.398 79.7855 669.398 78.6256C669.398 77.3183 669.98 76.3003 670.706 75.5743C669.98 74.8483 669.398 73.8331 669.398 72.6704C669.398 70.3479 671.142 68.6067 673.32 68.6067C675.498 68.6067 677.384 70.3479 677.384 72.6704C677.384 73.3964 677.095 73.9777 676.806 74.5591H679.273C681.595 74.5591 683.339 76.4477 683.339 78.6256C683.339 79.7855 682.758 80.8035 682.032 81.5295C682.758 82.2555 683.339 83.4153 683.339 84.578C683.339 85.304 683.195 85.8853 682.758 86.4666H709.185C711.363 86.4666 713.104 88.3524 713.104 90.5303C713.104 91.2563 712.959 91.9823 712.67 92.5636H715.137C717.315 92.5636 719.059 94.3076 719.059 96.4855C719.059 97.2115 718.914 97.9375 718.622 98.5188H721.092C723.27 98.5188 725.156 100.26 725.156 102.438ZM675.932 123.346C676.806 124.072 677.384 125.09 677.384 126.25C677.384 127.557 676.806 128.576 675.932 129.301C676.806 130.027 677.384 131.043 677.384 132.35C677.384 134.528 675.498 136.269 673.32 136.269C671.142 136.269 669.398 134.528 669.398 132.35C669.398 131.043 669.98 130.027 670.706 129.301C669.98 128.576 669.398 127.557 669.398 126.25C669.398 125.09 669.98 124.072 670.706 123.346C669.98 122.62 669.398 121.605 669.398 120.298C669.398 119.135 669.98 118.12 670.706 117.394C669.98 116.668 669.398 115.505 669.398 114.345C669.398 113.183 669.98 112.168 670.706 111.442C669.98 110.716 669.398 109.553 669.398 108.39C669.398 107.23 669.98 106.212 670.706 105.486C669.98 104.76 669.398 103.601 669.398 102.438C669.398 100.26 671.142 98.5188 673.32 98.5188C675.498 98.5188 677.384 100.26 677.384 102.438C677.384 103.601 676.806 104.76 675.932 105.486C676.806 106.212 677.384 107.23 677.384 108.39C677.384 109.553 676.806 110.716 675.932 111.442C676.806 112.168 677.384 113.183 677.384 114.345C677.384 115.505 676.806 116.668 675.932 117.394C676.127 117.49 676.272 117.587 676.369 117.683C677.095 116.957 678.113 116.379 679.273 116.379C681.595 116.379 683.339 118.12 683.339 120.298C683.339 122.476 681.595 124.364 679.273 124.364C678.113 124.364 677.095 123.783 676.369 122.912C676.224 123.057 676.08 123.202 675.932 123.346ZM675.354 66.5734C675.354 64.3955 677.095 62.6515 679.273 62.6515C681.595 62.6515 683.339 64.3955 683.339 66.5734C683.339 68.896 681.595 70.64 679.273 70.64C677.095 70.64 675.354 68.896 675.354 66.5734ZM681.306 60.6211C681.306 58.4403 683.047 56.6991 685.373 56.6991H709.185C711.363 56.6991 713.104 58.4403 713.104 60.6211C713.104 62.9436 711.363 64.6848 709.185 64.6848H685.373C683.047 64.6848 681.306 62.9436 681.306 60.6211ZM713.104 126.25C713.104 128.576 711.363 130.317 709.185 130.317H685.373C683.047 130.317 681.306 128.576 681.306 126.25C681.306 124.072 683.047 122.331 685.373 122.331H709.185C711.363 122.331 713.104 124.072 713.104 126.25ZM723.704 63.6696C724.575 64.3955 725.156 65.4108 725.156 66.5734C725.156 67.8807 724.575 68.896 723.704 69.6219C724.575 70.3479 725.156 71.3659 725.156 72.6704C725.156 73.8331 724.575 74.8483 723.704 75.5743C724.575 76.3003 725.156 77.3183 725.156 78.6256C725.156 79.7855 724.575 80.8035 723.704 81.5295C724.575 82.2555 725.156 83.4153 725.156 84.578C725.156 86.7559 723.27 88.4971 721.092 88.4971C718.914 88.4971 717.17 86.7559 717.17 84.578C717.17 83.4153 717.607 82.2554 718.478 81.5295C717.607 80.8035 717.17 79.7855 717.17 78.6256C717.17 77.3183 717.607 76.3003 718.478 75.5743C717.607 74.8483 717.17 73.8331 717.17 72.6704C717.17 71.3659 717.607 70.3479 718.478 69.6219L718.189 69.3327C717.463 70.0586 716.3 70.64 715.137 70.64C712.959 70.64 711.218 68.896 711.218 66.5734C711.218 64.3955 712.959 62.6515 715.137 62.6515C716.3 62.6515 717.463 63.2329 718.189 63.9588L718.478 63.6696C717.607 62.9436 717.17 61.9256 717.17 60.6211C717.17 59.4584 717.607 58.4403 718.478 57.7144C717.607 56.9884 717.17 55.8286 717.17 54.6659C717.17 52.488 718.914 50.7468 721.092 50.7468C723.27 50.7468 725.156 52.488 725.156 54.6659C725.156 55.8286 724.575 56.9884 723.704 57.7144C724.575 58.4404 725.156 59.4584 725.156 60.6211C725.156 61.9256 724.575 62.9436 723.704 63.6696ZM719.059 120.298C719.059 122.476 717.315 124.364 715.137 124.364C712.959 124.364 711.218 122.476 711.218 120.298C711.218 118.12 712.959 116.379 715.137 116.379C717.315 116.379 719.059 118.12 719.059 120.298ZM788.533 102.32C788.533 103.483 787.955 104.643 787.081 105.369C787.955 106.095 788.533 107.113 788.533 108.273C788.533 109.435 787.955 110.598 787.081 111.324C787.955 112.05 788.533 113.065 788.533 114.228C788.533 116.406 786.647 118.291 784.469 118.291C782.291 118.291 780.547 116.406 780.547 114.228C780.547 113.502 780.692 112.92 780.984 112.339H778.514C776.336 112.339 774.595 110.45 774.595 108.273C774.595 107.113 775.029 106.095 775.902 105.369C775.029 104.643 774.595 103.483 774.595 102.32C774.595 101.594 774.74 100.868 775.029 100.287H754.702C752.524 100.287 750.635 98.5457 750.635 96.3678C750.635 95.6419 750.927 94.9159 751.217 94.3346H742.65C740.472 94.3346 738.731 92.5905 738.731 90.4126C738.731 89.6867 738.875 88.9607 739.309 88.3794H736.697C734.519 88.3794 732.775 86.6382 732.775 84.4603C732.775 83.2976 733.357 82.1377 734.083 81.4118C733.357 80.6858 732.775 79.6678 732.775 78.5079C732.775 77.2006 733.357 76.1826 734.083 75.4566C733.357 74.7306 732.775 73.7154 732.775 72.5527C732.775 70.2302 734.519 68.489 736.697 68.489C738.875 68.489 740.761 70.2302 740.761 72.5527C740.761 73.2787 740.472 73.86 740.183 74.4414H742.65C744.972 74.4414 746.716 76.33 746.716 78.5079C746.716 79.6678 746.135 80.6858 745.409 81.4118C746.135 82.1378 746.716 83.2976 746.716 84.4603C746.716 85.1862 746.572 85.7676 746.135 86.3489H772.562C774.74 86.3489 776.481 88.2347 776.481 90.4126C776.481 91.1386 776.336 91.8646 776.047 92.4459H778.514C780.692 92.4459 782.436 94.1899 782.436 96.3678C782.436 97.0938 782.291 97.8198 781.999 98.4011H784.469C786.647 98.4011 788.533 100.142 788.533 102.32ZM739.309 123.229C740.183 123.955 740.761 124.973 740.761 126.132C740.761 127.44 740.183 128.458 739.309 129.184C740.183 129.91 740.761 130.925 740.761 132.232C740.761 134.41 738.875 136.151 736.697 136.151C734.519 136.151 732.775 134.41 732.775 132.232C732.775 130.925 733.357 129.91 734.083 129.184C733.357 128.458 732.775 127.44 732.775 126.132C732.775 124.973 733.357 123.955 734.083 123.229C733.357 122.503 732.775 121.487 732.775 120.18C732.775 119.017 733.357 118.002 734.083 117.276C733.357 116.55 732.775 115.388 732.775 114.228C732.775 113.065 733.357 112.05 734.083 111.324C733.357 110.598 732.775 109.435 732.775 108.273C732.775 107.113 733.357 106.095 734.083 105.369C733.357 104.643 732.775 103.483 732.775 102.32C732.775 100.142 734.519 98.4011 736.697 98.4011C738.875 98.4011 740.761 100.142 740.761 102.32C740.761 103.483 740.183 104.643 739.309 105.369C740.183 106.095 740.761 107.113 740.761 108.273C740.761 109.435 740.183 110.598 739.309 111.324C740.183 112.05 740.761 113.065 740.761 114.228C740.761 115.388 740.183 116.55 739.309 117.276C739.504 117.373 739.649 117.469 739.746 117.565C740.472 116.84 741.487 116.261 742.65 116.261C744.972 116.261 746.716 118.002 746.716 120.18C746.716 122.358 744.972 124.247 742.65 124.247C741.487 124.247 740.472 123.665 739.746 122.795C739.601 122.939 739.457 123.084 739.309 123.229ZM738.731 66.4557C738.731 64.2778 740.472 62.5338 742.65 62.5338C744.972 62.5338 746.716 64.2778 746.716 66.4557C746.716 68.7782 744.972 70.5223 742.65 70.5223C740.472 70.5223 738.731 68.7782 738.731 66.4557ZM744.683 60.5034C744.683 58.3226 746.424 56.5814 748.749 56.5814H772.562C774.74 56.5814 776.481 58.3226 776.481 60.5034C776.481 62.8259 774.74 64.5671 772.562 64.5671H748.749C746.424 64.5671 744.683 62.8259 744.683 60.5034ZM776.481 126.132C776.481 128.458 774.74 130.199 772.562 130.199H748.749C746.424 130.199 744.683 128.458 744.683 126.132C744.683 123.955 746.424 122.213 748.749 122.213H772.562C774.74 122.213 776.481 123.955 776.481 126.132ZM787.081 63.5519C787.955 64.2778 788.533 65.293 788.533 66.4557C788.533 67.763 787.955 68.7783 787.081 69.5042C787.955 70.2302 788.533 71.2482 788.533 72.5527C788.533 73.7154 787.955 74.7306 787.081 75.4566C787.955 76.1825 788.533 77.2006 788.533 78.5079C788.533 79.6678 787.955 80.6858 787.081 81.4118C787.955 82.1377 788.533 83.2976 788.533 84.4603C788.533 86.6382 786.647 88.3794 784.469 88.3794C782.291 88.3794 780.547 86.6382 780.547 84.4603C780.547 83.2976 780.984 82.1377 781.855 81.4118C780.984 80.6858 780.547 79.6678 780.547 78.5079C780.547 77.2006 780.984 76.1825 781.855 75.4566C780.984 74.7306 780.547 73.7154 780.547 72.5527C780.547 71.2482 780.984 70.2302 781.855 69.5042L781.565 69.215C780.839 69.9409 779.677 70.5223 778.514 70.5223C776.336 70.5223 774.595 68.7783 774.595 66.4557C774.595 64.2778 776.336 62.5338 778.514 62.5338C779.677 62.5338 780.839 63.1151 781.565 63.8411L781.855 63.5519C780.984 62.8259 780.547 61.8078 780.547 60.5034C780.547 59.3407 780.984 58.3226 781.855 57.5967C780.984 56.8707 780.547 55.7109 780.547 54.5482C780.547 52.3703 782.291 50.6291 784.469 50.6291C786.647 50.6291 788.533 52.3703 788.533 54.5482C788.533 55.7109 787.955 56.8707 787.081 57.5967C787.955 58.3226 788.533 59.3407 788.533 60.5034C788.533 61.8078 787.955 62.8259 787.081 63.5519ZM782.436 120.18C782.436 122.358 780.692 124.247 778.514 124.247C776.336 124.247 774.595 122.358 774.595 120.18C774.595 118.002 776.336 116.261 778.514 116.261C780.692 116.261 782.436 118.002 782.436 120.18Z" fill="#010101"/>
<path d="M455.697 103.204C451.65 103.204 448.071 101.182 445.94 98.1055C443.809 101.182 440.23 103.204 436.183 103.204H416.792C412.896 103.204 409.44 101.292 407.313 98.3584H407.091C400.574 98.3584 395.272 93.1113 395.272 86.6621C395.272 85.8437 395.363 85.0293 395.537 84.2315C395.362 83.4424 395.272 82.6328 395.272 81.8154C395.272 80.9971 395.363 80.1807 395.537 79.3838C395.362 78.5937 395.272 77.7822 395.272 76.9619C395.272 76.1455 395.363 75.331 395.536 74.5351C395.362 73.7451 395.272 72.9346 395.272 72.1152C395.272 67.5576 397.869 63.5957 401.662 61.6269C402.768 59.5791 404.456 57.8965 406.499 56.8076C407.594 54.7676 409.267 53.0869 411.294 51.9932C413.259 48.2832 417.158 45.751 421.637 45.751H421.862C422.802 44.456 424 43.3594 425.379 42.5391C424.804 41.1572 424.486 39.6436 424.486 38.0557C424.486 37.3633 424.552 36.5449 424.748 35.6445C424.575 34.8496 424.486 34.0352 424.486 33.21C424.486 28.7588 426.985 24.8809 430.654 22.9053C431.76 20.7685 433.495 19.0127 435.608 17.8926C436.711 15.8574 438.394 14.1816 440.434 13.0869C442.429 9.375 446.35 6.8457 450.851 6.8457H451.01C453.161 3.91015 456.633 2 460.542 2H465.397C469.27 2 472.708 3.91016 474.838 6.8457H475.098C479.596 6.8457 483.514 9.375 485.508 13.0879C489.222 15.081 491.753 19.0049 491.753 23.5098C491.753 24.3301 491.664 25.1406 491.49 25.9297C491.663 26.7246 491.753 27.5381 491.753 28.3555C491.753 31.3174 490.636 34.0254 488.797 36.0889C489.074 36.0693 489.354 36.0596 489.635 36.0596C490.488 36.0596 491.32 36.1416 492.12 36.3018C492.92 36.1416 493.75 36.0596 494.603 36.0596C501.057 36.0596 506.308 41.3066 506.308 47.7559C506.308 54.2686 501.057 59.5664 494.603 59.5664C493.767 59.5664 492.942 59.4775 492.141 59.3047C491.331 59.4775 490.493 59.5664 489.635 59.5664C489.583 59.5664 489.532 59.5664 489.48 59.5654C488.436 60.9941 487.079 62.1807 485.511 63.0234C485.096 63.7959 484.598 64.5176 484.028 65.1758C484.28 65.1602 484.534 65.1514 484.789 65.1514C491.306 65.1514 496.607 70.4492 496.607 76.9619C496.607 81.4102 494.089 85.2871 490.39 87.2666C489.295 89.3164 487.603 91.0078 485.546 92.1104C484.425 94.21 482.678 95.9336 480.552 97.0342C478.577 100.704 474.697 103.204 470.243 103.204L455.697 103.204Z" fill="#FF6213" stroke="#010101" stroke-width="4" stroke-miterlimit="10"/>
<path d="M426.483 54.255H421.637C419.863 54.255 418.445 55.6819 418.445 57.4565C418.445 58.0395 418.566 58.631 418.801 59.1096H416.791C415.017 59.1096 413.599 60.5277 413.599 62.4155C413.599 63.007 413.712 63.4856 413.947 63.9554H411.937C410.162 63.9554 408.744 65.3734 408.744 67.2701C408.744 67.8616 408.866 68.3312 409.101 68.8099H407.091C405.316 68.8099 403.777 70.3409 403.777 72.1157C403.777 73.064 404.255 73.8905 404.96 74.482C404.255 75.0735 403.777 76.0132 403.777 76.9615C403.777 77.9099 404.255 78.7363 404.96 79.3279C404.255 79.9194 403.777 80.8677 403.777 81.8159C403.777 82.7555 404.255 83.5822 404.96 84.1824C404.255 84.7739 403.777 85.7136 403.777 86.6617C403.777 88.4365 405.316 89.8547 407.091 89.8547H411.937C413.712 89.8547 415.13 88.4365 415.13 86.6617C415.13 85.7136 414.782 84.7739 414.068 84.1824C414.782 83.5822 415.13 82.7555 415.13 81.8159C415.13 80.8677 414.782 79.9194 414.068 79.3279C414.782 78.7363 415.13 77.9099 415.13 76.9615C415.13 76.0132 414.782 75.0735 414.068 74.482C414.782 73.8905 415.13 73.0641 415.13 72.1157C415.13 71.5242 415.017 70.9326 414.782 70.4628H416.791C418.566 70.4628 419.984 69.0446 419.984 67.2701C419.984 66.6783 419.863 66.0868 419.628 65.6083H421.637C423.412 65.6083 424.952 64.1903 424.952 62.4155C424.952 61.8238 424.708 61.2409 424.473 60.7626H426.483C428.258 60.7626 429.798 59.3444 429.798 57.4564C429.798 55.6819 428.258 54.255 426.483 54.255ZM436.183 88.3148H416.791C415.017 88.3148 413.599 89.7415 413.599 91.5163C413.599 93.2824 415.017 94.7003 416.791 94.7003H436.183C438.08 94.7003 439.498 93.2824 439.498 91.5163C439.498 89.7415 438.08 88.3148 436.183 88.3148ZM441.029 83.469C439.263 83.469 437.836 84.8872 437.836 86.6617C437.836 88.4365 439.263 89.8547 441.029 89.8547C442.926 89.8547 444.344 88.4365 444.344 86.6617C444.344 84.8872 442.926 83.469 441.029 83.469ZM465.397 63.9554C463.623 63.9554 462.204 65.3734 462.204 67.2701C462.204 69.0446 463.623 70.4628 465.397 70.4628C467.172 70.4628 468.59 69.0446 468.59 67.2701C468.59 65.3734 467.172 63.9554 465.397 63.9554ZM465.397 10.5039H460.543C458.777 10.5039 457.237 11.9219 457.237 13.8097C457.237 15.5844 458.777 17.0024 460.543 17.0024H465.397C467.172 17.0024 468.59 15.5845 468.59 13.8097C468.59 11.9219 467.172 10.5039 465.397 10.5039ZM470.243 88.3148H463.388C463.623 87.845 463.736 87.2533 463.736 86.6617C463.736 84.8872 462.318 83.469 460.543 83.469H458.533C458.777 82.9992 458.89 82.4076 458.89 81.8159C458.89 80.8677 458.533 79.9194 457.829 79.3279C458.533 78.7363 458.89 77.9099 458.89 76.9615C458.89 76.0132 458.533 75.0735 457.829 74.482C457.942 74.482 458.063 74.3603 458.063 74.2473C458.655 74.9518 459.603 75.3085 460.543 75.3085C462.318 75.3085 463.736 73.8905 463.736 72.1157C463.736 70.3409 462.318 68.8099 460.543 68.8099C459.603 68.8099 458.655 69.2796 458.063 69.9843C457.472 69.2796 456.645 68.8099 455.697 68.8099H453.565C453.922 68.3312 454.044 67.8616 454.044 67.2701C454.044 66.2 453.565 65.3734 452.974 64.7818C453.565 64.1903 454.044 63.3637 454.044 62.4155C454.044 61.3542 453.565 60.5277 452.974 59.936C453.565 59.3445 454.044 58.518 454.044 57.4565C454.044 55.6819 452.626 54.255 450.851 54.255H448.72C449.076 53.7854 449.189 53.1936 449.189 52.6021C449.189 52.0106 449.076 51.5408 448.72 51.0622H455.697C457.472 51.0622 458.89 49.5223 458.89 47.7563C458.89 45.9815 457.472 44.5635 455.697 44.5635H448.72C449.076 44.085 449.189 43.4934 449.189 42.9017C449.189 41.1271 447.772 39.7089 445.997 39.7089H443.874C444.222 39.2391 444.344 38.6476 444.344 38.0561C444.344 37.1077 443.874 36.2813 443.282 35.5765C443.874 34.985 444.344 34.1499 444.344 33.2102C444.344 32.6187 444.222 32.0269 443.874 31.5486H445.997C447.771 31.5486 449.189 30.1305 449.189 28.3559C449.189 27.7641 449.076 27.1813 448.72 26.7028H450.851C452.626 26.7028 454.044 25.2846 454.044 23.51C454.044 22.9185 453.922 22.3268 453.565 21.8569H455.697C457.472 21.8569 458.89 20.439 458.89 18.6642C458.89 16.8894 457.472 15.3495 455.697 15.3495H450.851C449.076 15.3495 447.537 16.8894 447.537 18.6642C447.537 19.247 447.772 19.7255 448.006 20.1953H445.997C444.109 20.1953 442.691 21.7352 442.691 23.51C442.691 24.1015 442.926 24.5714 443.161 25.0497H441.029C439.263 25.0497 437.836 26.5811 437.836 28.3559C437.836 28.9474 437.958 29.5389 438.315 30.0174H436.183C434.409 30.0174 432.99 31.4354 432.99 33.2102C432.99 34.1499 433.46 34.985 434.052 35.5765C433.46 36.2813 432.99 37.1077 432.99 38.0561C432.99 39.8308 434.409 41.2488 436.183 41.2488H438.315C437.958 41.7186 437.836 42.3189 437.836 42.9017C437.836 43.4934 437.958 44.085 438.315 44.5635H436.183C434.409 44.5635 432.99 45.9815 432.99 47.7563C432.99 48.348 433.112 48.9395 433.46 49.4091H431.337C429.563 49.4091 428.145 50.8273 428.145 52.6021C428.145 54.3769 429.563 55.9168 431.337 55.9168H438.315C437.958 56.3864 437.836 56.8562 437.836 57.4564C437.836 58.518 438.315 59.3444 438.906 59.936C438.315 60.5277 437.836 61.3542 437.836 62.4155C437.836 63.3636 438.315 64.1903 438.906 64.7818C438.315 65.3734 437.836 66.2 437.836 67.2701C437.836 69.0446 439.263 70.4628 441.029 70.4628H443.161C442.926 70.9326 442.691 71.5242 442.691 72.1157C442.691 73.064 443.161 73.8905 443.752 74.482C443.161 75.0735 442.691 76.0132 442.691 76.9615C442.691 77.9099 443.161 78.7363 443.752 79.3279C443.161 79.9194 442.691 80.8677 442.691 81.8159C442.691 83.5822 444.109 85.0089 445.997 85.0089H448.006C447.771 85.4787 447.537 86.0702 447.537 86.6617C447.537 88.4365 449.076 89.8547 450.851 89.8547H452.861C452.626 90.3245 452.382 90.9161 452.382 91.5163C452.382 93.2824 453.922 94.7003 455.697 94.7003H470.243C472.018 94.7003 473.436 93.2824 473.436 91.5163C473.436 89.7415 472.018 88.3148 470.243 88.3148ZM470.243 59.1096C468.468 59.1096 467.05 60.5277 467.05 62.4155C467.05 64.1903 468.468 65.6083 470.243 65.6083C472.018 65.6083 473.436 64.1903 473.436 62.4155C473.436 60.5277 472.018 59.1096 470.243 59.1096ZM475.098 83.469C473.323 83.469 471.896 84.8872 471.896 86.6617C471.896 88.4365 473.323 89.8547 475.098 89.8547C476.864 89.8547 478.403 88.4365 478.403 86.6617C478.403 84.8872 476.864 83.469 475.098 83.469ZM475.098 54.255C473.323 54.255 471.896 55.6819 471.896 57.4565C471.896 59.3445 473.323 60.7626 475.098 60.7626C476.864 60.7626 478.403 59.3445 478.403 57.4565C478.403 55.6819 476.864 54.255 475.098 54.255ZM479.943 78.6231C478.169 78.6231 476.751 80.0413 476.751 81.8159C476.751 83.5822 478.169 85.0089 479.943 85.0089C481.718 85.0089 483.249 83.5822 483.249 81.8159C483.249 80.0413 481.718 78.6231 479.943 78.6231ZM483.249 23.5101C483.249 21.7353 481.718 20.1954 479.943 20.1954H477.934C478.169 19.7256 478.403 19.247 478.403 18.6642C478.403 16.8894 476.864 15.3495 475.098 15.3495H470.243C468.468 15.3495 467.05 16.8894 467.05 18.6642C467.05 20.439 468.468 21.857 470.243 21.857H472.253C472.018 22.3268 471.896 22.9185 471.896 23.5101C471.896 24.4582 472.253 25.2846 472.966 25.8764C472.253 26.4679 471.896 27.4163 471.896 28.3559C471.896 28.9474 472.018 29.539 472.253 30.0175H470.243C468.468 30.0175 467.05 31.4355 467.05 33.2103C467.05 33.8018 467.172 34.3848 467.407 34.8633H465.397C463.623 34.8633 462.204 36.2813 462.204 38.0561C462.204 38.6476 462.318 39.2392 462.561 39.709H460.543C458.777 39.709 457.237 41.1272 457.237 42.9017C457.237 44.6765 458.777 46.2164 460.543 46.2164H465.397C467.172 46.2164 468.59 44.6765 468.59 42.9017C468.59 42.3189 468.468 41.7187 468.233 41.2489H470.243C472.018 41.2489 473.436 39.8309 473.436 38.0561C473.436 37.4644 473.323 36.8728 473.079 36.4032H475.098C476.864 36.4032 478.403 34.985 478.403 33.2103C478.403 32.6187 478.169 32.027 477.934 31.5487H479.943C481.718 31.5487 483.249 30.1305 483.249 28.3559C483.249 27.4163 482.779 26.4679 482.066 25.8764C482.779 25.2846 483.249 24.4582 483.249 23.5101ZM484.789 73.6556C483.014 73.6556 481.596 75.1868 481.596 76.9615C481.596 78.7363 483.014 80.163 484.789 80.163C486.564 80.163 488.104 78.7363 488.104 76.9615C488.104 75.1867 486.564 73.6556 484.789 73.6556ZM494.602 44.5635C493.541 44.5635 492.715 44.9114 492.123 45.6249C491.531 44.9114 490.705 44.5635 489.635 44.5635C488.695 44.5635 487.869 44.9114 487.277 45.6249C486.686 44.9114 485.851 44.5635 484.789 44.5635C483.841 44.5635 483.014 44.9114 482.423 45.6249C481.831 44.9114 480.891 44.5635 479.943 44.5635C478.995 44.5635 478.169 44.9114 477.577 45.6249C476.985 44.9114 476.037 44.5635 475.098 44.5635C473.323 44.5635 471.896 45.9815 471.896 47.7563C471.896 49.5224 473.323 51.0622 475.098 51.0622C476.037 51.0622 476.985 50.5924 477.577 49.8879C477.577 50.0009 477.699 50.1226 477.812 50.2358C477.107 50.8273 476.751 51.6538 476.751 52.6021C476.751 54.3769 478.169 55.9168 479.943 55.9168C481.718 55.9168 483.249 54.3769 483.249 52.6021C483.249 51.6538 482.78 50.8273 482.066 50.2358C482.188 50.1226 482.31 50.0009 482.423 49.8879C483.014 50.5924 483.841 51.0622 484.789 51.0622C485.851 51.0622 486.686 50.5924 487.277 49.8879C487.869 50.5924 488.695 51.0622 489.635 51.0622C490.705 51.0622 491.531 50.5924 492.123 49.8879C492.715 50.5924 493.541 51.0622 494.602 51.0622C496.377 51.0622 497.804 49.5224 497.804 47.7563C497.804 45.9815 496.377 44.5635 494.602 44.5635Z" fill="#010101"/>
</g>
<defs>
<clipPath id="clip0_9_2">
<rect width="799.037" height="146.773" fill="white"/>
</clipPath>
</defs>
</svg>
