<?xml version="1.0" encoding="UTF-8"?>
<svg id="Layer_2" xmlns="http://www.w3.org/2000/svg" width="607.00752" height="109.72045" viewBox="0 0 607.00752 109.72045">
  <defs>
    <style>
      .cls-1 {
        stroke: #000;
        stroke-miterlimit: 10;
        stroke-width: 2.62733px;
      }

      .cls-1, .cls-2 {
        fill: #fff;
      }
    </style>
  </defs>
  <g id="Ebene_1">
    <g>
      <g>
        <path class="cls-1" d="M302.7981,82.98086h-9.00879c-.01533-.71185-.10733-1.40838-.2716-2.08299.17961-.74909.27379-1.52884.27379-2.32612,0-.77756-.09418-1.5398-.27379-2.27355.17961-.7469.27379-1.52665.27379-2.32393,0-.78632-.09637-1.55513-.28036-2.29546.18399-.7469.28036-1.51789.28036-2.30203,0-.79728-.09418-1.57703-.27379-2.32612.17961-.73376.27379-1.49599.27379-2.27355,0-.79728-.09418-1.57703-.27379-2.32393.17961-.73376.27379-1.49599.27379-2.27355,0-.79728-.09418-1.57703-.27379-2.32393.17961-.73376.27379-1.49599.27379-2.27355,0-.81042-.09199-1.59455-.26941-2.34364.17742-.72938.26941-1.48504.26941-2.25603,0-.8148-.09418-1.60331-.27379-2.35459.17961-.75128.27379-1.5398.27379-2.35459,0-3.77611-2.2407-7.0375-5.46047-8.52692-1.48942-3.21758-4.7508-5.45828-8.52473-5.45828h-4.59748c-3.83306,0-7.14263,2.25384-8.64081,5.49113-1.10392.51473-2.08957,1.23315-2.91094,2.10709-.82137-.87394-1.80701-1.59236-2.91094-2.10709-1.49818-3.23729-4.80775-5.49113-8.64081-5.49113h-4.59748c-3.77392,0-7.03531,2.2407-8.52473,5.45828-.37893.17523-.74471.37454-1.09297.59796-1.34705-3.53737-4.77271-6.05624-8.77442-6.05624h-23.1035c-5.17573,0-9.38771,4.21199-9.38771,9.38771,0,5.23706,4.21199,9.49723,9.38771,9.49723h9.00879c.01533.70528.11171,1.4018.28474,2.0808-.18837.75347-.28693,1.53541-.28693,2.32831,0,.77537.09856,1.54199.29131,2.28669-.19056.75347-.29131,1.53103-.29131,2.31079,0,.78194.10075,1.55294.29569,2.30203-.19275.75566-.29569,1.52884-.29569,2.29546,0,.78194.10075,1.55513.29569,2.30203-.19275.75566-.29569,1.53103-.29569,2.29765,0,.78413.09856,1.55075.2935,2.30203-.19275.7469-.2935,1.5157-.2935,2.29546s.10075,1.55732.29131,2.31079c-.19275.74471-.29131,1.51132-.29131,2.28669,0,.76661.10295,1.54199.29569,2.29765-.17961.68776-.27817,1.39523-.2935,2.11147h-6.40066c-.02628-.65983-.10952-1.31145-.27543-1.945.19494-.75128.29788-1.52884.29788-2.3086,0-.77756-.10295-1.54637-.29788-2.28888.19494-.75347.29788-1.52884.29788-2.3086s-.10295-1.54856-.29788-2.29107c.22341-.85422.29788-1.64055.29788-2.30641,0-.77975-.10295-1.55732-.29788-2.3086.19494-.74471.29788-1.51132.29788-2.29107,0-5.23706-4.26017-9.49723-9.49723-9.49723-1.6077,0-3.12121.41178-4.44635,1.13459.02409-.27379.03724-.55196.03724-.83232,0-.81042-.09199-1.59455-.2716-2.34364.17961-.72938.2716-1.48504.2716-2.25603,0-3.81554-2.23632-7.11416-5.4539-8.6211-.93527-2.03262-2.57582-3.67536-4.60624-4.615-1.48942-3.21758-4.74861-5.45828-8.52254-5.45828h-18.50602c-3.77392,0-7.03312,2.2407-8.52254,5.45828-.24696.11444-.46763.26996-.70255.40466-.35045-.22341-.702-.44737-1.08257-.62369-1.48942-3.21758-4.7508-5.45828-8.52473-5.45828h-4.59748c-3.83306,0-7.14263,2.25384-8.64081,5.49113-.34388.16208-.67462.34169-.99441.53882-1.36293-3.50561-4.79625-6.00257-8.81385-6.02557.11499-.20644.25298-.39782.35264-.61329,2.02605-.93746,3.66441-2.57582,4.60186-4.60186,2.01509-.93089,3.64469-2.55829,4.58434-4.56901,3.28986-1.47628,5.58532-4.75299,5.58532-8.55101,0-5.23706-4.26236-9.49942-9.49942-9.49942-3.40595,0-6.39354,1.84425-8.03848,4.59748h-48.41046c-1.64493-2.75323-4.63253-4.59748-8.03848-4.59748-3.80459,0-7.09445,2.24946-8.61015,5.48675-2.01728.94622-3.65126,2.5802-4.59529,4.59748-2.02167.94403-3.65564,2.5802-4.59967,4.59967-2.05014.95936-3.70383,2.62838-4.64129,4.68948-2.01728.93746-3.64907,2.57144-4.58434,4.5931-2.02386.93527-3.66003,2.57144-4.59529,4.59529-3.22196,1.48942-5.46266,4.7508-5.46266,8.52692,0,5.23706,4.21199,9.49723,9.38771,9.49723,3.85496,0,7.18206-2.3086,8.66929-5.61598,2.01509-.94841,3.64031-2.5802,4.5712-4.58653,2.0129-.94184,3.6425-2.56048,4.57777-4.56025,1.73692-.79728,3.18911-2.11147,4.15942-3.74107h1.12582c3.42785,0,6.43297-1.84863,8.07133-4.59967h.93746c.00657.30226.02628.60234.06133.90022-1.65807.96812-2.99198,2.42907-3.80021,4.18132-3.21977,1.48723-5.46047,4.7508-5.46047,8.52473,0,.35702.01971.70966.05695,1.06011-1.71064.9725-3.08616,2.45754-3.91191,4.24046-3.21977,1.50475-5.4539,4.74423-5.4539,8.49187,0,.38331.0219.76223.06571,1.13678-2.78828,1.65588-4.66319,4.69824-4.66319,8.17208,0,.34388.01971.68776.05914,1.02726-1.62522.96593-2.93941,2.40278-3.75202,4.12218-3.24386,1.49599-5.50427,4.80994-5.50427,8.64519,0,.36578.0219.72938.06571,1.08859-1.37771.80604-2.53201,1.95158-3.34681,3.32053h-14.92046c-5.23706,0-9.49942,4.2098-9.49942,9.38552,0,5.23706,4.26236,9.49942,9.49942,9.49942h50.69058c5.17573,0,9.38771-4.26236,9.38771-9.49942,0-5.17573-4.21199-9.38552-9.38771-9.38552h-9.0066c-.00657-.29788-.02847-.59796-.06571-.89803,1.65807-.96812,2.99198-2.42907,3.8024-4.18132,3.21977-1.48942,5.46047-4.7508,5.46047-8.52473,0-.36797-.01971-.73157-.05914-1.09297,2.7839-1.6296,4.65881-4.65224,4.65881-8.10418,0-.37454-.01971-.74471-.05914-1.10611,1.63179-.96812,2.95036-2.41811,3.76078-4.15723,3.23729-1.50037,5.49332-4.80994,5.49332-8.643,0-.35702-.01971-.70966-.05914-1.05792,1.71064-.97469,3.08835-2.46192,3.9141-4.24703,3.21977-1.50256,5.4539-4.74423,5.4539-8.48968,0-.37454-.02409-.7469-.07009-1.11706,1.37114-.80385,2.52106-1.93843,3.33586-3.29205h6.55344c-.0898.16865-.17742.3395-.25846.51473-1.91872.89611-3.46673,2.42359-4.42171,4.29303-3.87303,1.18496-6.71388,4.71631-6.71388,8.92775,0,5.23706,4.26236,9.49723,9.49942,9.49723h9.00879c.01314.70528.10514,1.39742.26722,2.06547-.17742.74909-.26941,1.53322-.26941,2.34364,0,.77756.09418,1.5398.27379,2.27355-.17961.7469-.27379,1.52665-.27379,2.32393,0,.77756.09418,1.5398.27379,2.27355-.17961.7469-.27379,1.52665-.27379,2.32393,0,.77756.09418,1.5398.27379,2.27355-.17961.74909-.27379,1.52884-.27379,2.32612,0,.78413.09637,1.55513.28036,2.30203-.18399.74033-.28036,1.50913-.28036,2.29546,0,.79728.09418,1.57703.27379,2.32393-.17961.73376-.27379,1.49599-.27379,2.27355,0,.79728.09418,1.57703.27379,2.32612-.16427.67462-.25627,1.37114-.2716,2.08299h-9.00879c-5.23706,0-9.49942,4.2098-9.49942,9.38552,0,5.23706,4.26236,9.49942,9.49942,9.49942h46.0931c4.02088,0,7.4323-2.58513,8.76676-6.18875.48351.35319.98838.6779,1.53432.93417,1.4719,3.2592,4.69824,5.47361,8.5313,5.47361h9.30886c3.97543,0,7.38138-2.51449,8.74814-6.05405.33293.21027.679.39864,1.03821.56729,1.51351,3.23729,4.80337,5.48675,8.60796,5.48675h9.19496c2.21277,0,4.23882-.79235,5.84596-2.09395,1.5721,1.20002,3.50451,1.93843,5.62036,1.93843h32.29846c1.66902,0,3.23948-.44463,4.59748-1.22001,1.36019.77537,2.93065,1.22001,4.59967,1.22001h18.39212c1.70188,0,3.28548-.42711,4.65443-1.18058,1.36895.75347,2.95255,1.18058,4.65443,1.18058h27.58927c5.23706,0,9.49942-4.26236,9.49942-9.49942,0-5.17573-4.26236-9.38552-9.49942-9.38552ZM149.12304,65.60724c-3.21977,1.48723-5.45828,4.74861-5.45828,8.52254,0,.79728.09418,1.57703.27379,2.32393-.17961.73376-.27379,1.49599-.27379,2.27355,0,.79728.09418,1.57703.27379,2.32612-.17961.73376-.27379,1.49599-.27379,2.27355,0,.34224.02574.67873.05969,1.01302-1.43247-.88598-3.10423-1.42261-4.90906-1.42261h-13.60627c-.01533-.71404-.11609-1.41714-.29569-2.10052.19494-.75128.29788-1.52884.29788-2.3086,0-.77756-.10295-1.54637-.29788-2.28888.19494-.75347.29788-1.52884.29788-2.3086s-.10295-1.54856-.29788-2.29107c.22341-.85422.29788-1.64055.29788-2.30641,0-.77975-.10295-1.55732-.29788-2.3086.17961-.68338.28036-1.38866.29569-2.10271,3.69507-.07228,6.87322-2.29107,8.33636-5.45828.22122-.10075.43587-.21027.64614-.32855.18837.10514.38331.20589.58043.29788,1.50037,3.23729,4.80994,5.49113,8.643,5.49113,1.68326,0,3.25208-.4649,4.61993-1.2441.52951.33649,1.09187.62616,1.686.85203-.22341.35045-.42273.71623-.59796,1.09516ZM171.25842,55.4354h-4.30179c-.30007,0-.59577.01533-.88708.04162.65929-1.24629,1.04478-2.65467,1.07545-4.14847h4.11123c.01533.7009.11171,1.39304.28693,2.06547-.16646.6571-.26284,1.34048-.28474,2.04138ZM242.99359,76.2982c-.17961.73376-.27379,1.49599-.27379,2.27355,0,.79728.09418,1.57703.27379,2.32612-.17961.73376-.27379,1.49599-.27379,2.27355,0,.31541.01533.62643.04381.93527-1.27477-.68995-2.72476-1.09297-4.26455-1.12363-.01533-.71623-.1139-1.4259-.2935-2.11366.19275-.75566.29569-1.53103.29569-2.29765,0-.77537-.09856-1.54199-.29131-2.28669.19056-.75347.29131-1.53103.29131-2.31079s-.10075-1.54856-.2935-2.29546c.19494-.75128.2935-1.51789.2935-2.30203,0-.76661-.10295-1.54199-.29569-2.29765.17961-.68776.27817-1.39742.2935-2.11366,1.5398-.03066,2.98979-.43368,4.26455-1.12363-.02847.30884-.04381.61986-.04381.93527,0,.77756.09418,1.5398.27379,2.27355-.17961.74909-.27379,1.52884-.27379,2.32612,0,.78413.09637,1.55513.28036,2.30203-.18399.74033-.28036,1.50913-.28036,2.29546,0,.79728.09418,1.57703.27379,2.32393ZM270.60696,71.68319c-.19494.74252-.29788,1.51132-.29788,2.29107s.10295,1.55513.29788,2.3086c-.19494.74252-.29788,1.50913-.29788,2.28888s.10295,1.55732.29788,2.3086c-.19494.74252-.29788,1.51132-.29788,2.29107,0,.30445.01533.60672.046.90898-1.24629-.6571-2.65686-1.04916-4.15504-1.09516-.01533-.71404-.11609-1.41933-.29569-2.1049.19494-.75128.29788-1.52884.29788-2.3086,0-.77756-.10295-1.54637-.29788-2.28888.19494-.75347.29788-1.52884.29788-2.3086s-.10295-1.54856-.29788-2.29107c.22341-.85422.29788-1.64055.29788-2.30641,0-.77975-.10295-1.55732-.29788-2.3086.17961-.68557.28036-1.39085.29569-2.1049,1.49818-.046,2.90875-.43806,4.15504-1.09516-.03066.30226-.046.60453-.046.90898,0,.77975.10295,1.54856.29788,2.29107-.19494.75128-.29788,1.52884-.29788,2.3086,0,.66586.07447,1.45218.29788,2.30641Z"/>
        <g>
          <path d="M119.82274,18.49229c0,1.68217-1.34486,3.02702-3.02702,3.02702h-1.90777c.2256.44902.33731,1.00974.33731,1.57046,0,1.68217-1.34705,3.02921-3.02921,3.02921h-1.90558c.22341.44683.33512,1.00974.33512,1.57046,0,1.68217-1.34486,3.02702-3.02702,3.02702s-3.14092-1.34486-3.14092-3.02702c0-.89803.44902-1.79606,1.12144-2.35678-.67243-.56072-1.12144-1.34486-1.12144-2.24289,0-.56072.2256-1.12144.44902-1.57046h-22.31717c.22341.44902.44683,1.00974.44683,1.57046,0,1.68217-1.45656,3.02921-3.13873,3.02921h-1.90777c.2256.44683.44902,1.00974.44902,1.57046,0,.89584-.44902,1.68217-1.12144,2.24289.67243.56072,1.12144,1.45656,1.12144,2.35459,0,1.68217-1.45875,3.02702-3.14092,3.02702h-1.90558c.22341.44902.44902,1.00974.44902,1.57046,0,1.68217-1.45875,3.02921-3.14092,3.02921h-1.90558c.22341.44683.33512,1.00755.33512,1.57046,0,.89584-.33512,1.79387-1.00974,2.35459.67462.56072,1.00974,1.34486,1.00974,2.24289,0,1.68217-1.34486,3.14092-3.02702,3.14092h-1.90777c.2256.44683.33731.89584.33731,1.45656,0,1.68217-1.34705,3.14092-3.02921,3.14092h-1.90558c.22341.44902.33731.89584.33731,1.45656,0,1.00974-.33731,1.79606-1.00974,2.35678.67243.56072,1.00974,1.34486,1.00974,2.35459,0,1.68217-1.34705,3.02702-3.02921,3.02702h-2.01948c.33731.44902.44902,1.00974.44902,1.57046,0,.89803-.33512,1.68217-1.00974,2.24289.67462.56072,1.00974,1.45875,1.00974,2.35678,0,1.68217-1.34486,3.02702-3.02702,3.02702h-2.01948c.33731.44902.44902,1.00974.44902,1.57046,0,1.68217-1.34705,3.02702-3.02921,3.02702h-2.01728c.33512.44902.44902,1.00974.44902,1.57046,0,.89803-.44902,1.68217-1.00974,2.24289.56072.56072,1.00974,1.45875,1.00974,2.35678,0,1.68217-1.34705,3.02702-3.02921,3.02702h-2.01948c.33731.44902.44902,1.00974.44902,1.57046s-.11171,1.12144-.44902,1.57046h20.41159c1.68217,0,3.02921,1.34486,3.02921,3.02702s-1.34705,3.14092-3.02921,3.14092H10.8127c-1.68217,0-3.14092-1.45875-3.14092-3.14092s1.45875-3.02702,3.14092-3.02702h20.41159c-.33731-.44902-.44902-1.00974-.44902-1.57046,0-1.68217,1.34486-3.02702,3.02702-3.02702h2.01948c-.33731-.44902-.44902-1.00974-.44902-1.57046,0-.89803.44902-1.79606,1.00974-2.35678-.56072-.56072-1.00974-1.34486-1.00974-2.24289,0-1.68217,1.34705-3.13873,3.02921-3.13873h2.01728c-.33512-.44902-.44902-.89803-.44902-1.45875,0-1.68217,1.34705-3.14092,3.14092-3.14092h1.90777c-.2256-.44683-.44902-.89584-.44902-1.45656,0-.89803.44902-1.79606,1.12144-2.35678-.67243-.56072-1.12144-1.34486-1.12144-2.24289,0-1.79387,1.45656-3.13873,3.13873-3.13873h1.90777c-.2256-.44902-.44902-1.00974-.44902-1.45875,0-1.00974.44902-1.79387,1.12144-2.35459-.67243-.56072-1.12144-1.34705-1.12144-2.35678,0-1.68217,1.45875-3.02702,3.14092-3.02702h1.90558c-.22341-.44902-.44902-1.00974-.44902-1.57046,0-1.68217,1.45875-3.02702,3.14092-3.02702h1.90777c-.2256-.44902-.33731-1.00974-.33731-1.57046,0-.89803.33731-1.68217,1.00974-2.24289-.67243-.56072-1.00974-1.45875-1.00974-2.35459,0-1.68436,1.34486-3.02921,3.02702-3.02921h1.90777c-.2256-.44902-.33731-1.00974-.33731-1.57046,0-1.68217,1.34705-3.02702,3.02921-3.02702h1.90558c-.22341-.44902-.33512-1.00974-.33512-1.57046,0-.89803.33512-1.79387,1.00755-2.35459-.67243-.56072-1.00755-1.34705-1.00755-2.24289,0-1.68436,1.34486-3.14092,3.02702-3.14092h2.01948c-.33731-.44902-.44902-.89803-.44902-1.45875s.11171-1.12144.44902-1.57046h-17.83359c.33731.44902.44902,1.00974.44902,1.57046,0,1.68217-1.34486,3.02921-3.02702,3.02921h-4.59967c-1.68217,0-3.13873-1.34705-3.13873-3.02921s1.45656-3.14092,3.13873-3.14092h1.90777c-.2256-.44683-.44902-.89584-.44902-1.45656,0-1.68217,1.45875-3.14092,3.14092-3.14092h1.90558c-.22341-.44902-.44902-.89584-.44902-1.45656,0-1.79606,1.45875-3.14092,3.14092-3.14092s3.02921,1.34486,3.02921,3.14092c0,.56072-.1139,1.00755-.33731,1.45656h57.19802c1.68217,0,3.02702,1.45875,3.02702,3.14092ZM26.1756,41.48408c0-1.68436,1.34705-3.02921,3.02921-3.02921s3.14092,1.34486,3.14092,3.02921c0,1.68217-1.45875,3.13873-3.14092,3.13873s-3.02921-1.45656-3.02921-3.13873ZM30.77528,36.8844c0-1.68217,1.34486-3.02702,3.02702-3.02702s3.14092,1.34486,3.14092,3.02702-1.45875,3.02921-3.14092,3.02921-3.02702-1.34705-3.02702-3.02921ZM35.37276,32.28692c0-1.68217,1.34705-3.02921,3.02921-3.02921,1.79387,0,3.13873,1.34705,3.13873,3.02921s-1.34486,3.02702-3.13873,3.02702c-1.68217,0-3.02921-1.34486-3.02921-3.02702ZM39.97024,27.68944c0-1.68436,1.34705-3.14092,3.14092-3.14092,1.68217,0,3.02921,1.45656,3.02921,3.14092,0,1.68217-1.34705,3.02702-3.02921,3.02702-1.79387,0-3.14092-1.34486-3.14092-3.02702ZM96.83095,41.48408c0,1.68217-1.34486,3.13873-3.02702,3.13873-1.79387,0-3.14092-1.45656-3.14092-3.13873,0-1.68436,1.34705-3.02921,3.14092-3.02921,1.68217,0,3.02702,1.34486,3.02702,3.02921ZM101.43063,36.8844c0,1.68217-1.34705,3.02921-3.02921,3.02921s-3.13873-1.34705-3.13873-3.02921,1.45656-3.02702,3.13873-3.02702,3.02921,1.34486,3.02921,3.02702ZM106.02811,32.28692c0,1.68217-1.34486,3.02702-3.02702,3.02702s-3.14092-1.34486-3.14092-3.02702,1.45875-3.02921,3.14092-3.02921,3.02702,1.34705,3.02702,3.02921ZM124.53412,13.8948c0,1.68217-1.45875,3.02702-3.14092,3.02702s-3.02921-1.34486-3.02921-3.02702c0-1.79606,1.34705-3.14092,3.02921-3.14092s3.14092,1.34486,3.14092,3.14092Z"/>
          <path d="M141.84407,92.30258c0,1.79606-1.34705,3.14092-3.02921,3.14092h-46.0931c-1.68217,0-3.14092-1.34486-3.14092-3.14092,0-1.68217,1.45875-3.02702,3.14092-3.02702h15.70022c-.22341-.44902-.33512-1.00974-.33512-1.57046,0-.89803.33512-1.68217,1.00974-2.24289-.67462-.56072-1.00974-1.45875-1.00974-2.35459,0-.89803.33512-1.68217,1.00974-2.24289-.67462-.56072-1.00974-1.45875-1.00974-2.35678,0-.89584.33512-1.68217,1.00974-2.24289-.67462-.56072-1.00974-1.45656-1.00974-2.35459s.33512-1.68217,1.00974-2.24289c-.67462-.67243-1.00974-1.45875-1.00974-2.35459,0-.89803.33512-1.79606,1.00974-2.35678-.67462-.56072-1.00974-1.34486-1.00974-2.24289,0-.89584.33512-1.79387,1.00974-2.35459-.67462-.56072-1.00974-1.34486-1.00974-2.24289s.33512-1.79387,1.00974-2.35459c-.67462-.56072-1.00974-1.34705-1.00974-2.24289,0-1.00974.33512-1.79606,1.00974-2.35678-.67462-.56072-1.00974-1.34486-1.00974-2.24289,0-1.00755.33512-1.79387,1.00974-2.35459-.67462-.56072-1.00974-1.34486-1.00974-2.35459,0-.56072.11171-1.00974.33512-1.45875h-15.70022c-1.68217,0-3.14092-1.34486-3.14092-3.13873,0-1.68436,1.45875-3.02921,3.14092-3.02921h22.99179c1.68217,0,3.13873,1.34486,3.13873,3.02921,0,1.00755-.44902,1.79387-1.12144,2.35459.67243.56072,1.12144,1.34486,1.12144,2.24289,0,1.00974-.44902,1.79387-1.12144,2.35459.67243.56072,1.12144,1.34705,1.12144,2.35459,0,.56072-.22341,1.00974-.44902,1.45875h6.61696c1.68217,0,3.02921,1.45875,3.02921,3.14092s-1.34705,3.02702-3.02921,3.02702h-6.61696c.2256.44902.44902,1.00974.44902,1.57046,0,.89803-.44902,1.68217-1.12144,2.24289.67243.56072,1.12144,1.45875,1.12144,2.35459,0,.89803-.44902,1.68217-1.12144,2.24289.67243.56072,1.12144,1.45875,1.12144,2.35678,0,.89584-.44902,1.68217-1.12144,2.35459.67243.56072,1.12144,1.34486,1.12144,2.24289s-.44902,1.79387-1.12144,2.35459c.67243.56072,1.12144,1.34705,1.12144,2.24289,0,.89803-.44902,1.79606-1.12144,2.35678.67243.56072,1.12144,1.34486,1.12144,2.24289,0,.89584-.44902,1.79387-1.12144,2.35459.67243.56072,1.12144,1.34486,1.12144,2.24289,0,.56072-.22341,1.12144-.44902,1.57046h20.41159c1.68217,0,3.02921,1.34486,3.02921,3.02702ZM127.48871,48.56408c-.56072-.56072-1.00974-1.34486-1.00974-2.35459,0-1.68217,1.34486-3.02921,3.14092-3.02921,1.68217,0,3.02702,1.34705,3.02702,3.02921,0,1.00974-.44902,1.79387-1.00974,2.35459.56072.56072,1.00974,1.34705,1.00974,2.35459,0,1.68217-1.34486,3.02921-3.02702,3.02921-1.79606,0-3.14092-1.34705-3.14092-3.02921,0-1.00755.44902-1.79387,1.00974-2.35459ZM131.07645,41.612c0-1.68436,1.45875-3.02921,3.14092-3.02921h4.59748c1.68217,0,3.02921,1.34486,3.02921,3.02921,0,1.79387-1.34705,3.13873-3.02921,3.13873h-4.59748c-1.68217,0-3.14092-1.34486-3.14092-3.13873ZM151.04122,50.91868c0,1.68217-1.34705,3.02921-3.02921,3.02921-.89803,0-1.79387-.44902-2.35459-1.00974q-.11171.11171-.2256.22341c.67462.56072,1.00974,1.34705,1.00974,2.35678,0,1.68217-1.34486,3.02702-3.02702,3.02702s-3.14092-1.34486-3.14092-3.02702c0-1.00974.44902-1.79606,1.12144-2.35678q-.22341-.11171-.33731-.22341c-.56072.56072-1.34486,1.00974-2.24289,1.00974-1.68217,0-3.13873-1.34705-3.13873-3.02921,0-1.79387,1.45656-3.13873,3.13873-3.13873.89803,0,1.68217.44683,2.24289,1.00755q.1139-.11171.33731-.22341c-.67243-.56072-1.12144-1.34486-1.12144-2.35459,0-1.68217,1.45875-3.02921,3.14092-3.02921s3.02702,1.34705,3.02702,3.02921c0,1.00974-.33512,1.79387-1.00974,2.35459.1139.11171.2256.22341.2256.22341.56072-.56072,1.45656-1.00755,2.35459-1.00755,1.68217,0,3.02921,1.34486,3.02921,3.13873Z"/>
          <path d="M151.03057,53.38028l-.22341-.22341c-.56072.56072-1.45875,1.00974-2.35459,1.00974-1.68217,0-3.02921-1.34705-3.02921-3.02921,0-1.79387,1.34705-3.13873,3.02921-3.13873.89584,0,1.79387.44683,2.35459,1.00755l.22341-.22341c-.67243-.56072-1.00755-1.34486-1.00755-2.35459,0-1.68217,1.34486-3.02921,3.02702-3.02921s3.14092,1.34705,3.14092,3.02921c0,1.00974-.44902,1.79387-1.12144,2.35459q.22341.11171.33512.22341c.56072-.56072,1.34705-1.00755,2.24289-1.00755,1.68217,0,3.14092,1.34486,3.14092,3.13873,0,1.68217-1.45875,3.02921-3.14092,3.02921-.89584,0-1.68217-.44902-2.24289-1.00974q-.11171.11171-.33512.22341c.67243.56072,1.12144,1.34705,1.12144,2.35678,0,1.68217-1.45875,3.02702-3.14092,3.02702s-3.02702-1.34486-3.02702-3.02702c0-1.00974.33512-1.79606,1.00755-2.35678ZM168.97586,90.27842c.56072.56072,1.00974,1.34705,1.00974,2.24289,0,1.79606-1.34705,3.14092-3.02921,3.14092h-9.30886c-1.68217,0-3.02702-1.34486-3.02702-3.14092,0-.56072.11171-1.00974.44902-1.45656h-2.01948c-1.68217,0-3.02702-1.45875-3.02702-3.14092,0-.89803.33512-1.68217,1.00755-2.24289-.67243-.56072-1.00755-1.45875-1.00755-2.35459,0-.89803.33512-1.68217,1.00755-2.24289-.67243-.56072-1.00755-1.45875-1.00755-2.35678,0-.89584.33512-1.68217,1.00755-2.24289-.67243-.56072-1.00755-1.45656-1.00755-2.35459,0-1.68217,1.34486-3.02702,3.02702-3.02702h2.01948c-.33731-.44902-.44902-1.00974-.44902-1.57046,0-1.68217,1.34486-3.02921,3.02702-3.02921h4.59967c1.79387,0,3.13873,1.34705,3.13873,3.02921s-1.34486,3.02702-3.13873,3.02702h-1.90777c.2256.44902.44902,1.00974.44902,1.57046,0,.89803-.44902,1.79387-1.12144,2.35459.67243.56072,1.12144,1.34705,1.12144,2.24289,0,.89803-.44902,1.79606-1.12144,2.35678.67243.56072,1.12144,1.34486,1.12144,2.24289,0,.89584-.44902,1.79387-1.12144,2.35459.67243.56072,1.12144,1.34486,1.12144,2.24289,0,.56072-.22341,1.12144-.44902,1.57046h3.92505c-.33512-.44902-.44683-1.00974-.44683-1.57046,0-1.68217,1.34486-3.02702,3.13873-3.02702,1.68217,0,3.02921,1.34486,3.02921,3.02702,0,1.00974-.44902,1.79387-1.00974,2.35459ZM154.6205,41.83072c0-1.68436,1.34486-3.02921,3.02702-3.02921h18.50602c1.68217,0,3.02702,1.34486,3.02702,3.02921,0,1.79387-1.34486,3.13873-3.02702,3.13873h-18.50602c-1.68217,0-3.02702-1.34486-3.02702-3.13873ZM197.57487,92.52131c0,1.79606-1.34705,3.14092-3.02921,3.14092h-9.19496c-1.68217,0-3.14092-1.34486-3.14092-3.14092,0-.56072.22341-1.00974.44902-1.45656h-1.90777c-1.68217,0-3.13873-1.45875-3.13873-3.14092,0-.56072.22341-1.00974.44683-1.45875h-6.50306c-1.79606,0-3.14092-1.45656-3.14092-3.13873s1.34486-3.02921,3.14092-3.02921h6.50306c-.22341-.44902-.44683-1.00974-.44683-1.57046,0-.89584.44683-1.68217,1.12144-2.24289-.67462-.56072-1.12144-1.45656-1.12144-2.35459s.44683-1.68217,1.12144-2.24289c-.67462-.67243-1.12144-1.45875-1.12144-2.35459,0-.56072.22341-1.12144.44683-1.57046h-11.10273c-1.79387,0-3.13873-1.34705-3.13873-3.02921s1.34486-3.13873,3.13873-3.13873h11.10273c-.22341-.44902-.44683-.89803-.44683-1.45875,0-.89803.44683-1.79387,1.12144-2.35459-.67462-.56072-1.12144-1.34705-1.12144-2.24289,0-1.00974.44683-1.79606,1.12144-2.35678-.67462-.56072-1.12144-1.34486-1.12144-2.24289,0-1.00755.44683-1.79387,1.12144-2.35459-.67462-.56072-1.12144-1.34486-1.12144-2.35459,0-1.68217,1.45656-3.02921,3.13873-3.02921s3.02921,1.34705,3.02921,3.02921c0,.56072-.11171,1.12144-.33731,1.57046h1.90777c1.68217,0,3.02702,1.34486,3.02702,3.13873,0,.89803-.33731,1.68217-1.00974,2.24289.67243.56072,1.00974,1.34705,1.00974,2.35678,0,.89584-.33731,1.68217-1.00974,2.24289.67243.56072,1.00974,1.45656,1.00974,2.35459s-.33731,1.68217-1.00974,2.24289c.67243.56072,1.00974,1.45875,1.00974,2.35459,0,.89803-.33731,1.68217-1.00974,2.24289.67243.56072,1.00974,1.45875,1.00974,2.35678,0,.89584-.33731,1.68217-1.00974,2.35459.67243.56072,1.00974,1.34486,1.00974,2.24289s-.33731,1.79387-1.00974,2.35459c.67243.56072,1.00974,1.34705,1.00974,2.24289,0,.89803-.33731,1.79606-1.00974,2.35678.67243.56072,1.00974,1.34486,1.00974,2.24289,0,.89584-.33731,1.79387-1.00974,2.35459.67243.56072,1.00974,1.34486,1.00974,2.24289,0,.56072-.11171,1.12144-.33731,1.57046h6.50525c1.68217,0,3.02921,1.34486,3.02921,3.02702ZM201.16262,71.8863c.67243.56072,1.12144,1.34486,1.12144,2.24289s-.44902,1.79387-1.12144,2.35459c.67243.56072,1.12144,1.34705,1.12144,2.24289,0,.89803-.44902,1.79606-1.12144,2.35678.67243.56072,1.12144,1.34486,1.12144,2.24289,0,.89584-.44902,1.79387-1.12144,2.35459.67243.56072,1.12144,1.34486,1.12144,2.24289,0,1.68217-1.45656,3.14092-3.13873,3.14092s-3.02921-1.45875-3.02921-3.14092c0-.89803.33731-1.68217,1.00974-2.24289-.67243-.56072-1.00974-1.45875-1.00974-2.35459,0-.89803.33731-1.68217,1.00974-2.24289-.67243-.56072-1.00974-1.45875-1.00974-2.35678,0-.89584.33731-1.68217,1.00974-2.24289-.67243-.56072-1.00974-1.45656-1.00974-2.35459s.33731-1.68217,1.00974-2.24289c-.67243-.67243-1.00974-1.45875-1.00974-2.35459,0-.89803.33731-1.79606,1.00974-2.35678-.67243-.56072-1.00974-1.34486-1.00974-2.24289,0-1.68217,1.34705-3.13873,3.02921-3.13873s3.13873,1.45656,3.13873,3.13873c0,.89803-.44902,1.68217-1.12144,2.24289.67243.56072,1.12144,1.45875,1.12144,2.35678,0,.89584-.44902,1.68217-1.12144,2.35459Z"/>
          <path d="M241.33947,55.58262c0,1.68217-1.34705,3.02702-3.02921,3.02702h-6.61696c.33731.44902.44902,1.00974.44902,1.57046,0,.89803-.44902,1.68217-1.00974,2.24289.56072.56072,1.00974,1.45875,1.00974,2.35459,0,.89803-.44902,1.68217-1.00974,2.24289.56072.56072,1.00974,1.45875,1.00974,2.35678,0,.89584-.44902,1.68217-1.00974,2.35459.56072.56072,1.00974,1.34486,1.00974,2.24289s-.44902,1.79387-1.00974,2.35459c.56072.56072,1.00974,1.34705,1.00974,2.24289,0,.89803-.44902,1.79606-1.00974,2.35678.56072.56072,1.00974,1.34486,1.00974,2.24289,0,.89584-.44902,1.79387-1.00974,2.35459.56072.56072,1.00974,1.34486,1.00974,2.24289,0,.56072-.11171,1.12144-.44902,1.57046h6.61696c1.68217,0,3.02921,1.34486,3.02921,3.02702,0,1.79606-1.34705,3.14092-3.02921,3.14092h-32.29846c-1.68217,0-3.02921-1.34486-3.02921-3.14092,0-1.68217,1.34705-3.02702,3.02921-3.02702h15.81192c-.22341-.44902-.44683-1.00974-.44683-1.57046,0-.89803.44683-1.68217,1.00755-2.24289-.56072-.56072-1.00755-1.45875-1.00755-2.35459,0-.89803.44683-1.68217,1.00755-2.24289-.56072-.56072-1.00755-1.45875-1.00755-2.35678,0-.89584.44683-1.68217,1.00755-2.24289-.56072-.56072-1.00755-1.45656-1.00755-2.35459s.44683-1.68217,1.00755-2.24289c-.56072-.67243-1.00755-1.45875-1.00755-2.35459,0-.89803.44683-1.79606,1.00755-2.35678-.56072-.56072-1.00755-1.34486-1.00755-2.24289,0-.89584.44683-1.79387,1.00755-2.35459-.56072-.56072-1.00755-1.34486-1.00755-2.24289s.44683-1.79387,1.00755-2.35459c-.56072-.56072-1.00755-1.34705-1.00755-2.24289,0-1.00974.44683-1.79606,1.00755-2.35678-.56072-.56072-1.00755-1.34486-1.00755-2.24289,0-1.00755.44683-1.79387,1.00755-2.35459-.56072-.56072-1.00755-1.34486-1.00755-2.35459,0-.56072.22341-1.00974.44683-1.45875h-15.81192c-1.68217,0-3.02921-1.34486-3.02921-3.13873,0-1.68436,1.34705-3.02921,3.02921-3.02921h23.1035c1.68217,0,3.02702,1.34486,3.02702,3.02921,0,1.00755-.44902,1.79387-1.00974,2.35459.56072.56072,1.00974,1.34486,1.00974,2.24289,0,1.00974-.44902,1.79387-1.00974,2.35459.56072.56072,1.00974,1.34705,1.00974,2.35459,0,.56072-.11171,1.00974-.44902,1.45875h6.61696c1.68217,0,3.02921,1.45875,3.02921,3.14092ZM242.90774,54.01216c-1.68217,0-3.02702-1.34705-3.02702-3.02921,0-1.00755.33731-1.79387,1.00974-2.35459-.67243-.56072-1.00974-1.34486-1.00974-2.35459,0-1.68217,1.34486-3.02921,3.02702-3.02921,1.68436,0,3.02921,1.34705,3.02921,3.02921,0,1.00974-.33731,1.79387-1.00974,2.35459.67243.56072,1.00974,1.34705,1.00974,2.35459,0,1.68217-1.34486,3.02921-3.02921,3.02921ZM259.39428,58.60964c.2256.44902.44902,1.00974.44902,1.57046,0,.89803-.44902,1.68217-1.12144,2.24289.67243.56072,1.12144,1.45875,1.12144,2.35459,0,.89803-.44902,1.68217-1.12144,2.24289.67243.56072,1.12144,1.45875,1.12144,2.35678,0,.89584-.44902,1.68217-1.12144,2.35459.67243.56072,1.12144,1.34486,1.12144,2.24289s-.44902,1.79387-1.12144,2.35459c.67243.56072,1.12144,1.34705,1.12144,2.24289,0,.89803-.44902,1.79606-1.12144,2.35678.67243.56072,1.12144,1.34486,1.12144,2.24289,0,.89584-.44902,1.79387-1.12144,2.35459.67243.56072,1.12144,1.34486,1.12144,2.24289,0,.56072-.22341,1.12144-.44902,1.57046h6.50525c1.79387,0,3.14092,1.34486,3.14092,3.02702,0,1.79606-1.34705,3.14092-3.14092,3.14092h-18.39212c-1.68217,0-3.02921-1.34486-3.02921-3.14092,0-1.68217,1.34705-3.02702,3.02921-3.02702h1.90558c-.22341-.44902-.33512-1.00974-.33512-1.57046,0-.89803.33512-1.68217,1.00974-2.24289-.67462-.56072-1.00974-1.45875-1.00974-2.35459,0-.89803.33512-1.68217,1.00974-2.24289-.67462-.56072-1.00974-1.45875-1.00974-2.35678,0-.89584.33512-1.68217,1.00974-2.24289-.67462-.56072-1.00974-1.45656-1.00974-2.35459s.33512-1.68217,1.00974-2.24289c-.67462-.67243-1.00974-1.45875-1.00974-2.35459,0-.89803.33512-1.79606,1.00974-2.35678-.67462-.56072-1.00974-1.34486-1.00974-2.24289,0-.89584.33512-1.79387,1.00974-2.35459-.67462-.56072-1.00974-1.34486-1.00974-2.24289s.33512-1.79387,1.00974-2.35459c-.67462-.56072-1.00974-1.34705-1.00974-2.24289,0-1.00974.33512-1.79606,1.00974-2.35678-.67462-.56072-1.00974-1.34486-1.00974-2.24289,0-1.00755.33512-1.79387,1.00974-2.35459-.67462-.56072-1.00974-1.34486-1.00974-2.35459,0-.56072.11171-1.00974.33512-1.45875h-1.90558c-1.68217,0-3.02921-1.34486-3.02921-3.13873,0-1.68436,1.34705-3.02921,3.02921-3.02921h4.59748c1.68217,0,3.14092,1.34486,3.14092,3.02921,0,.56072-.2256,1.12144-.44902,1.56827h1.90558c1.68436,0,3.14092,1.34705,3.14092,3.02921,0,1.00974-.44902,1.79387-1.12144,2.35459.67243.56072,1.12144,1.34705,1.12144,2.35459,0,.56072-.22341,1.00974-.44902,1.45875h6.50525c1.79387,0,3.14092,1.45875,3.14092,3.14092s-1.34705,3.02702-3.14092,3.02702h-6.50525ZM270.61091,54.01216c-1.79606,0-3.14092-1.34705-3.14092-3.02921,0-1.00755.44902-1.79387,1.00974-2.35459-.56072-.56072-1.00974-1.34486-1.00974-2.35459,0-1.68217,1.34486-3.02921,3.14092-3.02921,1.68217,0,3.02702,1.34705,3.02702,3.02921,0,1.00974-.44902,1.79387-1.00974,2.35459.56072.56072,1.00974,1.34705,1.00974,2.35459,0,1.68217-1.34486,3.02921-3.02702,3.02921ZM305.93858,92.36686c0,1.79606-1.45875,3.14092-3.14092,3.14092h-27.58927c-1.79387,0-3.14092-1.34486-3.14092-3.14092,0-1.68217,1.34705-3.02702,3.14092-3.02702h1.90558c-.22341-.44902-.44683-1.00974-.44683-1.57046,0-.89803.44683-1.68217,1.12144-2.24289-.67462-.56072-1.12144-1.45875-1.12144-2.35459,0-.89803.44683-1.68217,1.12144-2.24289-.67462-.56072-1.12144-1.45875-1.12144-2.35678,0-.89584.44683-1.68217,1.12144-2.24289-.67462-.56072-1.12144-1.45656-1.12144-2.35459s.44683-1.68217,1.12144-2.24289c-.67462-.67243-1.12144-1.45875-1.12144-2.35459,0-.89803.44683-1.79606,1.12144-2.35678-.67462-.56072-1.12144-1.34486-1.12144-2.24289,0-.89584.44683-1.79387,1.12144-2.35459-.67462-.56072-1.12144-1.34486-1.12144-2.24289s.44683-1.79387,1.12144-2.35459c-.67462-.56072-1.12144-1.34705-1.12144-2.24289,0-1.00974.44683-1.79606,1.12144-2.35678-.67462-.56072-1.12144-1.34486-1.12144-2.24289,0-1.00755.44683-1.79387,1.12144-2.35459-.67462-.56072-1.12144-1.34486-1.12144-2.35459,0-.56072.22341-1.00974.44683-1.45875h-1.90558c-1.79387,0-3.14092-1.34486-3.14092-3.13873,0-1.68436,1.34705-3.02921,3.14092-3.02921h4.59748c1.68217,0,3.02921,1.34486,3.02921,3.02921,0,.56072-.11171,1.12144-.44902,1.56827h2.01948c1.68217,0,3.02702,1.34705,3.02702,3.02921,0,1.00974-.33512,1.79387-1.00974,2.35459.67462.56072,1.00974,1.34705,1.00974,2.35459,0,.89803-.33512,1.68217-1.00974,2.24289.67462.56072,1.00974,1.34705,1.00974,2.35678,0,.89584-.33512,1.68217-1.00974,2.24289.67462.56072,1.00974,1.45656,1.00974,2.35459s-.33512,1.68217-1.00974,2.24289c.67462.56072,1.00974,1.45875,1.00974,2.35459,0,.89803-.33512,1.68217-1.00974,2.24289.67462.56072,1.00974,1.45875,1.00974,2.35678,0,.89584-.33512,1.68217-1.00974,2.35459.67462.56072,1.00974,1.34486,1.00974,2.24289s-.33512,1.79387-1.00974,2.35459c.67462.56072,1.00974,1.34705,1.00974,2.24289,0,.89803-.33512,1.79606-1.00974,2.35678.67462.56072,1.00974,1.34486,1.00974,2.24289,0,.89584-.33512,1.79387-1.00974,2.35459.67462.56072,1.00974,1.34486,1.00974,2.24289,0,.56072-.11171,1.12144-.33512,1.57046h15.70022c1.68217,0,3.14092,1.34486,3.14092,3.02702Z"/>
        </g>
      </g>
      <g>
        <path class="cls-1" d="M605.39597,41.06978c.19494-.75128.29788-1.52884.29788-2.3086,0-5.17573-4.26017-9.38552-9.49723-9.38552-3.45413,0-6.47897,1.87491-8.10857,4.661-.35702-.04162-.72062-.06352-1.08859-.06352h-18.39212c-3.90315,0-7.18863,2.2166-8.66272,5.47142-1.31803.61548-2.44494,1.54993-3.34517,2.67219-.04545-.26448-.08707-.52951-.15497-.78852.19494-.75128.29788-1.52884.29788-2.3086,0-5.17573-4.26017-9.38552-9.49723-9.38552-3.45413,0-6.47897,1.87491-8.10857,4.661-.35702-.04162-.72062-.06352-1.08859-.06352h-18.39212c-3.90315,0-7.18863,2.2166-8.66272,5.47142-2.01728.94184-3.64688,2.57801-4.57777,4.59967-3.21758,1.50913-5.45609,4.80556-5.45609,8.62329,0,.77099.09856,1.53103.28693,2.27136-.18837.75347-.28693,1.53541-.28693,2.32831,0,.16154.0219.32006.03066.48023-.22779-.01643-.44518-.06845-.67681-.06845-1.6077,0-3.12121.41178-4.44635,1.13459.02409-.27379.03724-.55196.03724-.83232,0-.81042-.09199-1.59455-.2716-2.34364.17961-.72938.2716-1.48504.2716-2.25603,0-3.81554-2.23632-7.11416-5.4539-8.6211-.93527-2.03262-2.57582-3.67536-4.60624-4.615-1.48942-3.21758-4.74861-5.45828-8.52254-5.45828h-15.49706c-.00821-.03285-.01095-.0679-.01917-.10075.19056-.73376.28912-1.48942.28912-2.25603,0-.81042-.09856-1.59893-.29131-2.35459.19275-.75566.29131-1.54418.29131-2.35459,0-3.74764-2.23413-6.98931-5.4539-8.49187-1.50037-3.23729-4.80994-5.49332-8.643-5.49332h-1.12582c-1.63836-2.75104-4.64348-4.59967-8.07133-4.59967h-36.89813c-5.17573,0-9.38552,4.21199-9.38552,9.38771,0,5.23706,4.2098,9.49942,9.38552,9.49942h4.4135c.00876.26941.02847.53663.05914.80166-1.63398.96593-2.95474,2.41811-3.76735,4.15942-3.23729,1.50037-5.49332,4.80994-5.49332,8.643,0,.36578.0219.72719.06571,1.0864-1.65588.97031-2.99198,2.43126-3.8024,4.18351-3.21977,1.48942-5.45828,4.7508-5.45828,8.52473,0,.36797.01971.73157.05914,1.09078-2.7839,1.6296-4.65881,4.65224-4.65881,8.10418,0,.36797.01971.73376.05914,1.09297-1.64493.96374-2.97226,2.41373-3.78268,4.15066-3.28986,1.47628-5.58532,4.75299-5.58532,8.55101,0,.38331.0219.76442.06571,1.13678-1.34924.80166-2.48601,1.92967-3.29862,3.27234h-10.37117c-5.17573,0-9.38552,4.26236-9.38552,9.49942,0,5.17573,4.2098,9.38552,9.38552,9.38552h55.40415c3.42785,0,6.43078-1.84863,8.06914-4.59748h1.12582c3.77611,0,7.0375-2.2407,8.52692-5.46266,2.01509-.93089,3.64688-2.55829,4.58434-4.56901,2.04795-.9287,3.68412-2.57363,4.61719-4.6391.76168-.35702,1.46313-.82137,2.09887-1.36238,0,.79591.09418,1.57429.27324,2.32174-.17961.73376-.27379,1.49599-.27379,2.27355,0,.79728.09418,1.57703.27379,2.32393-.17961.73376-.27379,1.49599-.27379,2.27355,0,3.81773,2.23632,7.11416,5.45171,8.62329,1.4719,3.2592,4.69824,5.47361,8.5313,5.47361h9.30886c3.97543,0,7.38138-2.51449,8.74814-6.05405.33293.21027.679.39864,1.03821.56729,1.51351,3.23729,4.80337,5.48675,8.60796,5.48675h9.19496c2.23577,0,4.28262-.80713,5.89744-2.13282,1.35964,3.51054,4.75135,6.01626,8.73609,6.01626,3.49356,0,6.55344-1.87491,8.20275-4.65881.3614.03943.73157.06133,1.10611.06133h18.39212c3.83306,0,7.0594-2.21441,8.5313-5.47361,1.3695-.64176,2.54077-1.62494,3.45742-2.81703.04654.2987.09364.59741.16756.88954-.19275.76223-.2935,1.55294-.2935,2.35459,0,5.17573,4.21199,9.38552,9.38771,9.38552,3.49356,0,6.55344-1.87491,8.20275-4.65881.3614.03943.73157.06133,1.10611.06133h18.39212c3.83306,0,7.0594-2.21441,8.5313-5.47361,1.991-.93308,3.60527-2.55172,4.5471-4.55368,3.30738-1.48723,5.61598-4.81213,5.61598-8.6671,0-.77975-.10295-1.54856-.29788-2.29107.19494-.75128.29788-1.52884.29788-2.3086s-.10295-1.54637-.29788-2.28888c.19494-.75347.29788-1.52884.29788-2.3086,0-2.72476-1.18058-5.1823-3.06426-6.89732,1.88368-1.71502,3.06426-4.17256,3.06426-6.89732,0-.77975-.10295-1.55513-.29788-2.3086.19494-.74252.29788-1.50913.29788-2.28888,0-.80604-.09856-1.59236-.28912-2.34364.19056-.73157.28912-1.48942.28912-2.25603,0-.81042-.09856-1.59893-.29131-2.35459.19275-.75566.29131-1.54418.29131-2.35459,0-.76661-.09856-1.52446-.28912-2.25603.19056-.75128.28912-1.53541.28912-2.34145,0-.77975-.10295-1.54856-.29788-2.29107ZM424.81502,69.37528c0,.35702.01971.71185.05695,1.06011-1.71283.97688-3.09054,2.4663-3.9141,4.2536-2.00195.94841-3.62279,2.57582-4.56025,4.58215-1.71502.80166-3.15187,2.10052-4.12437,3.70821h-14.78247c-.00876-.2716-.02628-.53882-.05476-.80385,1.62303-.96374,2.93722-2.40497,3.74983-4.13313,3.30738-1.48723,5.61817-4.81213,5.61817-8.6671,0-.34607-.01971-.68776-.05914-1.02726,2.73352-1.62741,4.58653-4.58872,4.65443-7.97934h14.73209c.46654.78194,1.04478,1.4938,1.71064,2.10928-1.85958,1.71502-3.02702,4.17256-3.02702,6.89732ZM438.66223,33.58764c-1.35143.80385-2.49039,1.94062-3.30081,3.29643h-1.15868c-3.45194,0-6.47459,1.89682-8.10638,4.71138h-2.00195c.08323-.1577.16427-.3176.23874-.47968,3.21977-1.48942,5.46047-4.75299,5.46047-8.52692,0-.37016-.0219-.73814-.06352-1.10392,1.358-.80385,2.49916-1.94281,3.31395-3.303h2.31736c.81261,1.358,1.95158,2.49697,3.30738,3.30081-.03943.3614-.05914.73157-.05914,1.10611,0,.33512.01752.67024.05257.99879ZM472.42601,57.93743h-4.30179c-.30007,0-.59577.01533-.88708.04162.65929-1.24629,1.04478-2.65467,1.07545-4.14847h4.11123c.01533.7009.11171,1.39304.28693,2.06547-.16646.6571-.26284,1.34048-.28474,2.04138ZM523.11221,84.92437c-.81699-1.35362-1.96691-2.4882-3.33805-3.28986.046-.37235.07009-.74471.07009-1.11925,0-.30445-.01533-.60891-.046-.90898,1.32952.7009,2.84523,1.09954,4.45511,1.09954h9.00879c.03066,1.52008.41397,2.95255,1.07326,4.21856h-11.2232ZM537.86183,57.22339h-13.42228c-.04819-1.47847-.43368-2.8737-1.08421-4.10685h11.25167c.81261,1.36019,1.95377,2.49916,3.30957,3.303-.02847.26503-.046.53225-.05476.80385ZM572.06368,84.66591c-.81699-1.35362-1.96691-2.4882-3.33805-3.28986.046-.37235.07009-.74471.07009-1.11925,0-.30445-.01533-.60891-.046-.90898,1.32952.7009,2.84523,1.09954,4.45511,1.09954h9.00879c.03066,1.52008.41397,2.95255,1.07326,4.21856h-11.2232ZM586.8133,56.96493h-13.42228c-.04819-1.47847-.43368-2.8737-1.08421-4.10685h11.25167c.81261,1.36019,1.95377,2.49916,3.30957,3.303-.02847.26503-.046.53225-.05476.80385Z"/>
        <g>
          <path d="M418.8376,92.47798c0,1.68217-1.34486,3.02702-3.02702,3.02702h-55.40415c-1.68217,0-3.02702-1.34486-3.02702-3.02702,0-1.68436,1.34486-3.14092,3.02702-3.14092h15.81411c-.2256-.44902-.44902-.89803-.44902-1.45875,0-1.68217,1.45875-3.13873,3.14092-3.13873h1.90558c-.22341-.44902-.44902-.89803-.44902-1.45875,0-1.00974.44902-1.79387,1.12144-2.35459-.67243-.56072-1.12144-1.34705-1.12144-2.35678,0-1.68217,1.45875-3.02702,3.14092-3.02702h1.90777c-.2256-.44902-.33731-1.00974-.33731-1.57046,0-1.68217,1.34486-3.02702,3.02702-3.02702h1.90777c-.2256-.44902-.33731-1.00974-.33731-1.57046,0-.89803.33731-1.68217,1.00974-2.24289-.67243-.56072-1.00974-1.45875-1.00974-2.35678,0-1.68217,1.34705-3.02702,3.02921-3.02702h1.90558c-.22341-.44902-.33512-1.00974-.33512-1.57046,0-.89803.33512-1.68217,1.00755-2.24289-.67243-.56072-1.00755-1.45875-1.00755-2.35459,0-1.68217,1.34486-3.02921,3.02702-3.02921h2.01948c-.33731-.44902-.44902-1.00974-.44902-1.57046,0-1.68217,1.34486-3.02702,3.02702-3.02702h2.01948c-.33731-.56072-.44902-1.00974-.44902-1.57046,0-.89803.44902-1.79387,1.00974-2.35459-.56072-.56072-1.00974-1.34705-1.00974-2.24289,0-1.68217,1.34705-3.14092,3.02921-3.14092h2.01728c-.33512-.44902-.44683-.89803-.44683-1.45875,0-1.79387,1.34486-3.13873,3.02702-3.13873h2.01948c-.33731-.44902-.44902-.89803-.44902-1.45875,0-1.00974.44902-1.79387,1.00974-2.35459-.56072-.56072-1.00974-1.34705-1.00974-2.35459,0-1.68436,1.34486-3.02921,3.14092-3.02921h1.90558c-.22341-.44902-.44902-1.00974-.44902-1.57046s.2256-1.00974.44902-1.45656h-15.81411c-1.68217,0-3.02702-1.45875-3.02702-3.14092s1.34486-3.02921,3.02702-3.02921h36.89813c1.68217,0,3.02921,1.34705,3.02921,3.02921s-1.34705,3.14092-3.02921,3.14092h-11.21444c.33731.44683.44902.89584.44902,1.45656,0,1.68217-1.34705,3.14092-3.02921,3.14092h-2.01728c.33512.44902.44683.89803.44683,1.45875,0,1.00755-.44683,1.79387-1.00755,2.35459.56072.56072,1.00755,1.34486,1.00755,2.35459,0,1.68217-1.34486,3.02921-3.02702,3.02921h-2.01948c.33731.44683.44902,1.00755.44902,1.56827,0,1.68217-1.34486,3.02921-3.02702,3.02921h-2.01948c.22341.44902.44902,1.00974.44902,1.57046,0,.89584-.44902,1.68217-1.00974,2.24289.56072.56072,1.00974,1.45656,1.00974,2.35459,0,.56072-.2256,1.00974-.44902,1.57046h15.81411c1.68217,0,3.02702,1.34486,3.02702,3.02702s-1.34486,3.02921-3.02702,3.02921h-25.01127c.2256.44902.44902,1.00974.44902,1.57046,0,.89584-.44902,1.79387-1.12144,2.35459.67243.56072,1.12144,1.34486,1.12144,2.24289,0,1.68217-1.45875,3.14092-3.14092,3.14092h-1.90558c.22341.44902.44902.89584.44902,1.45656,0,.89803-.44902,1.79606-1.12144,2.35678.67243.56072,1.12144,1.34486,1.12144,2.24289,0,1.68217-1.45875,3.13873-3.14092,3.13873h-1.90558c.22341.44902.33512.89803.33512,1.45875,0,1.79387-1.34486,3.14092-3.02702,3.14092h-1.90777c.2256.44683.33731.89584.33731,1.45656,0,1.00974-.33731,1.79606-1.00974,2.35678.67243.56072,1.00974,1.34486,1.00974,2.35459,0,1.68217-1.34705,3.02702-3.02921,3.02702h-1.90558c.22341.44902.33731,1.00974.33731,1.57046s-.1139,1.00974-.33731,1.45875h29.60875c1.68217,0,3.02702,1.45656,3.02702,3.14092ZM446.53858,60.17733c0,.89803-.44902,1.79387-1.12144,2.35459.67243.56072,1.12144,1.34705,1.12144,2.24289,0,1.68217-1.45656,3.14092-3.13873,3.14092h-1.90777c.22341.44902.33731.89803.33731,1.45875,0,.89584-.33731,1.79387-1.00974,2.35459.67243.56072,1.00974,1.34486,1.00974,2.24289,0,1.79387-1.34705,3.14092-3.02921,3.14092h-1.90558c.22341.44683.33512.89584.33512,1.45656,0,1.79606-1.34486,3.14092-3.02702,3.14092h-1.90777c.2256.44902.33731,1.00974.33731,1.57046,0,1.68217-1.34486,3.02702-3.02702,3.02702h-2.01948c.33731.44902.44902,1.00974.44902,1.57046,0,1.68217-1.34705,3.02921-3.02921,3.02921h-4.59748c-1.68217,0-3.14092-1.34705-3.14092-3.02921s1.45875-3.13873,3.14092-3.13873h1.90558c-.22341-.44902-.44683-.89803-.44683-1.45875,0-1.79387,1.45656-3.14092,3.13873-3.14092h1.90777c-.2256-.44902-.44902-1.00974-.44902-1.57046,0-1.68217,1.45875-3.02702,3.14092-3.02702h1.90558c-.22341-.44902-.33731-1.00974-.33731-1.57046,0-.89803.33731-1.68217,1.00974-2.24289-.67243-.56072-1.00974-1.45875-1.00974-2.35459,0-1.68217,1.34705-3.02921,3.02921-3.02921h1.90558c-.22341-.44902-.33512-1.00974-.33512-1.57046,0-.89584.33512-1.68217,1.00974-2.24289-.67462-.56072-1.00974-1.45656-1.00974-2.35459,0-.56072.11171-1.12144.33512-1.57046h-1.90558c-1.68217,0-3.02921-1.34486-3.02921-3.02702s1.34705-3.02921,3.02921-3.02921h4.59748c1.68217,0,3.02921,1.34705,3.02921,3.02921,0,.56072-.1139,1.12144-.33731,1.57046h1.90777c1.68217,0,3.13873,1.34486,3.13873,3.02702ZM454.61429,30.23346c.67243.56072,1.12144,1.34486,1.12144,2.35459,0,.89803-.44902,1.68217-1.12144,2.24289.67243.56072,1.12144,1.34705,1.12144,2.35459,0,1.68217-1.45875,3.02921-3.14092,3.02921h-1.90558c.22341.44902.44902,1.00974.44902,1.57046,0,1.68217-1.45875,3.02702-3.14092,3.02702h-1.90777c.2256.44902.44902,1.00974.44902,1.57046,0,1.68217-1.45656,3.02921-3.13873,3.02921h-9.19715c-1.68217,0-3.02921-1.34705-3.02921-3.02921s1.34705-3.14092,3.02921-3.14092h6.50525c-.2256-.44683-.33731-.89584-.33731-1.45656,0-1.68217,1.34486-3.14092,3.02921-3.14092h1.90558c-.22341-.44902-.33731-.89803-.33731-1.45875,0-1.00755.33731-1.79387,1.00974-2.35459-.67243-.56072-1.00974-1.34486-1.00974-2.24289,0-1.00974.33731-1.79387,1.00974-2.35459-.67243-.56072-1.00974-1.34705-1.00974-2.35459,0-.56072.1139-1.00974.33731-1.45875h-1.90558c-1.68436,0-3.02921-1.45875-3.02921-3.14092s1.34486-3.02702,3.02921-3.02702h4.59748c1.68217,0,3.14092,1.34486,3.14092,3.02702,0,.56072-.2256,1.12144-.44902,1.57046h1.90558c1.68217,0,3.14092,1.34486,3.14092,3.02921,0,1.00755-.44902,1.79387-1.12144,2.35459Z"/>
          <path d="M452.19873,55.8826l-.22341-.22341c-.56072.56072-1.45875,1.00974-2.35459,1.00974-1.68217,0-3.02921-1.34705-3.02921-3.02921,0-1.79387,1.34705-3.13873,3.02921-3.13873.89584,0,1.79387.44683,2.35459,1.00755l.22341-.22341c-.67243-.56072-1.00755-1.34486-1.00755-2.35459,0-1.68217,1.34486-3.02921,3.02702-3.02921s3.14092,1.34705,3.14092,3.02921c0,1.00974-.44902,1.79387-1.12144,2.35459q.22341.11171.33512.22341c.56072-.56072,1.34705-1.00755,2.24289-1.00755,1.68217,0,3.14092,1.34486,3.14092,3.13873,0,1.68217-1.45875,3.02921-3.14092,3.02921-.89584,0-1.68217-.44902-2.24289-1.00974q-.11171.11171-.33512.22341c.67243.56072,1.12144,1.34705,1.12144,2.35678,0,1.68217-1.45875,3.02702-3.14092,3.02702s-3.02702-1.34486-3.02702-3.02702c0-1.00974.33512-1.79606,1.00755-2.35678ZM470.14402,92.78073c.56072.56072,1.00974,1.34705,1.00974,2.24289,0,1.79606-1.34705,3.14092-3.02921,3.14092h-9.30886c-1.68217,0-3.02702-1.34486-3.02702-3.14092,0-.56072.11171-1.00974.44902-1.45656h-2.01948c-1.68217,0-3.02702-1.45875-3.02702-3.14092,0-.89803.33512-1.68217,1.00755-2.24289-.67243-.56072-1.00755-1.45875-1.00755-2.35459,0-.89803.33512-1.68217,1.00755-2.24289-.67243-.56072-1.00755-1.45875-1.00755-2.35678,0-.89584.33512-1.68217,1.00755-2.24289-.67243-.56072-1.00755-1.45656-1.00755-2.35459,0-1.68217,1.34486-3.02702,3.02702-3.02702h2.01948c-.33731-.44902-.44902-1.00974-.44902-1.57046,0-1.68217,1.34486-3.02921,3.02702-3.02921h4.59967c1.79387,0,3.13873,1.34705,3.13873,3.02921s-1.34486,3.02702-3.13873,3.02702h-1.90777c.2256.44902.44902,1.00974.44902,1.57046,0,.89803-.44902,1.79387-1.12144,2.35459.67243.56072,1.12144,1.34705,1.12144,2.24289,0,.89803-.44902,1.79606-1.12144,2.35678.67243.56072,1.12144,1.34486,1.12144,2.24289,0,.89584-.44902,1.79387-1.12144,2.35459.67243.56072,1.12144,1.34486,1.12144,2.24289,0,.56072-.22341,1.12144-.44902,1.57046h3.92505c-.33512-.44902-.44683-1.00974-.44683-1.57046,0-1.68217,1.34486-3.02702,3.13873-3.02702,1.68217,0,3.02921,1.34486,3.02921,3.02702,0,1.00974-.44902,1.79387-1.00974,2.35459ZM455.78866,44.33304c0-1.68436,1.34486-3.02921,3.02702-3.02921h18.50602c1.68217,0,3.02702,1.34486,3.02702,3.02921,0,1.79387-1.34486,3.13873-3.02702,3.13873h-18.50602c-1.68217,0-3.02702-1.34486-3.02702-3.13873ZM498.74303,95.02362c0,1.79606-1.34705,3.14092-3.02921,3.14092h-9.19496c-1.68217,0-3.14092-1.34486-3.14092-3.14092,0-.56072.22341-1.00974.44902-1.45656h-1.90777c-1.68217,0-3.13873-1.45875-3.13873-3.14092,0-.56072.22341-1.00974.44683-1.45875h-6.50306c-1.79606,0-3.14092-1.45656-3.14092-3.13873s1.34486-3.02921,3.14092-3.02921h6.50306c-.22341-.44902-.44683-1.00974-.44683-1.57046,0-.89584.44683-1.68217,1.12144-2.24289-.67462-.56072-1.12144-1.45656-1.12144-2.35459s.44683-1.68217,1.12144-2.24289c-.67462-.67243-1.12144-1.45875-1.12144-2.35459,0-.56072.22341-1.12144.44683-1.57046h-11.10273c-1.79387,0-3.13873-1.34705-3.13873-3.02921s1.34486-3.13873,3.13873-3.13873h11.10273c-.22341-.44902-.44683-.89803-.44683-1.45875,0-.89803.44683-1.79387,1.12144-2.35459-.67462-.56072-1.12144-1.34705-1.12144-2.24289,0-1.00974.44683-1.79606,1.12144-2.35678-.67462-.56072-1.12144-1.34486-1.12144-2.24289,0-1.00755.44683-1.79387,1.12144-2.35459-.67462-.56072-1.12144-1.34486-1.12144-2.35459,0-1.68217,1.45656-3.02921,3.13873-3.02921s3.02921,1.34705,3.02921,3.02921c0,.56072-.11171,1.12144-.33731,1.57046h1.90777c1.68217,0,3.02702,1.34486,3.02702,3.13873,0,.89803-.33731,1.68217-1.00974,2.24289.67243.56072,1.00974,1.34705,1.00974,2.35678,0,.89584-.33731,1.68217-1.00974,2.24289.67243.56072,1.00974,1.45656,1.00974,2.35459s-.33731,1.68217-1.00974,2.24289c.67243.56072,1.00974,1.45875,1.00974,2.35459,0,.89803-.33731,1.68217-1.00974,2.24289.67243.56072,1.00974,1.45875,1.00974,2.35678,0,.89584-.33731,1.68217-1.00974,2.35459.67243.56072,1.00974,1.34486,1.00974,2.24289s-.33731,1.79387-1.00974,2.35459c.67243.56072,1.00974,1.34705,1.00974,2.24289,0,.89803-.33731,1.79606-1.00974,2.35678.67243.56072,1.00974,1.34486,1.00974,2.24289,0,.89584-.33731,1.79387-1.00974,2.35459.67243.56072,1.00974,1.34486,1.00974,2.24289,0,.56072-.11171,1.12144-.33731,1.57046h6.50525c1.68217,0,3.02921,1.34486,3.02921,3.02702ZM502.33077,74.38862c.67243.56072,1.12144,1.34486,1.12144,2.24289s-.44902,1.79387-1.12144,2.35459c.67243.56072,1.12144,1.34705,1.12144,2.24289,0,.89803-.44902,1.79606-1.12144,2.35678.67243.56072,1.12144,1.34486,1.12144,2.24289,0,.89584-.44902,1.79387-1.12144,2.35459.67243.56072,1.12144,1.34486,1.12144,2.24289,0,1.68217-1.45656,3.14092-3.13873,3.14092s-3.02921-1.45875-3.02921-3.14092c0-.89803.33731-1.68217,1.00974-2.24289-.67243-.56072-1.00974-1.45875-1.00974-2.35459,0-.89803.33731-1.68217,1.00974-2.24289-.67243-.56072-1.00974-1.45875-1.00974-2.35678,0-.89584.33731-1.68217,1.00974-2.24289-.67243-.56072-1.00974-1.45656-1.00974-2.35459s.33731-1.68217,1.00974-2.24289c-.67243-.67243-1.00974-1.45875-1.00974-2.35459,0-.89803.33731-1.79606,1.00974-2.35678-.67243-.56072-1.00974-1.34486-1.00974-2.24289,0-1.68217,1.34705-3.13873,3.02921-3.13873s3.13873,1.45656,3.13873,3.13873c0,.89803-.44902,1.68217-1.12144,2.24289.67243.56072,1.12144,1.45875,1.12144,2.35678,0,.89584-.44902,1.68217-1.12144,2.35459Z"/>
          <path d="M550.3848,75.91738c0,.89803-.44902,1.79387-1.12144,2.35459.67243.56072,1.12144,1.34705,1.12144,2.24289,0,.89803-.44902,1.79606-1.12144,2.35678.67243.56072,1.12144,1.34486,1.12144,2.24289,0,1.68217-1.45656,3.13873-3.13873,3.13873s-3.02921-1.45656-3.02921-3.13873c0-.56072.11171-1.00974.33731-1.45875h-1.90777c-1.68217,0-3.02702-1.45875-3.02702-3.14092,0-.89584.33512-1.68217,1.00974-2.24289-.67462-.56072-1.00974-1.45656-1.00974-2.35459,0-.56072.11171-1.12144.33512-1.57046h-15.70022c-1.68217,0-3.14092-1.34486-3.14092-3.02702,0-.56072.2256-1.12144.44902-1.57046h-6.61696c-1.68217,0-3.02702-1.34705-3.02702-3.02921,0-.56072.11171-1.12144.44683-1.57046h-2.01728c-1.68217,0-3.02921-1.34486-3.02921-3.02702,0-.89803.44902-1.79387,1.00974-2.35459-.56072-.56072-1.00974-1.34705-1.00974-2.24289,0-1.00974.44902-1.79606,1.00974-2.35678-.56072-.56072-1.00974-1.34486-1.00974-2.24289,0-1.79387,1.34705-3.13873,3.02921-3.13873s3.13873,1.34486,3.13873,3.13873c0,.56072-.22341,1.00974-.44683,1.45875h1.90558c1.79387,0,3.14092,1.45875,3.14092,3.14092,0,.89584-.44902,1.68217-1.00974,2.24289.56072.56072,1.00974,1.45656,1.00974,2.35459,0,.56072-.11171,1.00974-.44902,1.45875h20.41159c1.68217,0,3.02702,1.45656,3.02702,3.13873,0,.56072-.11171,1.12144-.33512,1.57046h1.90558c1.68217,0,3.02921,1.34705,3.02921,3.02921,0,.56072-.11171,1.12144-.33731,1.57046h1.90777c1.68217,0,3.13873,1.34486,3.13873,3.02702ZM512.36522,92.06661c.67462.56072,1.12144,1.34705,1.12144,2.24289,0,1.00974-.44683,1.79606-1.12144,2.35678.67462.56072,1.12144,1.34486,1.12144,2.35459,0,1.68217-1.45656,3.02702-3.13873,3.02702s-3.02921-1.34486-3.02921-3.02702c0-1.00974.44902-1.79387,1.00974-2.35459-.56072-.56072-1.00974-1.34705-1.00974-2.35678,0-.89584.44902-1.68217,1.00974-2.24289-.56072-.56072-1.00974-1.34486-1.00974-2.35459,0-.89803.44902-1.68217,1.00974-2.24289-.56072-.56072-1.00974-1.45875-1.00974-2.35459,0-.89803.44902-1.68217,1.00974-2.24289-.56072-.56072-1.00974-1.45875-1.00974-2.35678,0-.89584.44902-1.68217,1.00974-2.24289-.56072-.56072-1.00974-1.45656-1.00974-2.35459,0-1.68217,1.34705-3.02702,3.02921-3.02702s3.13873,1.34486,3.13873,3.02702c0,.89803-.44683,1.79387-1.12144,2.35459.67462.56072,1.12144,1.34705,1.12144,2.24289,0,.89803-.44683,1.79606-1.12144,2.35678.67462.56072,1.12144,1.34486,1.12144,2.24289,0,.89584-.44683,1.79387-1.12144,2.35459q.2256.11171.33731.22341c.56072-.56072,1.34705-1.00755,2.24289-1.00755,1.79387,0,3.14092,1.34486,3.14092,3.02702s-1.34705,3.14092-3.14092,3.14092c-.89584,0-1.68217-.44902-2.24289-1.12144-.11171.11171-.22341.22341-.33731.33512ZM511.9184,48.2164c0-1.68217,1.34486-3.02921,3.02702-3.02921,1.79387,0,3.14092,1.34705,3.14092,3.02921,0,1.79387-1.34705,3.14092-3.14092,3.14092-1.68217,0-3.02702-1.34705-3.02702-3.14092ZM516.51588,43.61892c0-1.68436,1.34486-3.02921,3.14092-3.02921h18.39212c1.68217,0,3.02702,1.34486,3.02702,3.02921,0,1.79387-1.34486,3.13873-3.02702,3.13873h-18.39212c-1.79606,0-3.14092-1.34486-3.14092-3.13873ZM541.07594,94.3095c0,1.79606-1.34486,3.14092-3.02702,3.14092h-18.39212c-1.79606,0-3.14092-1.34486-3.14092-3.14092,0-1.68217,1.34486-3.02702,3.14092-3.02702h18.39212c1.68217,0,3.02702,1.34486,3.02702,3.02702ZM549.26336,45.97351c.67243.56072,1.12144,1.34486,1.12144,2.24289,0,1.00974-.44902,1.79387-1.12144,2.35459.67243.56072,1.12144,1.34705,1.12144,2.35459,0,.89803-.44902,1.68217-1.12144,2.24289.67243.56072,1.12144,1.34705,1.12144,2.35678,0,.89584-.44902,1.68217-1.12144,2.24289.67243.56072,1.12144,1.45656,1.12144,2.35459,0,1.68217-1.45656,3.02702-3.13873,3.02702s-3.02921-1.34486-3.02921-3.02702c0-.89803.33731-1.79387,1.00974-2.35459-.67243-.56072-1.00974-1.34705-1.00974-2.24289,0-1.00974.33731-1.79606,1.00974-2.35678-.67243-.56072-1.00974-1.34486-1.00974-2.24289,0-1.00755.33731-1.79387,1.00974-2.35459l-.22341-.22341c-.56072.56072-1.45875,1.00974-2.35678,1.00974-1.68217,0-3.02702-1.34705-3.02702-3.14092,0-1.68217,1.34486-3.02921,3.02702-3.02921.89803,0,1.79606.44902,2.35678,1.00974l.22341-.22341c-.67243-.56072-1.00974-1.34705-1.00974-2.35459,0-.89803.33731-1.68436,1.00974-2.24508-.67243-.56072-1.00974-1.45656-1.00974-2.35459,0-1.68217,1.34705-3.02702,3.02921-3.02702s3.13873,1.34486,3.13873,3.02702c0,.89803-.44902,1.79387-1.12144,2.35459.67243.56072,1.12144,1.34705,1.12144,2.24508,0,1.00755-.44902,1.79387-1.12144,2.35459ZM545.67561,89.71202c0,1.68217-1.34705,3.14092-3.02921,3.14092s-3.02702-1.45875-3.02702-3.14092,1.34486-3.02702,3.02702-3.02702,3.02921,1.34486,3.02921,3.02702Z"/>
          <path d="M599.33589,75.65845c0,.89803-.44683,1.79387-1.12144,2.35459.67462.56072,1.12144,1.34705,1.12144,2.24289,0,.89803-.44683,1.79606-1.12144,2.35678.67462.56072,1.12144,1.34486,1.12144,2.24289,0,1.68217-1.45656,3.13873-3.13873,3.13873s-3.02921-1.45656-3.02921-3.13873c0-.56072.11171-1.00974.33731-1.45875h-1.90777c-1.68217,0-3.02702-1.45875-3.02702-3.14092,0-.89584.33512-1.68217,1.00974-2.24289-.67462-.56072-1.00974-1.45656-1.00974-2.35459,0-.56072.11171-1.12144.33512-1.57046h-15.70022c-1.68217,0-3.14092-1.34486-3.14092-3.02702,0-.56072.2256-1.12144.44902-1.57046h-6.61696c-1.68217,0-3.02702-1.34705-3.02702-3.02921,0-.56072.11171-1.12144.44683-1.57046h-2.01728c-1.68217,0-3.02921-1.34486-3.02921-3.02702,0-.89803.44902-1.79387,1.00974-2.35459-.56072-.56072-1.00974-1.34705-1.00974-2.24289,0-1.00974.44902-1.79606,1.00974-2.35678-.56072-.56072-1.00974-1.34486-1.00974-2.24289,0-1.79387,1.34705-3.13873,3.02921-3.13873s3.13873,1.34486,3.13873,3.13873c0,.56072-.22341,1.00974-.44683,1.45875h1.90558c1.79387,0,3.14092,1.45875,3.14092,3.14092,0,.89584-.44902,1.68217-1.00974,2.24289.56072.56072,1.00974,1.45656,1.00974,2.35459,0,.56072-.11171,1.00974-.44902,1.45875h20.41159c1.68217,0,3.02702,1.45656,3.02702,3.13873,0,.56072-.11171,1.12144-.33512,1.57046h1.90558c1.68217,0,3.02921,1.34705,3.02921,3.02921,0,.56072-.11171,1.12144-.33731,1.57046h1.90777c1.68217,0,3.13873,1.34486,3.13873,3.02702ZM561.31632,91.80768c.67462.56072,1.12144,1.34705,1.12144,2.24289,0,1.00974-.44683,1.79606-1.12144,2.35678.67462.56072,1.12144,1.34486,1.12144,2.35459,0,1.68217-1.45656,3.02702-3.13873,3.02702s-3.02921-1.34486-3.02921-3.02702c0-1.00974.44902-1.79387,1.00974-2.35459-.56072-.56072-1.00974-1.34705-1.00974-2.35678,0-.89584.44902-1.68217,1.00974-2.24289-.56072-.56072-1.00974-1.34486-1.00974-2.35459,0-.89803.44902-1.68217,1.00974-2.24289-.56072-.56072-1.00974-1.45875-1.00974-2.35459,0-.89803.44902-1.68217,1.00974-2.24289-.56072-.56072-1.00974-1.45875-1.00974-2.35678,0-.89584.44902-1.68217,1.00974-2.24289-.56072-.56072-1.00974-1.45656-1.00974-2.35459,0-1.68217,1.34705-3.02702,3.02921-3.02702s3.13873,1.34486,3.13873,3.02702c0,.89803-.44683,1.79387-1.12144,2.35459.67462.56072,1.12144,1.34705,1.12144,2.24289,0,.89803-.44683,1.79606-1.12144,2.35678.67462.56072,1.12144,1.34486,1.12144,2.24289,0,.89584-.44683,1.79387-1.12144,2.35459q.2256.11171.33731.22341c.56072-.56072,1.34486-1.00755,2.24289-1.00755,1.79387,0,3.14092,1.34486,3.14092,3.02702s-1.34705,3.14092-3.14092,3.14092c-.89803,0-1.68217-.44902-2.24289-1.12144-.11171.11171-.22341.22341-.33731.33512ZM560.86949,47.95747c0-1.68217,1.34486-3.02921,3.02702-3.02921,1.79387,0,3.14092,1.34705,3.14092,3.02921,0,1.79387-1.34705,3.14092-3.14092,3.14092-1.68217,0-3.02702-1.34705-3.02702-3.14092ZM565.46697,43.35999c0-1.68436,1.34486-3.02921,3.14092-3.02921h18.39212c1.68217,0,3.02702,1.34486,3.02702,3.02921,0,1.79387-1.34486,3.13873-3.02702,3.13873h-18.39212c-1.79606,0-3.14092-1.34486-3.14092-3.13873ZM590.02703,94.05057c0,1.79606-1.34486,3.14092-3.02702,3.14092h-18.39212c-1.79606,0-3.14092-1.34486-3.14092-3.14092,0-1.68217,1.34486-3.02702,3.14092-3.02702h18.39212c1.68217,0,3.02702,1.34486,3.02702,3.02702ZM598.21445,45.71458c.67462.56072,1.12144,1.34486,1.12144,2.24289,0,1.00974-.44683,1.79387-1.12144,2.35459.67462.56072,1.12144,1.34705,1.12144,2.35459,0,.89803-.44683,1.68217-1.12144,2.24289.67462.56072,1.12144,1.34705,1.12144,2.35678,0,.89584-.44683,1.68217-1.12144,2.24289.67462.56072,1.12144,1.45656,1.12144,2.35459,0,1.68217-1.45656,3.02702-3.13873,3.02702s-3.02921-1.34486-3.02921-3.02702c0-.89803.33731-1.79387,1.00974-2.35459-.67243-.56072-1.00974-1.34705-1.00974-2.24289,0-1.00974.33731-1.79606,1.00974-2.35678-.67243-.56072-1.00974-1.34486-1.00974-2.24289,0-1.00755.33731-1.79387,1.00974-2.35459l-.22341-.22341c-.56072.56072-1.45875,1.00974-2.35678,1.00974-1.68217,0-3.02702-1.34705-3.02702-3.14092,0-1.68217,1.34486-3.02921,3.02702-3.02921.89803,0,1.79606.44902,2.35678,1.00974l.22341-.22341c-.67243-.56072-1.00974-1.34705-1.00974-2.35459,0-.89803.33731-1.68436,1.00974-2.24508-.67243-.56072-1.00974-1.45656-1.00974-2.35459,0-1.68217,1.34705-3.02702,3.02921-3.02702s3.13873,1.34486,3.13873,3.02702c0,.89803-.44683,1.79387-1.12144,2.35459.67462.56072,1.12144,1.34705,1.12144,2.24508,0,1.00755-.44683,1.79387-1.12144,2.35459ZM594.62671,89.45309c0,1.68217-1.34705,3.14092-3.02921,3.14092s-3.02702-1.45875-3.02702-3.14092,1.34486-3.02702,3.02702-3.02702,3.02921,1.34486,3.02921,3.02702Z"/>
        </g>
      </g>
      <g>
        <path d="M324.3311,40.45164h-3.74267c-1.37081,0-2.46602,1.1021-2.46602,2.47275,0,.45032.094.9072.27544,1.27681h-1.55225c-1.37081,0-2.46602,1.09537-2.46602,2.55346,0,.45688.08728.82649.26872,1.18937h-1.55209c-1.37081,0-2.46618,1.09521-2.46618,2.56019,0,.45688.094.8196.27544,1.18937h-1.55209c-1.37081,0-2.56019,1.18248-2.56019,2.5533,0,.73249.36961,1.37081.91393,1.8277-.54432.45688-.91393,1.18265-.91393,1.91514s.36961,1.37081.91393,1.8277c-.54432.45688-.91393,1.18937-.91393,1.9217,0,.72576.36961,1.36425.91393,1.82786-.54432.45688-.91393,1.18265-.91393,1.91497,0,1.37081,1.18937,2.46618,2.56019,2.46618h3.74283c1.37065,0,2.46602-1.09537,2.46602-2.46618,0-.73233-.26888-1.45809-.81993-1.91497.55105-.46361.81993-1.1021.81993-1.82786,0-.73233-.26888-1.46481-.81993-1.9217.55105-.45688.81993-1.09521.81993-1.8277s-.26888-1.45825-.81993-1.91514c.55105-.45688.81993-1.09521.81993-1.8277,0-.45688-.08744-.91377-.26888-1.27665h1.55225c1.37081,0,2.46618-1.09537,2.46618-2.46602,0-.45705-.09417-.91393-.27561-1.28354h1.55225c1.37081,0,2.56019-1.09521,2.56019-2.46602,0-.45705-.18817-.9072-.36961-1.27665h1.55209c1.37081,0,2.56019-1.09537,2.56019-2.55362,0-1.37065-1.18937-2.47275-2.56019-2.47275ZM331.82349,66.75876h-14.97789c-1.37081,0-2.46602,1.10193-2.46602,2.47275,0,1.36409,1.09521,2.45929,2.46602,2.45929h14.97789c1.46481,0,2.56019-1.09521,2.56019-2.45929,0-1.37081-1.09537-2.47275-2.56019-2.47275ZM335.56633,63.01592c-1.36409,0-2.46618,1.09537-2.46618,2.46602,0,1.37081,1.1021,2.46618,2.46618,2.46618,1.46481,0,2.56019-1.09537,2.56019-2.46618,0-1.37065-1.09537-2.46602-2.56019-2.46602ZM354.38761,47.94403c-1.37065,0-2.46602,1.09521-2.46602,2.56019,0,1.37065,1.09537,2.46602,2.46602,2.46602,1.37081,0,2.46618-1.09537,2.46618-2.46602,0-1.46498-1.09537-2.56019-2.46618-2.56019ZM354.38761,6.6592h-3.74939c-1.36409,0-2.55346,1.09521-2.55346,2.5533,0,1.37081,1.18937,2.46602,2.55346,2.46602h3.74939c1.37081,0,2.46618-1.09521,2.46618-2.46602,0-1.45809-1.09537-2.5533-2.46618-2.5533ZM358.13044,66.75876h-5.29492c.18144-.36288.26872-.81993.26872-1.27681,0-1.37065-1.09521-2.46602-2.46602-2.46602h-1.55225c.18817-.36288.27544-.81976.27544-1.27681,0-.73233-.27544-1.46481-.8196-1.9217.54416-.45688.8196-1.09521.8196-1.8277s-.27544-1.45825-.8196-1.91514c.08728,0,.18128-.094.18128-.18128.45688.54416,1.18937.8196,1.91514.8196,1.37081,0,2.46602-1.09521,2.46602-2.46602s-1.09521-2.5533-2.46602-2.5533c-.72576,0-1.45825.36272-1.91514.90704-.45688-.54432-1.09521-.90704-1.8277-.90704h-1.64626c.27544-.36977.36961-.73249.36961-1.18937,0-.82649-.36961-1.46498-.82649-1.92186.45688-.45688.82649-1.09537.82649-1.8277,0-.81976-.36961-1.45809-.82649-1.91514.45688-.45688.82649-1.09521.82649-1.91514,0-1.37065-1.09537-2.47275-2.46602-2.47275h-1.64642c.27561-.36272.36288-.81976.36288-1.27665s-.08728-.81976-.36288-1.18937h5.38909c1.37081,0,2.46602-1.18937,2.46602-2.55346,0-1.37081-1.09521-2.46602-2.46602-2.46602h-5.38909c.27561-.36961.36288-.82649.36288-1.28354,0-1.37065-1.09521-2.46602-2.46602-2.46602h-1.63953c.26872-.36288.36288-.81976.36288-1.27665,0-.73249-.36288-1.37081-.81993-1.91514.45705-.45688.81993-1.10193.81993-1.8277,0-.45688-.09417-.91393-.36288-1.28337h1.63953c1.37081,0,2.46602-1.09537,2.46602-2.46602,0-.45705-.08728-.9072-.36288-1.27681h1.64642c1.37065,0,2.46602-1.09537,2.46602-2.46602,0-.45688-.09417-.91393-.36961-1.27681h1.64626c1.37081,0,2.46602-1.09521,2.46602-2.46602s-1.09521-2.56019-2.46602-2.56019h-3.74267c-1.37081,0-2.56019,1.18937-2.56019,2.56019,0,.45016.18144.81976.36288,1.18265h-1.55225c-1.45809,0-2.55346,1.18937-2.55346,2.56019,0,.45688.18144.81976.36288,1.18921h-1.64626c-1.36409,0-2.46618,1.18281-2.46618,2.55362,0,.45688.09417.91377.36961,1.28337h-1.64626c-1.37081,0-2.46618,1.09521-2.46618,2.46602,0,.72576.36288,1.37081.81993,1.8277-.45705.54432-.81993,1.18265-.81993,1.91514,0,1.37081,1.09537,2.46602,2.46618,2.46602h1.64626c-.27544.36288-.36961.82649-.36961,1.27665,0,.45705.09417.91393.36961,1.28354h-1.64626c-1.37081,0-2.46618,1.09521-2.46618,2.46602,0,.45705.09417.91393.36288,1.27665h-1.63953c-1.37081,0-2.46602,1.09537-2.46602,2.46618s1.09521,2.56019,2.46602,2.56019h5.38909c-.27544.36272-.36961.7256-.36961,1.18921,0,.81993.36961,1.45825.82665,1.91514-.45705.45705-.82665,1.09537-.82665,1.91514,0,.73233.36961,1.37081.82665,1.8277-.45705.45688-.82665,1.09537-.82665,1.92186,0,1.37065,1.1021,2.46602,2.46618,2.46602h1.64626c-.18144.36288-.36288.81976-.36288,1.27665,0,.73249.36288,1.37081.81976,1.8277-.45688.45688-.81976,1.18265-.81976,1.91514s.36288,1.37081.81976,1.8277c-.45688.45688-.81976,1.18937-.81976,1.9217,0,1.36425,1.09537,2.46618,2.55346,2.46618h1.55225c-.18144.36288-.36288.81976-.36288,1.27665,0,1.37081,1.18937,2.46618,2.56019,2.46618h1.55209c-.18144.36288-.36961.81976-.36961,1.28337,0,1.36409,1.18937,2.45929,2.56019,2.45929h11.23506c1.37081,0,2.46618-1.09521,2.46618-2.45929,0-1.37081-1.09537-2.47275-2.46618-2.47275ZM358.13044,44.2012c-1.37065,0-2.46602,1.09537-2.46602,2.55346,0,1.37081,1.09537,2.46602,2.46602,2.46602,1.37081,0,2.46618-1.09521,2.46618-2.46602,0-1.45809-1.09537-2.55346-2.46618-2.55346ZM361.88,63.01592c-1.37081,0-2.47275,1.09537-2.47275,2.46602,0,1.37081,1.10193,2.46618,2.47275,2.46618,1.36409,0,2.55346-1.09537,2.55346-2.46618,0-1.37065-1.18937-2.46602-2.55346-2.46602ZM361.88,40.45164c-1.37081,0-2.47275,1.1021-2.47275,2.47275,0,1.45825,1.10193,2.55362,2.47275,2.55362,1.36409,0,2.55346-1.09537,2.55346-2.55362,0-1.37065-1.18937-2.47275-2.55346-2.47275ZM365.62283,59.27309c-1.37081,0-2.46602,1.09537-2.46602,2.46602,0,1.36425,1.09521,2.46618,2.46602,2.46618s2.5533-1.10193,2.5533-2.46618c0-1.37065-1.18248-2.46602-2.5533-2.46602ZM368.17613,16.70488c0-1.37081-1.18248-2.56019-2.5533-2.56019h-1.55225c.18144-.36288.36288-.73249.36288-1.18265,0-1.37081-1.18937-2.56019-2.55346-2.56019h-3.74956c-1.37065,0-2.46602,1.18937-2.46602,2.56019s1.09537,2.46602,2.46602,2.46602h1.55225c-.18144.36288-.27544.81993-.27544,1.27681,0,.73233.27544,1.37065.82649,1.8277-.55105.45688-.82649,1.18937-.82649,1.91514,0,.45688.094.91377.27544,1.28337h-1.55225c-1.37065,0-2.46602,1.09521-2.46602,2.46602,0,.45688.094.9072.27544,1.27681h-1.55225c-1.37065,0-2.46602,1.09521-2.46602,2.46602,0,.45688.08744.91377.27561,1.27665h-1.55898c-1.36409,0-2.55346,1.09537-2.55346,2.46602,0,1.37081,1.18937,2.56019,2.55346,2.56019h3.74939c1.37081,0,2.46618-1.18937,2.46618-2.56019,0-.45016-.094-.91377-.27544-1.27665h1.55209c1.37081,0,2.46618-1.09521,2.46618-2.46602,0-.45705-.08744-.91393-.27561-1.27665h1.55898c1.36409,0,2.55346-1.09537,2.55346-2.46618,0-.45688-.18144-.91393-.36288-1.28337h1.55225c1.37081,0,2.5533-1.09537,2.5533-2.46602,0-.72576-.36272-1.45825-.91377-1.91514.55105-.45705.91377-1.09537.91377-1.8277ZM369.3655,55.43626c-1.37081,0-2.46602,1.18265-2.46602,2.55346s1.09521,2.47275,2.46602,2.47275,2.56019-1.10193,2.56019-2.47275-1.18937-2.55346-2.56019-2.55346ZM376.94516,32.96614c-.81976,0-1.45809.26872-1.91497.81976-.45705-.55105-1.09537-.81976-1.92186-.81976-.7256,0-1.36409.26872-1.82097.81976-.45688-.55105-1.10193-.81976-1.92186-.81976-.73233,0-1.37081.26872-1.8277.81976-.45688-.55105-1.18265-.81976-1.91497-.81976-.73249,0-1.37081.26872-1.82786.81976-.45688-.55105-1.18921-.81976-1.91497-.81976-1.37081,0-2.47275,1.09521-2.47275,2.46602,0,1.36409,1.10193,2.55346,2.47275,2.55346.72576,0,1.45809-.36288,1.91497-.90704,0,.08728.09417.18128.18144.26872-.54416.45688-.8196,1.09521-.8196,1.8277,0,1.37081,1.09521,2.56019,2.46602,2.56019s2.5533-1.18937,2.5533-2.56019c0-.73249-.36272-1.37081-.91377-1.8277.09417-.08744.18817-.18144.27544-.26872.45688.54416,1.09537.90704,1.8277.90704.81993,0,1.46498-.36288,1.92186-.90704.45688.54416,1.09537.90704,1.82097.90704.82649,0,1.46481-.36288,1.92186-.90704.45688.54416,1.09521.90704,1.91497.90704,1.37081,0,2.47275-1.18937,2.47275-2.55346,0-1.37081-1.10193-2.46602-2.47275-2.46602Z"/>
        <g>
          <path class="cls-2" d="M346.89547,77.03564c-3.07031,0-5.87988-1.79102-7.16406-4.51074-.11694-.05566-.23218-.11426-.3457-.1748-.12598.06836-.25342.13281-.38257.19336-1.27368,2.74707-4.03125,4.49219-7.17969,4.49219h-14.97778c-2.73047,0-5.26367-1.44434-6.66919-3.74219h-.823c-4.35913,0-7.90576-3.50391-7.90576-7.81152,0-.63086.07983-1.26172.23779-1.88086-.15796-.61719-.23779-1.24219-.23779-1.8623,0-.62891.07983-1.26074.23779-1.88379-.15796-.61328-.23779-1.23926-.23779-1.86523,0-.625.07983-1.25488.23779-1.87793-.15796-.61328-.23779-1.23926-.23779-1.86523,0-3.03027,1.81592-5.83203,4.57373-7.14355.77295-1.67383,2.10718-3.01367,3.7644-3.78027.77759-1.65625,2.10522-2.9834,3.74561-3.74316,1.28418-2.69824,4.05054-4.47363,7.05688-4.47363h.82373c.79761-1.30664,1.95312-2.34473,3.34204-2.99902.06714-.14355.13892-.28418.2146-.42383-.62817-1.14355-.95679-2.42188-.95679-3.74316,0-.63477.07837-1.26465.23315-1.87793-.15479-.62207-.23315-1.24805-.23315-1.86523,0-3.01074,1.77197-5.77832,4.46436-7.0625.77832-1.7002,2.12817-3.06641,3.8064-3.85352.78955-1.63281,2.12305-2.95508,3.76025-3.72852,1.33203-2.70996,4.12256-4.49512,7.10986-4.49512h.77002c1.42969-2.29785,3.98145-3.74316,6.71533-3.74316h3.74951c2.78882,0,5.27319,1.41406,6.66943,3.74316h.823c3.00317,0,5.79736,1.79688,7.11743,4.52441,2.72729,1.32422,4.52417,4.12012,4.52417,7.12305,0,.63477-.07764,1.25977-.23145,1.86328.15381.60938.23145,1.24023.23145,1.87988,0,3.04102-1.74146,5.74902-4.48218,7.04688-.02148.04492-.04346.08984-.06567.13477.13013-.00586.26074-.00879.3916-.00879.64648,0,1.28149.07129,1.89307.21289.60352-.1416,1.22412-.21289,1.84985-.21289.66284,0,1.30762.07324,1.92163.21875.61353-.14551,1.2561-.21875,1.91528-.21875,4.31079,0,7.81812,3.50391,7.81812,7.81152,0,4.35547-3.50732,7.89844-7.81812,7.89844-.65601,0-1.29858-.07812-1.91528-.23242-.61719.1543-1.26196.23242-1.92163.23242-.25977,0-.51782-.0127-.77319-.04004-.80054,1.28125-1.95752,2.3291-3.30835,2.98926-.78955,1.68262-2.14917,3.03516-3.83325,3.81348-.77832,1.63574-2.10254,2.95703-3.73682,3.72852-.77393,1.64648-2.10156,2.97559-3.74536,3.75098-.40698.8584-.96753,1.63574-1.64795,2.29297.06616.06348.1311.12891.19482.19531.65845-.67969,1.43726-1.23926,2.29614-1.64551.77075-1.63574,2.0896-2.96094,3.72119-3.73828,1.26807-2.76562,4.04834-4.58594,7.08984-4.58594,4.2854,0,7.90576,3.61719,7.90576,7.89844,0,3.03809-1.74316,5.74609-4.48633,7.0459-.77319,1.63281-2.09985,2.95898-3.74243,3.74121-.79248,1.67773-2.1604,3.02539-3.85718,3.80176-1.28442,2.68848-4.04956,4.45703-7.05493,4.45703h-11.23486ZM328.08078,38.02197c-.64624,0-1.15234.50684-1.15234,1.15332,0,.67578.52759,1.24609,1.15234,1.24609h8.0332l-1.59741,2.10742c-.06372.08398-.10278.14746-.10278.39551,0,.36621.14453.68848.44189.98633l.92896.92871-.92896.92871c-.29736.29785-.44189.62012-.44189.98633,0,.39746.27686.73438.44189.89941l.92896.92871-.92896.92871c-.29736.29785-.44189.62207-.44189.99316,0,.64648.50635,1.15234,1.15259,1.15234h3.77051l-.94897,1.90039c-.18555.37109-.22437.58008-.22437.68945,0,.4043.27246.7373.43506.89941l.92822.92871-.92822.92871c-.2561.25586-.43506.66211-.43506.98633,0,.4043.27246.7373.43506.89941l.9292.92969-.93018.92871c-.25562.25488-.43408.66309-.43408.99121,0,.65723.53296,1.15332,1.2395,1.15332h3.68066l-.95386,1.90234c-.19458.3877-.22363.59766-.22363.6875,0,.625.5708,1.15234,1.24658,1.15234h3.67627l-.94897,1.90039c-.15356.30762-.2312.54199-.2312.69727,0,.61035.58252,1.14551,1.24658,1.14551h11.23486c.64624,0,1.15259-.50293,1.15259-1.14551,0-.65039-.50635-1.16016-1.15259-1.16016h-7.4231l.95386-1.90234c.08105-.16113.12939-.41895.12939-.6875,0-.64648-.5061-1.15234-1.15234-1.15234h-3.7124l.99365-1.91797c.08032-.1543.12817-.40625.12817-.67285,0-.38281-.13403-.7334-.34961-.91406l-1.2002-1.00586,1.19922-1.00684c.23584-.19824.35059-.4668.35059-.82227,0-.37891-.13428-.72754-.35059-.90918l-2.76221-2.31934h2.47461v-1.59375c-.14258-.09277-.31445-.16016-.51392-.16016h-4.26099l1.56079-2.09766c.06812-.0918.10962-.16016.10962-.40527,0-.37109-.14453-.69531-.44165-.99316l-.92896-.92871.92896-.92871c.16504-.16504.44165-.50098.44165-.89941,0-.36621-.14453-.68848-.44165-.98633l-.92871-.92871.92871-.92871c.29712-.29785.44165-.62012.44165-.98633,0-.65039-.5061-1.15918-1.1521-1.15918h-4.29663l1.60474-2.1084c.02832-.03809.09448-.15918.09448-.48145,0-.25391-.03857-.31934-.10156-.40332l-1.56787-2.09961h8.00952c.61377,0,1.1521-.58008,1.1521-1.24023,0-.64648-.5061-1.15234-1.1521-1.15234h-8.00537l1.56274-2.09766c.06616-.08984.10254-.2666.10254-.5,0-.64648-.5061-1.15234-1.15234-1.15234h-4.24976l1.55542-2.09668c.06616-.08887.104-.26855.104-.49316,0-.30957-.16748-.66016-.51196-1.07031l-.77466-.92188.85156-.85156c.13086-.13086.43506-.48047.43506-.89941,0-.23047-.03931-.41113-.11108-.50977l-1.51953-2.08691h4.22095c.64624,0,1.15234-.50586,1.15234-1.15234,0-.16113-.01758-.37793-.10156-.49023l-1.56787-2.09961h4.26685c.646,0,1.1521-.50684,1.1521-1.15332,0-.2207-.03687-.39648-.10156-.48145l-1.60278-2.1084h4.29492c.646,0,1.1521-.50586,1.1521-1.15234,0-.67578-.52759-1.24707-1.1521-1.24707h-3.74268c-.64087,0-1.24658.60645-1.24658,1.24707,0,.13672.08887.32422.22437.59473l.95044,1.90137h-3.67798c-.76562,0-1.2395.64648-1.2395,1.24609,0,.13867.07983.30859.22119.5957l.93042,1.89355-2.10254.01367h-1.64624c-.61401,0-1.15259.58008-1.15259,1.24023,0,.22656.03857.40332.10889.49805l1.56592,2.09863h-4.26514c-.64624,0-1.15234.50586-1.15234,1.15234,0,.41895.3042.76855.43506.89941l.85156.85156-.77466.92188c-.34448.41016-.51196.76074-.51196,1.07031,0,.64648.5061,1.15234,1.15234,1.15234h4.29053l-1.59741,2.10742c-.06445.08496-.10278.26465-.10278.48242,0,.22754.03906.4043.10986.5l1.56079,2.09766h-4.26099c-.64624,0-1.15234.50586-1.15234,1.15234,0,.22461.03784.4043.104.49316l1.55542,2.09668h-4.24976ZM316.84567,68.07178c-.64624,0-1.15234.50977-1.15234,1.16016,0,.64258.5061,1.14551,1.15234,1.14551h14.97778c.71069,0,1.24658-.49219,1.24658-1.14551,0-.66113-.53589-1.16016-1.24658-1.16016h-14.97778ZM361.88009,64.32959c-.65015,0-1.15918.50586-1.15918,1.15234s.50903,1.15234,1.15918,1.15234c.6604,0,1.23975-.53809,1.23975-1.15234,0-.61328-.57935-1.15234-1.23975-1.15234ZM335.56637,64.32959c-.64624,0-1.15259.50586-1.15259,1.15234s.50635,1.15234,1.15259,1.15234c.72217,0,1.24634-.48438,1.24634-1.15234s-.52417-1.15234-1.24634-1.15234ZM309.35348,53.00732c-.65234,0-1.24658.59082-1.24658,1.23926,0,.39062.27881.68262.44507.82227l1.19849,1.00586-1.19849,1.00586c-.26636.22363-.44507.58887-.44507.90918,0,.39062.27881.68262.44507.82227l1.19971,1.00684-1.20093,1.00586c-.26538.22266-.44385.58984-.44385.91406,0,.38477.28345.68457.45239.82812l1.18213,1.00781-1.18945.99805c-.26636.22363-.44507.58887-.44507.90918,0,.625.5708,1.15234,1.24658,1.15234h3.74268c.64624,0,1.15234-.50586,1.15234-1.15234,0-.38672-.12891-.72461-.34473-.9043l-1.21021-1.00293,1.20288-1.0127c.15112-.12695.35205-.35156.35205-.82324,0-.38477-.13159-.7334-.34375-.90918l-1.22144-1.01074,1.22046-1.01172c.14795-.12305.34473-.3418.34473-.81738,0-.38672-.12891-.72461-.34473-.9043l-1.21924-1.01074,1.21924-1.01074c.14795-.12305.34473-.3418.34473-.81738,0-.26855-.04858-.52637-.13037-.68945l-.94897-1.90039h3.67651c.64624,0,1.15234-.50586,1.15234-1.15234,0-.26172-.05273-.52539-.14111-.70508l-.92871-1.89258h3.66016c.67578,0,1.24658-.52734,1.24658-1.15234,0-.21875-.17676-.5791-.23486-.69727l-.93018-1.89258h3.66113c.59961,0,1.24658-.47461,1.24658-1.24023,0-.61719-.58252-1.15918-1.24658-1.15918h-3.74268c-.646,0-1.1521.50879-1.1521,1.15918,0,.25684.05273.51855.14136.69922l.927,1.8916h-3.65894c-.66772,0-1.15234.52148-1.15234,1.23926,0,.24316.03735.41699.12939.60059l.95386,1.90234h-3.68042c-.66772,0-1.15234.52441-1.15234,1.24707,0,.23535.03833.40137.14136.61133l.927,1.8916h-3.65869ZM365.62277,60.58643c-.64624,0-1.15234.50586-1.15234,1.15234s.5061,1.15332,1.15234,1.15332c.6604,0,1.23975-.53906,1.23975-1.15332,0-.625-.56763-1.15234-1.23975-1.15234ZM328.90353,61.41357c.6582-1.0791,1.56445-1.97852,2.64209-2.625-.02734-.2627-.04126-.53027-.04126-.79883,0-.26562.01392-.53027.04175-.79395-2.33276-1.39941-3.7915-3.92578-3.7915-6.69141,0-.15527.00464-.30957.01343-.46387-.00269.00195-.00513.00293-.00781.00391-.79199,1.67871-2.1604,3.0293-3.85864,3.80664-.65771,1.38086-1.7207,2.5498-3.03076,3.3418.02441.26074.03687.52734.03687.79688,0,.63379-.07178,1.25977-.21338,1.86426.11768.50977.18701,1.03223.20703,1.55957h8.0022ZM369.36544,56.74951c-.62476,0-1.15234.56836-1.15234,1.24023,0,.65039.5061,1.15918,1.15234,1.15918.66406,0,1.24658-.54199,1.24658-1.15918,0-.64941-.59424-1.24023-1.24658-1.24023ZM349.72921,55.04834c.18188.2168.53027.35156.90894.35156.64624,0,1.15234-.50684,1.15234-1.15332,0-.67188-.52759-1.23926-1.15234-1.23926-.31885,0-.69238.17969-.9082.4375l-.6731.80273.67236.80078ZM354.38766,49.25732c-.66772,0-1.15234.52441-1.15234,1.24707,0,.64648.5061,1.15234,1.15234,1.15234s1.15234-.50586,1.15234-1.15234c0-.72266-.48462-1.24707-1.15234-1.24707ZM358.13034,45.51514c-.66772,0-1.1521.52148-1.1521,1.23926,0,.64648.5061,1.15234,1.1521,1.15234.64624,0,1.15259-.50586,1.15259-1.15234,0-.71777-.48462-1.23926-1.15259-1.23926ZM361.88009,41.76514c-.65015,0-1.15918.50879-1.15918,1.15918,0,.70703.49829,1.24023,1.15918,1.24023.59619,0,1.23975-.47461,1.23975-1.24023,0-.61719-.57935-1.15918-1.23975-1.15918ZM350.92941,42.19873c.02295.24414.03467.48633.03467.72559,0,.15234-.00464.30469-.01367.45801.0415-.01953.08301-.04004.125-.05859.77197-1.6543,2.09692-2.98047,3.73926-3.74316.00073-.00098.00146-.00293.0022-.00391-.14307.00781-.28613.01172-.4292.01172h-.85107c-.65283,1.06836-1.54712,1.96289-2.60718,2.61035ZM364.82126,38.35303c-.23608.19824-.35083.46777-.35083.82227,0,.67578.52759,1.24609,1.15234,1.24609.64893,0,1.23975-.59375,1.23975-1.24609,0-.37402-.23853-.65137-.43872-.81738l-.86719-.71875-.73535.71387ZM365.56442,37.12842l.80615-.74609c.07349-.06738.8855-.87891.8855-.87891l-.72949-.87891c-.17871-.21582-.5166-.34473-.90381-.34473-.22192,0-.38794.04297-.51416.10352v2.25586l.45581.48926ZM376.03634,36.23389c.25098.29883.53979.43848.90894.43848.61743,0,1.15894-.58008,1.15894-1.24023,0-.64648-.50903-1.15234-1.15894-1.15234-.54492,0-.7627.17383-.90381.34473l-.67432.8125.66919.79688ZM372.29318,36.23389c.13745.16309.42651.43848.81519.43848.37354,0,.66455-.13965.91602-.43848l.66919-.79688-.67432-.8125c-.14136-.16992-.36011-.34473-.91089-.34473-.46997,0-.6875.19727-.81006.34473l-.67432.8125.66919.79688ZM368.54391,36.23389c.16772.2002.44678.43848.82153.43848.36865,0,.66821-.14355.91577-.43848l.66919-.79688-.67432-.8125c-.13281-.16016-.35645-.34473-.91064-.34473-.47583,0-.69385.19629-.81641.34473l-.6897.83105.68457.77832ZM361.88009,34.27979c-.65015,0-1.15918.50586-1.15918,1.15234,0,.66016.54175,1.24023,1.15918,1.24023.31836,0,.69214-.18066.90869-.43848l.66919-.79688-.67432-.8125c-.17603-.21289-.52222-.34473-.90356-.34473ZM350.63815,30.52979c-.6604,0-1.23975.53906-1.23975,1.15234,0,.64062.60254,1.24707,1.23975,1.24707h3.74951c.62476,0,1.15234-.57129,1.15234-1.24707,0-.30566-.0708-.55664-.13696-.68945l-.94897-1.90039h3.67627c.64624,0,1.15259-.50586,1.15259-1.15234,0-.26562-.04761-.5166-.12769-.6709l-.99707-1.91895h3.72192c.6604,0,1.23975-.53906,1.23975-1.15332,0-.10938-.03955-.31934-.22827-.7041l-.93018-1.89258h3.66138c.67212,0,1.23975-.52734,1.23975-1.15234,0-.32324-.17627-.68652-.43872-.9043l-1.21899-1.01074,1.21899-1.01074c.2002-.16602.43872-.44336.43872-.81738,0-.65234-.59082-1.24609-1.23975-1.24609h-3.67651l.94897-1.90039c.13989-.28027.22461-.45996.22461-.5957,0-.64062-.60254-1.24707-1.23975-1.24707h-3.74976c-.62451,0-1.1521.57129-1.1521,1.24707,0,.64648.5061,1.15234,1.1521,1.15234h3.6792l-.95239,1.90137c-.08521.1709-.13623.42773-.13623.68848,0,.4707.20044.69141.35132.81641l1.21997,1.01172-1.21997,1.01172c-.2168.17969-.35132.52539-.35132.90332,0,.26172.05249.52441.14062.7041l.93018,1.89258h-3.66138c-.646,0-1.1521.50586-1.1521,1.15234,0,.26074.05151.51562.14136.69922l.927,1.8916h-3.65894c-.64624,0-1.15234.50586-1.15234,1.15234,0,.26562.04761.5166.12769.6709l.99707,1.91895h-3.72192ZM344.99215,26.23096c.67041-.67773,1.46216-1.23535,2.3335-1.6377.78003-1.63184,2.10474-2.95117,3.73804-3.72168.40723-.86035.96777-1.63867,1.64746-2.29395-.06641-.06445-.13159-.12988-.1958-.19629-.65601.67969-1.43408,1.24023-2.29419,1.64746-.7749,1.64258-2.10376,2.96973-3.74927,3.74414-.40405.8584-.96362,1.63672-1.64478,2.29395.05591.05469.11084.10938.16504.16406ZM350.63815,7.97314c-.59619,0-1.23975.47363-1.23975,1.23926,0,.61426.57935,1.15234,1.23975,1.15234h3.74951c.64624,0,1.15234-.50586,1.15234-1.15234,0-.71777-.48462-1.23926-1.15234-1.23926h-3.74951Z"/>
          <path d="M354.38766,2.62744c2.63428,0,4.85156,1.51196,5.87939,3.74268h1.61279c2.73511,0,5.14722,1.77417,6.12183,4.20654,2.43896.98096,4.2063,3.39331,4.2063,6.12817,0,.63159-.09424,1.26318-.28223,1.86133.18799.60474.28223,1.24316.28223,1.88159,0,2.74146-1.72681,5.09326-4.16626,6.04761-.36963.94727-.9541,1.79395-1.69995,2.47266.39648.04028.78613.11426,1.16235.22168.59155-.16797,1.21631-.25537,1.86133-.25537.66553,0,1.29712.0874,1.89502.25537.59131-.16797,1.20947-.25537,1.8479-.25537.67188,0,1.31689.0874,1.92188.26196.60474-.17456,1.24976-.26196,1.91504-.26196,3.58813,0,6.50439,2.90967,6.50439,6.4978,0,3.6355-2.91626,6.58521-6.50439,6.58521-.65869,0-1.30371-.09399-1.91504-.28223-.61157.18823-1.25659.28223-1.92188.28223-.50391,0-1.00122-.06055-1.47827-.1814-.7124,1.55884-2.01587,2.81543-3.6084,3.45386-.67212,1.74707-2.06958,3.13794-3.82349,3.79663-.66528,1.71338-2.0293,3.07739-3.74268,3.73608-.65869,1.71997-2.0293,3.09082-3.74268,3.74927-.5376,1.39111-1.53906,2.55347-2.80908,3.29272.97461.57104,1.7876,1.38403,2.35205,2.35181.74561-1.27002,1.9082-2.26465,3.29932-2.80225.6582-1.71313,2.01562-3.07739,3.72925-3.74243.92725-2.49316,3.30591-4.26709,6.08105-4.26709,3.57495,0,6.59204,3.01709,6.59204,6.58521,0,2.74146-1.73389,5.09326-4.17285,6.04761-.65845,1.70679-2.02271,3.0708-3.74292,3.74268-.67188,1.74048-2.08301,3.13135-3.85034,3.78979-.94067,2.42578-3.29932,4.15259-6.06104,4.15259h-11.23486c-2.80859,0-5.22119-1.74023-6.16162-4.19287-.47754-.18823-.93457-.42993-1.35107-.71899-.42334.29565-.88672.54419-1.38428.73242-.92725,2.46631-3.3125,4.17944-6.1748,4.17944h-14.97803c-2.60059,0-4.85156-1.53174-5.88623-3.74268h-1.60596c-3.63525,0-6.5918-2.91626-6.5918-6.4978,0-.63843.10059-1.27661.28857-1.88159-.18799-.60449-.28857-1.22949-.28857-1.86133,0-.63794.10059-1.27661.28857-1.88794-.18799-.5979-.28857-1.22314-.28857-1.86133,0-.63843.10059-1.27002.28857-1.88159-.18799-.5979-.28857-1.2229-.28857-1.86133,0-2.75513,1.80078-5.1875,4.2666-6.14819.65869-1.75391,2.02295-3.12451,3.75635-3.76978.66504-1.74048,2.01562-3.09766,3.74268-3.74292.94092-2.43237,3.29932-4.16602,6.06104-4.16602h1.60596c.7124-1.51196,1.98926-2.70801,3.56152-3.31274.19482-.51074.4502-.98779.75928-1.42456-.74609-1.05493-1.18945-2.35181-1.18945-3.74268,0-.63843.09424-1.26343.28223-1.87476-.18164-.60474-.28223-1.23657-.28223-1.86816,0-2.76172,1.72705-5.12695,4.15967-6.06763.6582-1.76733,2.04932-3.17847,3.78955-3.84351.67871-1.70679,2.04297-3.06421,3.75635-3.72949.98779-2.42578,3.39355-4.18628,6.12158-4.18628h1.54541c1.06152-2.21069,3.32617-3.74268,5.93994-3.74268h3.74951M350.63815,11.67847h3.74951c1.37061,0,2.46631-1.09521,2.46631-2.46606,0-1.45801-1.0957-2.55322-2.46631-2.55322h-3.74951c-1.36426,0-2.55322,1.09521-2.55322,2.55322,0,1.37085,1.18896,2.46606,2.55322,2.46606M358.13034,15.42798h1.55225c-.18115.36304-.27539.82007-.27539,1.27686,0,.73242.27539,1.37061.82666,1.82764-.55127.45703-.82666,1.18945-.82666,1.91528,0,.45679.09424.91382.27539,1.28345h-1.55225c-1.37061,0-2.46582,1.09497-2.46582,2.46582,0,.45703.09375.90723.27539,1.27686h-1.55225c-1.37061,0-2.46631,1.09521-2.46631,2.46606,0,.45679.08789.91382.27588,1.27661h-1.55908c-1.36426,0-2.55322,1.09546-2.55322,2.46606,0,1.37085,1.18896,2.56006,2.55322,2.56006h3.74951c1.37061,0,2.46631-1.18921,2.46631-2.56006,0-.4502-.09424-.91382-.27539-1.27661h1.55176c1.37109,0,2.46631-1.09521,2.46631-2.46606,0-.45703-.0874-.91382-.27539-1.27661h1.55859c1.36426,0,2.55371-1.09546,2.55371-2.46631,0-.45679-.18164-.91382-.36304-1.2832h1.55225c1.37085,0,2.55347-1.09546,2.55347-2.46606,0-.72583-.36279-1.45825-.91382-1.91528.55103-.45703.91382-1.09521.91382-1.82764,0-1.37085-1.18262-2.56006-2.55347-2.56006h-1.55225c.1814-.36304.36304-.73267.36304-1.18262,0-1.37085-1.18945-2.5603-2.55371-2.5603h-3.74951c-1.37061,0-2.46582,1.18945-2.46582,2.5603,0,1.37061,1.09521,2.46582,2.46582,2.46582M331.8237,30.40601h1.646c-.27539.36279-.36963.82642-.36963,1.27661,0,.45703.09424.91382.36963,1.28345h-1.646c-1.37109,0-2.46631,1.09521-2.46631,2.46606,0,.45703.09424.91406.36279,1.27661h-1.63965c-1.37061,0-2.46582,1.09546-2.46582,2.46631s1.09521,2.56006,2.46582,2.56006h5.38916c-.27539.36279-.36963.72559-.36963,1.18921,0,.82007.36963,1.45825.82666,1.91528-.45703.45703-.82666,1.09521-.82666,1.91504,0,.73242.36963,1.37085.82666,1.82764-.45703.45703-.82666,1.09546-.82666,1.92188,0,1.37061,1.10205,2.46606,2.46631,2.46606h1.646c-.18115.36279-.36279.81982-.36279,1.27661,0,.73267.36279,1.37085.81982,1.82764-.45703.45703-.81982,1.18286-.81982,1.91528s.36279,1.37085.81982,1.82764c-.45703.45703-.81982,1.18945-.81982,1.92163,0,1.36426,1.0957,2.46631,2.55371,2.46631h1.55225c-.18164.36279-.36279.81982-.36279,1.27661,0,1.37085,1.18896,2.46631,2.56006,2.46631h1.55225c-.18164.36279-.36963.81958-.36963,1.2832,0,1.36426,1.18896,2.45947,2.56006,2.45947h11.23486c1.37109,0,2.46631-1.09521,2.46631-2.45947,0-1.37085-1.09521-2.47266-2.46631-2.47266h-5.29492c.18164-.36279.26904-.82007.26904-1.27686,0-1.37061-1.09521-2.46606-2.46631-2.46606h-1.55225c.18799-.36279.27539-.81982.27539-1.27686,0-.73218-.27539-1.4646-.81934-1.92163.54395-.45679.81934-1.09521.81934-1.82764s-.27539-1.45825-.81934-1.91528c.08691,0,.18115-.09399.18115-.18115.45703.54419,1.18945.81958,1.91504.81958,1.37109,0,2.46631-1.09521,2.46631-2.46606s-1.09521-2.55322-2.46631-2.55322c-.72559,0-1.45801.36279-1.91504.90698-.45703-.54419-1.09521-.90698-1.82764-.90698h-1.64648c.27539-.36987.36963-.73242.36963-1.18945,0-.82642-.36963-1.46484-.82617-1.92188.45654-.45679.82617-1.09521.82617-1.82764,0-.81982-.36963-1.45801-.82617-1.91504.45654-.45703.82617-1.09521.82617-1.91528,0-1.37061-1.09521-2.47266-2.46582-2.47266h-1.64648c.27539-.36279.36279-.81982.36279-1.27661,0-.45703-.0874-.81982-.36279-1.18945h5.38916c1.37061,0,2.46582-1.18945,2.46582-2.55347,0-1.37085-1.09521-2.46606-2.46582-2.46606h-5.38916c.27539-.36963.36279-.82642.36279-1.28345,0-1.37061-1.09521-2.46606-2.46582-2.46606h-1.63965c.26855-.36279.36279-.81982.36279-1.27661,0-.73242-.36279-1.37085-.81982-1.91504.45703-.45703.81982-1.10205.81982-1.82788,0-.45679-.09424-.91382-.36279-1.2832h1.63965c1.37061,0,2.46582-1.09546,2.46582-2.46606,0-.45703-.0874-.90723-.36279-1.27686h1.64648c1.37061,0,2.46582-1.09546,2.46582-2.46606,0-.45679-.09424-.91382-.36963-1.27686h1.64648c1.37061,0,2.46582-1.09521,2.46582-2.46582,0-1.37085-1.09521-2.5603-2.46582-2.5603h-3.74268c-1.37109,0-2.56006,1.18945-2.56006,2.5603,0,.44995.18115.81958.36279,1.18262h-1.55225c-1.45801,0-2.55371,1.18921-2.55371,2.56006,0,.45703.18164.81982.36279,1.18921h-1.646c-1.36426,0-2.46631,1.18286-2.46631,2.55371,0,.45679.09424.91382.36963,1.28345h-1.646c-1.37109,0-2.46631,1.09497-2.46631,2.46582,0,.72583.36279,1.37085.81982,1.82788-.45703.54419-.81982,1.18262-.81982,1.91504,0,1.37085,1.09521,2.46606,2.46631,2.46606M344.98727,28.35645c.75928-1.24976,1.93506-2.23096,3.33252-2.75488.66553-1.70679,2.0293-3.0708,3.74268-3.72949.5376-1.39087,1.53223-2.55347,2.80908-3.29248-.97461-.57104-1.7876-1.38428-2.3584-2.3584-.73926,1.27661-1.90186,2.271-3.29297,2.80859-.6582,1.71362-2.0293,3.08447-3.74902,3.74292-.53125,1.39087-1.53223,2.55322-2.80225,3.29248.94727.55786,1.74707,1.34399,2.31836,2.29126M375.03024,33.78589c-.45703-.55103-1.09546-.81982-1.92188-.81982-.72559,0-1.36401.2688-1.82104.81982-.45679-.55103-1.10181-.81982-1.92188-.81982-.73218,0-1.37085.2688-1.82764.81982-.45679-.55103-1.18262-.81982-1.91504-.81982s-1.37085.2688-1.82788.81982c-.45679-.55103-1.18896-.81982-1.91504-.81982-1.37061,0-2.47266,1.09521-2.47266,2.46606,0,1.36401,1.10205,2.55347,2.47266,2.55347.72607,0,1.45825-.36279,1.91504-.90698,0,.08716.09424.18115.18164.2688-.54419.45679-.81982,1.09521-.81982,1.82764,0,1.37085,1.09521,2.56006,2.46606,2.56006s2.55347-1.18921,2.55347-2.56006c0-.73242-.36279-1.37085-.91382-1.82764.09399-.08765.18823-.18164.27539-.2688.45679.54419,1.09546.90698,1.82764.90698.82007,0,1.46509-.36279,1.92188-.90698.45703.54419,1.09546.90698,1.82104.90698.82642,0,1.46484-.36279,1.92188-.90698.45679.54419,1.09521.90698,1.91504.90698,1.37061,0,2.47266-1.18945,2.47266-2.55347,0-1.37085-1.10205-2.46606-2.47266-2.46606-.81982,0-1.45825.2688-1.91504.81982M349.60348,45.99536c.67871-.73926,1.51855-1.3103,2.47266-1.6665.65869-1.74048,2.01562-3.09766,3.73633-3.74292.18799-.49048.43652-.9541.73877-1.38403-.2417-.34937-.44971-.71899-.625-1.11548-.49023.12109-1.00781.18799-1.53857.18799h-1.63281c-.67188,1.4248-1.83447,2.56689-3.26562,3.19873.10059.46362.16113.9541.16113,1.45117,0,.6521-.10059,1.29712-.28223,1.91528.11426.37622.19482.75928.23535,1.15576M361.87985,45.47803c1.36426,0,2.55371-1.09546,2.55371-2.55371,0-1.37061-1.18945-2.47266-2.55371-2.47266-1.37061,0-2.47266,1.10205-2.47266,2.47266,0,1.45825,1.10205,2.55371,2.47266,2.55371M309.35348,67.94824h3.74268c1.37061,0,2.46631-1.09546,2.46631-2.46631,0-.73242-.26904-1.45801-.82031-1.91504.55127-.46362.82031-1.10205.82031-1.82788,0-.73218-.26904-1.4646-.82031-1.92163.55127-.45679.82031-1.09521.82031-1.82764s-.26904-1.45825-.82031-1.91528c.55127-.45679.82031-1.09497.82031-1.82764,0-.45679-.08789-.91382-.26904-1.27661h1.55225c1.37061,0,2.46631-1.09546,2.46631-2.46606,0-.45703-.09424-.91382-.27588-1.28345h1.55225c1.37109,0,2.56006-1.09521,2.56006-2.46606,0-.45703-.18799-.90723-.36963-1.27661h1.55225c1.37109,0,2.56006-1.09546,2.56006-2.55371,0-1.37061-1.18896-2.47266-2.56006-2.47266h-3.74268c-1.37061,0-2.46582,1.10205-2.46582,2.47266,0,.45044.09375.90723.27539,1.27686h-1.55225c-1.37109,0-2.46631,1.09546-2.46631,2.55347,0,.45679.0874.82642.26904,1.18945h-1.55225c-1.37061,0-2.46631,1.09521-2.46631,2.56006,0,.45703.09424.81958.27539,1.18945h-1.55176c-1.37109,0-2.56006,1.18237-2.56006,2.55322,0,.73267.36914,1.37085.91357,1.82764-.54443.45703-.91357,1.18286-.91357,1.91528s.36914,1.37085.91357,1.82764c-.54443.45703-.91357,1.18945-.91357,1.92163,0,.72583.36914,1.36426.91357,1.82788-.54443.45703-.91357,1.18262-.91357,1.91504,0,1.37085,1.18896,2.46631,2.56006,2.46631M358.13034,49.2207c1.37109,0,2.46631-1.09521,2.46631-2.46606,0-1.45801-1.09521-2.55347-2.46631-2.55347-1.37061,0-2.46582,1.09546-2.46582,2.55347,0,1.37085,1.09521,2.46606,2.46582,2.46606M319.52682,62.72705h10.15967c.67236-1.4314,1.85449-2.58716,3.31982-3.21191-.12793-.49731-.18848-1.00806-.18848-1.52539,0-.50391.06055-1.01465.18848-1.51855-2.31152-.99463-3.93799-3.29956-3.93799-5.96704,0-.65186.09424-1.29028.28223-1.90161-.11426-.36963-.19482-.75928-.2417-1.14893-.65186.69189-1.45801,1.24292-2.35205,1.59912-.67188,1.74048-2.08301,3.13135-3.8501,3.78979-.625,1.61938-1.88818,2.92969-3.48096,3.62183.11426.49048.16797,1.00806.16797,1.52539,0,.65186-.0874,1.26978-.25537,1.86133.16797.60474.25537,1.23633.25537,1.88794,0,.33618-.02002.66553-.06689.98804M354.38766,52.97021c1.37061,0,2.46631-1.09546,2.46631-2.46606,0-1.46484-1.0957-2.56006-2.46631-2.56006s-2.46631,1.09521-2.46631,2.56006c0,1.37061,1.0957,2.46606,2.46631,2.46606M369.36544,60.4624c1.37085,0,2.5603-1.10181,2.5603-2.47266s-1.18945-2.55347-2.5603-2.55347-2.46606,1.18262-2.46606,2.55347,1.09521,2.47266,2.46606,2.47266M365.62277,64.20532c1.37085,0,2.55347-1.10205,2.55347-2.46631,0-1.37061-1.18262-2.46582-2.55347-2.46582s-2.46606,1.09521-2.46606,2.46582c0,1.36426,1.09521,2.46631,2.46606,2.46631M361.87985,67.94824c1.36426,0,2.55371-1.09546,2.55371-2.46631,0-1.37061-1.18945-2.46606-2.55371-2.46606-1.37061,0-2.47266,1.09546-2.47266,2.46606,0,1.37085,1.10205,2.46631,2.47266,2.46631M335.56637,67.94824c1.46484,0,2.56006-1.09546,2.56006-2.46631,0-1.37061-1.09521-2.46606-2.56006-2.46606-1.36426,0-2.46631,1.09546-2.46631,2.46606,0,1.37085,1.10205,2.46631,2.46631,2.46631M316.84567,71.69092h14.97803c1.46484,0,2.56006-1.09521,2.56006-2.45947,0-1.37085-1.09521-2.47266-2.56006-2.47266h-14.97803c-1.37109,0-2.46631,1.10181-2.46631,2.47266,0,1.36426,1.09521,2.45947,2.46631,2.45947M354.38766,0h-3.74951c-2.93457,0-5.68896,1.427-7.4082,3.74268h-.07715c-3.33398,0-6.45605,1.90112-8.07812,4.82666-1.58594.84863-2.89844,2.14917-3.76318,3.729-1.62988.86816-2.96338,2.21704-3.82227,3.86572-2.90576,1.5791-4.79102,4.677-4.79102,8.03296,0,.6189.06689,1.24316.19873,1.86401-.13184.61719-.19873,1.24634-.19873,1.87891,0,1.18701.22705,2.34399.66553,3.4231-1.03857.62598-1.93848,1.4502-2.65283,2.42944h-.12256c-3.35352,0-6.45117,1.89062-8.02979,4.80371-1.58887.84058-2.89551,2.14575-3.74951,3.74512-1.60498.84863-2.92041,2.16943-3.77197,3.78906-2.97217,1.60376-4.90283,4.73755-4.90283,8.11646,0,.62622.06787,1.25122.20166,1.8667-.13379.62231-.20166,1.25049-.20166,1.87622,0,.62622.06787,1.25146.20166,1.86694-.13379.62305-.20166,1.25342-.20166,1.88232,0,.62134.06787,1.24512.20166,1.8623-.13379.62036-.20166,1.25024-.20166,1.88062,0,5.03174,4.13574,9.125,9.21924,9.125h.12402c1.69824,2.31641,4.43555,3.74268,7.36816,3.74268h14.97803c3.09814,0,5.87354-1.45581,7.55762-3.84473,1.70361,2.36328,4.50146,3.84473,7.51416,3.84473h11.23486c3.35059,0,6.44556-1.88208,8.02515-4.7832,1.64453-.85669,2.99316-2.18677,3.86548-3.81299,1.58691-.8562,2.89136-2.15991,3.74097-3.7395,2.96265-1.58569,4.823-4.62769,4.823-8.02417,0-4.99365-4.22217-9.21265-9.21948-9.21265-.12769,0-.25488.00293-.38159.0083.39111-.47461.73584-.98901,1.0271-1.53735,1.16357-.64307,2.18701-1.53735,2.9873-2.604.03662.00049.07349.00073.11011.00073.65454,0,1.2981-.06665,1.92139-.19849.62256.13184,1.26392.19849,1.91553.19849,5.03516,0,9.13184-4.13281,9.13184-9.21265,0-5.03174-4.09668-9.12524-9.13184-9.12524-.65454,0-1.29614.06299-1.91528.1875-.62036-.12451-1.26392-.1875-1.92163-.1875-.13916,0-.27832.00317-.41675.00928,1.36011-1.60474,2.1438-3.66162,2.1438-5.86841,0-.63647-.06592-1.26562-.19629-1.87866.13037-.6084.19629-1.23242.19629-1.86426,0-3.35278-1.91577-6.48315-4.86255-8.09717-1.61011-2.94824-4.73901-4.86499-8.09302-4.86499h-.11523c-1.68359-2.34375-4.38037-3.74268-7.37695-3.74268h0ZM362.22702,16.77222l1.84351-.00024h1.19556l-1.51929,1.26025-1.51978-1.26001h0ZM362.23483,20.28638l1.53271-1.27075,1.50073,1.27075h-3.03345ZM332.22653,24.35864h3.03076l-1.51172,1.51147,1.54932,1.84448c.01855.02246.03613.04395.05225.06396h-3.21045c.01611-.02002.03369-.0415.05225-.06396l1.54932-1.84448-1.51172-1.51147h0ZM335.91012,31.84375h3.15576l-1.57812,2.11816-1.57764-2.11816h0ZM332.16354,35.59351h4.28418l2.69824,3.62183-2.93262,3.86377,5.29297-.00024h1.33105l-1.75879,1.76074,1.85498,1.85693c.00488.00488.00977.00977.01416.0144-.00439.00464-.00879.00928-.01367.01392l-1.85596,1.85693,1.84033,1.84229-2.90137,3.89697h2.35352l4.31445,3.62476-2.22803,1.87109,2.27686,1.91284v.00928c0,.05542-.00488.0979-.00879.12256l-1.79248,3.45923h-1.59717l1.87402-3.74292h-5.58545l1.7666-1.76636-1.86377-1.85229c-.00391-.00391-.00732-.00757-.01074-.01123.00488-.00732.01025-.01416.01465-.01953l1.8584-1.85815-1.86133-1.85327c.00977-.02173.02148-.04614.03516-.073l1.89795-3.80103-4.24854-.00024h-1.33057l1.76123-1.76099-1.85889-1.85791c-.00439-.00439-.00879-.00879-.0127-.01294.00391-.00439.0083-.00879.01318-.01343l1.85791-1.85791-1.83691-1.83667,2.95703-3.89526h-3.99609l-2.60303-3.51416h0ZM324.87252,54.83813c.74609-.38892,1.43115-.87524,2.03857-1.44238.59863,1.78809,1.74219,3.35669,3.28027,4.47705-.00049.03906-.00098.07788-.00098.11694,0,.04053.00049.0813.00098.12183-.76074.55444-1.43115,1.22485-1.98877,1.98804h-6.12012c-.01367-.0813-.02881-.1626-.04492-.24341.12207-.60938.18359-1.23462.18359-1.86646,0-.04004-.00049-.07983-.00098-.11987,1.09424-.80103,2.00488-1.83984,2.65234-3.03174h0ZM309.70797,54.3208h3.03271l-1.51807,1.25806-1.51465-1.25806h0ZM309.56588,57.9458l1.64795-1.38379,1.66895,1.38379-1.65967,1.37549-1.65723-1.37549h0ZM309.561,61.6936l1.65381-1.38794,1.67334,1.38745-1.66553,1.40088-1.66162-1.40039h0ZM309.70504,65.3208l1.50879-1.26636,1.52734,1.26636h-3.03613ZM348.79733,65.64307h1.6582l-1.7124,3.42041h-1.6582l1.7124-3.42041h0Z"/>
        </g>
      </g>
    </g>
  </g>
</svg>