<?xml version="1.0" encoding="utf-8"?>
<!DOCTYPE svg PUBLIC "-//W3C//DTD SVG 1.0//EN" "http://www.w3.org/TR/2001/REC-SVG-20010904/DTD/svg10.dtd">
<svg version="1.0" xmlns="http://www.w3.org/2000/svg" width="10800px" height="5400px" viewBox="0 0 10800 5400" preserveAspectRatio="xMidYMid meet">
 <g fill="#000000">
  <path d="M0 5215.60 l0 -184.40 15.20 9.60 14.80 9.20 212 2 c155.60 1.60 219.60 0.80 240 -2.40 64 -11.20 109.20 -17.60 122.80 -17.60 8 0 26.80 -5.60 41.60 -12.40 26.80 -11.60 28.40 -12 73.60 -9.60 25.20 1.20 58 3.20 72.40 4.40 22.80 1.60 30.80 0.40 56 -9.60 29.60 -11.60 61.20 -16.40 131.60 -19.20 16.40 -0.40 42.40 -4 57.20 -7.60 14.80 -3.20 56.40 -8.40 92 -11.60 48.40 -3.60 68.40 -6.80 78.80 -12.40 10.40 -5.60 26.80 -8.40 64 -10.40 201.20 -11.60 299.60 -22 351.20 -38 30 -8.80 36 -9.60 54 -5.60 11.60 2.40 31.60 5.20 44.80 6.40 13.20 1.20 41.20 4 62 6.40 20.80 2 74.80 4.40 120 5.60 78.80 1.20 177.20 7.60 184 11.60 4.80 3.20 42.40 -9.60 48 -16 3.20 -4 6.80 -4.80 9.60 -2.40 7.20 6 43.20 15.20 63.20 16 10.40 0.40 26 3.60 34 7.20 17.20 7.20 80 17.20 88 14.40 3.20 -1.20 8 -6.80 10.80 -12.80 5.20 -10 4.80 -11.20 -12.40 -29.60 -9.60 -10.40 -17.20 -22 -16.40 -25.60 0.80 -3.60 7.60 -10.40 15.20 -14.80 12.80 -7.60 20.40 -8.40 92 -8.40 71.20 0 79.60 0.80 98 8.80 24 10.40 72 12.80 156.40 7.60 52.80 -3.20 58 -2.80 83.60 5.60 28.80 9.60 42 10.40 139.60 7.20 26.40 -0.80 68.80 0.40 94 2 43.20 3.20 48 2.80 68 -5.60 l21.60 -8.80 48.40 7.20 c26.80 4 56.40 7.60 66.40 7.60 15.60 0.40 18 -0.80 19.20 -8.80 1.20 -7.20 -1.60 -10.40 -12.80 -14.80 -7.60 -3.20 -16.80 -6 -20 -6 -3.20 0 -10.80 -4.80 -16.80 -10.80 -10.40 -10.40 -10.40 -10.80 -4.80 -30.80 l5.20 -20.40 32 -8.80 c17.60 -4.80 41.60 -12 53.20 -16.40 23.20 -9.20 36.40 -7.60 56.40 6.80 19.20 14 37.60 10 61.60 -12.80 12 -11.20 14.80 -16.80 14.80 -29.20 0 -8.80 1.60 -18 3.60 -21.20 3.60 -6 22.40 -17.60 58.40 -36.80 13.20 -6.80 26.40 -16 29.20 -20 6.80 -10 26 -19.60 37.60 -19.60 5.20 0 26.40 -5.20 47.20 -11.60 20.80 -6.40 42.40 -12.40 48 -12.80 12 -1.20 28 3.60 28 8.40 0 1.60 -7.60 12.40 -16.80 24 -41.60 50 -43.60 58.80 -21.20 82.80 18.40 19.20 18.40 31.60 0 49.20 -16.80 16.40 -18 28 -5.60 68.40 9.60 32 7.60 42.40 -14 66.80 -10 11.20 -11.20 15.20 -8 24 4.40 12.40 12.40 15.60 107.60 38.40 67.20 16.40 131.20 28.40 170 32.40 14.40 1.20 46 6 70 10.40 135.60 24 130 23.20 164 18.40 36 -4.80 64.40 -5.20 166 -0.80 68.80 2.80 70.80 2.80 103.60 -7.60 18.80 -6 47.60 -12.80 64 -14.80 16.80 -2.40 52 -9.60 78.40 -16 26.40 -6.40 53.20 -11.60 59.20 -11.60 6.40 0 25.20 -6 42 -13.60 17.20 -7.20 38 -14.40 46.40 -16 8.80 -1.60 27.60 -8.80 42 -16.40 15.20 -7.60 39.20 -15.20 56.40 -18 22 -3.60 37.60 -9.60 58 -21.60 38 -22.40 48 -25.60 76 -26 13.20 -0.40 34 -3.20 46 -6.40 12 -3.60 36.80 -8 55.20 -10 20 -2 41.60 -7.60 54.40 -13.20 38 -17.60 91.20 -30.80 123.20 -30.80 54.80 0 157.20 -8 177.20 -14 11.20 -3.20 26.80 -10.40 34.80 -16 18.80 -12.80 27.60 -12.80 47.20 0.40 8.80 6 24.40 11.60 35.20 13.20 10.40 1.20 88.80 1.60 174.40 1.20 154.80 -1.20 156 -1.20 185.20 -11.60 28.80 -10 29.60 -10 58.40 -4 15.60 3.60 52.40 7.60 80.80 8.80 49.60 2.40 82.40 4.80 98.80 8 44 8.80 168.80 1.20 221.20 -12.80 13.20 -3.60 32.80 -8.80 44 -11.60 16.80 -4.80 23.20 -4.80 42.40 0.40 22.80 5.60 22.80 5.60 45.60 -6.80 l22.40 -12 30.80 10.40 c32.80 10.80 87.20 22.40 106.80 22.40 7.20 0 20.40 -6 34 -15.60 23.60 -16.40 52.80 -25.20 130 -38.40 20 -3.20 45.60 -8.80 57.60 -11.60 12 -3.60 29.20 -4.80 40 -3.60 13.20 1.20 24.40 -0.40 39.60 -6.40 11.60 -4.80 24.80 -8.40 29.60 -8.40 4.80 0 18 -5.20 29.60 -12 16.80 -9.60 29.60 -12.80 60.40 -16.40 50.40 -5.60 76 -2.40 113.60 14.80 48 21.60 123.60 32.80 219.60 33.60 25.20 0 51.60 0.80 58 2 6.80 0.80 33.20 2.80 59.60 4 40.40 2 50.40 4 68 12.80 11.20 5.60 35.60 14.40 54.40 19.20 18.80 5.20 42 12 52 15.60 9.60 4 21.20 5.60 26 4.40 4.40 -1.60 25.20 -4 46 -6 34.40 -2.80 40.80 -4.40 66.80 -19.60 19.60 -11.60 36.40 -18 54 -20.80 42 -6.80 51.60 -11.60 59.60 -30.40 4 -9.60 9.60 -17.20 12.40 -17.60 2.80 0 27.60 -0.40 55.20 -0.80 27.60 -0.40 62.80 -3.20 78.40 -6.40 28 -5.20 28.80 -5.20 53.20 6 14 6 30.80 10.80 37.60 10.80 7.20 -0.40 42.80 -2 79.20 -4 l66.80 -3.20 17.60 -16.80 c28.80 -26 30.40 -26.40 63.60 -14.80 25.60 8.80 33.60 10 57.60 7.20 15.60 -1.20 43.20 -2.80 62 -3.60 18.80 -0.40 43.20 -2 54.40 -3.60 19.20 -3.20 23.60 -2 56 12.80 21.20 9.60 44.80 16.80 57.60 18.40 12 1.20 28.80 4.40 37.20 6.80 20 5.60 41.20 1.60 76.40 -13.60 34 -14.40 75.20 -16.80 98 -5.20 7.20 4 23.60 8 36 9.20 12.40 0.80 34 5.60 47.60 10 32.80 10.40 95.60 8.40 122 -4.40 22 -10.40 26 -10.80 45.60 -4.40 14.40 4.40 20 4.40 41.20 -1.60 30 -8.40 62 -6 101.60 8 36.80 12.80 52 12.40 80 -2.80 22 -12 24.40 -12.40 68.40 -12 34.40 0.40 48.80 -0.80 57.60 -5.60 16.40 -8.40 37.20 -7.60 53.20 1.60 15.20 9.20 117.20 21.60 230.40 28.80 64.40 4 70.80 5.20 91.60 16 12 6.40 25.20 11.60 28.80 11.60 4 0 17.60 3.60 30.80 8 20 6.80 34 8.40 89.60 8.40 51.20 0.40 72.40 2 94 8 15.60 4 45.20 9.20 66 11.60 52.40 5.60 76.80 11.20 102.40 22.40 27.20 12 59.20 17.20 133.60 21.60 44 2.80 68.40 6.40 101.60 15.60 65.60 18.40 74.40 27.20 49.60 51.20 -15.20 14.40 -20 16 -57.60 20.80 -30.80 4 -86.80 24.40 -100 36.80 -4.80 4.40 -14.80 11.20 -22 15.20 -7.60 4 -17.20 13.60 -21.60 21.60 -7.20 13.60 -7.60 15.60 -2 25.60 7.60 13.60 33.20 28.40 54.40 30.80 8.80 1.20 27.20 -0.80 43.60 -5.20 24.40 -6.80 40.40 -7.60 122 -6.40 102.80 0.80 185.60 7.20 220.40 16 32.80 8.80 48.40 7.60 58.80 -3.20 8 -8.80 8.80 -13.60 10 -88.80 0.40 -44 1.20 40 2 187.20 l0.80 266.80 -5400 0 -5400 0 0 -184.40z"/>
  <path d="M3290 4355.60 c-13.20 -4.40 -27.60 -9.60 -32 -11.60 -4.40 -2 -18 -8 -30 -13.20 -23.20 -10 -53.60 -39.20 -65.60 -62.40 -7.20 -13.60 -24 -68.80 -28.40 -93.60 -2.40 -12.40 -1.20 -17.60 8 -30.80 9.20 -13.20 11.20 -20.40 10.80 -39.20 0 -27.20 8.80 -54 23.60 -71.60 11.60 -13.60 21.20 -39.60 16.80 -46.40 -1.60 -2.40 -3.20 -8.80 -3.60 -14.40 -0.40 -5.60 -2 -18.40 -3.20 -28.40 -1.60 -12.40 0.40 -26 6.40 -43.60 7.20 -22 7.60 -28.40 4 -44.80 -5.20 -22.40 -2.80 -31.60 19.60 -73.60 28 -52.40 38.40 -93.20 36 -142 -1.20 -22 8.40 -83.60 19.60 -124 4.80 -16.40 10 -52.40 12 -80 2 -27.60 5.60 -56 8.40 -63.60 3.20 -8.80 4 -28 2.40 -56.80 -2 -37.20 -3.60 -46.40 -12.40 -61.20 -12.80 -22 -42.80 -44.80 -88.80 -67.60 -47.20 -23.60 -71.60 -46 -81.60 -74.80 -4 -12 -16.80 -38 -28 -57.60 -11.20 -19.60 -29.20 -53.60 -40 -76 -10.80 -22 -27.60 -50.40 -37.60 -62.40 -32.40 -39.20 -38.40 -49.60 -39.20 -68.40 -0.80 -14 1.60 -21.20 10 -32 12.40 -16.40 14 -34 4.40 -52 -12.40 -24.40 4.40 -61.20 56.40 -121.20 41.60 -48.80 43.20 -52.80 40.80 -104.40 -1.60 -28.80 -9.60 -49.60 -32.40 -83.60 -8 -11.20 -9.60 -16.40 -6.40 -20.40 3.60 -4.40 8.40 -4 26 0.80 28.80 8.40 39.20 4.80 54.40 -18 19.60 -28.80 35.60 -44.40 51.20 -49.20 15.20 -4.40 21.20 -6.80 45.60 -17.60 12.40 -5.20 17.60 -5.60 28.80 -2 7.60 2.40 15.60 7.60 17.60 11.20 2.80 5.20 4.80 5.60 9.20 1.60 3.20 -2.40 15.60 -5.60 28 -7.20 20 -2.40 24 -1.60 36 7.60 21.60 16.40 35.60 21.60 65.20 24.80 42 4.40 54.40 4 74.80 -2 17.20 -5.20 21.60 -4.80 40 1.20 11.60 3.60 24.80 7.60 29.60 8.80 4.40 1.20 13.60 10 20.40 19.20 6.40 9.60 20.80 22.80 31.20 29.20 10.40 6.40 34 25.60 52.40 42.40 36.40 33.60 36.40 33.60 93.20 36.80 27.20 1.20 38 4 59.60 14.80 32 15.60 62.40 45.60 66.40 64.40 1.20 7.20 7.20 20 12.80 28.40 5.60 8.40 12.40 24.40 14.80 35.60 3.60 16 8.40 23.20 20.80 33.20 18 14.80 37.20 22 56.40 22 18 0 65.20 18 77.60 29.60 20.80 19.60 47.60 27.60 114.80 34.40 42 4 48.80 7.20 87.60 37.20 17.60 13.60 36 24.40 49.60 28.40 28 8.40 38.80 19.20 46.40 45.60 11.60 39.20 1.20 68.80 -38.40 111.60 -12.80 13.60 -29.60 34.40 -38 46 -8 11.60 -20.40 28.80 -27.60 37.60 -12.80 16.40 -13.20 17.60 -15.60 66 -3.60 72.40 -25.20 135.60 -67.60 198.80 -13.60 20 -33.20 30.80 -62.80 34.40 -31.60 4 -104.40 36 -126.40 55.20 -24.40 21.60 -27.20 28 -30 66 -2.40 32.80 -2.40 32.80 -24 58 -11.60 14 -35.60 39.60 -52.80 56.80 -17.60 17.20 -36.40 38 -41.60 46 -48.40 70.80 -50 72 -102.40 73.20 -47.60 1.60 -51.20 4 -39.60 28 12 25.20 10.80 40 -4.40 57.60 -17.20 19.60 -38.80 28.40 -83.20 35.20 -41.20 6 -55.60 14 -62 33.60 -2.40 6.80 -8.80 17.20 -14 22.80 -8.40 8.80 -12.80 10.40 -31.20 9.60 -16.80 -0.80 -22.80 0.80 -29.20 7.20 -8 7.60 -8 8.80 -2 20.40 7.20 14 8.40 27.20 2.40 30.80 -2 1.20 -8.80 12.40 -14.80 24 -12 25.20 -17.60 31.20 -41.60 43.20 -11.60 5.60 -18.80 12.80 -21.60 20 -3.20 10.40 -2 12.80 17.20 30.40 11.60 10.40 20.80 20.40 20.80 22.40 0 1.60 -18.40 21.60 -40.80 44 -22 22.80 -42.40 45.20 -45.20 50 -5.60 10.40 -1.60 37.20 7.60 54.80 6.40 12.40 30.80 36.40 47.60 46.80 8.40 5.20 10.80 9.60 10 17.60 -0.80 8.40 -4.40 11.60 -17.20 15.20 -24.80 7.60 -64.80 6.40 -92 -2.80z"/>
  <path d="M10433.20 4095.60 c-14.40 -4.40 -25.20 -17.20 -25.20 -30.40 0 -11.60 30.40 -34.40 74 -56.40 30.40 -15.20 49.20 -31.60 76 -66.80 11.60 -15.60 38.80 -18.40 52 -6 5.60 5.20 10 12.40 10 15.60 0 10 -29.20 44.80 -54.40 64.40 -12.80 10 -30.80 28.80 -39.60 42 -24.40 34.40 -58.40 48.40 -92.80 37.60z"/>
  <path d="M9784 3998.80 c-5.20 -2.80 -14.80 -12 -20.80 -20.80 -24.40 -35.60 -17.60 -51.20 20.40 -47.60 14 1.60 26.40 0.80 31.60 -2 11.20 -6 19.60 -2 27.20 12.40 15.60 30.40 -27.60 74 -58.40 58z"/>
  <path d="M10658.80 3930 c-3.20 -3.20 -12 -18 -19.20 -32.40 -12.40 -26 -12.80 -27.20 -6.40 -39.20 6.80 -12.40 10 -27.20 10.40 -47.20 0.40 -6.40 2.80 -11.20 5.60 -11.20 2.80 0 16.40 8.40 30.40 18.40 16.40 12 28.80 18 35.60 17.60 17.60 -1.20 20.40 -0.40 24.80 7.60 3.20 6.40 0.80 11.60 -15.20 31.20 -10.40 12.80 -23.60 30 -28.80 38 -5.60 8 -14 16.80 -19.20 18.80 -11.60 5.60 -11.20 5.60 -18 -1.60z"/>
  <path d="M9760.80 3855.60 c-16.40 -7.60 -18.40 -7.60 -38.80 -2 -20 6 -23.60 6 -58 -2 -40.80 -9.60 -55.60 -18.80 -68.80 -44.80 -11.60 -22.80 -34.80 -50 -45.20 -52.40 -5.20 -1.20 -11.60 -8.80 -16.40 -19.20 -9.20 -20.40 -22.40 -24.40 -37.20 -11.20 -9.60 8 -26.80 10.40 -34.40 4.80 -2.40 -1.60 -10.80 -11.60 -18.80 -22.80 -19.60 -27.20 -34 -36.80 -72 -48.40 -40.40 -12 -76.80 -12.40 -112.40 -1.60 -14.40 4.40 -38.80 9.60 -54 11.60 -31.20 4 -56.80 14 -83.20 33.20 -18 12.80 -20 13.20 -67.20 15.20 -46 2 -50 3.20 -82.40 18 -38.80 18.40 -63.60 20.80 -90 8 -21.60 -10.80 -25.60 -23.20 -16.40 -50.80 l7.20 -21.20 -12.40 -37.20 c-6.80 -20.40 -12.40 -39.20 -12.40 -42 0 -2.40 -7.60 -20.80 -16.40 -40.80 -14 -31.20 -16.40 -41.60 -19.20 -76.40 -4 -54 0 -91.20 11.20 -103.20 18.80 -20 66.80 -46 96 -52.40 16 -3.20 32 -7.60 35.60 -9.60 3.60 -2 17.60 -5.60 30.80 -8.40 13.20 -3.20 28.40 -7.60 34 -10.40 16 -8 34.80 -30 42.40 -49.60 8.80 -22.80 19.60 -35.20 38 -43.60 8.40 -3.60 24 -17.60 35.60 -31.60 22 -26 47.60 -44 65.20 -45.60 5.60 -0.40 22 5.20 36 12.80 l26 13.60 14.40 -10.80 c8 -6.40 14.40 -13.60 14.40 -16.80 0 -2.80 6.40 -13.60 14 -23.60 7.60 -10.40 14 -22 14 -26 0 -8 10.40 -12.40 29.60 -12.40 6.40 0 18.40 -2 26.80 -4.40 12.40 -4 19.20 -3.60 36.40 2 11.60 3.60 32.40 7.20 46.40 8.40 13.60 0.80 26.80 2.80 28.80 4 7.60 4.40 4.40 37.60 -4.40 49.60 -5.60 7.60 -7.60 15.60 -6.80 24.80 0.80 11.60 4.80 16 23.20 28.40 32.40 22 100.80 57.20 108 56 22.40 -5.20 35.60 -38.40 40 -104 4.80 -64.80 8.80 -76.80 26 -76.80 12 0 15.20 4.80 27.60 40 8.80 25.60 13.60 32.80 32.40 50 17.60 16 23.60 24.80 30 44 26.40 82 34 94.40 64 110 17.60 8.80 48 38 48 45.60 0 3.20 8.40 14.40 18.40 24.80 10 10.80 26.80 29.60 36.80 41.60 10.40 12 24.80 28 32.80 35.60 19.60 18.40 28 32.40 28 46 0 6 2.80 22.40 6.40 36 8.40 31.60 8 45.60 -4.40 92.40 -11.20 43.60 -13.60 48.40 -35.20 75.60 -18.40 24 -53.20 91.20 -56.80 111.20 -3.60 20 -20.40 34.80 -42.40 37.60 -9.60 1.60 -29.20 8.80 -43.20 16 -29.20 15.60 -32 15.60 -55.60 5.20z"/>
  <path d="M5986 3737.20 c-10.80 -2.80 -26.40 -15.60 -34.80 -28.40 -4.80 -7.20 -7.20 -18.40 -7.20 -34 0 -17.60 -2.40 -26.80 -10 -38.80 -5.60 -8.80 -14.80 -26.40 -20 -38.80 -5.60 -12.40 -18.40 -32.80 -28.40 -44.80 -10 -12.40 -21.60 -28.80 -25.60 -36.40 -7.20 -14.40 -21.60 -82 -25.20 -118.40 -2.40 -20.40 -33.60 -86.40 -59.60 -124.40 -14.40 -21.60 -23.20 -46 -23.20 -65.20 0 -15.20 19.20 -87.60 27.20 -102.40 2 -4 10.40 -17.20 18.40 -29.20 16.80 -24.80 18.80 -44.80 6.40 -72 -5.20 -10.80 -8 -26 -8 -40.80 0 -16.40 -3.20 -30 -10.40 -46.40 -5.60 -12.80 -13.60 -32.80 -18 -44.40 -8.80 -25.60 -17.60 -38.40 -52.40 -76 -43.60 -47.20 -44.80 -51.20 -29.20 -130.80 3.60 -17.60 7.20 -37.20 8.40 -44 2.80 -15.60 -11.20 -36.80 -32.40 -48.80 -14 -8 -19.60 -8.80 -46.80 -6.40 l-30.80 2.40 -12 -13.60 c-47.20 -52 -40.40 -47.60 -71.20 -47.60 -32 0 -69.20 9.60 -117.20 30 -30.80 12.80 -36 14 -56 11.20 -43.60 -6 -96.40 -3.20 -120 6 -41.20 16.40 -52.80 12.80 -118.80 -35.20 -22 -16.40 -47.60 -34.80 -56.40 -41.20 -11.60 -8 -19.60 -18.40 -28.80 -37.20 -13.20 -28 -41.60 -61.60 -68 -79.60 -21.60 -14.80 -34.40 -36 -37.60 -62 -1.60 -12 -4 -28.80 -5.20 -36.80 -1.20 -10 1.20 -22.40 8 -40 18 -45.20 20 -65.20 11.60 -101.60 -4.40 -17.20 -11.20 -40 -15.20 -50.40 l-7.20 -18.80 15.20 -28.80 c8.40 -16 22.40 -38.40 30.80 -49.60 8.40 -11.20 18 -26.80 21.60 -35.20 3.20 -8 17.20 -27.60 30.40 -43.20 18.80 -21.60 30.40 -31.20 49.60 -40.40 47.20 -22.40 70 -48.80 70 -81.20 0 -30 23.60 -63.60 56 -80 20 -10 43.60 -33.60 54.40 -54.40 6 -12.40 6 -14 0 -25.60 -9.20 -16.40 -26 -26 -46 -26 -19.20 0 -33.20 -11.20 -42.80 -34 -7.20 -18 -7.20 -34 0.80 -54.40 5.20 -12.80 6 -23.60 4 -52 -2.80 -34.80 -2.40 -36 8 -46 l10.40 -10.80 78.40 2.80 c43.60 1.60 82.80 4 87.20 4.80 13.20 3.20 33.60 -9.20 40 -24.40 16.80 -40.40 -7.60 -83.20 -57.60 -102 -15.20 -6 -19.20 -9.20 -20 -18 -1.60 -14 4.40 -18 28 -18 11.20 0 26.80 -4 40 -10 11.60 -5.60 27.20 -10 34.40 -10 18.40 0 38 -9.20 49.20 -22.80 5.60 -7.20 22.40 -17.20 40.80 -25.20 19.20 -8.40 42 -22.80 58.40 -36.80 28 -23.20 62.40 -39.20 86.40 -39.20 15.20 -0.40 29.60 -8.40 36 -20.40 4 -7.20 4 -12 -0.40 -24.80 -8.40 -24 -7.20 -36 5.60 -47.60 24.80 -23.20 56.80 -20.80 56.80 4.80 0 16 12 24.80 32.40 23.20 15.60 -1.20 17.60 -2.40 21.20 -14.40 4.40 -15.60 1.60 -22 -24.80 -54.80 -26.80 -33.20 -32 -34.40 -70.80 -16 -41.20 19.60 -65.20 20.80 -90 4.40 -18.40 -12.40 -35.60 -44 -38.80 -72.80 -2 -14 -0.40 -18.40 10.40 -30.40 6.80 -8 18.40 -16.40 25.20 -19.60 7.20 -2.80 27.60 -11.60 45.20 -19.60 17.60 -8 40.40 -16.80 51.20 -19.60 21.60 -5.20 58.40 -31.60 82.80 -59.60 9.20 -10.40 26.40 -24 38 -30.80 12 -6.80 28.40 -20.80 37.60 -32.80 18.80 -24 23.60 -27.20 48.40 -30.80 10 -1.60 31.60 -9.20 48 -17.60 26.80 -13.20 33.60 -14.80 62 -15.20 18.40 -0.40 44.80 -4 62 -8.80 45.20 -12.40 80 -16.40 142 -16.40 63.60 0.40 82.80 3.60 114 19.20 12.40 6.40 32 12.80 44 14.40 12 1.60 31.20 5.20 42 8 11.20 3.20 37.20 7.20 58.40 9.60 20.80 2.40 48.80 8 62 12.40 12.80 4.80 39.60 12.80 59.20 18 39.60 10.80 50.40 18 50.40 34.40 0 15.60 8.80 19.20 49.20 19.20 32.40 0 34.40 -0.40 40.80 -10.40 4.80 -6.80 6 -14.80 4.80 -24 -2 -12 -0.80 -14.40 10.40 -21.20 22.40 -13.60 29.60 -11.20 41.60 15.60 6.80 14.80 14 24.80 19.20 26 4.80 1.60 19.20 -2.80 36 -10.80 15.60 -7.20 36.80 -17.20 47.60 -22 11.20 -5.20 37.20 -11.60 62 -14.80 23.60 -3.20 45.60 -6.80 49.20 -8 4 -1.60 18.80 0.40 33.20 4 14.40 3.60 27.60 5.60 29.20 4.40 1.60 -0.80 17.20 -2.80 34.80 -4.40 17.60 -1.20 39.20 -4 47.60 -6 8.80 -2 27.60 -2.40 42.40 -1.20 24.80 2 26.80 1.60 28.80 -6 1.20 -4.80 8.80 -11.20 17.60 -14.80 20.40 -8.80 82.80 -6 125.60 5.60 16.40 4.80 36.40 8.40 44.40 8.40 8 0 20 2.80 26.80 6.40 12 6 20.80 4.80 20.80 -2 0 -2 -7.20 -11.20 -16 -20.80 -25.60 -28 -25.20 -29.60 34.80 -77.20 39.20 -31.60 55.60 -36.80 85.60 -27.20 26.40 8.40 30.80 17.60 33.20 67.20 0.80 24.40 4 45.20 8 54.40 8.80 20.40 8 26.40 -4 44 -12.80 18 -10.80 29.20 4.80 25.60 18.40 -4.80 41.60 -22.40 48.40 -36.40 6.40 -13.60 6.40 -14 -4 -25.20 -8.80 -9.20 -11.60 -17.20 -15.20 -44 -4.80 -36.40 -2 -46 18 -58.80 9.20 -6 10.80 -5.60 31.60 6 22.40 12.40 22.40 12.40 35.20 5.20 6.80 -4 17.20 -10 23.20 -13.20 7.20 -4 22.40 -6 48.80 -6 38.80 0 51.60 -4 51.60 -16.40 0 -12.80 18.80 -18 75.20 -21.60 59.20 -3.60 79.20 -9.20 97.20 -26.40 14 -13.60 62.80 -24.40 139.60 -32 14.40 -1.20 46 -6.80 70 -12.40 57.60 -13.60 75.60 -14.80 102.40 -7.60 34 8.80 96 0 130.40 -18.40 18.80 -10 25.20 -15.20 25.20 -21.60 0 -9.20 -6.80 -13.60 -21.20 -13.60 -11.60 0 -17.20 -4 -20.40 -14.80 -2.40 -7.60 -0.40 -9.20 17.60 -15.20 15.20 -5.20 26.80 -6 43.20 -4 35.20 4 40.80 6 40.80 14.40 0 4.40 4 9.20 9.60 11.60 5.60 2 12.40 8.40 15.60 14.40 4.40 8.40 13.20 13.60 39.20 22.80 31.60 11.20 37.60 12 97.60 12.80 82 1.20 110 7.20 116 25.60 2.80 9.60 -4.40 28.80 -14.40 36.40 -12 9.20 -6 18 17.60 26.40 16.40 6 26 7.20 44.80 4.80 28.80 -3.60 71.20 -0.80 104 6.80 61.20 14 110.40 16 138.40 5.60 12 -4.80 23.60 -10 26 -12 6 -4.80 32 -1.20 69.60 10.40 16.40 4.80 39.20 9.20 50 9.60 16 0.40 21.60 2.40 29.20 10.80 4.80 5.60 8.80 12.40 8.80 15.20 0 5.60 18 23.60 30.80 30 14.80 7.60 34.40 5.20 51.20 -6.40 9.60 -6.40 20.40 -10.40 28 -10 40.40 2.40 131.20 5.60 149.60 5.20 24.80 -0.40 48 -10 75.60 -32.40 33.60 -26.40 47.60 -29.60 78.80 -17.60 62 23.60 68.40 25.20 117.20 25.20 47.20 0.40 48.80 0.40 114.80 22.40 l66.80 22 34.40 -4 c48.80 -5.60 107.20 -4.80 131.20 1.60 11.20 2.80 31.20 12.80 44 21.60 l23.60 15.60 80 0.80 c44 0.40 84.40 0.80 90 1.20 5.60 0 22 -1.20 36.40 -2.80 24 -2.80 28 -2 44.40 7.60 10 5.60 21.20 10.40 24.80 10.40 4 0 14.80 -6.40 24.40 -14 l17.20 -14.40 67.20 2.80 c63.60 2 144.80 12 178.80 21.60 l14.80 4.40 0 61.20 0 61.60 -10.80 2.80 c-23.20 5.60 -36.40 27.20 -23.20 38 7.60 6.40 7.60 21.60 0 28 -4 3.60 -16 4.80 -33.20 4.40 -14.80 -0.40 -32 0.80 -38 3.20 -6 2.40 -28 8.80 -48.80 14.40 -21.20 5.60 -58.40 19.20 -83.20 30.40 -36.80 16.40 -47.60 19.60 -60.80 18 -53.60 -6.80 -62 -6.80 -74.40 -2.80 -7.60 2.40 -30.80 6 -51.60 8.40 -75.60 8.40 -113.20 41.60 -91.20 80.80 l8.40 14.80 -11.60 14.40 c-6.40 8 -15.20 20.80 -19.60 28 -12.40 20.40 -21.20 28.80 -33.20 31.20 -6.40 1.60 -29.60 20.80 -58.40 48.80 -26 25.20 -50.40 46 -54 46 -12.80 0 -22.80 -17.60 -33.60 -58 -15.20 -56 -16.40 -63.60 -11.20 -79.20 7.60 -22.80 39.60 -52 70.40 -64.40 14.80 -6 38 -18.40 51.60 -27.60 28.80 -19.60 40 -26.40 72.40 -43.20 22.80 -11.60 54 -37.60 54 -44.40 0 -6 -26 -3.20 -36 3.60 -16 11.20 -48 25.20 -57.60 25.20 -5.20 0 -17.20 -5.20 -26.80 -12 -22.40 -15.20 -37.60 -18 -64.40 -12.40 -23.60 5.20 -82 38.80 -85.20 48.80 -1.20 3.60 -9.60 11.60 -18.40 18 -23.20 16 -56 17.60 -97.60 5.20 -28.40 -8.40 -33.20 -8.80 -59.60 -4.40 -15.60 2.80 -62.40 4.80 -104.40 4.40 -86.40 -0.40 -92 0.80 -140 31.60 -15.20 10 -38.80 24.40 -52 32 -13.20 7.60 -34.40 22 -47.20 31.60 -12.40 9.20 -24.80 17.20 -26.80 17.20 -6 0 -17.20 19.20 -14.80 25.60 1.20 2.80 7.20 6.80 13.60 8 6 1.60 14.80 6.40 19.60 10.80 8 7.20 10.40 7.60 37.20 3.20 25.20 -4.40 30.40 -4 44 2.40 8.80 3.60 19.60 11.20 24 16.40 10 11.60 26 12.40 35.20 1.60 15.20 -17.60 31.60 -3.60 36 30.40 1.20 10.80 6.80 30.80 12 44.40 l10 25.20 -8.40 13.60 c-10.40 16.80 -26 27.20 -37.60 25.60 -8 -1.20 -8.80 -4 -10.80 -38 -1.60 -31.20 -3.20 -38.40 -10.80 -46 -17.60 -17.20 -36.80 4.80 -37.20 42.80 -0.40 22 -10.40 40.80 -38.40 72.80 -61.60 69.60 -128.80 129.60 -156.40 138.80 -13.20 4.40 -26 5.60 -45.20 4 -24.40 -2.40 -28.40 -1.60 -45.60 8.40 -11.20 6.80 -26.40 21.20 -37.60 36.40 -10.40 14 -22 26.40 -25.60 27.60 -11.60 4 -31.20 24.80 -31.20 33.20 0 4.80 7.60 16.80 16.80 27.60 28.80 33.20 37.20 61.60 25.60 84.80 -8.40 15.60 -16.40 21.20 -42 29.20 -43.60 13.60 -48.80 8.80 -45.60 -38.40 l2.40 -33.60 -20.80 -20.80 c-12.80 -12.80 -20.40 -24 -20.40 -29.60 0 -5.20 -3.60 -14 -8.40 -20 -9.60 -12.40 -31.20 -14 -54.40 -4.40 -7.60 3.20 -18.40 6 -23.60 6 -8 0 -9.60 -2 -9.60 -11.20 0 -14 -10 -28.80 -19.60 -28.80 -4 0 -22 10 -40 22 -18 11.60 -36.40 22.80 -40.80 24 -6.40 2 -8 5.60 -6.80 17.20 1.20 13.60 3.20 16 22.80 25.60 15.20 8 23.20 10 28.40 7.20 8.80 -4.80 36.80 -6.40 43.20 -2.40 2.80 1.60 4.80 7.20 4.80 12 0 6.80 -6.40 13.20 -25.20 25.60 -14 8.80 -27.60 20.80 -30.40 26 -6 11.20 -2.80 19.20 16.40 42.80 6 7.60 11.20 14.80 11.20 16.40 0 1.60 6.40 13.20 14 26 9.60 15.60 14 27.60 13.60 35.60 -0.40 6.80 2 22.80 6 36 8.40 28.40 6.80 33.60 -27.60 76 -12.40 15.60 -28 38 -34.40 50.40 -20 37.20 -84.40 85.60 -129.60 97.20 -15.60 4 -44.80 13.20 -65.20 20.80 -20.40 7.60 -40 13.60 -44 13.60 -4 0 -13.20 4.40 -20.80 10 -17.20 12.80 -33.60 12.80 -52 0 -12.40 -8.80 -16 -9.20 -28.80 -6 -20 5.60 -61.20 36.80 -69.60 52.40 -12.40 24 -3.20 41.60 49.20 95.60 34.80 36.40 45.20 58 48 99.60 2.80 42.40 -2.80 50.80 -58 84 -8.80 5.20 -24 16.40 -33.60 24.80 -9.20 8.80 -18.80 15.60 -20.80 15.60 -3.60 0 -29.20 -24.40 -77.20 -72.80 -14.40 -15.20 -28 -27.20 -30 -27.20 -2 0 -10 -4.80 -17.60 -10.40 -13.20 -10 -24.80 -10.80 -35.60 -2.80 -5.60 4.40 -26 65.20 -26 78 0 11.60 29.20 72.40 41.60 86.80 4.80 5.20 18.40 16 30.80 24.80 37.20 25.20 51.60 48 51.60 82.40 0 6.80 3.60 20.40 7.60 30.40 9.60 22.40 10.80 34 5.20 47.60 -6 14 -3.60 41.20 5.20 62.40 7.60 18 22.80 29.20 49.60 34.80 l13.20 2.80 -2.40 22.80 c-7.20 70 -12 84.40 -27.60 84.40 -28.80 0 -113.60 -74.80 -133.20 -117.20 -5.60 -13.20 -19.20 -34.80 -30 -48.80 -10.40 -13.60 -21.60 -31.60 -25.20 -39.20 -3.20 -7.60 -25.60 -34.80 -50 -60 -55.20 -56.80 -58.40 -70.40 -16 -64.80 18 2.40 24 6.40 54.40 33.60 42.80 38.40 63.60 52.40 78 52.40 14.40 0 14.40 -6.40 -0.40 -33.20 -6.40 -11.20 -16.40 -36.40 -22 -55.60 -9.60 -31.60 -18 -46.40 -39.20 -68 -18.40 -18.80 -19.60 -23.20 -19.60 -97.20 0 -59.20 -1.60 -74.80 -7.60 -91.60 -4 -11.20 -9.60 -30.40 -12 -42.80 -6.80 -35.20 -26 -46 -50.40 -28.40 -18.40 13.60 -31.60 14.80 -41.60 4.80 -7.60 -7.60 -8.40 -12 -6.80 -27.60 2.80 -23.20 -8.40 -47.20 -39.20 -84.40 -12 -14.40 -26.40 -34.40 -32 -44.80 -14.40 -27.20 -21.20 -29.60 -53.60 -19.60 -14.40 4.40 -37.20 8.80 -50.40 10 -32 2.40 -34.40 4 -50.40 25.20 -7.60 10 -22.40 24 -33.60 30.80 -10.80 7.20 -26.40 18.80 -34 26 -40 37.20 -91.60 80 -102.80 86 -7.20 3.60 -17.60 12.80 -23.60 20.40 -9.60 12.80 -10.40 15.60 -8 40.80 2 19.60 1.20 32.80 -3.20 47.20 -3.60 11.20 -6.40 24.80 -6.40 30.40 0 20.80 -11.20 42 -35.20 66 -13.20 13.60 -28 25.60 -32.40 26.80 -14 3.60 -29.60 -13.20 -40 -44 -5.20 -14.80 -16.40 -40 -25.20 -56 -8.40 -15.60 -18.40 -38.40 -21.60 -50 -3.60 -11.60 -13.60 -34.80 -22 -52 -16.80 -33.60 -35.60 -107.20 -35.60 -140 0 -10.80 -2.80 -25.20 -6.40 -32 -5.60 -10.80 -7.60 -11.60 -18.80 -9.20 -36.80 7.60 -44.80 7.20 -58 -4 -7.20 -6 -12.80 -14.40 -12.80 -18.40 0 -4.40 -4 -13.20 -8.40 -19.60 -5.20 -6.40 -7.60 -14.40 -6 -18 1.60 -4.80 -2.80 -8.80 -18.80 -16 -11.20 -4.80 -31.20 -18.40 -44 -29.60 -12.80 -11.20 -26.40 -20.40 -30 -20.80 -14.80 -0.80 -78.40 1.20 -86.40 2.80 -16.40 3.20 -52.80 2.40 -86.40 -2 -18.80 -2.80 -41.20 -5.60 -50.40 -6.80 -10.80 -1.20 -24 -7.60 -39.60 -19.60 l-24 -17.60 -36 2 c-38.80 2.40 -42 1.60 -82.80 -21.60 -21.20 -12.40 -35.20 -26 -58.40 -56.80 -14 -18 -30.40 -25.60 -45.60 -20.40 -28.80 10 -30.40 30.40 -4 64.40 10.40 13.60 22.80 30.40 28 37.20 5.20 7.20 16 17.20 24 22.80 8 5.60 19.60 19.20 25.20 30 12 23.20 24 31.20 38.40 25.60 5.20 -2 14 -3.60 19.60 -3.60 13.60 0 37.20 -12.80 51.20 -27.60 14 -14.40 24 -15.60 33.60 -3.60 23.60 29.20 33.60 37.60 52 44.40 29.20 10 44.80 26 44.80 46 0 13.60 -2.80 18.40 -18 34 -10 9.60 -26 28.80 -35.20 42 -22.80 32.40 -75.60 73.20 -102.80 79.20 -25.20 5.60 -43.60 14.80 -62.80 31.60 -14 12.40 -30 21.60 -48 27.60 -15.20 5.20 -35.60 13.60 -45.20 18.40 -28.40 14.40 -132.40 48.40 -151.20 49.20 -10 0.40 -18.80 3.20 -21.20 6.80 -9.20 14.40 7.20 47.20 28.40 56 10.40 4.40 18.80 3.60 55.20 -4 23.60 -4.80 57.20 -11.20 74.80 -14 17.60 -2.80 37.20 -7.20 43.20 -10.40 9.60 -4.40 12.40 -4 22 3.20 8.80 6.40 10.40 10.80 9.60 21.60 -2.40 21.20 -14 51.20 -31.20 79.60 -8.80 14.40 -22.80 39.60 -31.20 56 -8.40 16.40 -20 36.40 -25.60 44 -20.80 28.40 -59.60 65.60 -88.80 85.20 -55.20 37.20 -141.60 132.40 -164 180.80 -18.80 40 -20.80 50.80 -14 78 2.80 12 5.20 32 5.20 44 0.40 17.60 3.60 28 15.20 50 14 26.40 15.20 30.80 18.40 80 2 28.80 3.60 58 3.20 65.60 -0.80 28.40 -23.20 54.40 -65.20 74.80 -26.40 12.80 -52.80 32.80 -89.60 68 -20 18.80 -21.20 27.60 -9.20 61.60 4.40 12.40 7.60 32.80 8 46.80 0 20.80 -1.60 26.40 -10.80 37.20 -5.60 6.80 -20 16.80 -31.60 22 -24.40 10.80 -37.60 28.40 -37.60 49.60 0 21.60 -8 42 -24.40 62.80 -8.80 10.80 -25.60 32.40 -37.60 47.60 -22 28.80 -48.40 53.60 -84 79.20 -26.40 18.80 -70 30.80 -112 30.80 -18.40 0 -52 4.40 -80 10 -26.40 5.60 -48.80 9.60 -50 9.60 -1.20 -0.40 -5.60 -1.60 -10 -2.40z m411.20 -973.20 c10.40 -8.40 26.80 -36.40 26.80 -46 0 -10.40 -15.20 -22 -29.20 -22 -16.80 0 -30 9.60 -37.20 26.40 -7.60 18.40 -7.20 26.80 2.80 39.20 9.60 12.40 22.80 13.20 36.80 2.40z m293.60 -470.40 c2.40 -6.40 -7.60 -67.60 -15.20 -91.20 -6.40 -20.40 -51.60 -87.20 -76 -112.40 -21.20 -22 -23.60 -26.40 -29.20 -53.60 -5.60 -26.40 -8.40 -31.60 -29.20 -55.20 -26 -29.20 -25.60 -28.40 -48.40 -67.20 -18 -30.80 -37.60 -51.60 -52 -56 -11.60 -3.60 -24.80 7.60 -24.80 20.80 0 9.20 18.40 49.60 32 69.20 3.60 5.60 10.80 20.40 16 33.20 4.80 12.80 17.60 34 28 47.20 19.20 23.60 20.40 27.20 26.40 71.60 2.40 20.40 5.60 26 30 54.80 9.60 11.20 20.80 29.20 24.40 40 7.20 20 21.60 37.60 51.20 61.20 9.60 7.60 25.20 20.80 34.80 29.20 19.20 16 28 18.40 32 8.40z m-701.20 -512 c3.60 -3.20 8.40 -13.60 10.80 -22.80 4.80 -19.20 9.60 -26.40 23.60 -36 14.40 -10 45.60 -8.80 70 2.40 19.60 9.20 47.60 17.20 118 34.80 53.20 13.20 56.40 13.20 83.20 4.40 29.20 -10 45.60 -10.40 77.60 -2.40 42.80 11.20 57.20 0.80 85.60 -62 19.20 -43.20 22.40 -72.80 9.60 -88.80 -4.80 -6.40 -11.20 -11.20 -14.80 -11.20 -12.80 0 -38 9.60 -47.20 18.40 -5.60 5.20 -10.80 7.20 -12.40 5.20 -3.60 -6 -45.20 -23.60 -55.20 -23.60 -5.20 0 -17.20 2.80 -27.20 6 -16.80 6 -20 6 -49.60 -2 -26.40 -7.20 -33.60 -10.80 -43.60 -23.20 -14.40 -17.20 -24.40 -40.40 -28 -66 -4 -25.20 -20.80 -40.40 -42 -37.60 -20.80 2.80 -45.20 15.60 -50.80 26.40 -4 8.80 -3.20 12 7.20 26 6.40 8.80 11.60 18.80 11.60 22.40 0 7.60 -18.40 28 -34 38.40 -10 6.40 -10.80 6.40 -21.20 -1.20 -9.20 -6.80 -37.20 -43.60 -68.80 -91.20 -4.40 -6.80 -8 -18.80 -8 -27.60 0 -23.20 -20.40 -41.20 -68.80 -60 -28.80 -11.60 -45.20 -20.80 -64 -37.20 -40.40 -34.40 -58.40 -42 -70.80 -29.60 -4.80 4.80 -8.40 11.20 -8.40 14.40 0 3.20 14 20.40 31.20 38.40 25.20 26.80 36.80 35.60 64 48.40 46 22.40 52.40 34.40 38 70 -7.20 16.80 -17.20 26 -17.20 15.60 0 -11.20 -42.80 -45.60 -78.40 -62.40 -45.60 -22 -69.60 -39.20 -100.40 -71.20 -24 -25.20 -24.80 -26 -40.80 -23.60 -9.20 1.20 -30.40 8.40 -47.20 16.40 -32.80 15.60 -39.60 16.80 -73.60 9.60 -30 -6 -39.60 -1.20 -54 27.60 -12.80 25.20 -13.60 26 -39.60 35.60 -30 11.20 -51.60 34.40 -58 62.80 -9.60 40.80 -46.40 67.60 -99.20 72.40 -33.20 2.80 -48.80 10.80 -48.80 24.80 0 15.20 18 21.60 60 21.60 34.40 0 38.80 -0.80 78.40 -18.40 58.80 -25.20 123.20 -34.80 233.60 -33.60 12 0 31.60 -2 43.20 -4.40 28 -5.60 42.80 -2 52.40 13.60 9.60 16 11.20 36 4.40 57.60 -4.40 14.80 -4.40 18 1.60 26.80 10 15.20 33.20 25.60 66.80 28.80 37.60 3.60 40.80 4.80 68 27.20 17.60 14.40 27.60 19.20 45.20 22.80 12.40 2 32 8.40 43.60 13.60 24.40 11.60 35.60 12.40 44.40 3.60z m1004.40 -187.20 c7.20 -3.20 15.60 -9.60 18 -14.80 7.20 -12.80 2.40 -50.40 -7.60 -64 -4.80 -6.40 -8.40 -12.80 -8.40 -14.80 0 -2 7.20 -11.20 16 -20.40 8.80 -8.80 16 -18 16 -20 0 -5.20 -10.40 -12.80 -31.60 -22.40 -10.40 -4.80 -29.20 -18.40 -41.60 -30.40 -18.80 -17.60 -22.80 -23.60 -22.80 -34.40 0 -11.20 2.40 -14 16.40 -21.60 12.40 -6 22 -8 38.80 -6.80 21.60 1.20 22.80 0.80 26.40 -10 3.60 -10 2.80 -12.40 -7.60 -21.20 -32.40 -27.20 -65.60 -28.80 -117.60 -5.60 -19.60 8.80 -37.20 16 -39.20 16 -1.60 0 -10 5.60 -18.40 12.40 -12 9.60 -14.80 14.80 -14.80 26 0 21.20 18 56.80 44 85.60 28.40 32.40 31.60 43.60 18 69.60 -13.20 26 -12.80 34.40 3.20 49.20 28.40 27.20 82 40.40 112.80 27.60z m-694 -126.80 c18.80 -2 45.60 -8.80 60 -14.80 38 -15.60 80.80 -14.80 130.40 2.40 33.20 11.60 41.20 12.80 83.60 12.80 l46.80 0 13.60 -13.60 c12.40 -12.40 13.20 -14.80 8.80 -24.40 -3.20 -7.20 -20.40 -19.60 -52.80 -39.20 -26.80 -15.60 -51.60 -30.80 -55.20 -34 -9.20 -8 -9.20 -20 0.40 -34.40 9.60 -14.40 5.60 -24.40 -10 -27.60 -14 -2.40 -58 9.60 -61.60 17.20 -20 43.20 -22 46 -34.80 47.20 -14.80 1.60 -29.20 -4.80 -29.20 -13.20 0 -8 -37.20 -36.80 -51.60 -40 -7.20 -1.60 -16 -0.40 -23.20 3.60 -23.60 12.40 -75.20 76 -85.60 105.60 -3.20 9.20 -2.80 14.80 0.80 21.60 2.80 5.20 4.80 14 4.40 20 -0.80 10 2.80 13.20 17.20 14.80 2.40 0 19.60 -1.60 38 -4z m909.60 -85.20 c7.20 -3.20 16.40 -9.60 20 -14.80 8.40 -12 8.40 -41.20 0 -49.20 -15.20 -15.60 -35.60 -11.60 -61.20 12 -20 18 -22 32.80 -6 47.60 12.40 11.20 27.20 12.80 47.20 4.40z m-1330 -312.80 c36.80 -11.20 49.60 -12.40 84.40 -8 38.80 5.20 62.80 -10.80 68.40 -45.60 4 -25.20 24.40 -52 40 -52 7.20 0 11.20 2.40 12.80 8 2 8 18.80 14.40 28.40 10.80 12 -4.80 14.80 -17.20 6.40 -28 -4.40 -5.60 -8 -13.20 -8 -16.80 0 -12.80 -33.20 -34 -53.60 -34 -14.40 0 -30 -8 -32.40 -16.80 -1.60 -4.40 0.80 -11.60 6 -18 7.20 -9.60 8.40 -14.40 6 -31.20 -3.20 -26.40 5.20 -37.60 36.80 -49.20 28.40 -10.40 61.20 -30.80 61.20 -38 0 -12.80 -10.80 -20.40 -28 -20 -28.40 1.20 -42.80 8.40 -64.80 33.20 -16.40 17.60 -25.20 24.40 -39.20 28 -28 7.60 -53.20 22 -69.20 39.60 -22 24.40 -19.20 36 13.20 56 12.80 8 20 15.20 20 20 0 9.20 -18 24.40 -28.40 24.40 -9.20 0 -31.20 23.20 -34 36 -6.80 30 -17.20 42.40 -40 46.40 -6.40 1.20 -20.80 6.40 -32 12 -11.20 5.20 -25.60 9.60 -32 9.20 -12.40 -1.20 -37.60 10 -37.60 16.40 0 2.40 3.20 4 7.20 4 4 0 8.80 1.60 11.20 4 5.20 5.20 45.20 19.20 55.20 19.60 4.40 0.40 23.20 -4.40 42 -10z m357.20 -153.20 c1.60 -1.60 1.60 -8 0 -14.40 -2.80 -10.40 -5.20 -12 -17.20 -12 -11.20 0 -13.20 1.20 -12.40 7.60 0.80 4 -0.80 9.20 -4 11.20 -4 2.80 -3.60 4.40 2.40 9.20 7.20 5.60 24.40 4.80 31.20 -1.60z m131.20 -28.40 c6.40 -12.40 1.60 -22.40 -14.80 -30 -20.40 -10 -34.80 -4.40 -36.40 13.20 -1.20 11.20 0.40 13.60 12 18.80 19.20 8.40 34 7.60 39.20 -2z m101.20 -41.60 c1.20 -4.40 -12 -12.80 -15.20 -10 -1.20 1.60 -1.20 5.60 0.40 9.20 2.80 6.80 13.20 7.60 14.80 0.80z m49.20 -82 c6.40 -2.40 22.80 -4.80 36.40 -5.60 19.60 -1.60 28.40 -4.40 39.60 -12.80 l14.80 -11.20 -8.80 -7.20 c-8.40 -6.80 -21.60 -9.20 -80.40 -13.60 -16.40 -1.20 -33.20 -3.20 -37.20 -4.40 -10.80 -3.20 -33.60 1.60 -40.40 8.80 -5.20 5.20 -4.80 8 6 23.60 6.80 10 15.20 19.60 18.80 22 8.80 4.80 36.40 5.20 51.20 0.40z"/>
  <path d="M5816.80 1585.60 c-4.80 -3.20 -8.80 -10.40 -8.80 -15.60 0 -12.80 18.40 -17.20 35.60 -8.40 17.60 9.20 18.40 13.20 3.60 22.40 -16 9.60 -18.80 9.60 -30.40 1.60z"/>
  <path d="M5656 1510 c-4.40 -8 -4.40 -12.80 0 -25.60 8.40 -26.40 10.80 -28 22 -15.20 13.60 15.20 16.40 28.80 8.40 40.80 -8.80 13.20 -23.20 13.20 -30.40 0z"/>
  <path d="M6737.20 3456.40 c-15.60 -10 -22 -22 -31.20 -59.60 -7.60 -31.60 -6.40 -42 7.60 -64 16.80 -27.20 19.20 -40.40 12.40 -70.40 -4.80 -20 -5.20 -30.40 -2 -41.60 4.40 -18 24.40 -38 43.60 -44.40 29.60 -10 48 -24.40 72.40 -58 25.20 -34.40 29.60 -38.40 42.40 -36.80 18.80 2.40 31.20 58 19.60 89.60 -3.60 10.40 -10.80 34 -15.60 52.80 -11.20 41.60 -60.80 194.40 -67.60 207.60 -12.80 25.60 -58.40 39.20 -81.60 24.80z"/>
  <path d="M9834 2997.60 c-6.40 -3.60 -22.40 -17.20 -34.80 -30 -24.80 -26 -46.40 -37.60 -62.80 -33.60 -5.60 1.60 -20 11.60 -31.60 22.80 -21.20 20 -21.20 20 -44.40 18.40 -17.20 -1.20 -28.40 -4.80 -44.80 -15.20 -17.20 -10.40 -25.60 -13.20 -40.40 -12.80 -24.40 0.40 -30.40 -8 -23.20 -33.20 3.60 -13.20 3.60 -19.20 0 -26.40 -7.20 -14 -20.40 -27.60 -33.20 -34 -17.60 -9.20 -87.20 -34 -104.80 -37.20 -22.40 -4 -34 -11.20 -34 -20.80 0 -9.20 -22.40 -43.60 -28 -43.60 -4.80 0 -17.20 -28.40 -13.60 -31.60 1.20 -1.20 15.60 -2.80 32 -3.60 28.80 -1.60 30 -1.20 41.20 10.80 6.40 6.80 12.80 18.80 14.40 26.80 3.20 17.20 21.60 37.60 33.60 37.60 4.80 0 15.20 -6.40 23.20 -14.40 8.40 -7.60 20.40 -16.80 26.80 -20.40 15.20 -8 41.60 -8 56.80 0 6.80 3.60 24.80 10 40 14.40 45.20 12.80 116.40 39.20 134.40 50.40 9.60 5.60 26 18.80 36.80 29.60 10.80 11.20 24 20.80 28.80 22 9.60 2.40 17.60 22 17.60 43.20 0 10.40 27.60 42.40 57.20 66.40 6.40 5.20 10.80 11.20 9.60 14 -2.40 7.60 -42.80 7.60 -56.80 0.40z"/>
  <path d="M8737.60 2947.60 c-9.20 -1.60 -26.40 -6 -38 -9.20 -11.60 -3.60 -29.20 -6.40 -39.60 -6.40 -24.40 0 -57.60 -10 -69.60 -21.20 -12.80 -11.60 -17.20 -29.60 -7.60 -31.60 12.40 -2.80 46.40 4.80 70.80 15.20 21.20 9.60 26.40 10.40 56.80 7.60 30 -2.40 36.80 -1.60 64.80 7.60 17.60 6 34.80 13.20 38.80 16 6.80 4.80 6.80 5.60 -0.80 13.20 -9.60 9.60 -47.20 13.60 -75.60 8.80z"/>
  <path d="M9049.60 2832.40 c-8.80 -11.20 -18.40 -20 -22 -20.40 -6 0 -17.60 19.60 -17.60 30 0 2.40 -6 4.40 -13.60 5.20 -12 1.20 -13.20 0.40 -11.20 -7.20 1.20 -4.40 -2.40 -19.20 -7.60 -32.40 l-10 -24.40 7.60 -22.40 c4 -12.80 11.60 -25.20 17.20 -29.60 8.80 -6.40 11.20 -6.40 27.60 -1.60 10 2.80 23.60 4.40 30.80 3.60 14.80 -2.40 18.80 6.40 10.40 23.60 -5.60 12 -2.80 24 10.80 42.80 4 6.40 8 19.60 8.80 30.80 1.20 17.60 0.40 19.60 -7.20 20.80 -6.40 0.80 -12.80 -4 -24 -18.80z"/>
  <path d="M8839.60 2812.40 c-5.60 -2 -13.60 -5.20 -18 -7.60 -4 -2 -21.20 -5.20 -37.60 -6.40 -31.20 -2.40 -49.20 -6.40 -63.20 -14 -11.60 -6 -47.60 -74.80 -50.80 -97.20 -2.40 -16.80 -1.60 -20 7.20 -28.80 7.20 -7.20 14.80 -10.40 24.40 -10.40 10 0 18.80 -4 31.20 -14 9.60 -7.60 25.20 -18 35.20 -22.40 9.60 -4.80 26.80 -17.20 38 -27.60 10.80 -10.40 28 -24.40 38 -31.20 10 -6.80 26.80 -21.20 37.60 -32.40 24.40 -25.60 34 -26 57.20 -4.80 20.80 19.60 25.20 33.60 14.40 45.60 -24 27.20 -27.20 53.60 -10 78 7.20 10 8 13.60 4.40 26 -2 8 -5.60 15.60 -8 16.80 -2 1.60 -8.80 12.80 -15.20 25.20 -6.40 12.40 -16 31.60 -22 42.40 -5.60 10.80 -10.40 24.80 -10.40 30.80 0 14 -20 35.60 -32.80 35.20 -4.80 0 -14 -1.60 -19.60 -3.20z"/>
  <path d="M9121.60 2495.20 c-10.40 -13.60 -18.80 -26.80 -18.80 -29.20 -0.40 -18.80 1.20 -20.80 17.60 -23.20 10.40 -1.20 20.80 -6.40 27.60 -12.80 29.60 -28 56.80 16.80 36 58.40 -8 14.80 -28 31.60 -38.80 31.60 -2.40 0 -13.20 -11.20 -23.60 -24.80z"/>
  <path d="M7808.80 2510 c-11.60 -8.40 -15.60 -25.60 -12.80 -54.80 4 -38.80 22.40 -42 42.80 -7.20 16 26.80 17.20 44.40 3.20 58 -11.20 11.60 -20.40 12.40 -33.20 4z"/>
  <path d="M2929.60 2456.40 c-20 -10.40 -43.20 -24.40 -51.20 -31.60 -8 -7.20 -16.40 -12.80 -18.40 -12.80 -1.60 0 -8.80 -4.80 -15.60 -10.40 -10 -8.40 -12.40 -13.60 -12.40 -25.60 0 -12 -2.40 -17.20 -10.80 -24 -6.40 -4.40 -20 -15.60 -31.20 -24.40 -21.60 -17.20 -29.60 -20.40 -97.20 -40 -42 -12 -46.80 -14.40 -78 -40.40 -19.20 -16 -38 -28 -45.60 -29.60 -7.20 -1.20 -24.80 0.80 -40.80 4.80 -28 7.20 -28.40 7.20 -53.20 -1.20 -56.80 -19.60 -94 -34 -114.80 -45.20 -12.40 -6.40 -30.40 -14.40 -40 -18 -22.40 -7.60 -71.20 -40 -77.20 -51.20 -2.80 -4.80 -6 -22.40 -7.20 -38.80 -3.20 -38.40 -14 -55.20 -65.20 -100 -20 -17.60 -44.80 -43.20 -54.80 -56.40 -10 -13.20 -32.80 -36.80 -51.20 -52.40 -26.80 -23.20 -35.20 -32.80 -45.20 -54.80 -14 -29.20 -29.60 -48.40 -39.60 -48.40 -8.80 0 -20 12.80 -20 22.80 0 10.40 20 38 36.40 50 6.80 5.20 16.80 17.20 22.40 27.20 5.20 10 16.80 28 25.60 40 8.80 12 21.60 33.60 28.40 48 6.80 14.40 13.20 27.60 14.40 29.60 4 6.80 -29.20 -2.40 -38 -10.40 -4.80 -4.80 -11.20 -14.80 -13.60 -22.80 -7.20 -22 -14.40 -30.40 -33.60 -40.40 -24.80 -12.80 -30.80 -20.80 -33.20 -44.40 -1.60 -18.40 -4 -22.40 -21.20 -38.80 -16.80 -15.60 -59.60 -82 -59.60 -92 0 -1.60 -7.60 -10.80 -16.80 -19.60 -16.80 -16.40 -46.80 -32.80 -59.60 -33.20 -11.20 0 -41.60 -30.40 -62.80 -62.80 -11.20 -17.20 -27.60 -40.40 -36.80 -52 -24.40 -31.60 -36 -56 -36 -76.40 0 -10 -2 -29.60 -4.80 -43.60 -3.60 -20.40 -3.60 -29.60 0.40 -44.40 8.80 -31.20 10 -80 2.80 -106.40 -7.60 -28.80 -23.20 -46.40 -54.80 -62.40 -38 -19.60 -59.60 -42.40 -59.60 -63.60 0 -10.80 -18.80 -31.60 -43.20 -48.40 -11.20 -7.60 -25.20 -21.60 -31.20 -31.20 -17.60 -27.60 -27.60 -33.60 -51.20 -30.80 -20 2.40 -20.40 2.40 -39.20 -16.40 -10.80 -10.40 -19.20 -20.40 -19.20 -22 0 -1.60 -10.80 -8 -24 -14 -14 -6 -28 -16 -33.60 -23.60 -28.80 -37.60 -146 -78 -226 -78 -12.40 0 -40 -3.60 -61.20 -8 -36 -7.60 -39.60 -8 -55.60 -2 -29.20 10.80 -48 16.80 -79.20 26.40 -33.20 9.60 -30.80 10.40 -48.40 -16 l-6.40 -9.60 -16.40 8.40 c-16 8.40 -41.20 37.20 -41.20 47.60 0 2.80 6.80 6.40 16 7.60 20 3.20 24.80 14 11.60 28 -10 10.80 -31.60 13.60 -31.60 3.60 0 -8 -11.60 -13.60 -30.40 -14.40 -16.80 -1.20 -25.60 2.80 -91.60 38.40 -33.60 18 -62 27.20 -62 20.40 0 -5.60 24 -26.80 36.40 -32 26 -10.80 43.20 -38.80 30.40 -49.60 -5.60 -4.80 -50.40 -9.60 -81.60 -8.80 -19.20 0.40 -22.40 -0.80 -39.20 -16.40 -15.60 -14.40 -22 -17.60 -42.40 -20.40 -22.40 -2.80 -60.40 -18.40 -65.60 -26.80 -1.20 -2.40 -2.40 -10.40 -2.80 -18.40 -0.80 -22 25.60 -45.60 51.60 -46.40 19.20 -0.40 64.40 -13.60 73.20 -21.60 9.20 -8.40 10.40 -16 3.20 -20.80 -2.80 -1.60 -32.40 -2.40 -66 -1.60 -52.80 0.80 -62.80 0 -78 -6.80 -9.60 -4 -19.60 -10.40 -22.80 -14 -4.40 -5.60 -3.60 -8 6.40 -18 9.20 -9.20 18 -12.80 40.80 -17.20 26 -4.40 31.60 -4.40 48.40 1.60 27.60 9.60 32 8.80 32 -5.20 0 -8.80 -2 -12 -6.80 -12 -4 0 -21.60 -7.20 -38.80 -16 -17.20 -8.80 -34 -16 -36.80 -16 -6.80 0 -7.20 -16.80 -0.80 -23.20 2.80 -2.80 10.80 -4.80 18 -4.80 16 0 36.40 -8 61.20 -24 26.80 -17.20 78 -27.20 195.20 -38.80 12.40 -1.20 33.20 0.80 50 4.40 34.80 7.20 86 11.60 126.40 10.80 16.40 -0.40 41.60 0.80 56 3.20 39.60 6 89.20 9.60 138.40 10.40 24.40 0.40 49.20 2.80 55.20 5.20 6.40 2.80 29.60 6.40 52 8.80 22.40 2 52.40 7.20 66 12 32 10 42.80 10 73.20 0 17.60 -6 33.20 -8 55.20 -7.60 22.40 0.40 37.20 -1.60 55.60 -8 19.20 -6.40 33.60 -8.40 58 -8 22 0.40 39.60 -1.60 52.80 -6 l20 -6.80 24.40 12.80 c23.60 12.80 25.20 12.80 40.80 8 10 -3.20 20.40 -4.40 27.60 -2.40 11.20 3.20 29.60 3.60 73.60 2 12.40 -0.40 32.40 2 44 5.20 12 3.20 37.20 8 56.40 10.80 33.20 4.40 35.60 4.40 50.80 -4.40 9.20 -4.80 16.40 -10.40 16.40 -12 0 -1.60 -6.40 -6.80 -14 -11.60 -7.60 -4.80 -13.60 -10.40 -12.80 -12.80 0.40 -2.40 -5.60 -8.80 -13.20 -14 -8 -5.60 -15.20 -14.80 -17.20 -21.20 -2 -8.40 -6.80 -12.80 -16.80 -16 -12.80 -4 -16 -3.20 -39.60 10 -17.20 9.60 -35.20 16 -52.80 18.80 -24.80 3.60 -28.80 3.20 -54.40 -6.80 -20 -8 -28.80 -13.60 -33.20 -22 -5.20 -10 -4.80 -11.60 1.60 -18 4.40 -3.60 10 -12 12.40 -18.40 8.80 -20.80 28 -28.80 69.60 -28.80 67.20 -0.40 152.80 7.20 163.60 14.40 5.60 3.60 22.80 10 38.40 14.40 15.60 4.40 30 8.80 32 10.40 6.80 4 76.40 11.20 118.40 12 22 0.40 45.60 2.40 52 4 10 2 14.80 0.40 27.20 -9.60 14 -10.80 49.20 -24.40 64 -24.40 9.20 0 23.60 20.40 21.20 30 -3.20 12.40 12 40 28.80 51.20 8 5.60 26.80 16 42 23.20 42.40 20.80 34.80 31.60 -22.80 31.60 -13.20 0 -27.20 2 -30.40 4 -5.20 3.60 -4.40 5.20 4 12 22 18 32 20.80 80.80 22.80 66.80 2.80 72 1.20 81.20 -21.20 9.60 -23.60 22.40 -33.60 44 -33.60 20 0 28 -7.60 31.20 -29.60 1.60 -10 7.20 -20.40 14.80 -28.40 11.20 -11.20 12.40 -15.20 11.60 -33.60 -0.80 -11.60 0.80 -22.40 3.60 -25.20 6.40 -6.40 6 -21.20 -0.80 -26.80 -2.80 -2.40 -6.40 -14.80 -8 -27.20 -2 -17.60 -1.20 -24 3.60 -29.60 6 -6.40 6 -7.20 -1.60 -9.60 -9.60 -2.80 -40.40 -36.80 -40.40 -44.40 0 -3.60 4.80 -5.60 13.60 -5.60 17.20 0 26.40 3.60 26.40 9.60 0 4.40 28.40 20.40 50 28.40 6.80 2.40 6 4 -8 10 l-15.60 7.60 11.20 4.80 c10 4.80 10.80 6.80 10 24.80 -1.20 18.80 -0.80 19.60 16.40 31.20 18.40 12.40 30.80 14.40 40.80 6.40 11.20 -9.20 11.20 -17.60 -1.20 -29.20 -6.40 -6 -11.60 -14 -11.60 -17.60 0 -10.40 17.20 -24 38 -30.40 24.80 -7.20 22.40 -7.60 40 6.40 8.40 6.80 20 12 25.60 12 5.60 0 13.20 1.60 16.40 4 3.60 2.40 6.80 2 8.80 -1.20 1.60 -2.80 4.80 -5.20 7.20 -5.20 2 -0.40 6.40 -0.80 9.20 -1.20 2.40 -0.40 -1.20 -4.40 -8 -8.80 -7.20 -4.80 -13.20 -9.60 -13.20 -11.20 0 -1.60 4.40 -7.20 10 -12.40 5.60 -5.20 10 -11.60 10 -14.40 0 -11.20 -33.60 -13.20 -60.40 -3.20 -25.20 9.60 -38.80 7.60 -82.40 -12 -21.60 -9.60 -52.40 -21.60 -68.40 -26.80 -23.60 -7.60 -29.60 -11.20 -31.60 -18.80 -2.80 -12 3.60 -18.40 28.80 -26.80 30 -10 56.80 -11.60 82 -4 38 11.20 42.80 11.60 58 2 7.60 -4.80 14 -10.80 14 -13.20 0 -9.20 17.20 -15.60 45.60 -17.20 15.60 -0.80 34.80 -3.20 42.40 -5.60 7.60 -2 33.60 -4 58 -4 24.40 0 50.40 -2 58 -4 23.20 -6.80 59.60 -11.60 110 -14.80 66 -4 241.20 -4 302 0 27.60 2 72 4 98.80 4.80 27.20 0.80 50.80 2.40 52.80 3.60 2 1.20 2.80 6 1.60 10 -1.20 5.20 1.20 10 8.40 14.40 5.60 4 10.40 9.20 10.40 12.40 0 2.80 2 6.40 4.40 7.60 6.40 4 23.60 -1.60 23.60 -7.60 0 -8 11.20 -10.40 74 -15.20 52.80 -4.40 108.80 -5.60 164 -3.60 13.20 0.40 38.40 0 56 -0.80 174.80 -10 192.40 -11.60 200 -16.40 14.40 -9.60 35.20 -12 90 -10.80 40.80 0.80 61.20 -0.80 84 -6 24.80 -6 49.60 -7.20 144 -7.20 128.40 -0.40 221.20 3.20 248.80 9.20 10.40 2.40 23.20 8.40 28 13.60 8.80 8.80 12 9.60 41.60 7.60 34.40 -2 45.60 2.80 45.60 19.20 0 9.60 21.60 13.60 46 8 13.60 -3.20 28 -2.80 50.40 0.40 26 3.60 34 3.60 50.40 -1.60 28 -9.20 54.40 -12 79.60 -8.80 20.80 2.40 22 3.20 20.80 12.80 -1.20 9.60 -4.40 11.20 -35.20 19.60 -18.80 4.80 -44.40 12.80 -56.80 17.20 -27.60 9.60 -48.80 29.20 -45.60 42 1.20 4.40 2.40 11.20 2.40 14.80 0 3.60 5.60 8.80 12 11.60 7.60 3.20 12 8 12 12.80 0 11.20 -11.20 31.20 -18 31.20 -10.80 0 -14.80 14.80 -8 28 6 12 6 12.40 -8.40 29.60 -8 9.60 -21.60 20.80 -30.40 24.80 -8.80 4 -22.40 12.80 -30 20 l-14 13.20 6.40 18.80 c12 36 7.60 44.40 -30.40 55.20 -12.80 3.60 -24.80 9.60 -26.80 13.60 -8.40 16 -111.60 38.80 -210.80 46.40 -31.20 2.80 -42.40 7.20 -69.20 27.20 -32.80 24.80 -83.20 43.60 -122.40 46 -50.40 2.80 -74.40 14.80 -90.40 45.60 -4 8 -14.40 21.60 -23.20 29.60 -8.80 8.40 -22.80 28.40 -30.40 44.40 -16.80 34 -36.80 53.60 -54.40 53.60 -6.40 0 -23.20 -4.80 -36.80 -10.40 -13.60 -6 -37.20 -12.40 -52.80 -14.40 -16 -2 -34.80 -7.60 -44 -13.20 -25.20 -14.40 -81.60 -66.80 -106.80 -98.80 -12.80 -16 -28 -35.20 -34 -42.80 -14.80 -18 -18.80 -51.60 -8.40 -67.60 10.80 -16.40 8.80 -23.60 -8.80 -34.80 -16.80 -10.40 -24.40 -27.20 -16.40 -35.20 6.80 -6.80 5.20 -18.80 -2.40 -21.60 -17.60 -6.40 -37.60 -27.60 -48.40 -50.80 -15.60 -32.80 -32.40 -51.60 -64.40 -70.40 -39.60 -23.60 -75.60 -29.60 -170.40 -28.40 -41.60 0.40 -86 1.20 -98 2 -27.20 1.20 -45.60 -3.60 -64 -15.60 -7.60 -5.20 -28 -15.20 -44.80 -22.40 -17.20 -6.80 -31.20 -14 -31.20 -15.20 0.40 -7.60 19.60 -24.40 30 -26 33.60 -5.20 75.20 -10.40 103.20 -12.80 25.20 -2 30.80 -3.60 30.80 -8.80 0 -4 5.60 -10 12.40 -14 15.20 -8.40 13.20 -16 -4.80 -19.60 -7.60 -1.60 -23.60 -4.80 -35.60 -7.20 -24 -5.20 -47.20 -0.80 -99.60 18.80 -14 5.20 -40 11.20 -58 13.60 -32.40 4 -56.40 14.80 -93.20 41.20 -7.20 5.20 -21.60 10.40 -32.40 12 -16.40 2 -24.40 6.40 -45.20 24.40 -14 12 -32.40 27.20 -40.80 34.40 -8 6.80 -16.40 18 -18 25.20 -2.80 11.20 -5.60 13.20 -26 18.40 -19.20 4.80 -22.80 7.20 -22.80 14.40 0 5.20 2.40 10.40 5.20 12.40 2.40 1.60 24.80 2.40 48.80 2 56.40 -0.80 80.40 4.80 140 32.80 36.40 16.80 54.40 22.80 74 24.80 14.40 1.60 36.40 6.80 49.20 12 12.40 5.60 35.60 12.40 50.80 15.60 39.20 8.40 58.40 18.80 63.60 34.80 8 24 25.20 38 56 44.80 15.20 3.60 35.60 10 45.60 14 10.40 4.40 24.80 9.20 32.80 10.80 17.60 3.20 34 15.60 34 25.60 0 9.60 -30 30.40 -52.80 37.60 -21.20 6.40 -35.20 2.80 -53.60 -13.20 -15.20 -13.60 -32.40 -16.40 -36.40 -6 -4 10.40 4 19.20 23.20 25.60 9.60 3.60 20.40 8 24 10 10.40 6.80 19.60 23.20 19.60 35.20 0 13.20 -10.80 18.80 -62 31.60 -28.40 7.20 -34.80 7.60 -56 3.20 -13.20 -2.80 -36 -7.20 -50.40 -10 -16 -2.80 -41.20 -12.40 -62.40 -23.20 -19.20 -10 -46.40 -22 -60 -26.40 -25.60 -8.80 -29.20 -8.40 -76.80 3.60 -9.60 2.40 -20 3.60 -22.40 2.40 -6.80 -2.40 -9.60 -19.20 -5.20 -30.40 3.20 -8.80 4.40 -9.20 38.40 -6.80 40 2.80 44.40 1.20 79.20 -31.60 23.20 -22 28 -32.40 20.40 -43.20 -4.40 -6 -11.20 -7.60 -34 -8 -26 0 -29.60 0.80 -40.40 11.20 -15.20 14.40 -32.40 13.60 -36.80 -2.40 -2 -8.40 -0.80 -12.40 6.80 -19.60 5.20 -4.80 9.60 -11.20 9.60 -14 0 -2.80 -10.40 -10 -22.80 -16 -21.20 -9.60 -28.40 -10.80 -76 -11.60 l-53.20 -1.20 -10 12 c-9.20 10.80 -10 14.40 -7.60 35.20 1.60 14 0.80 26 -2 31.20 -2.40 4.40 -16 14.80 -30.40 22.80 -34 18.80 -34 24.80 0 46.40 34.40 21.60 33.60 28.80 -2 31.60 -14.40 1.20 -31.60 5.20 -38.80 9.20 -16 8.80 -34.80 8.80 -49.20 0 -12.80 -7.60 -21.20 -22.80 -18 -33.20 1.20 -3.60 -0.80 -9.20 -4 -12 -5.20 -4.40 -9.60 -2.80 -27.20 8.80 -28 19.20 -27.60 18.80 -53.60 25.60 -12.80 3.20 -32.40 12.40 -43.20 20 -11.20 7.20 -24 13.60 -29.20 13.60 -15.20 0 -35.20 10.40 -44.40 23.60 -5.20 6.80 -14.40 15.20 -20.80 18.40 -13.60 7.20 -31.60 32.40 -31.60 44 0 10 16 26 35.60 36 7.20 3.60 22 15.60 32.40 26.40 18.40 19.20 19.60 19.60 42.40 19.60 28.40 0 72.40 11.20 99.60 24.80 29.60 15.20 84 30.80 118 33.60 24.40 2 32 4.40 41.20 12.80 6 5.60 10.80 13.20 10.80 16.80 0 8.40 14.80 35.60 26 48 4.80 5.60 10 13.20 11.20 17.20 3.60 9.20 29.20 20 41.20 17.20 21.20 -5.60 25.20 -25.20 13.20 -65.20 -4.80 -15.20 -4.40 -17.60 2.80 -25.60 4 -4.80 16.80 -12.40 27.60 -17.60 20.80 -9.20 50 -37.60 50 -48.40 0 -10.80 -12 -27.20 -28.40 -39.20 -20.80 -14.80 -24.40 -24.40 -16 -41.60 5.60 -11.20 6.40 -18 3.20 -40 -2.80 -23.20 -2.40 -28.40 5.20 -43.20 l8.40 -17.20 14.80 6.40 c10.80 4.80 26.80 6.40 60.40 6.40 48.80 -0.40 64.40 3.20 93.60 22 8 5.60 24.40 13.20 36 16.80 15.60 5.20 22 9.60 26.40 18.40 16.40 34.80 20.40 40 36.80 48.40 19.20 10.40 43.20 12 58.80 3.60 6 -3.20 18.80 -14 28.80 -24 27.20 -28.40 31.60 -26.80 84.40 26.80 24.40 24.40 46.80 49.60 49.60 55.20 10.40 20 47.20 46.40 74 52.80 14.40 3.60 72 42.80 80.40 54.80 6.40 8.80 6.80 13.20 3.20 36 -4.80 31.60 -5.20 41.20 -2 54 2.40 9.60 10.40 13.20 42.80 19.60 14.40 3.20 28 18 37.20 40.80 9.60 23.60 5.60 32 -14 30.40 -7.60 -0.80 -25.20 -2 -38.80 -2.80 -14 -0.80 -31.20 -3.20 -37.60 -5.60 -6.80 -2.40 -21.20 -4.40 -31.60 -4.40 -23.20 0 -37.60 -5.20 -43.20 -15.20 -3.20 -6.40 0 -13.20 19.60 -40 24.80 -33.60 27.20 -40 19.20 -48 -8 -8 -23.20 -5.60 -46.80 7.60 -16.80 9.60 -28.80 13.20 -48.40 14.40 -14.40 1.20 -35.20 5.60 -46.40 10 -19.60 8 -20.80 8 -46 0.80 -53.20 -14.80 -89.60 -10.40 -89.60 10.40 0 9.60 1.60 10 28 12 27.60 2 27.60 2 31.60 15.60 2.80 9.20 2.40 15.60 -0.80 20.80 -7.60 12.40 -5.60 21.20 8.80 35.20 9.20 8.80 20.40 14.40 36.80 18.40 32.80 8 46.80 7.20 63.20 -2.40 12.80 -7.60 14.80 -7.60 16.80 -2 4 10.40 -0.80 17.60 -14 20.40 -6.40 1.20 -18.40 7.60 -26.80 14 -8 6.40 -21.20 12.80 -29.20 14 -8 1.20 -27.60 8.80 -43.60 16.80 -32.40 16.40 -41.60 15.60 -44 -4.40 -2.40 -20 -16.40 -20.80 -64.40 -3.20 -23.20 8.80 -46.40 17.20 -51.20 18.40 -14 4.40 -29.20 25.20 -29.20 40 0 18 -15.60 30.80 -51.60 42 -32.40 10 -37.20 14 -72 60 -36.80 48 -36.40 48 -35.60 74.80 0.80 29.60 -4.80 40 -30.80 56 -88 54.40 -122.80 84 -129.20 110.40 -4 14.80 -3.20 20.80 5.60 45.20 25.60 70 29.60 83.60 29.60 97.60 0 9.60 -2.80 17.60 -7.20 21.60 -13.20 12 -23.60 8.40 -40.40 -14 -20 -27.20 -26 -40 -32 -68 -6.80 -32 -24 -47.20 -54 -47.20 -13.20 0 -28.80 -3.20 -40.40 -8.40 -15.20 -6.80 -24.80 -8 -49.60 -6.80 -26.40 1.20 -32.80 3.20 -49.20 14.40 -10.40 7.20 -20 14.80 -21.20 17.20 -3.60 5.60 -22.80 4.40 -42.40 -2.80 -10 -3.60 -32.40 -6.40 -51.60 -6.80 l-34 -0.80 -38.80 23.60 c-21.20 12.80 -42 28 -46 34 -4.40 6.80 -7.20 19.60 -8 36 -0.40 14 -3.60 35.20 -7.20 46.80 -3.20 11.60 -6.40 36.40 -6.40 54.80 -0.80 31.60 0.40 35.20 14.80 63.20 31.20 60.40 74.80 90.40 115.20 80 10 -2.40 22 -4.40 26.80 -4.40 5.20 0 16.80 -4 26.80 -8.40 14.80 -7.20 19.60 -12.80 30 -34.80 15.60 -32.40 25.20 -39.20 60 -44.80 49.20 -7.60 53.60 2 31.20 66.80 -8.80 26 -16.80 56.40 -18.40 68 -3.60 29.60 4 34 56.40 32.80 45.20 -1.20 63.20 3.60 79.60 20.40 12 12.80 12 13.20 2 79.60 -5.60 37.20 -3.20 50.40 12.80 70 21.20 25.60 44.80 38.40 72 38.40 22.80 0 23.20 0 23.20 11.20 0 12 -12.40 26.40 -26 30 -5.20 1.60 -21.60 -4.80 -44.40 -16.80z m29.60 -1011.60 c8.80 -5.60 1.20 -17.20 -10.80 -16 -14.40 1.60 -17.60 19.20 -3.60 19.20 5.20 0 11.60 -1.60 14.40 -3.20z m-156.80 -10.80 c8.80 -9.20 10 -12.40 7.60 -30 -2.80 -21.20 0.80 -31.20 17.20 -48.80 7.60 -8.40 9.20 -13.20 7.60 -22.80 -2 -9.20 -1.20 -12.40 3.20 -12.40 7.60 0 10.80 -6.40 12.40 -25.20 2 -20.40 -6.80 -30.80 -39.60 -47.60 -29.20 -14.40 -47.20 -15.20 -72.80 -2 -11.20 5.60 -29.60 14 -40.80 18.80 -17.20 7.20 -21.20 10.80 -21.20 18.40 0 15.60 16 20.40 39.20 12.40 24.40 -8.80 33.20 -8.40 57.60 2 27.20 11.60 32 24 15.60 40.80 -13.60 14 -25.20 54.80 -22.40 78.40 1.60 12.80 13.60 28 22.80 28 2 0 8 -4.40 13.60 -10z m161.20 -66 c13.60 -13.20 24.40 -25.60 24.40 -27.60 0 -8 -13.20 -13.20 -46.80 -18 -30 -4.80 -36.40 -4.80 -44 0 -11.20 7.20 -11.20 11.60 -0.80 36 18.40 42.40 32 44.40 67.20 9.60z m-484.40 -244.80 c1.20 -11.20 -19.60 -39.20 -29.60 -39.20 -6.80 0 -21.60 15.60 -21.60 22.80 0 7.60 32.40 29.60 42 28.40 5.20 -0.80 8.40 -4.80 9.20 -12z m-501.20 -254.80 c14.80 -5.20 20.40 -9.20 21.20 -16 2 -13.60 -6.40 -20.40 -24.80 -20.40 -13.60 0 -42.40 11.60 -42.40 17.20 0 0.80 2.80 7.20 6.40 14 7.20 14.40 11.60 15.20 39.60 5.20z m-166 -140.40 c9.20 -12 9.60 -12.40 2.80 -21.60 -3.60 -4.80 -12.40 -8 -25.60 -9.20 -20.40 -2 -34 2.80 -62.80 22.40 l-11.60 8 13.60 6 c9.20 4 23.60 6 44.80 5.20 28 -0.80 32 -2 38.80 -10.80z m1001.20 -74.40 c37.20 -33.20 30.40 -47.60 -28.80 -61.60 -18 -4.40 -41.20 -12.40 -52 -17.60 -39.20 -20 -36 -52.80 7.60 -75.60 18.40 -9.60 22 -13.20 22 -22 0 -20 -38.80 -21.20 -88.80 -2.40 -15.20 6 -16.80 7.60 -14.40 17.60 1.60 9.60 0.40 12.40 -9.20 17.20 -6.40 3.20 -20 6.80 -30 8.40 -10.40 1.60 -21.60 6 -25.60 10.40 -6 6.40 -6 8.40 -0.40 19.20 3.20 6.40 11.20 14.80 17.20 18.80 6 4 15.20 12 20.40 18 4.80 6.40 22.40 18.80 38.80 27.60 23.60 13.20 33.60 16.40 50 16.40 19.60 0 20.40 0.40 34 19.60 8 10.80 16.40 20.40 19.20 21.60 9.20 2.80 26 -3.60 40 -15.60z m-253.60 -5.60 c16 -13.60 14.40 -22.40 -4.80 -26 -26 -4.80 -38 9.60 -24.40 29.20 8 11.60 12.80 10.80 29.20 -3.20z m1290.40 -18.40 c6 -4.40 6.80 -7.20 3.60 -12.80 -5.20 -8 -20.80 -10.80 -29.60 -5.20 -4.80 3.20 -4.40 5.60 4 14 10.80 12 11.60 12 22 4z m-980 -133.60 c54 -8.80 54 -8.80 54 -22.80 l0 -10 -34.80 1.60 c-29.20 1.20 -39.60 3.20 -61.20 13.60 l-26 12.80 14 6.40 c7.60 3.60 17.60 5.20 22 4 4.40 -0.80 18.80 -3.60 32 -5.60z m-52 -74 c0 -11.60 -0.80 -12 -18 -12 -16 0 -18 1.20 -19.20 9.60 -2 12 5.20 16.80 23.20 15.60 12.80 -1.20 14 -2.40 14 -13.20z"/>
  <path d="M9082.40 2398 c-7.20 -6.80 -10.40 -13.60 -10.40 -23.20 0 -17.60 8 -20.80 20.40 -9.20 5.20 4.80 12.80 10 16.80 11.60 6.80 2.40 8.80 12.80 4.40 24.40 -3.60 9.60 -18.80 7.60 -31.20 -3.60z"/>
  <path d="M9132 2355.60 c-4.40 -10 -4.40 -13.20 0.80 -18 4.80 -4.80 8 -5.20 16.40 -1.20 12.80 5.60 14.40 19.60 2.80 22.40 -4.40 1.20 -8 3.60 -8 5.60 0 8 -7.20 2.80 -12 -8.80z"/>
  <path d="M9037.20 2301.20 c-2.80 -0.80 -5.20 -4.40 -5.20 -7.20 0 -2.80 -7.20 -16 -16.40 -29.60 -17.60 -26.40 -18 -29.60 -7.60 -70.40 6.80 -28.80 12.80 -38.80 25.20 -46 10.80 -5.60 11.60 -5.60 23.20 7.20 9.20 10 11.60 16.80 11.60 30 0 9.60 -2.80 20.80 -6 25.20 -11.60 14.80 -14.80 36.40 -8 49.60 3.60 6.80 5.60 15.60 4.40 19.20 -1.20 3.60 -2.40 8.80 -2.80 10.80 -0.40 5.20 -7.60 14 -11.20 13.60 -1.20 0 -4.80 -1.20 -7.20 -2.40z"/>
  <path d="M3222 2142.80 l-15.20 -13.20 14.80 -12.80 c12.40 -10.80 17.60 -12.80 35.60 -12.80 13.60 0 28 3.60 41.20 9.60 32.80 15.20 32 27.20 -2.80 36.40 -36.80 10 -56 8 -73.60 -7.20z"/>
  <path d="M8669.60 2138 c-7.20 -11.20 -5.20 -16.40 18 -40.80 17.60 -19.20 26.40 -16.40 30.80 10 2.40 15.20 1.60 17.60 -10.40 28.80 -15.60 14.80 -29.60 15.60 -38.40 2z"/>
  <path d="M3082 2092.40 c-8.80 -4 -18.40 -10 -21.60 -13.60 -2.80 -3.60 -10.40 -9.20 -16.80 -12.80 -6.40 -3.20 -16.80 -8.80 -23.20 -12 -6.40 -3.60 -29.60 -10 -51.20 -14.80 l-39.20 -8.80 10.40 -10.80 c17.60 -18.80 32.40 -18.40 81.60 0.80 24 9.20 53.20 22.80 65.60 30 12.40 7.20 30 16 39.60 19.60 16.40 6.80 19.20 11.20 14.40 23.60 -3.60 8.80 -39.20 8.40 -59.60 -1.20z"/>
  <path d="M9010 2012 c-6.80 -7.60 -6.80 -8.80 -0.40 -25.60 10.80 -28.80 29.20 -38.80 39.60 -22 3.20 4.80 2.40 12 -2.80 25.20 -11.60 30.40 -22.80 37.20 -36.40 22.40z"/>
  <path d="M9311.20 1747.20 c-21.60 -34.40 -16.40 -53.60 18.40 -68.80 11.60 -5.20 22.40 -12.40 23.60 -15.60 1.20 -3.60 10 -11.20 19.60 -17.20 14 -8.80 23.20 -11.20 55.60 -13.60 39.60 -2.40 46.40 -5.20 60.80 -23.20 8.40 -10 36.40 -25.60 40 -22 3.60 3.20 27.20 -12.40 43.60 -29.60 15.60 -16 27.20 -38.80 27.20 -53.20 0 -12.80 15.60 -44 21.60 -44 7.20 0 26 22 32.40 37.60 5.60 13.60 2.40 29.60 -8.80 44 -7.60 9.60 -11.20 19.60 -23.20 63.20 -6.80 25.20 -22 40.40 -44 44.40 -49.60 9.20 -71.60 15.60 -83.20 24.80 -12.40 9.20 -16 9.60 -37.60 7.60 -23.20 -2.40 -25.20 -2 -40.40 10.40 -11.20 8.80 -18.40 12 -24 10.40 -15.60 -5.20 -28.80 1.60 -37.60 19.20 -10.40 20.80 -22.80 34.40 -31.60 34.40 -3.60 0 -9.20 -4 -12.40 -8.80z"/>
  <path d="M9612.40 1432.40 c-3.60 -6 -2.40 -8.80 5.60 -14 5.60 -3.60 10 -8.80 10 -11.20 0 -2.40 4.40 -10.40 10 -17.60 5.60 -7.20 10 -15.60 10 -18.80 0 -6 10.80 -16.80 20 -19.60 3.20 -1.20 13.20 2.80 22 8.80 8.80 6 20.40 12 26 13.60 45.20 12.80 43.20 26.40 -7.60 50 -18.40 8.80 -22.80 9.60 -37.60 5.60 -18.80 -5.20 -36.40 -2.80 -43.20 5.20 -6.40 7.60 -10.40 7.20 -15.20 -2z"/>
  <path d="M9674.40 1294 c-8.40 -6.40 -6 -18 3.60 -18 4 0 6 4 6 12 0 13.60 0.40 13.60 -9.60 6z"/>
  <path d="M5273.20 1175.60 c-9.60 -4.80 -10.80 -12 -5.60 -25.60 2 -4.40 1.60 -12 -0.80 -16.80 -3.20 -7.60 -2 -10.40 8.80 -19.60 14.40 -12 26 -32 23.20 -39.20 -3.20 -8 -44 -27.20 -59.20 -27.60 -13.20 -0.80 -13.60 -0.40 -16 19.20 -4 30.80 -10.80 52 -18.80 59.20 -9.60 8.80 -62.80 26.80 -79.20 26.80 -6.80 0 -14.80 -2.40 -17.20 -5.60 -5.20 -6 -4 -50.40 1.60 -63.60 1.60 -3.60 15.60 -14.40 31.20 -23.60 25.60 -14.80 30.80 -16.40 57.60 -16.80 17.60 -0.40 28.80 -2 28.40 -4.40 -0.80 -2 -4.80 -14.40 -9.20 -27.20 -10.40 -31.60 -6.40 -41.60 22 -55.60 26.40 -13.20 40.40 -12 66.80 6 17.20 11.60 27.60 27.60 22.80 35.20 -6 9.60 5.60 26.80 42.80 63.60 22.40 22 45.60 44 52.40 48.40 24.40 17.60 22.40 44 -4.80 59.20 -14 7.60 -23.20 9.20 -76.80 10.80 -42 1.20 -64 0.40 -70 -2.80z"/>
  <path d="M1422 1100 c-3.20 -4.80 8 -9.60 14 -6 2 1.20 4 4 4 6.40 0 4.80 -14.80 4.80 -18 -0.40z"/>
  <path d="M4776.40 787.60 c-32.40 -8.40 -46 -15.20 -52.40 -27.60 -2.40 -4.40 -9.60 -10.80 -16 -14 -13.20 -6.80 -14.80 -11.60 -6.40 -20.40 3.20 -2.80 6.40 -7.60 7.20 -10 2.40 -7.20 21.20 -5.60 40.80 3.60 18.40 8.80 26 8.80 68.40 1.20 13.20 -2.40 32.80 -4.40 43.60 -4.40 10.80 0 30.40 -2 44 -4.40 22 -4 26.40 -3.60 43.60 4.40 34 15.20 39.20 37.20 11.60 49.20 -25.60 11.20 -111.60 30.80 -133.60 30.40 -11.60 0 -34.40 -3.60 -50.80 -8z"/>
  <path d="M167.60 762.40 c-10 -2.80 -28.80 -10 -41.60 -16 -14 -6.40 -30 -10.40 -41.20 -10.40 -10.40 0 -26 -2.80 -34.80 -6.40 -14.40 -5.20 -18.40 -5.60 -33.20 -0.40 l-16.80 6 0 -52 0 -52 12.80 2.80 c7.20 1.20 26.80 6.80 43.20 12 16.40 5.20 40.80 12.40 53.60 16 13.20 3.60 29.20 10.80 36 15.60 16 12 34 17.60 46.40 14.40 14.80 -3.60 63.60 2.80 74.80 10 14.80 9.60 10.80 22 -11.20 34 -10 5.60 -24.80 14.80 -32.40 21.20 -15.20 12 -26.80 12.80 -55.60 5.20z"/>
  <path d="M6998 568.80 c-30.40 -10.40 -32 -11.60 -33.20 -23.60 -1.20 -11.20 1.20 -14.40 20 -28.40 51.20 -38.40 113.20 -72 154.80 -84.40 45.20 -13.60 54.80 -15.20 103.60 -18.80 l32.80 -2.80 0 12.40 c0 10.40 -2 13.20 -10.80 15.20 -25.60 5.20 -109.60 36.40 -138.40 50.80 -51.20 26 -65.20 45.20 -47.20 64.40 5.60 6.40 6.80 10.80 4 17.60 -2.80 8 -6 8.80 -28.40 8.40 -16 0 -36.80 -4 -57.20 -10.80z"/>
  <path d="M2412.80 542.80 c-10.40 -4 -21.60 -10 -24.80 -12.80 -3.20 -3.20 -10.80 -7.20 -17.20 -9.60 -15.20 -6 -13.20 -12.80 8 -25.60 14 -8.80 25.20 -11.60 49.60 -13.60 30.40 -2.40 31.20 -2 46.80 10 19.60 15.60 26.80 31.20 21.20 46 -4.40 11.20 -2.80 10.80 -51.60 12.40 -7.60 0.40 -22 -2.80 -32 -6.80z"/>
  <path d="M1988 457.60 c-10 -3.20 -31.60 -7.60 -48 -9.60 -24.80 -3.20 -31.20 -5.60 -37.20 -14 -4 -5.60 -10.40 -10 -14.40 -10 -3.60 0 -8.80 -2 -11.20 -4.40 -3.20 -3.20 -13.60 -3.60 -30 -2.40 -74.80 6.80 -76.80 6.80 -74.40 -9.60 1.60 -12.80 20 -18.80 78.80 -26 l45.60 -6 10.40 9.60 c13.60 12.40 30 18 54.40 18.40 19.60 0.40 51.20 8.40 90 22.40 22.40 8.40 41.20 3.60 58.40 -14 14 -14.40 20.80 -14.80 42.80 -2.80 9.20 4.80 26.80 9.60 38.80 10.80 20.40 2 22 2.80 23.20 12.80 2 16.80 -12.40 20.80 -59.20 16.80 -56 -4.40 -67.20 -4 -72.80 3.20 -7.60 9.60 -70.80 12.80 -95.20 4.80z"/>
  <path d="M9548.80 455.60 c-17.20 -3.60 -20.80 -6.80 -20.80 -19.20 0 -16 16.80 -22.40 47.20 -18.40 12.40 1.60 36.40 3.60 52.80 4 16.40 0.40 43.20 2.40 59.20 4 27.60 2.80 28.80 3.60 28.80 13.60 0 10.40 -0.40 10.40 -28.40 9.60 -18 -0.80 -33.60 1.20 -42.80 5.20 -14 5.60 -70 6.40 -96 1.20z"/>
  <path d="M2390.40 443.20 c-26 -9.20 -38.40 -18 -38.40 -26.80 0 -9.20 7.60 -11.60 56.40 -14.80 37.20 -2.40 38.40 -2 50.80 8.40 15.20 12.80 16 18 4 28.80 -12.40 11.60 -46.80 13.60 -72.80 4.40z"/>
  <path d="M7393.20 417.60 c-2.80 -1.20 -5.20 -6.40 -5.20 -11.60 0 -10 8.80 -14 33.20 -14 14 0 14.80 0.80 14.80 12 0 10.40 -1.60 12 -10.80 12 -6.40 0 -14.80 0.80 -19.20 2 -4.40 0.80 -10.40 0.80 -12.80 -0.40z"/>
  <path d="M5862 390 c-10.80 -5.20 -22 -11.20 -24.80 -13.60 -4.80 -4.40 -43.60 -21.60 -79.20 -35.20 -22.80 -8.80 -26.80 -17.60 -12.40 -27.20 8 -5.20 18.80 -6.40 53.20 -5.60 58 1.20 78.40 0.40 89.60 -3.60 9.20 -3.60 113.20 0.40 152 5.60 16 2 19.60 1.20 24.40 -6 5.20 -7.20 10.40 -8.40 40.40 -8.80 18.80 -0.40 36 0.80 38.40 2.40 7.60 4.40 5.20 20.80 -3.60 23.20 -10.40 2.80 -50.40 0.80 -67.20 -3.20 -7.20 -1.60 -12.80 -1.60 -12.40 0.40 0.40 2 0.40 4.40 -0.40 5.60 -4.80 13.20 -2.80 18.80 10.40 26 10 5.20 13.60 9.60 12.80 15.60 -0.80 6.80 -4 8.40 -15.60 8 -19.60 -0.40 -44.80 -16 -41.60 -25.60 3.60 -11.20 -28 -14.80 -39.60 -4.80 -21.20 18.80 -84.40 56.80 -94 56.40 -5.60 0 -19.20 -4.40 -30.40 -9.60z"/>
  <path d="M2031.60 369.20 c-4.40 -0.80 -6 -4.40 -4.80 -8.80 2 -8 18.80 -12.40 48.40 -12.40 14 0 16.80 1.20 16.80 7.60 0 12.40 -35.20 20.40 -60.40 13.60z"/>
  <path d="M2354 360 c-15.20 -1.60 -35.20 -4.80 -44 -7.20 -8.80 -2 -21.20 -5.20 -27.20 -6.40 -8.80 -2 -11.20 -4.80 -10 -11.60 2 -14.40 30.80 -14 104.40 2 16 3.20 18.80 5.20 18.80 13.20 0 7.20 -9.60 16.80 -13.20 13.60 -0.40 -0.40 -13.20 -2 -28.80 -3.60z"/>
  <path d="M8338 335.60 c-17.60 -1.60 -43.60 -4 -58 -5.20 -14.40 -1.60 -32 -5.20 -39.60 -8.80 -7.60 -3.60 -24 -8 -36 -9.20 -27.20 -3.20 -32.40 -6 -32.40 -18 0 -7.20 4 -10.80 17.20 -16 19.60 -8 86.40 -13.60 90 -7.60 6.40 8.80 58.40 29.20 75.60 29.20 22 0 32.40 5.20 37.60 19.20 3.20 8.40 2.80 11.60 -2.80 15.60 -4 2.80 -10 4.80 -13.20 4.80 -3.60 -0.40 -20.80 -2 -38.40 -4z"/>
 </g>
</svg>