<svg xmlns="http://www.w3.org/2000/svg" version="1.1" xmlns:xlink="http://www.w3.org/1999/xlink" xmlns:svgjs="http://svgjs.dev/svgjs" width="602" height="615"><svg width="602" height="615" viewBox="0 0 602 615" fill="none" xmlns="http://www.w3.org/2000/svg">
<g clip-path="url(#clip0_3182_250)">
<path d="M288.153 610.76C241.727 610.76 196.732 602.947 154.417 587.538C110.948 571.713 74.8267 546.812 47.0566 513.523C18.4868 479.301 4 437.163 4 388.28C4 348.938 13.6177 313.371 32.5854 282.567C51.5771 251.707 78.4136 227.53 112.348 210.711C114.041 209.872 115.787 209.041 117.567 208.225C115.023 197.077 113.735 185.458 113.735 173.634C113.735 145.188 121.067 117.786 135.528 92.1885C149.988 66.5781 170.955 45.4077 197.845 29.2666C224.886 13.0435 256.617 4.81738 292.156 4.81738C312.84 4.81738 335.288 7.69775 358.875 13.3784C375.167 17.3066 390.337 21.8877 403.965 26.9946C422.071 33.7803 432.403 53.0845 427.997 71.897L411.985 140.269C409.172 152.269 398.601 160.649 386.279 160.649C377.9 160.648 369.836 157.117 364.154 150.963C358.417 144.749 355.516 136.33 356.193 127.864C357.688 109.142 354.737 93.731 347.421 82.0586C342.709 74.5371 333.6 64.5381 308.989 64.5381C290.177 64.5381 274.082 70.4546 259.784 82.6265C244.387 95.7222 232.351 112.59 224.01 132.764C215.495 153.318 211.15 173.674 211.093 193.271L211.087 195.451L199.475 202.895L199.817 214.315C201.178 219.368 200.515 224.637 197.933 229.214C195.26 233.951 190.888 237.311 185.623 238.674C182.236 239.552 181.783 240.894 180.864 245.003C180.035 248.714 178.898 253.796 173.198 257.071C170.932 258.374 168.601 259.841 166.27 261.429C152.25 271.626 141.155 285.761 133.292 303.441C123.8 324.791 118.986 350.912 118.986 381.077C118.986 420.837 127.25 454.044 143.548 479.776C159.74 505.377 181.478 524.413 208.16 536.354C235.882 548.755 266.837 555.043 300.165 555.043C330.07 555.043 357.504 550.132 381.706 540.446C404.958 531.151 423.583 517.628 437.066 500.253C450.157 483.383 456.521 464.049 456.521 441.146C456.521 423.224 452.732 408.239 445.26 396.607C437.666 384.813 427.979 376.332 415.648 370.683C402.585 364.707 388.257 361.677 373.063 361.677C357.155 361.677 345.701 364.544 339.018 370.199C335.121 373.498 332.633 377.189 331.411 381.482C327.347 395.761 314.326 405.734 299.747 405.734C297.015 405.734 294.28 405.386 291.619 404.702C282.188 402.276 273.966 396.066 269.061 387.665C264.216 379.365 262.904 369.737 265.367 360.554C269.163 346.398 276.907 334.692 288.387 325.762C302.741 314.603 319.881 306.871 339.334 302.78C356.785 299.126 378.754 296.436 404.633 294.785C435.083 292.728 459.986 289.871 478.637 286.293C495.171 283.128 508.577 277.926 518.483 270.832C525.48 265.808 528.603 259.051 528.603 248.924C528.603 241.434 527.064 236.404 524.031 233.976C519.616 230.445 514.243 228.728 507.608 228.728C495.885 228.728 493.104 232.959 491.768 234.993C488.892 239.352 488.023 243.905 488.948 249.76C490.113 257.155 488.001 264.648 483.154 270.319C478.338 275.953 471.324 279.184 463.91 279.184C452.024 279.184 441.571 270.702 439.056 259.017C433.933 235.275 438.021 214.796 451.205 198.149C465.245 180.405 485.301 171.407 510.814 171.407C533.821 171.407 553.985 178.855 570.748 193.543C588.266 208.935 597.146 228.643 597.146 252.124C597.146 272.511 589.292 301.053 551.873 321.25C540.389 327.461 527.079 332.247 511.386 335.795C516.566 340.118 521.31 344.812 525.55 349.816C544.887 372.645 554.69 399.33 554.69 429.131C554.69 464.577 541.465 496.863 515.382 525.095C490.664 551.85 457.655 573.107 417.272 588.273C377.558 603.195 334.116 610.76 288.153 610.76Z" fill="white"></path>
<path d="M292.156 8.81738C312.525 8.81738 334.656 11.6605 357.938 17.2674C374.071 21.1567 389.083 25.6891 402.561 30.7402C418.791 36.8228 428.051 54.1241 424.103 70.9849L408.09 139.357C405.703 149.539 396.734 156.649 386.28 156.649C379.012 156.648 372.02 153.586 367.093 148.25C362.111 142.853 359.592 135.54 360.18 128.183C361.745 108.584 358.592 92.3508 350.811 79.9345C339.92 62.5485 321.726 60.5381 308.989 60.5381C289.186 60.5381 272.243 66.767 257.191 79.5807C241.305 93.0917 228.9 110.469 220.313 131.236C211.597 152.276 207.151 173.137 207.093 193.26L195.409 200.75L195.833 214.929C198.4 223.534 193.313 232.551 184.62 234.802C173.573 237.663 180.19 248.441 171.205 253.603C168.837 254.965 166.402 256.497 163.967 258.158C149.348 268.777 137.798 283.464 129.638 301.816C119.917 323.68 114.986 350.347 114.986 381.077C114.986 421.607 123.459 455.535 140.169 481.916C156.789 508.195 179.112 527.736 206.526 540.005C234.766 552.638 266.272 559.044 300.165 559.044C330.579 559.044 358.514 554.036 383.192 544.16C407.113 534.597 426.301 520.651 440.226 502.706C453.882 485.108 460.52 464.971 460.52 441.146C460.52 422.444 456.518 406.732 448.626 394.445C440.606 381.991 430.362 373.024 417.315 367.046C403.726 360.831 388.834 357.677 373.063 357.677C356.182 357.677 343.859 360.863 336.434 367.145C331.913 370.973 329.01 375.305 327.564 380.387C323.986 392.956 312.547 401.734 299.747 401.734C297.352 401.734 294.953 401.429 292.616 400.828C284.213 398.666 276.885 393.133 272.515 385.648C268.213 378.278 267.046 369.734 269.23 361.591C272.795 348.296 280.066 337.302 290.843 328.92C304.713 318.136 321.303 310.659 340.157 306.694C357.423 303.08 379.198 300.417 404.887 298.777C435.499 296.709 460.585 293.829 479.391 290.221C496.498 286.947 510.432 281.518 520.812 274.083C528.851 268.313 532.602 260.315 532.602 248.924C532.602 235.715 528.032 232.055 526.531 230.853C521.38 226.734 515.187 224.727 507.608 224.727C495.305 224.727 490.894 229.039 488.425 232.796C485.006 237.98 483.92 243.562 484.997 250.384C485.98 256.622 484.2 262.939 480.113 267.72C476.059 272.463 470.153 275.184 463.91 275.184C453.896 275.184 445.088 268.031 442.966 258.175C438.108 235.66 441.934 216.297 454.341 200.633C467.583 183.897 486.585 175.408 510.814 175.408C532.823 175.408 552.1 182.521 568.112 196.552C584.729 211.152 593.146 229.844 593.146 252.123C593.146 271.423 585.656 298.47 549.973 317.731C536.941 324.778 521.065 330.062 502.073 333.635C509.787 339.185 516.602 345.444 522.499 352.402C541.206 374.489 550.69 400.303 550.69 429.131C550.69 463.538 537.823 494.911 512.444 522.38C488.153 548.674 455.659 569.584 415.866 584.529C376.604 599.28 333.635 606.76 288.153 606.76C242.194 606.76 197.66 599.028 155.786 583.779C112.991 568.201 77.4414 543.702 50.1279 510.961C22.1755 477.478 7.99999 436.201 7.99999 388.28C7.99999 349.69 17.4176 314.829 35.9917 284.664C54.5833 254.454 80.8715 230.777 114.124 214.295C116.738 213 119.432 211.745 122.232 210.519C119.243 198.679 117.735 186.328 117.735 173.635C117.735 145.886 124.893 119.146 139.01 94.1559C153.126 69.1558 173.614 48.4768 199.904 32.6966C226.315 16.8508 257.353 8.81738 292.156 8.81738ZM292.156 0.817383C255.882 0.817383 223.459 9.23508 195.788 25.8365C168.295 42.3391 146.849 64.0014 132.044 90.2226C117.241 116.426 109.735 144.49 109.735 173.635C109.735 184.644 110.825 195.486 112.981 205.954C112.168 206.343 111.364 206.734 110.572 207.127C75.9541 224.285 48.5695 248.962 29.1785 280.472C9.81741 311.914 0 348.187 0 388.28C0 438.125 14.7992 481.125 43.9866 516.088C72.2142 549.924 108.909 575.229 153.05 591.296C195.802 606.866 241.257 614.76 288.153 614.76C334.598 614.76 378.514 607.108 418.679 592.018C459.65 576.63 493.175 555.027 518.32 527.809C545.108 498.815 558.69 465.615 558.69 429.131C558.69 398.357 548.568 370.802 528.604 347.232C525.847 343.979 522.885 340.853 519.736 337.87C532.609 334.47 543.842 330.141 553.778 324.768C571.196 315.367 584.044 303.257 591.96 288.78C598.055 277.632 601.146 265.299 601.146 252.123C601.146 227.442 591.808 206.723 573.392 190.542C555.871 175.189 534.819 167.407 510.814 167.407C484.016 167.407 462.905 176.916 448.067 195.669C434.107 213.295 429.759 234.894 435.146 259.863C438.055 273.374 450.152 283.184 463.91 283.184C472.495 283.184 480.617 279.442 486.194 272.918C491.803 266.357 494.247 257.69 492.899 249.139C492.132 244.276 492.791 240.706 495.103 237.2C496.135 235.63 498.043 232.727 507.608 232.727C513.378 232.727 517.803 234.117 521.534 237.101C524.203 239.238 524.602 245.426 524.602 248.924C524.602 257.749 522.073 263.33 516.147 267.584C506.722 274.335 493.847 279.309 477.887 282.364C459.394 285.911 434.654 288.748 404.348 290.795C378.31 292.457 356.151 295.173 338.518 298.864C318.459 303.083 300.769 311.069 285.932 322.604C273.748 332.082 265.53 344.502 261.503 359.519C258.762 369.741 260.219 380.453 265.606 389.681C271.047 398.999 280.165 405.885 290.623 408.576C293.612 409.344 296.681 409.734 299.747 409.734C316.104 409.734 330.707 398.567 335.258 382.577C336.269 379.023 338.286 376.06 341.603 373.251C347.458 368.297 358.337 365.677 373.063 365.677C387.677 365.677 401.446 368.586 413.987 374.322C425.597 379.641 434.729 387.64 441.9 398.776C448.945 409.745 452.52 424.003 452.52 441.146C452.52 463.127 446.432 481.66 433.906 497.802C420.865 514.607 402.803 527.705 380.223 536.732C356.491 546.229 329.557 551.044 300.165 551.044C267.405 551.044 236.999 544.873 209.792 532.703C183.842 521.088 162.692 502.562 146.931 477.64C131.041 452.554 122.986 420.067 122.986 381.077C122.986 351.476 127.684 325.902 136.948 305.066C144.512 288.056 155.152 274.476 168.574 264.699C170.804 263.182 173.03 261.782 175.193 260.538C182.418 256.388 183.889 249.808 184.768 245.877C184.992 244.875 185.327 243.377 185.598 242.929C185.688 242.873 185.979 242.714 186.625 242.547C192.952 240.908 198.205 236.871 201.417 231.179C204.439 225.822 205.272 219.674 203.802 213.748L203.541 205.039L211.411 199.995L215.081 197.642L215.094 193.283C215.148 174.209 219.391 154.364 227.704 134.298C235.803 114.711 247.467 98.3535 262.374 85.6747C275.921 74.1428 291.167 68.5381 308.989 68.5381C320.741 68.5381 335.346 70.3162 344.031 84.1813C350.881 95.1102 353.631 109.7 352.206 127.546C351.44 137.12 354.723 146.645 361.215 153.676C367.652 160.649 376.788 164.648 386.279 164.649C400.468 164.649 412.64 154.999 415.879 141.183L431.892 72.8091C436.755 52.0447 425.353 30.7385 405.369 23.249C391.588 18.0845 376.26 13.4554 359.813 9.49018C335.916 3.73518 313.154 0.817383 292.156 0.817383Z" fill="#010101"></path>
<path d="M141.156 220.013C134.29 222.529 127.594 225.309 121.162 228.495C90.4559 243.715 66.5685 265.217 49.4866 292.975C32.3889 320.741 23.8477 352.512 23.8477 388.28C23.8477 432.605 36.675 470.116 62.2982 500.808C87.9213 531.523 120.896 554.213 161.209 568.887C201.521 583.567 243.835 590.911 288.152 590.911C331.936 590.911 372.655 583.833 410.292 569.692C447.945 555.551 478.105 536.193 500.802 511.625C523.485 487.074 534.842 459.565 534.842 429.132C534.842 404.04 526.692 381.875 510.407 362.649C494.123 343.432 469.688 330.354 437.136 323.408C484.112 322.884 519.23 316.338 542.444 303.785C565.674 291.246 577.297 274.024 577.297 252.124C577.297 234.502 570.742 219.961 557.666 208.472C544.571 196.998 528.96 191.256 510.814 191.256C491.589 191.256 476.9 197.662 466.764 210.474C457.391 222.308 454.632 237.1 458.46 254.84C459.019 257.436 461.255 259.335 463.91 259.335C467.342 259.335 469.875 256.244 469.341 252.854C467.653 242.155 469.589 232.567 475.18 224.091C481.843 213.954 492.653 208.878 507.608 208.878C518.823 208.878 528.428 212.077 536.438 218.483C544.447 224.897 548.451 235.042 548.451 248.924C548.451 265.475 542.319 278.153 530.04 286.969C517.744 295.775 501.866 302.056 482.376 305.786C462.884 309.525 437.386 312.466 405.897 314.594C380.79 316.197 359.969 318.739 343.419 322.204C326.868 325.685 312.586 332.09 300.573 341.43C292.546 347.674 287.201 355.761 284.538 365.697C282.208 374.384 287.855 383.238 296.565 385.479C303.527 387.271 310.352 382.961 312.32 376.048C314.634 367.919 319.26 360.918 326.196 355.046C336.614 346.232 352.225 341.828 373.062 341.828C391.208 341.828 408.165 345.434 423.917 352.638C439.654 359.849 452.34 370.94 461.961 385.879C471.566 400.833 476.368 419.253 476.368 441.146C476.368 468.372 468.484 492.142 452.747 512.423C436.995 532.72 415.767 548.206 389.08 558.875C362.362 569.567 332.734 574.893 300.165 574.893C263.859 574.893 230.492 568.088 200.05 554.471C169.625 540.854 145.191 519.509 126.779 490.397C108.351 461.301 99.1374 424.861 99.1374 381.077C99.1374 347.976 104.471 319.404 115.156 295.376C124.436 274.507 137.633 257.664 154.769 245.25L154.809 245.22C157.552 243.341 160.377 241.546 163.31 239.86C173.715 233.882 172.809 224.884 185.118 221.696L179.678 203.462L191.243 193.658C191.243 171.233 196.046 148.402 205.667 125.18C215.271 101.951 229.021 82.7333 246.916 67.5129C264.797 52.2918 285.477 44.6892 308.988 44.6892C334.612 44.6892 353.039 53.6374 364.239 71.5175C373.917 86.9571 377.829 106.264 375.978 129.446C375.491 135.538 380.167 140.8 386.279 140.8C389.322 140.8 391.964 138.705 392.658 135.743L408.671 67.3706C410.819 58.1995 405.819 48.8869 396.999 45.5815C384.124 40.7564 369.874 36.4476 354.227 32.6758C332.077 27.3414 311.382 24.6665 292.156 24.6665C260.119 24.6665 232.087 31.8703 208.059 46.2854C184.031 60.7077 165.62 79.2609 152.809 101.951C139.982 124.656 133.583 148.543 133.583 173.635C133.583 189.887 136.279 205.115 141.538 219.375L141.693 219.812L141.156 220.013Z" fill="#010101"></path>
<path d="M174.788 220.504C172.748 216.411 170.209 211.32 170.334 205.032L170.544 194.337L181.141 192.899L196.144 191.048L197.362 203.827C197.676 207.141 198.115 210.416 198.67 213.562L175.175 221.279L174.788 220.504Z" fill="#010101"></path>
<path d="M186.371 215.735C185.756 212.251 185.272 208.677 184.926 205.009C184.224 205.098 183.522 205.184 182.824 205.276C182.754 208.762 184.645 212.248 186.371 215.735Z" fill="#010101"></path>
<path d="M146.835 243.442C149.49 241.518 152.226 239.68 155.067 237.954C165.142 231.833 176.176 227.2 188.096 223.935C187.432 221.263 186.862 218.525 186.37 215.734C184.644 212.248 182.754 208.762 182.824 205.276C165.304 207.61 148.836 211.565 133.436 217.169C136.163 224.481 139.502 231.561 143.582 238.363C144.626 240.102 145.736 241.765 146.835 243.442Z" fill="#010101"></path>
<path d="M166.645 522.6C146.621 522.6 130.127 506.314 129.876 486.298C129.745 476.692 133.281 467.503 139.831 460.437C146.743 452.98 156.101 448.805 166.18 448.678L198.853 448.248C200.326 446.147 202.009 444.203 203.869 442.446L88.2155 443.95C67.8381 443.95 51.052 427.496 50.7966 407.271C50.6569 397.245 54.5744 387.8 61.8273 380.693C68.7228 373.937 77.8229 370.15 87.4514 370.033L135.416 369.407C137.818 365.898 140.809 362.834 144.252 360.351C144.236 359.967 144.225 359.581 144.22 359.196C144.091 349.625 147.62 340.441 154.161 333.371C156.954 330.357 160.195 327.848 163.74 325.934C166.392 320.759 170.201 316.312 174.854 312.915C174.841 312.597 174.834 312.277 174.83 311.957C174.692 301.884 178.543 292.389 185.673 285.252C187.046 283.88 188.522 282.618 190.084 281.48C190.063 281.038 190.05 280.595 190.044 280.15C189.911 270.123 193.829 260.683 201.075 253.583C203.543 251.167 206.342 249.102 209.361 247.454C212.095 242.078 216.134 237.433 221.054 233.946C221.041 233.604 221.032 233.261 221.028 232.917C220.889 223.102 224.586 213.812 231.438 206.779C231.451 206.766 231.465 206.753 231.478 206.739C229.751 207.006 227.991 207.153 226.211 207.176L225.106 207.19C223.911 208.939 222.565 210.586 221.085 212.104C218.487 214.772 215.495 217.026 212.237 218.788C208.85 225.565 203.444 231.086 196.705 234.648C193.317 241.312 187.974 246.773 181.351 250.341C175.196 262.631 162.599 270.848 148.638 271.032L148.16 271.038C128.127 271.038 111.621 254.58 111.365 234.35C111.226 224.537 114.924 215.245 121.779 208.209C124.408 205.51 127.434 203.236 130.727 201.468C134.123 194.813 139.512 189.282 146.078 185.715C147.764 182.363 149.963 179.27 152.601 176.565C155.212 173.889 158.212 171.632 161.475 169.872C163.115 166.578 165.246 163.521 167.798 160.827C170.54 157.936 173.722 155.514 177.199 153.648C180.651 147.09 186.035 141.597 192.522 138.016C195.941 131.426 201.304 125.895 207.781 122.277C213.946 110.134 226.548 102.013 240.482 101.837L240.659 101.836C252.771 101.836 263.861 107.671 270.692 117.053L429.556 114.979C436.173 105.268 447.207 99.1348 459.432 98.9785L459.611 98.9775C479.995 98.9775 496.794 115.424 497.064 135.639C497.196 145.715 493.258 155.174 485.974 162.276C483.384 164.802 480.439 166.937 477.258 168.615C473.858 175.233 468.486 180.735 461.949 184.292C460.269 187.633 458.077 190.718 455.45 193.416C453.038 195.896 450.293 198.017 447.314 199.718C452.005 202.315 456.104 205.909 459.286 210.268L460.66 210.251C474.589 210.251 487.303 217.991 493.721 229.748C505.88 235.877 513.759 248.087 513.935 261.945C513.973 264.651 513.719 267.328 513.18 269.942C513.786 272.543 514.109 275.218 514.142 277.94C514.18 280.522 513.931 283.099 513.4 285.635C513.993 288.201 514.311 290.842 514.348 293.528C514.481 303.605 510.545 313.065 503.264 320.172C500.803 322.572 498.014 324.626 495.008 326.266C493.191 329.841 490.78 333.128 487.863 335.977C485.41 338.375 482.623 340.429 479.615 342.07C478.413 344.435 476.95 346.675 475.251 348.745C480.742 355.121 484.034 363.296 484.143 372.02C484.177 374.654 483.924 377.275 483.386 379.855C483.993 382.394 484.316 384.985 484.35 387.607C484.508 399.883 478.438 411.277 468.739 418.26C468.748 418.525 468.754 418.791 468.757 419.058C468.941 433.414 461.369 446.034 449.339 452.396C445.946 459.16 440.592 464.656 433.951 468.189C430.545 474.837 425.149 480.357 418.58 483.916C412.487 495.934 400.052 503.95 386.244 504.122L385.115 504.138C383.926 505.878 382.587 507.519 381.114 509.031C374.28 516.066 365.084 520.016 355.231 520.142L166.737 522.6L166.645 522.6ZM308.269 438.515C306.736 441.562 304.788 444.393 302.485 446.899L339.731 446.414C343.022 441.72 347.357 437.807 352.383 435.022C355.766 428.293 361.107 422.766 367.715 419.154C370.449 413.766 374.493 409.11 379.424 405.618C379.411 405.275 379.402 404.931 379.398 404.587C379.286 395.857 382.325 387.588 387.574 381.07C386.958 380.35 386.369 379.606 385.81 378.838L342.901 379.398C341.797 387.117 338.207 394.484 332.657 400.187C331.22 401.66 329.665 403.011 328.013 404.225C328.029 404.583 328.038 404.941 328.042 405.3C328.22 419.226 320.36 432.025 308.269 438.515ZM245.268 359.244C243.653 362.45 241.567 365.425 239.074 368.052L245.872 367.962C246.752 366.816 247.704 365.718 248.724 364.67C250.217 363.139 251.838 361.746 253.56 360.505C253.545 360.136 253.535 359.766 253.531 359.396C253.498 357.085 253.678 354.804 254.061 352.574C251.502 355.204 248.545 357.463 245.268 359.244ZM264.533 325.31C264.549 325.672 264.558 326.035 264.564 326.398C264.593 328.694 264.405 330.958 264.017 333.166C266.614 330.514 269.599 328.276 272.847 326.528C274.538 323.185 276.741 320.098 279.382 317.398C280.86 315.886 282.465 314.506 284.171 313.275C284.154 312.896 284.144 312.518 284.14 312.139C283.959 298.218 291.625 285.463 303.442 278.986C304.98 275.878 306.929 273.037 309.227 270.527L304.568 270.586C303.96 270.586 303.354 270.572 302.751 270.543C299.567 274.722 295.524 278.183 290.872 280.676C289.317 283.709 287.347 286.535 285.027 289.041C283.411 290.789 281.641 292.369 279.747 293.762C279.764 294.168 279.777 294.576 279.782 294.985C279.914 304.839 276.205 314.137 269.337 321.172C267.854 322.69 266.244 324.075 264.533 325.31ZM404.449 278.151C404.466 278.55 404.478 278.949 404.483 279.35C404.535 283.405 403.908 287.362 402.697 291.089C406.463 289.726 410.496 288.969 414.669 288.913L415.936 288.896C418.314 285.43 421.258 282.397 424.635 279.93C424.625 279.647 424.618 279.364 424.615 279.08C424.609 278.658 424.61 278.237 424.617 277.817C421.191 275.448 418.178 272.513 415.715 269.138L413.151 269.171C410.774 272.644 407.828 275.681 404.449 278.151ZM350.061 189.95C348.72 191.876 347.193 193.682 345.501 195.333C345.218 195.609 344.931 195.881 344.64 196.147L351.122 196.062C352.493 193.829 354.095 191.756 355.901 189.874L350.061 189.95Z" fill="#010101"></path>
<path d="M166.65 510.107C153.431 510.108 142.538 499.359 142.366 486.146C142.188 472.55 152.94 461.344 166.334 461.168L206.271 460.646C207.477 457.549 209.309 454.674 211.676 452.247C214.356 449.499 217.626 447.422 221.164 446.156C221.192 446.068 221.22 445.979 221.25 445.893C220.342 443.38 219.855 440.696 219.819 437.908C219.781 435.046 220.251 432.291 221.146 429.727L87.9274 431.463C74.5148 431.463 63.4606 420.543 63.2853 407.119C63.1989 400.518 65.7863 394.302 70.5709 389.616C75.1559 385.125 81.2037 382.606 87.6007 382.523L142.958 381.801C144.12 378.621 145.952 375.698 148.384 373.207C151.117 370.407 154.415 368.351 158.03 367.144C158.064 367.033 158.099 366.924 158.134 366.814C157.232 364.331 156.745 361.722 156.71 359.062C156.567 348.07 163.563 338.643 173.322 335.338C175.703 327.987 181.446 322.121 188.749 319.6L188.769 319.538C187.853 317.077 187.355 314.474 187.32 311.821C187.233 305.112 189.785 298.814 194.508 294.087C197.197 291.395 200.403 289.396 203.901 288.187C203.922 288.121 203.943 288.056 203.964 287.991C203.058 285.477 202.57 282.793 202.534 280.008C202.448 273.407 205.035 267.191 209.819 262.506C212.47 259.909 215.61 257.972 219.025 256.783C220.215 253.001 222.342 249.505 225.246 246.672C227.979 244.006 231.229 242.036 234.759 240.861C234.783 240.781 234.808 240.702 234.833 240.623C234.005 238.146 233.552 235.497 233.517 232.764C233.431 226.265 235.872 220.132 240.388 215.496C243.111 212.701 246.399 210.646 250.007 209.436C251.122 205.805 253.086 202.472 255.801 199.681C258.5 196.908 261.753 194.863 265.323 193.649C265.362 193.515 265.402 193.381 265.443 193.247C264.61 190.825 264.162 188.23 264.127 185.524C264.095 183.114 264.407 180.779 265.017 178.566L248.568 178.781C247.409 181.957 245.583 184.876 243.159 187.364C238.641 192.003 232.566 194.604 226.055 194.687L217.55 194.799C216.392 197.975 214.566 200.894 212.142 203.382C209.43 206.165 206.158 208.215 202.569 209.428C200.301 216.88 194.555 222.733 187.078 225.223C185.883 228.979 183.764 232.449 180.878 235.266C178.231 237.849 175.098 239.777 171.695 240.963C168.603 250.896 159.26 258.4 148.466 258.541L148.156 258.543C134.931 258.543 124.029 247.62 123.855 234.194C123.769 227.695 126.21 221.562 130.726 216.927C133.441 214.14 136.718 212.088 140.314 210.876C141.433 207.234 143.409 203.89 146.144 201.092C148.869 198.304 152.155 196.254 155.758 195.047C158.06 187.658 163.811 181.758 171.141 179.262C172.241 175.618 174.183 172.256 176.87 169.421C179.641 166.498 183.004 164.351 186.709 163.086C187.885 159.523 189.878 156.206 192.553 153.463C195.24 150.707 198.523 148.626 202.071 147.361C203.226 143.785 205.214 140.476 207.941 137.668C210.615 134.915 213.881 132.834 217.418 131.564C218.586 127.834 220.642 124.42 223.485 121.574C228.07 116.983 234.162 114.409 240.638 114.325L240.959 114.323C251.244 114.323 259.906 120.584 263.487 129.641L437.132 127.375C440.498 118.104 449.132 111.604 459.59 111.469L459.91 111.467C473.334 111.467 484.398 122.387 484.573 135.81C484.659 142.324 481.99 148.711 477.253 153.333C474.506 156.013 471.236 157.988 467.685 159.161C465.377 166.555 459.615 172.457 452.274 174.944C449.976 182.35 444.219 188.262 436.882 190.756C434.582 198.158 428.821 204.071 421.479 206.566C421.368 206.929 421.249 207.288 421.121 207.644L429.533 207.536C439.704 207.536 448.5 213.899 452.092 222.853L460.959 222.739C471.77 222.739 481.048 229.708 484.34 239.321C494.128 242.45 501.307 251.479 501.445 262.102C501.482 264.886 501.065 267.576 500.226 270.107C501.131 272.615 501.617 275.296 501.654 278.083C501.688 280.706 501.269 283.292 500.44 285.75C501.338 288.253 501.821 290.928 501.858 293.71C501.943 300.224 499.275 306.611 494.537 311.232C491.893 313.812 488.766 315.739 485.369 316.926C484.197 320.699 482.083 324.157 479.136 327.037C476.49 329.625 473.356 331.557 469.947 332.744C468.756 336.528 466.629 340.027 463.723 342.861C460.928 345.589 457.592 347.587 453.968 348.752C454.031 348.922 454.092 349.095 454.152 349.267C464.142 352.276 471.514 361.405 471.655 372.171C471.69 374.852 471.257 377.521 470.412 380.058C471.326 382.518 471.824 385.123 471.859 387.78C471.999 398.564 464.773 408.094 454.958 411.468C454.956 411.476 454.954 411.482 454.951 411.49C455.784 413.911 456.232 416.505 456.268 419.21C456.413 430.404 449.545 439.726 439.7 442.967C438.592 446.514 436.702 449.765 434.117 452.493C431.377 455.386 428.043 457.506 424.37 458.743C422.065 466.145 416.3 472.054 408.954 474.543C405.92 484.318 396.86 491.494 386.093 491.634L377.556 491.745C376.4 494.916 374.578 497.832 372.161 500.318C367.646 504.963 361.578 507.566 355.075 507.651L166.65 510.107ZM283.246 445.083C284.086 447.573 284.539 450.255 284.575 453.064C284.605 455.337 284.32 457.541 283.76 459.636L347.154 458.809C348.36 455.711 350.193 452.836 352.56 450.408C355.24 447.66 358.513 445.582 362.052 444.316C364.388 436.946 370.103 431.048 377.389 428.479C378.579 424.688 380.708 421.184 383.617 418.346C386.351 415.679 389.601 413.709 393.132 412.534C393.156 412.455 393.181 412.375 393.206 412.296C392.376 409.821 391.923 407.173 391.888 404.438C391.803 397.928 394.253 391.787 398.786 387.148C401.496 384.376 404.761 382.333 408.341 381.124C408.367 381.037 408.394 380.951 408.421 380.865C408.374 380.725 408.328 380.584 408.284 380.442C401.335 378.239 395.701 372.975 393.003 366.249L329.596 367.077C330.338 369.305 330.741 371.638 330.772 374.008C330.911 384.692 323.819 394.146 314.143 397.601C314.131 397.637 314.119 397.674 314.107 397.71C315.021 400.171 315.518 402.777 315.552 405.435C315.636 411.837 313.061 418.203 308.486 422.898C305.715 425.743 302.311 427.87 298.635 429.124C297.53 432.698 295.632 435.974 293.03 438.72C290.289 441.614 286.954 443.734 283.28 444.972C283.269 445.009 283.257 445.046 283.246 445.083ZM220.037 366.007C220.932 368.543 221.428 371.198 221.462 373.829C221.494 376.242 221.17 378.578 220.54 380.788L252.949 380.366C255.697 374.302 260.871 369.551 267.241 367.371C267.269 367.277 267.298 367.184 267.327 367.091C266.505 364.619 266.055 361.974 266.02 359.24C265.879 348.468 272.81 339.219 282.494 335.928C284.798 328.51 290.579 322.588 297.944 320.102C297.981 319.982 298.018 319.863 298.057 319.744C297.152 317.258 296.664 314.649 296.63 312C296.547 305.609 298.896 299.499 303.244 294.797C306.031 291.784 309.414 289.581 313.134 288.305C315.451 280.749 321.197 274.85 328.634 272.416C328.642 272.393 328.65 272.369 328.657 272.346C327.757 269.803 327.271 267.118 327.235 264.375C327.205 262.088 327.483 259.88 328.029 257.789L304.283 258.097C301.482 258.098 298.785 257.607 296.272 256.708C295.146 259.655 293.452 262.389 291.247 264.764C288.442 267.784 285.037 269.988 281.297 271.259C280.201 274.681 278.361 277.852 275.86 280.557C273.082 283.56 269.712 285.758 266.006 287.036C265.991 287.085 265.977 287.134 265.962 287.182C266.801 289.672 267.255 292.354 267.291 295.164C267.376 301.667 264.928 307.804 260.398 312.443C257.686 315.222 254.418 317.269 250.834 318.479C250.809 318.563 250.783 318.648 250.757 318.732C251.585 321.208 252.037 323.856 252.072 326.589C252.213 337.347 245.293 346.585 235.617 349.888C234.5 353.533 232.524 356.881 229.788 359.683C227.049 362.488 223.744 364.547 220.12 365.754C220.092 365.838 220.065 365.923 220.037 366.007ZM375.501 302.856C374.387 306.481 372.425 309.812 369.713 312.603C367.381 315.001 364.634 316.856 361.629 318.101L392.304 317.7C395.644 308.316 404.446 301.54 414.839 301.405L423.475 301.292C424.601 298.309 426.308 295.542 428.537 293.142C431.315 290.149 434.681 287.959 438.381 286.683C438.388 286.658 438.396 286.633 438.403 286.607C437.583 284.196 437.141 281.616 437.106 278.928C437.069 276.119 437.45 273.428 438.222 270.918C438.205 270.869 438.189 270.819 438.173 270.771C431.26 268.573 425.636 263.303 422.888 256.551L405.606 256.776C403.035 263.657 397.515 269.085 390.604 271.434C390.592 271.469 390.581 271.503 390.57 271.538C391.471 274.077 391.956 276.764 391.992 279.516C392.077 286.021 389.631 292.161 385.104 296.802C382.382 299.593 379.1 301.646 375.501 302.856ZM327.428 192.436C328.341 194.952 328.844 197.612 328.879 200.295C328.917 203.228 328.397 206.135 327.382 208.866L358.248 208.464C358.588 208.331 358.93 208.206 359.276 208.089C360.454 204.32 362.573 200.866 365.524 197.991C368.168 195.414 371.295 193.49 374.692 192.306C376.853 185.36 382.103 179.714 388.874 176.95L342.587 177.555C340.045 184.342 334.503 189.728 327.534 192.12C327.499 192.226 327.464 192.331 327.428 192.436Z" fill="#010101"></path>
<path d="M166.646 508.602C154.246 508.602 144.029 498.518 143.874 486.123C143.796 480.114 146.008 474.373 150.101 469.953C154.38 465.339 160.151 462.753 166.357 462.675L207.33 462.137C209.715 455.186 215.374 449.591 222.385 447.327C222.527 446.837 222.682 446.35 222.854 445.873C221.882 443.372 221.361 440.682 221.326 437.88C221.279 434.485 221.993 431.192 223.392 428.192L88.2159 429.953C75.3301 429.953 64.9534 419.701 64.7942 407.095C64.7081 400.919 67.1355 395.091 71.6245 390.693C75.9327 386.471 81.6138 384.103 87.622 384.03L144.063 383.294C146.331 376.154 152.038 370.516 159.247 368.351C159.389 367.826 159.553 367.301 159.734 366.78C158.769 364.31 158.249 361.697 158.219 359.038C158.141 353.034 160.349 347.297 164.442 342.877C167.257 339.834 170.726 337.673 174.535 336.528C176.687 329.048 182.518 323.092 189.951 320.793C190.08 320.359 190.218 319.933 190.373 319.511C189.392 317.062 188.858 314.458 188.828 311.798C188.694 301.318 195.581 292.349 205.109 289.384C205.247 288.906 205.398 288.432 205.566 287.968C204.597 285.467 204.076 282.777 204.042 279.98C203.96 273.799 206.388 267.976 210.872 263.582C213.545 260.965 216.743 259.063 220.22 257.974C222.308 250.36 228.312 244.296 235.99 242.045C236.119 241.563 236.265 241.081 236.424 240.612C235.542 238.146 235.06 235.49 235.026 232.74C234.94 226.65 237.229 220.896 241.469 216.545C244.21 213.73 247.567 211.716 251.251 210.623C253.309 203.112 259.123 197.126 266.56 194.853C266.698 194.298 266.857 193.751 267.034 193.218C266.147 190.812 265.669 188.217 265.635 185.501C265.596 182.574 266.1 179.712 267.102 177.035L247.485 177.289C246.435 180.642 244.602 183.728 242.084 186.314C237.845 190.665 232.146 193.101 226.035 193.179L216.467 193.308C215.413 196.661 213.584 199.742 211.066 202.329C208.333 205.135 204.993 207.145 201.326 208.243C200.311 212 198.326 215.439 195.495 218.266C192.8 220.96 189.512 222.91 185.897 224.003C183.835 231.483 177.978 237.466 170.476 239.79C167.821 249.474 158.856 256.898 148.453 257.036L148.16 257.04C135.748 257.04 125.522 246.784 125.363 234.173C125.229 223.81 132.085 214.948 141.55 212.077C143.607 204.533 149.469 198.52 156.958 196.26C157.952 192.555 159.88 189.155 162.621 186.34C165.359 183.534 168.703 181.524 172.374 180.431C173.36 176.729 175.262 173.308 177.965 170.454C180.741 167.528 184.154 165.427 187.911 164.278C190.097 156.889 195.968 150.88 203.31 148.526C205.475 141.128 211.32 135.107 218.641 132.735C219.691 128.956 221.701 125.492 224.55 122.638C228.858 118.326 234.578 115.911 240.659 115.834H240.664C250.903 115.834 259.317 122.148 262.441 131.16L438.221 128.866C441.121 119.651 449.449 113.105 459.615 112.976H459.619C472.522 112.976 482.908 123.228 483.067 135.834C483.149 142.023 480.708 147.855 476.202 152.253C473.431 154.96 470.091 156.901 466.467 157.965C464.397 165.492 458.543 171.492 451.068 173.751C450.073 177.448 448.154 180.844 445.421 183.65C442.679 186.469 439.331 188.488 435.655 189.581C433.59 197.117 427.736 203.121 420.256 205.376C419.903 206.685 419.434 207.958 418.853 209.181L429.234 209.047C439.383 209.047 447.939 215.473 451.055 224.373L460.661 224.249C471.356 224.249 480.317 231.165 483.166 240.586C492.802 243.354 499.809 251.961 499.938 262.127C499.977 264.92 499.529 267.615 498.626 270.132C499.594 272.62 500.11 275.301 500.149 278.095C500.184 280.729 499.732 283.319 498.836 285.768C499.8 288.26 500.317 290.942 500.351 293.739C500.433 299.924 497.993 305.756 493.487 310.154C490.814 312.762 487.616 314.66 484.139 315.745C482.09 323.229 476.25 329.22 468.752 331.557C467.706 335.379 465.636 338.891 462.671 341.783C459.645 344.736 455.944 346.78 451.933 347.761C452.342 348.661 452.694 349.591 452.983 350.546C462.822 353.193 470.018 361.895 470.147 372.195C470.185 374.885 469.721 377.562 468.813 380.092C469.785 382.533 470.319 385.132 470.353 387.788C470.487 398.199 463.329 407.357 453.732 410.288C453.62 410.701 453.495 411.115 453.362 411.519C454.248 413.925 454.726 416.52 454.76 419.236C454.846 425.434 452.591 431.274 448.412 435.664C445.649 438.569 442.245 440.639 438.496 441.75C436.413 449.398 430.646 455.346 423.148 457.562C421.078 465.094 415.229 471.093 407.749 473.349C406.755 477.041 404.835 480.437 402.102 483.252C397.867 487.607 392.173 490.048 386.07 490.125L376.473 490.254C375.423 493.603 373.598 496.684 371.084 499.267C366.849 503.627 361.155 506.067 355.052 506.144L166.646 508.602ZM281.658 445.107C282.549 447.577 283.031 450.258 283.07 453.077C283.109 455.884 282.644 458.617 281.718 461.169L348.209 460.304C350.593 453.357 356.249 447.762 363.255 445.494C364.301 441.72 366.303 438.259 369.143 435.406C371.824 432.72 375.057 430.766 378.586 429.656C379.632 425.834 381.702 422.318 384.667 419.425C387.43 416.731 390.753 414.794 394.36 413.727C394.489 413.241 394.635 412.759 394.794 412.285C393.912 409.823 393.43 407.164 393.396 404.413C393.262 394.054 400.11 385.197 409.57 382.326C409.699 381.831 409.845 381.34 410.009 380.854C409.815 380.307 409.638 379.748 409.479 379.18C402.236 377.131 396.477 371.687 394.041 364.732L327.959 365.592C327.882 365.838 327.8 366.074 327.714 366.315C328.695 368.769 329.233 371.377 329.263 374.032C329.345 380.032 326.926 386.01 322.627 390.426C319.911 393.21 316.554 395.263 312.935 396.417C312.805 396.86 312.659 397.303 312.504 397.738C313.481 400.187 314.015 402.795 314.045 405.459C314.127 411.459 311.708 417.433 307.408 421.848C304.619 424.715 301.15 426.802 297.415 427.938C296.416 431.58 294.557 434.919 291.936 437.687C289.186 440.592 285.794 442.666 282.054 443.781C281.934 444.229 281.805 444.672 281.658 445.107ZM218.438 366.014C219.394 368.545 219.923 371.209 219.953 373.852C219.997 376.795 219.484 379.658 218.464 382.322L253.92 381.857C255.013 379.124 256.644 376.602 258.757 374.437C261.486 371.639 264.821 369.629 268.484 368.536C268.613 368.046 268.755 367.559 268.919 367.082C268.041 364.624 267.563 361.969 267.529 359.218C267.442 353.124 269.728 347.37 273.963 343.023C276.7 340.208 280.049 338.194 283.72 337.101C285.79 329.552 291.665 323.539 299.166 321.293C299.308 320.763 299.472 320.238 299.653 319.717C298.689 317.238 298.168 314.63 298.138 311.979C298 301.413 304.878 292.383 314.363 289.496C316.451 281.8 322.274 275.822 329.84 273.623C329.965 273.184 330.103 272.753 330.253 272.323C329.294 269.792 328.777 267.102 328.743 264.348C328.704 261.494 329.177 258.766 330.085 256.257L304.568 256.588C301.301 256.588 298.194 255.912 295.383 254.686C293.145 262.045 287.382 267.864 280.087 270.064C279.093 273.554 277.285 276.799 274.755 279.532C271.966 282.549 268.544 284.697 264.778 285.85C264.658 286.311 264.524 286.763 264.374 287.21C265.265 289.676 265.747 292.358 265.785 295.177C265.867 301.288 263.569 307.042 259.321 311.394C256.592 314.187 253.261 316.197 249.607 317.29C249.478 317.781 249.332 318.267 249.168 318.749C250.046 321.207 250.528 323.853 250.567 326.595C250.7 336.967 243.853 345.829 234.393 348.7C233.394 352.41 231.462 355.814 228.712 358.633C225.962 361.452 222.596 363.466 218.908 364.555C218.77 365.046 218.611 365.532 218.438 366.014ZM358.607 319.649L393.396 319.192C396.253 309.874 404.758 303.044 414.863 302.915L424.538 302.786C426.858 295.659 432.501 290.046 439.611 287.869C439.727 287.434 439.852 287.004 439.994 286.578C439.12 284.189 438.647 281.615 438.612 278.921C438.573 276.093 438.987 273.395 439.813 270.898C439.649 270.442 439.494 269.977 439.361 269.504C432.165 267.468 426.419 262.015 423.923 255.03L404.534 255.288C402.21 262.446 396.537 268.079 389.393 270.24C389.268 270.688 389.126 271.127 388.975 271.566C389.931 274.088 390.452 276.769 390.486 279.523C390.62 289.913 383.759 298.788 374.282 301.65C373.292 305.342 371.368 308.738 368.635 311.553C365.885 314.381 362.52 316.403 358.831 317.497C358.689 317.983 358.534 318.469 358.358 318.951C358.444 319.184 358.53 319.416 358.607 319.649ZM325.825 192.447C326.797 194.948 327.34 197.612 327.374 200.302C327.421 203.917 326.608 207.343 325.123 210.403L358.547 209.964C359.188 209.706 359.838 209.478 360.501 209.275C362.563 201.795 368.412 195.813 375.913 193.48C376.955 189.658 379.021 186.151 381.977 183.263C384.646 180.659 387.844 178.761 391.321 177.676C391.48 177.1 391.661 176.536 391.859 175.972C391.786 175.787 391.713 175.598 391.644 175.408L341.512 176.062C339.231 183.121 333.537 188.716 326.324 190.928C326.178 191.44 326.01 191.948 325.825 192.447Z" fill="white"></path>
<path d="M454.782 151.811C454.856 157.516 450.327 162.149 444.622 162.224L438.142 162.308C438.937 163.817 439.334 165.719 439.359 167.626C439.434 173.331 434.936 177.963 429.231 178.038L422.751 178.122C423.515 179.632 423.943 181.533 423.968 183.44C424.042 189.145 419.513 193.778 413.808 193.852C408.104 193.927 403.083 189.418 403.009 183.713C402.969 180.66 404.449 177.601 406.718 175.665C404.399 173.788 402.845 171.141 402.805 168.103C402.78 166.196 403.531 164.279 404.255 162.75L328.48 163.739C329.275 165.248 330.075 167.145 330.1 169.051C330.175 174.756 325.274 179.394 319.569 179.468L313.089 179.553C313.853 181.062 314.653 182.959 314.678 184.866C314.717 187.904 313.233 190.59 310.964 192.527C313.283 194.404 314.842 197.423 314.881 200.477C314.956 206.181 310.055 210.819 304.35 210.894L297.87 210.978C298.665 212.487 299.434 214.384 299.459 216.291C299.533 221.996 294.663 226.633 288.959 226.708L282.479 226.792C283.243 228.302 283.671 230.203 283.695 232.11C283.735 235.148 282.628 238.217 280.358 240.154C282.677 242.031 283.859 244.682 283.899 247.721C283.974 253.441 279.45 258.446 273.745 258.52L267.265 258.605C268.06 260.114 268.452 261.628 268.477 263.535C268.551 269.255 264.058 274.26 258.353 274.334L251.873 274.419C252.637 275.929 253.06 277.442 253.085 279.349C253.13 282.775 252.017 285.456 249.748 287.393C252.067 289.27 253.249 291.921 253.294 295.347C253.368 301.052 248.839 305.685 243.134 305.76L236.283 305.849C237.45 307.353 237.846 309.255 237.871 311.162C237.911 314.2 236.799 316.882 234.56 318.818C236.848 320.695 238.035 323.719 238.075 326.773C238.149 332.477 233.651 337.11 227.916 337.185L221.064 337.274C222.231 338.778 222.659 340.68 222.684 342.587C222.758 348.291 218.229 352.924 212.524 352.999L205.672 353.088C206.839 354.592 207.236 356.494 207.261 358.401C207.301 361.455 205.816 364.141 203.919 366.058C205.866 367.939 207.425 370.973 207.465 374.012C207.539 379.732 203.041 384.349 197.305 384.424L190.453 384.513C191.621 386.033 192.048 387.919 192.073 389.826C192.098 391.733 191.72 393.645 190.593 395.179L259.918 394.274C265.623 394.2 270.24 398.714 270.315 404.418C270.389 410.139 265.896 415.143 260.191 415.218L88.0557 417.463C82.3509 417.538 77.3567 412.657 77.2821 406.937C77.2077 401.232 82.0777 396.595 87.7825 396.52L157.108 395.616C155.941 394.111 155.513 392.21 155.488 390.303C155.414 384.598 159.943 379.965 165.648 379.891L172.499 379.802C171.332 378.297 170.936 376.395 170.911 374.489C170.871 371.45 172.35 368.376 174.248 366.445C172.301 364.578 170.747 361.932 170.707 358.878C170.633 353.173 175.125 348.153 180.861 348.078L187.713 347.989C186.546 346.485 186.154 344.97 186.13 343.064C186.055 337.359 190.548 332.339 196.625 332.259L203.105 332.175C202.341 330.665 201.546 329.156 201.521 327.249C201.481 324.195 202.961 321.137 205.23 319.201C202.911 317.324 201.357 314.677 201.317 311.639C201.238 305.546 206.139 300.909 211.844 300.834L218.324 300.75C217.529 299.241 216.76 297.343 216.74 295.824C216.695 292.398 218.18 289.712 220.418 287.776C218.13 285.899 216.576 283.252 216.531 279.826C216.457 274.121 221.327 269.484 227.031 269.409L233.511 269.325C232.747 267.815 231.947 265.919 231.923 264.012C231.848 258.307 236.749 253.669 242.454 253.595L248.934 253.51C248.139 252.001 247.742 250.099 247.717 248.193C247.677 245.154 248.79 242.473 251.028 240.537C248.74 238.659 247.553 235.62 247.513 232.582C247.439 226.877 251.937 222.245 257.673 222.17L264.122 222.086C263.358 220.576 262.961 218.674 262.936 216.767C262.861 211.047 267.359 206.43 273.064 206.356L279.544 206.271C278.749 204.762 278.352 202.86 278.327 200.953C278.288 197.899 279.395 194.846 281.665 192.909C279.345 191.033 278.163 188.381 278.124 185.343C278.049 179.622 282.542 174.618 288.278 174.543L295.13 174.454C293.963 172.949 293.571 171.435 293.546 169.528C293.521 167.621 293.869 165.71 294.996 164.176L234.445 164.966C235.612 166.47 236.008 168.372 236.033 170.279C236.108 175.983 231.61 180.616 225.874 180.691L210.279 180.894C204.574 180.969 199.554 176.46 199.479 170.755C199.405 165.035 204.301 160.025 210.006 159.951L216.486 159.866C215.691 158.357 214.927 156.848 214.902 154.941C214.827 149.221 219.692 144.211 225.397 144.137L231.877 144.052C231.113 142.543 230.318 141.018 230.293 139.127C230.214 133.035 235.115 128.397 240.82 128.322C246.524 128.248 251.173 132.761 251.252 138.853C251.277 140.745 250.894 142.285 250.17 143.814L444.349 141.28C450.054 141.206 454.707 146.091 454.782 151.811ZM137.851 234.013C137.777 228.308 142.275 223.675 148.011 223.6C153.715 223.526 158.705 228.035 158.779 233.74C158.854 239.444 153.989 244.469 148.284 244.544C142.548 244.619 137.926 239.717 137.851 234.013ZM153.243 218.199C153.168 212.478 157.697 207.861 163.402 207.786C169.107 207.712 174.127 212.205 174.202 217.925C174.276 223.63 169.375 228.268 163.67 228.342C157.966 228.417 153.317 223.903 153.243 218.199ZM168.665 202.384C168.591 196.664 173.089 192.047 178.825 191.972C184.902 191.893 189.55 196.39 189.624 202.111C189.699 207.815 185.17 212.448 179.093 212.528C173.357 212.602 168.74 208.089 168.665 202.384ZM184.088 186.57C184.013 180.849 188.506 175.845 194.583 175.765C200.319 175.691 204.941 180.576 205.016 186.297C205.09 192.001 200.592 196.634 194.856 196.709C188.78 196.788 184.162 192.274 184.088 186.57ZM377.731 230.883C377.806 236.588 373.313 241.608 367.608 241.682C361.5 241.762 356.878 236.861 356.803 231.156C356.729 225.451 361.227 220.819 367.335 220.739C373.04 220.665 377.657 225.178 377.731 230.883ZM393.154 215.069C393.228 220.773 388.699 225.406 382.994 225.481C377.29 225.555 372.269 221.047 372.195 215.342C372.12 209.622 377.021 204.999 382.726 204.925C388.431 204.851 393.079 209.348 393.154 215.069ZM408.545 199.255C408.62 204.959 404.122 209.592 398.417 209.666C392.681 209.741 387.692 205.232 387.617 199.528C387.543 193.807 392.413 189.185 398.149 189.111C403.854 189.036 408.471 193.534 408.545 199.255ZM470.576 135.992C470.651 141.697 465.75 146.335 460.045 146.409C454.34 146.484 449.692 141.97 449.617 136.266C449.538 130.173 454.067 125.54 459.772 125.466C465.476 125.391 470.497 129.9 470.576 135.992ZM365.021 483.243C365.096 488.948 360.598 493.58 354.893 493.655L166.79 496.109C161.054 496.183 156.437 491.67 156.363 485.965C156.288 480.245 160.781 475.24 166.517 475.165L220.185 474.465C219.421 472.956 218.626 471.446 218.602 469.54C218.527 463.819 223.423 458.809 229.128 458.735L235.608 458.65C234.813 457.141 234.049 455.632 234.024 453.725C233.979 450.299 235.464 447.613 237.733 445.676C235.414 443.799 233.86 441.153 233.815 437.727C233.741 432.022 238.611 427.385 244.347 427.31L250.796 427.226C250.032 425.716 249.635 423.814 249.61 421.908C249.535 416.203 254.033 411.57 259.738 411.496L266.218 411.411C265.423 409.902 265.026 408 265.001 406.093C264.962 403.04 266.074 400.358 268.344 398.437C266.024 396.56 264.837 393.521 264.798 390.483C264.723 384.763 269.221 380.145 274.957 380.071L281.406 379.987C280.642 378.462 280.245 376.575 280.22 374.668C280.18 371.614 281.262 368.933 283.531 367.012C281.212 365.135 280.056 362.096 280.017 359.058C279.942 353.337 284.44 348.72 290.145 348.646L296.997 348.557C295.83 347.037 295.433 345.15 295.408 343.244C295.333 337.523 299.863 332.906 305.567 332.831L312.419 332.742C311.247 330.85 310.855 329.32 310.83 327.429C310.791 324.375 312.27 321.317 314.137 319.386C312.22 317.503 310.666 314.857 310.627 311.818C310.552 306.098 315.045 301.094 320.75 301.019L327.602 300.93C326.466 299.425 326.043 297.896 326.018 296.004C325.939 289.897 330.468 285.279 336.173 285.205L343.025 285.115C341.858 283.611 341.465 282.081 341.441 280.174C341.396 276.748 342.88 274.062 344.747 272.146C342.831 270.264 341.277 267.618 341.232 264.192C341.157 258.471 345.656 253.854 351.763 253.775L358.212 253.691C357.448 252.166 356.648 250.284 356.624 248.378C356.599 246.471 357.354 244.942 358.078 243.397L304.41 244.097C298.705 244.172 294.052 239.286 293.977 233.582C293.903 227.861 298.432 223.244 304.137 223.169L429.394 221.535C435.099 221.461 439.747 225.959 439.821 231.679C439.896 237.384 435.372 242.389 429.667 242.463L391.594 242.96C392.761 244.48 393.153 245.994 393.178 247.901C393.252 253.605 388.759 258.626 383.054 258.7L376.202 258.789C377.338 260.294 377.761 261.808 377.786 263.715C377.831 267.141 376.346 269.827 374.449 271.759C376.396 273.625 377.95 276.272 377.995 279.697C378.069 285.418 373.54 290.051 367.835 290.125L360.984 290.215C362.151 291.719 362.547 293.621 362.572 295.527C362.647 301.232 358.149 305.865 352.444 305.939L345.592 306.029C346.356 307.538 347.156 309.435 347.181 311.342C347.22 314.38 345.736 317.066 343.839 318.998C345.786 320.88 347.345 323.898 347.385 326.952C347.409 328.843 346.654 330.388 345.935 332.305L399.603 331.605C405.308 331.53 409.956 336.028 410.031 341.748C410.105 347.453 405.576 352.086 399.871 352.16L314.951 353.268C315.746 354.777 316.546 356.674 316.571 358.581C316.61 361.619 315.1 364.693 312.861 366.63C315.149 368.491 316.734 371.138 316.774 374.191C316.849 379.896 311.953 384.922 306.248 384.996L299.768 385.081C300.563 386.59 301.327 388.099 301.352 390.006C301.391 393.044 299.912 396.118 297.643 398.055C299.962 399.916 301.516 402.563 301.555 405.617C301.63 411.321 296.734 416.347 291.029 416.421L284.549 416.506C285.344 418.015 285.736 419.529 285.761 421.436C285.84 427.528 281.342 432.161 275.638 432.235L269.158 432.32C269.922 433.829 270.344 435.343 270.369 437.25C270.414 440.676 269.302 443.357 267.032 445.294C269.351 447.171 270.533 449.822 270.578 453.248C270.652 458.953 266.124 463.586 260.419 463.66L253.939 463.745C254.734 465.254 255.131 467.156 255.156 469.063C255.18 470.97 254.828 472.494 254.073 474.023L354.62 472.711C360.324 472.637 364.947 477.522 365.021 483.243ZM457.658 372.353C457.697 375.392 456.218 378.466 453.948 380.402C456.267 382.264 457.821 384.91 457.861 387.964C457.936 393.669 453.04 398.694 447.335 398.769L440.855 398.853C441.65 400.362 442.042 401.877 442.067 403.783C442.106 406.822 440.999 409.891 438.729 411.827C441.049 413.704 442.231 416.356 442.27 419.394C442.35 425.486 437.821 430.119 432.116 430.194L425.667 430.278C426.431 431.788 426.823 433.302 426.848 435.209C426.927 441.301 422.429 445.934 416.725 446.008L410.245 446.092C411.04 447.602 411.436 449.504 411.461 451.41C411.536 457.115 407.007 461.748 401.302 461.822L394.45 461.912C395.617 463.416 396.014 465.318 396.039 467.225C396.113 472.93 391.615 477.562 385.911 477.637L370.284 477.84C364.58 477.915 359.559 473.406 359.485 467.702C359.41 461.981 364.306 456.971 370.011 456.897L376.491 456.812C375.696 455.303 374.932 453.794 374.907 451.887C374.828 445.795 379.698 441.157 385.434 441.083L391.883 440.998C391.119 439.489 390.319 437.592 390.294 435.686C390.219 429.981 395.12 425.343 400.825 425.268L407.305 425.184C406.51 423.675 406.113 421.773 406.088 419.866C406.049 416.828 407.161 414.146 409.431 412.21C407.111 410.333 405.924 407.294 405.885 404.255C405.81 398.535 410.339 393.918 416.044 393.843L422.524 393.759C421.729 392.25 421.332 390.348 421.307 388.441C421.267 385.387 422.38 382.706 424.618 380.785C422.33 378.908 421.143 375.869 421.104 372.83C421.079 370.924 421.426 369.012 422.181 367.483L415.701 367.567C409.996 367.642 405.348 363.128 405.274 357.424C405.199 351.703 409.728 347.086 415.433 347.011L431.028 346.808C436.733 346.733 441.381 351.231 441.456 356.952C441.481 358.858 441.133 360.754 440.378 362.299L446.858 362.215C452.563 362.14 457.583 366.633 457.658 372.353ZM483.739 270.333C486.058 272.194 487.612 274.841 487.657 278.267C487.696 281.321 486.212 284.007 483.943 285.944C486.262 287.805 487.816 290.451 487.861 293.893C487.935 299.598 483.034 304.236 477.329 304.31L470.849 304.395C471.644 305.904 472.413 307.801 472.438 309.707C472.512 315.412 467.642 320.05 461.907 320.125L455.458 320.209C456.222 321.718 457.022 323.615 457.047 325.522C457.121 331.226 452.22 335.864 446.515 335.939L415.294 336.346C409.589 336.42 404.941 331.907 404.866 326.202C404.792 320.482 409.316 315.477 415.021 315.403L437.096 315.115C436.301 313.605 435.909 312.076 435.884 310.184C435.809 304.464 440.333 299.459 446.038 299.385L452.518 299.3C451.723 297.791 451.331 296.261 451.306 294.37C451.262 290.928 452.374 288.247 454.613 286.326C452.324 284.449 451.142 281.798 451.103 278.744C451.058 275.318 452.17 272.636 454.409 270.716C452.121 268.838 450.939 266.187 450.894 262.761C450.869 260.854 451.221 259.33 451.977 257.801L445.497 257.885C439.792 257.96 435.139 253.059 435.064 247.354C434.99 241.634 439.519 237.016 445.224 236.942L460.819 236.739C466.555 236.664 471.544 241.157 471.618 246.877C471.643 248.784 470.924 250.685 470.169 252.23L476.649 252.145C482.353 252.071 487.374 256.564 487.448 262.284C487.493 265.71 486.008 268.396 483.739 270.333Z" fill="#010101"></path>
</g>
<defs>
<clipPath id="SvgjsClipPath1009">
<rect width="601.146" height="613.943" fill="white" transform="translate(0 0.817383)"></rect>
</clipPath>
</defs>
</svg><style>@media (prefers-color-scheme: light) { :root { filter: none; } }
@media (prefers-color-scheme: dark) { :root { filter: none; } }
</style></svg>