<svg width="2560" height="2560" viewBox="0 0 2560 2560" fill="none" xmlns="http://www.w3.org/2000/svg">
<rect width="2560" height="2560" fill="#AEAEAE"/>
<g id="MapChemnitz" clip-path="url(#clip0_2691_7912)">
<rect width="2560" height="2560" fill="black"/>
<rect id="background" width="2560" height="2560" fill="white"/>
<path id="chemnitz (Stroke)" d="M1008 2560V1899.88C1008 1889.27 1003.79 1879.1 996.284 1871.6L944.402 1819.72C933.9 1809.21 928 1794.97 928 1780.12V1451.88C928 1437.03 933.9 1422.79 944.402 1412.28L1044.28 1312.4C1051.79 1304.9 1056 1294.73 1056 1284.12V779.882C1056 765.03 1061.9 750.786 1072.4 740.284L1196.28 616.402C1206.79 605.9 1221.03 600 1235.88 600H2004.12C2014.73 600 2024.9 595.786 2032.4 588.284L2396.28 224.402C2403.79 216.901 2408 206.727 2408 196.118V-40C2408 -44.4183 2411.58 -48 2416 -48C2420.42 -48 2424 -44.4183 2424 -40V196.118C2424 210.97 2418.1 225.214 2407.6 235.716L2043.72 599.598C2033.21 610.1 2018.97 616 2004.12 616H1235.88C1225.27 616 1215.1 620.214 1207.6 627.716L1083.72 751.598C1076.21 759.099 1072 769.273 1072 779.882V1284.12C1072 1298.97 1066.1 1313.21 1055.6 1323.72L955.716 1423.6C948.214 1431.1 944 1441.27 944 1451.88V1780.12C944 1790.73 948.214 1800.9 955.716 1808.4L1007.6 1860.28C1018.1 1870.79 1024 1885.03 1024 1899.88V2560C1024 2564.42 1020.42 2568 1016 2568C1011.58 2568 1008 2564.42 1008 2560Z" fill="#DBE6EF"/>
<g id="6">
<path id="6shadow" d="M1056 2136V1409.94C1056 1403.58 1058.53 1397.47 1063.03 1392.97L1177.94 1278.06C1186.94 1269.06 1192 1256.85 1192 1244.12V1196C1192 1189.37 1197.37 1184 1204 1184H1376C1411.35 1184 1440 1155.35 1440 1120V934C1440 917.431 1453.43 904 1470 904H1984M1984 904H2164.12C2176.85 904 2189.06 898.943 2198.06 889.941L2222 866C2236.36 851.641 2259.64 851.641 2274 866C2288.36 880.359 2288.36 903.641 2274 918L2158.63 1033.37C2146.13 1045.87 2125.87 1045.87 2113.37 1033.37L1984 904Z" stroke="white" stroke-width="18" stroke-linecap="round"/>
<path id="6_2" d="M1056 2136V1409.94C1056 1403.58 1058.53 1397.47 1063.03 1392.97L1177.94 1278.06C1186.94 1269.06 1192 1256.85 1192 1244.12V1196C1192 1189.37 1197.37 1184 1204 1184H1376C1411.35 1184 1440 1155.35 1440 1120V934C1440 917.431 1453.43 904 1470 904H1984M1984 904H2164.12C2176.85 904 2189.06 898.943 2198.06 889.941L2222 866C2236.36 851.641 2259.64 851.641 2274 866C2288.36 880.359 2288.36 903.641 2274 918L2158.63 1033.37C2146.13 1045.87 2125.87 1045.87 2113.37 1033.37L1984 904Z" stroke="#E30613" stroke-width="8" stroke-linecap="round"/>
</g>
<g id="5">
<path id="5shadow" d="M296 2240L472.971 2063.03C477.471 2058.53 483.576 2056 489.941 2056H678.059C684.424 2056 690.529 2053.47 695.029 2048.97L800.971 1943.03C805.472 1938.53 811.576 1936 817.941 1936H1016C1029.25 1936 1040 1925.25 1040 1912V1412.3C1040 1399.3 1045.16 1386.84 1054.35 1377.65L1168.97 1263.03C1173.47 1258.53 1176 1252.42 1176 1246.06V1212C1176 1205.37 1181.37 1200 1188 1200H1398.38C1425.43 1200 1451.78 1191.43 1473.66 1175.52L1494.34 1160.48C1516.22 1144.57 1542.57 1136 1569.62 1136H1738.98C1772.93 1136 1805.49 1149.49 1829.49 1173.49L2304.97 1648.97C2309.47 1653.47 2312 1659.58 2312 1665.94V1864" stroke="white" stroke-width="18" stroke-linecap="round"/>
<path id="5_2" d="M296 2240L472.971 2063.03C477.471 2058.53 483.576 2056 489.941 2056H678.059C684.424 2056 690.529 2053.47 695.029 2048.97L800.971 1943.03C805.472 1938.53 811.576 1936 817.941 1936H1016C1029.25 1936 1040 1925.25 1040 1912V1412.3C1040 1399.3 1045.16 1386.84 1054.35 1377.65L1168.97 1263.03C1173.47 1258.53 1176 1252.42 1176 1246.06V1212C1176 1205.37 1181.37 1200 1188 1200H1398.38C1425.43 1200 1451.78 1191.43 1473.66 1175.52L1494.34 1160.48C1516.22 1144.57 1542.57 1136 1569.62 1136H1738.98C1772.93 1136 1805.49 1149.49 1829.49 1173.49L2304.97 1648.97C2309.47 1653.47 2312 1659.58 2312 1665.94V1864" stroke="#E30613" stroke-width="8" stroke-linecap="round"/>
</g>
<g id="4">
<path id="4shadow" d="M284 2228L464.971 2047.03C469.471 2042.53 472 2036.42 472 2030.06V1737.94C472 1731.58 474.529 1725.47 479.029 1720.97L1024.97 1175.03C1029.47 1170.53 1035.58 1168 1041.94 1168H1376C1402.51 1168 1424 1146.51 1424 1120V933C1424 908.147 1444.15 888 1469 888H1944M1944 888H2166.06C2172.42 888 2178.53 885.471 2183.03 880.971L2210 854C2230.99 833.013 2265.01 833.013 2286 854C2306.99 874.987 2306.99 909.013 2286 930L2172.77 1043.23C2152.46 1063.54 2119.54 1063.54 2099.23 1043.23L1944 888Z" stroke="white" stroke-width="18" stroke-linecap="round"/>
<path id="4_2" d="M284 2228L464.971 2047.03C469.471 2042.53 472 2036.42 472 2030.06V1737.94C472 1731.58 474.529 1725.47 479.029 1720.97L1024.97 1175.03C1029.47 1170.53 1035.58 1168 1041.94 1168H1376C1402.51 1168 1424 1146.51 1424 1120V933C1424 908.147 1444.15 888 1469 888H1944M1944 888H2166.06C2172.42 888 2178.53 885.471 2183.03 880.971L2210 854C2230.99 833.013 2265.01 833.013 2286 854C2306.99 874.987 2306.99 909.013 2286 930L2172.77 1043.23C2152.46 1063.54 2119.54 1063.54 2099.23 1043.23L1944 888Z" stroke="#E30613" stroke-width="8" stroke-linecap="round"/>
</g>
<g id="3">
<path id="3shadow" d="M1320 1632H1428C1434.63 1632 1440 1626.63 1440 1620V1497.94C1440 1491.58 1442.53 1485.47 1447.03 1480.97L1531.51 1396.49C1536.2 1391.8 1536.2 1384.2 1531.51 1379.51L1499.51 1347.51C1497.26 1345.26 1496 1342.21 1496 1339.03V1290.46C1496 1235.69 1489.28 1181.13 1476 1128C1462.72 1074.87 1456 1020.31 1456 965.538V932C1456 925.373 1461.37 920 1468 920H2024M2024 920H2170.93C2184.42 920 2197.36 914.641 2206.9 905.103L2234 878C2241.73 870.268 2254.27 870.268 2262 878C2269.73 885.732 2269.73 898.268 2262 906L2144.49 1023.51C2139.8 1028.2 2132.2 1028.2 2127.51 1023.51L2024 920Z" stroke="white" stroke-width="18" stroke-linecap="round"/>
<path id="3_2" d="M1320 1632H1428C1434.63 1632 1440 1626.63 1440 1620V1497.94C1440 1491.58 1442.53 1485.47 1447.03 1480.97L1531.51 1396.49C1536.2 1391.8 1536.2 1384.2 1531.51 1379.51L1499.51 1347.51C1497.26 1345.26 1496 1342.21 1496 1339.03V1290.46C1496 1235.69 1489.28 1181.13 1476 1128C1462.72 1074.87 1456 1020.31 1456 965.538V932C1456 925.373 1461.37 920 1468 920H2024M2024 920H2170.93C2184.42 920 2197.36 914.641 2206.9 905.103L2234 878C2241.73 870.268 2254.27 870.268 2262 878C2269.73 885.732 2269.73 898.268 2262 906L2144.49 1023.51C2139.8 1028.2 2132.2 1028.2 2127.51 1023.51L2024 920Z" stroke="#E30613" stroke-width="8" stroke-linecap="round"/>
</g>
<g id="1">
<path id="1shadow" d="M360 1152H1376C1393.67 1152 1408 1137.67 1408 1120V932C1408 898.863 1434.86 872 1468 872H1756C1762.63 872 1768 877.373 1768 884V1120C1768 1137.67 1753.67 1152 1736 1152H1560C1515.82 1152 1480 1187.82 1480 1232V1332.12C1480 1344.85 1485.06 1357.06 1494.06 1366.06L1648.97 1520.97C1653.47 1525.47 1656 1531.58 1656 1537.94V1864" stroke="white" stroke-width="18" stroke-linecap="round"/>
<path id="1_2" d="M360 1152H1376C1393.67 1152 1408 1137.67 1408 1120V932C1408 898.863 1434.86 872 1468 872H1756C1762.63 872 1768 877.373 1768 884V1120C1768 1137.67 1753.67 1152 1736 1152H1560C1515.82 1152 1480 1187.82 1480 1232V1332.12C1480 1344.85 1485.06 1357.06 1494.06 1366.06L1648.97 1520.97C1653.47 1525.47 1656 1531.58 1656 1537.94V1864" stroke="#E30613" stroke-width="8" stroke-linecap="round"/>
</g>
<g id="stations">
<rect id="hutholz" x="272.757" y="2227.07" width="16" height="34" rx="8" transform="rotate(-45 272.757 2227.07)" fill="black" stroke="black" stroke-width="6"/>
<rect id="pappelhain" x="2304" y="1768" width="16" height="16" rx="8" transform="rotate(-90 2304 1768)" fill="white" stroke="black" stroke-width="6"/>
<rect id="arthur-strobel-str" x="2304" y="1704" width="16" height="16" rx="8" transform="rotate(-90 2304 1704)" fill="white" stroke="black" stroke-width="6"/>
<rect id="gablenzplatz" x="2244" y="1604" width="16" height="16" rx="8" transform="rotate(-90 2244 1604)" fill="white" stroke="black" stroke-width="6"/>
<rect id="n&#195;&#188;rnbergstr" x="2132" y="1492" width="16" height="16" rx="8" transform="rotate(-90 2132 1492)" fill="white" stroke="black" stroke-width="6"/>
<rect id="tschaikowskistr" x="2000" y="1360" width="16" height="16" rx="8" transform="rotate(-90 2000 1360)" fill="white" stroke="black" stroke-width="6"/>
<rect id="reinecherstr" x="2060" y="1420" width="16" height="16" rx="8" transform="rotate(-90 2060 1420)" fill="white" stroke="black" stroke-width="6"/>
<rect id="bahnhofstr" x="1858" y="1218" width="16" height="16" rx="8" transform="rotate(-90 1858 1218)" fill="white" stroke="black" stroke-width="6"/>
<rect id="br&#195;&#188;ckenstrfreiepresse" x="1760" y="1012" width="16" height="16" rx="8" transform="rotate(-90 1760 1012)" fill="white" stroke="black" stroke-width="6"/>
<rect id="stefan-heym-platz" x="1668" y="1160" width="32" height="16" rx="8" transform="rotate(-90 1668 1160)" fill="white" stroke="black" stroke-width="6"/>
<rect id="zieschestr" x="1934" y="1294" width="16" height="16" rx="8" transform="rotate(-90 1934 1294)" fill="white" stroke="black" stroke-width="6"/>
<rect id="ernst-wabra-str" x="340.757" y="2160.07" width="16" height="34" rx="8" transform="rotate(-45 340.757 2160.07)" fill="white" stroke="black" stroke-width="6"/>
<rect id="johann-richter-str" x="388.757" y="2112.07" width="16" height="34" rx="8" transform="rotate(-45 388.757 2112.07)" fill="white" stroke="black" stroke-width="6"/>
<rect id="morgenleite" x="436.757" y="2064.07" width="16" height="34" rx="8" transform="rotate(-45 436.757 2064.07)" fill="white" stroke="black" stroke-width="6"/>
<rect id="heitererblick" x="464" y="1864" width="16" height="16" rx="8" transform="rotate(-90 464 1864)" fill="white" stroke="black" stroke-width="6"/>
<rect id="s&#195;&#188;dring" x="488" y="1712" width="16" height="16" rx="8" transform="rotate(-90 488 1712)" fill="white" stroke="black" stroke-width="6"/>
<rect id="dr-salvador-allende-str" x="544" y="1656" width="16" height="16" rx="8" transform="rotate(-90 544 1656)" fill="white" stroke="black" stroke-width="6"/>
<rect id="ikarus" x="632" y="1568" width="16" height="16" rx="8" transform="rotate(-90 632 1568)" fill="white" stroke="black" stroke-width="6"/>
<rect id="amflughafen" x="672" y="1528" width="16" height="16" rx="8" transform="rotate(-90 672 1528)" fill="white" stroke="black" stroke-width="6"/>
<rect id="irkutskerstr" x="724" y="1476" width="16" height="16" rx="8" transform="rotate(-90 724 1476)" fill="white" stroke="black" stroke-width="6"/>
<rect id="haydnstr" x="784" y="1416" width="16" height="16" rx="8" transform="rotate(-90 784 1416)" fill="white" stroke="black" stroke-width="6"/>
<rect id="goetheplatz" x="834" y="1366" width="16" height="16" rx="8" transform="rotate(-90 834 1366)" fill="white" stroke="black" stroke-width="6"/>
<rect id="parkstr" x="884" y="1316" width="16" height="16" rx="8" transform="rotate(-90 884 1316)" fill="white" stroke="black" stroke-width="6"/>
<rect id="bfmitte" x="974" y="1226" width="16" height="16" rx="8" transform="rotate(-90 974 1226)" fill="white" stroke="black" stroke-width="6"/>
<rect id="reichstr" x="936" y="1160" width="16" height="16" rx="8" transform="rotate(-90 936 1160)" fill="white" stroke="black" stroke-width="6"/>
<rect id="mariannebrandtstr" x="864" y="1160" width="16" height="16" rx="8" transform="rotate(-90 864 1160)" fill="white" stroke="black" stroke-width="6"/>
<rect id="industriemuseum" x="776" y="1160" width="16" height="16" rx="8" transform="rotate(-90 776 1160)" fill="white" stroke="black" stroke-width="6"/>
<rect id="kapplerdrehe" x="700" y="1160" width="16" height="16" rx="8" transform="rotate(-90 700 1160)" fill="white" stroke="black" stroke-width="6"/>
<rect id="amfeldschl&#195;&#182;&#195;&#159;chen" x="564" y="1160" width="16" height="16" rx="8" transform="rotate(-90 564 1160)" fill="white" stroke="black" stroke-width="6"/>
<rect id="guerickestrmessechemnitz" x="440" y="1160" width="16" height="16" rx="8" transform="rotate(-90 440 1160)" fill="white" stroke="black" stroke-width="6"/>
<rect id="sch&#195;&#182;nau" x="352" y="1160" width="16" height="16" rx="8" transform="rotate(-90 352 1160)" fill="black" stroke="black" stroke-width="6"/>
<rect id="falkeplatzmuseumgunzenhauser" x="1096" y="1176" width="32" height="16" rx="8" transform="rotate(-90 1096 1176)" fill="white" stroke="black" stroke-width="6"/>
<rect id="roterturm" x="1548" y="928" width="64" height="16" rx="8" transform="rotate(-90 1548 928)" fill="white" stroke="black" stroke-width="6"/>
<rect id="theterplatz" x="1908" y="928" width="48" height="16" rx="8" transform="rotate(-90 1908 928)" fill="white" stroke="black" stroke-width="6"/>
<rect id="hauptbahnhof" x="2224.07" y="932.757" width="50" height="16" rx="8" transform="rotate(45 2224.07 932.757)" fill="white" stroke="black" stroke-width="6"/>
<rect id="hauptbahnhof_2" x="2224.07" y="932.757" width="50" height="16" rx="8" transform="rotate(45 2224.07 932.757)" fill="white" stroke="black" stroke-width="6"/>
<rect id="hbfbahnhofstr" x="2156.07" y="1000.76" width="50" height="16" rx="8" transform="rotate(45 2156.07 1000.76)" fill="white" stroke="black" stroke-width="6"/>
<rect id="omnibusbahnhof" x="2200.07" y="852.757" width="50" height="16" rx="8" transform="rotate(45 2200.07 852.757)" fill="white" stroke="black" stroke-width="6"/>
<rect id="vita-center" x="584" y="2064" width="16" height="16" rx="8" transform="rotate(-90 584 2064)" fill="white" stroke="black" stroke-width="6"/>
<rect id="rober-siewert-str" x="712" y="2032" width="16" height="16" rx="8" transform="rotate(-90 712 2032)" fill="white" stroke="black" stroke-width="6"/>
<rect id="dittersdorferstr" x="848" y="1944" width="16" height="16" rx="8" transform="rotate(-90 848 1944)" fill="white" stroke="black" stroke-width="6"/>
<rect id="markersdorferstr" x="960" y="1944" width="16" height="16" rx="8" transform="rotate(-90 960 1944)" fill="white" stroke="black" stroke-width="6"/>
<rect id="altchemnitzcenter" x="1048" y="1984" width="16" height="16" rx="8" transform="rotate(-90 1048 1984)" fill="white" stroke="black" stroke-width="6"/>
<rect id="schneebergerstr" x="1048" y="2068" width="16" height="16" rx="8" transform="rotate(-90 1048 2068)" fill="white" stroke="black" stroke-width="6"/>
<rect id="altchemnitz" x="1048" y="2144" width="16" height="16" rx="8" transform="rotate(-90 1048 2144)" fill="black" stroke="black" stroke-width="6"/>
<rect id="technopark" x="1312" y="1640" width="16" height="16" rx="8" transform="rotate(-90 1312 1640)" fill="black" stroke="black" stroke-width="6"/>
<rect id="tucampus" x="1432" y="1616" width="16" height="16" rx="8" transform="rotate(-90 1432 1616)" fill="white" stroke="black" stroke-width="6"/>
<rect id="rosenbergstr" x="1432" y="1536" width="16" height="16" rx="8" transform="rotate(-90 1432 1536)" fill="white" stroke="black" stroke-width="6"/>
<rect id="stadlerplatz" x="1468" y="1460" width="16" height="16" rx="8" transform="rotate(-90 1468 1460)" fill="white" stroke="black" stroke-width="6"/>
<rect id="lutherstr" x="1584" y="1472" width="16" height="16" rx="8" transform="rotate(-90 1584 1472)" fill="white" stroke="black" stroke-width="6"/>
<rect id="gutenbergstr" x="1648" y="1564" width="16" height="16" rx="8" transform="rotate(-90 1648 1564)" fill="white" stroke="black" stroke-width="6"/>
<rect id="wartburgstr" x="1648" y="1664" width="16" height="16" rx="8" transform="rotate(-90 1648 1664)" fill="white" stroke="black" stroke-width="6"/>
<rect id="augsburgerstr" x="1648" y="1832" width="16" height="16" rx="8" transform="rotate(-90 1648 1832)" fill="white" stroke="black" stroke-width="6"/>
<rect id="bernsdorf" x="1648" y="1872" width="16" height="16" rx="8" transform="rotate(-90 1648 1872)" fill="black" stroke="black" stroke-width="6"/>
<rect id="gablenz" x="2304" y="1872" width="16" height="16" rx="8" transform="rotate(-90 2304 1872)" fill="black" stroke="black" stroke-width="6"/>
<rect id="schulealtchemnitz" x="1032" y="1896" width="32" height="16" rx="8" fill="white" stroke="black" stroke-width="6"/>
<rect id="scheffelstr" x="1032" y="1824" width="32" height="16" rx="8" fill="white" stroke="black" stroke-width="6"/>
<rect id="erdmannsdorferstr" x="1032" y="1616" width="32" height="16" rx="8" fill="white" stroke="black" stroke-width="6"/>
<rect id="treffurthstr" x="1032" y="1424" width="32" height="16" rx="8" fill="white" stroke="black" stroke-width="6"/>
<rect id="moritzhof" x="1168" y="1224" width="32" height="16" rx="8" fill="white" stroke="black" stroke-width="6"/>
<rect id="annenstr" x="1472" y="1276" width="32" height="16" rx="8" fill="white" stroke="black" stroke-width="6"/>
<path id="zentralhaltestelle" d="M1523 1044C1532.39 1044 1540 1051.61 1540 1061V1160C1540 1164.42 1536.42 1168 1532 1168C1527.58 1168 1524 1164.42 1524 1160V1063C1524 1061.34 1522.66 1060 1521 1060H1408C1403.58 1060 1400 1056.42 1400 1052C1400 1047.58 1403.58 1044 1408 1044H1523Z" fill="white" stroke="black" stroke-width="6"/>
<rect id="bernsbachplatz" x="1472" y="1324" width="32" height="16" rx="8" fill="white" stroke="black" stroke-width="6"/>
<rect id="gustav-freytag-str" x="1128.07" y="1292.76" width="34" height="16" rx="8" transform="rotate(45 1128.07 1292.76)" fill="white" stroke="black" stroke-width="6"/>
<rect id="r&#195;&#182;&#195;&#159;lerstr" x="1032" y="1488" width="32" height="16" rx="8" fill="white" stroke="black" stroke-width="6"/>
</g>
</g>
<defs>
<clipPath id="clip0_2691_7912">
<rect width="2560" height="2560" fill="white"/>
</clipPath>
</defs>
</svg>
