<?xml version="1.0" encoding="UTF-8"?>
<svg id="Ebene_2" data-name="Ebene 2" xmlns="http://www.w3.org/2000/svg" xmlns:xlink="http://www.w3.org/1999/xlink" viewBox="0 0 1174.03 293.05">
  <defs>
    <style>
      .cls-1 {
        fill: none;
      }

      .cls-2 {
        fill: #1d1d1b;
      }

      .cls-3 {
        clip-path: url(#clippath-1);
      }

      .cls-4 {
        clip-path: url(#clippath-3);
      }

      .cls-5 {
        clip-path: url(#clippath-4);
      }

      .cls-6 {
        clip-path: url(#clippath-2);
      }

      .cls-7 {
        clip-path: url(#clippath);
      }
    </style>
    <clipPath id="clippath">
      <rect class="cls-1" width="1174.03" height="293.05"/>
    </clipPath>
    <clipPath id="clippath-1">
      <rect class="cls-1" width="1174.03" height="293.05"/>
    </clipPath>
    <clipPath id="clippath-2">
      <rect class="cls-1" width="1174.03" height="293.05"/>
    </clipPath>
    <clipPath id="clippath-3">
      <rect class="cls-1" width="1174.03" height="293.05"/>
    </clipPath>
    <clipPath id="clippath-4">
      <rect class="cls-1" width="1174.03" height="293.05"/>
    </clipPath>
  </defs>
  <g id="Ebene_1-2" data-name="Ebene 1">
    <g>
      <g class="cls-7">
        <path class="cls-2" d="M169.56,240.55c-22.48,0-21.09-26.33-21.09-26.33l37.9.05c-1.29,9.29-3.82,18.01-7.73,26.2,0,0-3.03.08-9.08.08"/>
        <path class="cls-2" d="M157.41,268.67c-16.67,15.13-38.99,24.38-63.53,24.38-33.83,0-63.68-17.65-80.05-43.98l124.1-.15,19.48,19.75Z"/>
        <path class="cls-2" d="M85.72,196.25l43.05,44.13-119.54-.06c-5.59-11.7-8.71-24.75-8.71-38.52l-.04-5.48,85.23-.06Z"/>
      </g>
      <polygon class="cls-2" points=".49 143 .53 187.71 77.59 187.71 33 143 .49 143"/>
      <polygon class="cls-2" points=".52 134.43 24.47 134.48 .48 110.27 .52 134.43"/>
      <g class="cls-3">
        <path class="cls-2" d="M187.12,55.86H.53s-.13,26.54,19.24,26.51c19.28-.03,167.35,0,167.35,0v-26.51Z"/>
        <path class="cls-2" d="M187.12,108.18H49.24s-2.77,26.45,19.36,26.45,118.52.06,118.52.06v-26.51Z"/>
        <path class="cls-2" d="M120.53,187.01c-22.35,0-21.38-26.51-21.38-26.51h87.98v26.51h-66.6Z"/>
        <path class="cls-2" d="M15.46,8.2c-1.57-2.52-2.92-3.36-5.34-3.36-2.87,0-5.1,2.05-5.1,4.8,0,1.36.65,2.48,1.95,3.36.75.47,1.53.93,2.41,1.31l.97.47.97.42.97.41c4.95,2.2,6.98,4.66,6.98,8.53,0,5.36-4.25,9.57-9.72,9.57C4.61,33.7,1.2,30.85,0,25.72l3.33-.93c.83,3.73,2.95,5.69,6.2,5.69,3.57,0,6.31-2.65,6.31-6.1,0-1.92-.84-3.36-2.55-4.44-.79-.51-1.67-.97-2.69-1.4l-.92-.47-.93-.42-.92-.41C3.37,15.24,1.57,13.05,1.57,9.55,1.57,5.03,5.31,1.62,10.22,1.62c3.48,0,6.12,1.61,7.97,4.81l-2.73,1.77Z"/>
      </g>
      <path class="cls-2" d="M35.66.61l-14.17,32.57h3.74l3.69-8.81h13.14l3.65,8.81h3.79L35.66.61ZM35.61,8.71l5.13,12.45h-10.38l5.25-12.45Z"/>
      <g class="cls-6">
        <path class="cls-2" d="M76.04,8.94c-3.01-2.89-5.82-4.1-9.38-4.1-6.69,0-12.38,5.88-12.38,12.82s5.59,12.82,12.47,12.82c3.42,0,6.33-1.26,9.29-4.05v4.28c-3.01,2.03-5.91,2.99-9.19,2.99-8.82,0-16.02-7.18-16.02-15.95S58.07,1.62,66.89,1.62c3.47,0,6.01.83,9.15,3.04v4.29Z"/>
      </g>
      <polygon class="cls-2" points="102.09 2.14 102.09 14.79 86.45 14.79 86.45 2.14 82.99 2.14 82.99 33.17 86.45 33.17 86.45 18 102.09 18 102.09 33.17 105.55 33.17 105.55 2.14 102.09 2.14"/>
      <g class="cls-4">
        <path class="cls-2" d="M127.33,8.2c-1.57-2.52-2.92-3.36-5.33-3.36-2.88,0-5.11,2.05-5.11,4.8,0,1.36.65,2.48,1.95,3.36.75.47,1.53.93,2.42,1.31l.97.47.97.42.97.41c4.95,2.2,6.99,4.66,6.99,8.53,0,5.36-4.25,9.57-9.72,9.57-4.96,0-8.37-2.85-9.58-7.98l3.33-.93c.83,3.73,2.95,5.69,6.2,5.69,3.58,0,6.31-2.65,6.31-6.1,0-1.92-.84-3.36-2.55-4.44-.79-.51-1.67-.97-2.69-1.4l-.92-.47-.93-.42-.92-.41c-4.45-2.01-6.24-4.2-6.24-7.7,0-4.52,3.73-7.93,8.65-7.93,3.47,0,6.11,1.61,7.96,4.81l-2.73,1.77Z"/>
      </g>
      <polygon class="cls-2" points="137.5 2.14 137.5 33.17 153.42 33.17 153.42 29.96 140.96 29.96 140.96 17.83 153.1 17.83 153.1 14.61 140.96 14.61 140.96 5.37 153.42 5.37 153.42 2.14 137.5 2.14"/>
      <polygon class="cls-2" points="159.76 33.19 163.22 33.19 163.22 9.23 187.16 34.58 187.16 2.09 183.7 2.09 183.7 26.19 159.76 .79 159.76 33.19"/>
      <g class="cls-5">
        <path class="cls-2" d="M1095.7,274.26c0,1.41,1.07,2.49,2.49,2.49s2.48-1.08,2.48-2.49-1.08-2.49-2.48-2.49-2.49,1.08-2.49,2.49M1077.6,276.34h13.87v-3.36h-9.27l8.93-10.68v-3.36h-13.09v3.36h8.49l-8.93,10.68v3.36ZM1070.46,262.31h4.4v-3.36h-4.4v-5.04l-3.83.34v4.7h-2.89v3.36h2.89v8.29c0,4.26,2.05,6.15,6.58,6.15.67,0,1.48-.07,1.85-.14v-3.29c-.33.03-1.04.07-1.51.07-2.28,0-3.09-.87-3.09-2.82v-8.26ZM1056.19,254.22c0,1.34,1.04,2.38,2.38,2.38s2.38-1.04,2.38-2.38-1.04-2.38-2.38-2.38-2.38,1.04-2.38,2.38M1056.66,276.34h3.83v-17.39h-3.83v17.39ZM1039.84,264.79c.94-1.41,2.72-2.82,4.47-2.82,2.38,0,4,1.68,4,4.03v10.34h3.83v-10.54c0-4.36-2.89-7.25-7.08-7.25-1.98,0-3.93,1.01-5.21,2.42v-2.01h-3.83v17.39h3.83v-11.55ZM1004.32,258.95v17.39h3.83v-11.48c1.04-1.55,2.62-2.89,4.33-2.89,2.18,0,3.59,1.68,3.59,3.96v10.41h3.83v-10.61c0-.27-.02-.54-.03-.81,1.04-1.61,2.65-2.96,4.36-2.96,2.18,0,3.59,1.68,3.59,3.96v10.41h3.83v-10.61c0-4.23-2.75-7.19-6.85-7.19-2.35,0-4.65,1.24-5.96,3.12-1.16-1.93-3.21-3.12-5.79-3.12-1.95,0-3.76,1.08-4.9,2.42v-2.01h-3.83ZM991.76,261.84c2.5,0,4.43,1.66,5.02,3.9h-10.33c.72-2.28,2.89-3.9,5.31-3.9M1000.62,268.89c.1-.44.17-1.07.17-1.58,0-4.8-3.73-8.76-9.03-8.76s-9.37,4.03-9.37,9.1,3.86,9.1,9.64,9.1c3.09,0,5.78-1.08,7.69-3.16l-2.62-2.42c-1.38,1.41-3.19,2.28-5.17,2.28-2.87,0-5.19-1.91-5.62-4.57h14.32ZM966.91,264.79c.94-1.41,2.72-2.82,4.46-2.82,2.38,0,4,1.68,4,4.03v10.34h3.83v-10.54c0-4.36-2.89-7.25-7.08-7.25-1.98,0-3.93,1.01-5.2,2.42v-9.13h-3.83v24.51h3.83v-11.55ZM957.48,270.97c-1.65,1.31-3.79,2.28-6.08,2.28-4.73,0-8.49-3.76-8.49-8.66s3.76-8.66,8.49-8.66c2.38,0,4.1.91,5.91,2.12l1.98-2.99c-2.22-1.68-4.87-2.62-7.89-2.62-7.08,0-12.52,5.31-12.52,12.16s5.44,12.16,12.52,12.16c3.16,0,5.98-1.04,8.16-2.82l-2.08-2.95ZM921.94,262.31h4.4v-3.36h-4.4v-5.04l-3.83.34v4.7h-2.89v3.36h2.89v8.29c0,4.26,2.05,6.15,6.58,6.15.67,0,1.48-.07,1.85-.14v-3.29c-.34.03-1.04.07-1.51.07-2.28,0-3.09-.87-3.09-2.82v-8.26ZM902.53,258.55c-5.17,0-8.9,4.16-8.9,9.1s3.73,9.1,8.9,9.1c2.22,0,4.23-.74,5.78-2.28v1.88h3.83v-24.51h-3.83v9c-1.54-1.54-3.56-2.28-5.78-2.28M903.2,273.32c-3.19,0-5.67-2.48-5.67-5.67s2.48-5.68,5.67-5.68c2.25,0,4.2,1.28,5.1,3.16v5.07c-.91,1.88-2.85,3.12-5.1,3.12M880.5,258.55c-5.17,0-8.9,4.16-8.9,9.1s3.73,9.1,8.9,9.1c2.22,0,4.23-.74,5.78-2.28v1.88h3.83v-17.39h-3.83v1.88c-1.55-1.54-3.56-2.28-5.78-2.28M881.17,273.32c-3.19,0-5.68-2.48-5.68-5.67s2.49-5.68,5.68-5.68c2.25,0,4.2,1.28,5.1,3.16v5.07c-.91,1.88-2.85,3.12-5.1,3.12M864.91,262.31h4.4v-3.36h-4.4v-5.04l-3.83.34v4.7h-2.89v3.36h2.89v8.29c0,4.26,2.05,6.15,6.58,6.15.67,0,1.48-.07,1.85-.14v-3.29c-.34.03-1.04.07-1.51.07-2.28,0-3.09-.87-3.09-2.82v-8.26ZM839.66,272.95c1.98,2.38,5.2,3.8,8.5,3.8,5.3,0,8.46-2.82,8.46-6.85,0-3.63-1.98-6.04-7.49-7.32-3.52-.81-4.94-2.02-4.94-3.9,0-1.68,1.61-2.75,3.79-2.75,2.01,0,3.63,1.01,5.07,2.32l2.35-2.82c-1.81-1.85-4.36-2.99-7.59-2.99-4.5,0-7.66,2.62-7.66,6.51,0,3.42,2.35,5.84,7.29,6.88,4.03.84,5.14,2.28,5.14,4.06,0,2.08-1.88,3.36-4.6,3.36-2.25,0-4.33-1.34-5.84-2.99l-2.48,2.69ZM825.12,261.97c.57,0,1.21.1,1.78.3l.3-3.39c-.4-.2-1.01-.34-1.58-.34-2.18,0-3.8,1.08-5.1,2.62v-2.22h-3.83v17.39h3.83v-11.15c1.07-1.95,2.72-3.22,4.6-3.22M804.13,261.84c2.5,0,4.43,1.66,5.02,3.9h-10.33c.72-2.28,2.89-3.9,5.31-3.9M813,268.89c.1-.44.17-1.07.17-1.58,0-4.8-3.73-8.76-9.03-8.76s-9.37,4.03-9.37,9.1,3.86,9.1,9.64,9.1c3.09,0,5.77-1.08,7.69-3.16l-2.62-2.42c-1.38,1.41-3.19,2.28-5.17,2.28-2.87,0-5.19-1.91-5.62-4.57h14.32ZM781.63,258.55c-5.17,0-8.9,4.16-8.9,9.1s3.73,9.1,8.9,9.1c2.22,0,4.23-.74,5.78-2.28v1.88h3.83v-24.51h-3.83v9c-1.54-1.54-3.56-2.28-5.78-2.28M782.31,273.32c-3.19,0-5.67-2.48-5.67-5.67s2.48-5.68,5.67-5.68c2.25,0,4.2,1.28,5.1,3.16v5.07c-.91,1.88-2.85,3.12-5.1,3.12M755.14,276.34h3.83v-24.51h-3.83v24.51ZM742.42,261.84c2.5,0,4.43,1.66,5.02,3.9h-10.32c.72-2.28,2.89-3.9,5.3-3.9M751.28,268.89c.1-.44.17-1.07.17-1.58,0-4.8-3.73-8.76-9.03-8.76s-9.37,4.03-9.37,9.1,3.86,9.1,9.64,9.1c3.09,0,5.78-1.08,7.69-3.16l-2.62-2.42c-1.38,1.41-3.19,2.28-5.17,2.28-2.87,0-5.19-1.91-5.62-4.57h14.32ZM726.35,262.31h4.4v-3.36h-4.4v-5.04l-3.83.34v4.7h-2.89v3.36h2.89v8.29c0,4.26,2.05,6.15,6.58,6.15.67,0,1.48-.07,1.85-.14v-3.29c-.34.03-1.04.07-1.51.07-2.28,0-3.09-.87-3.09-2.82v-8.26ZM713.37,262.31h4.4v-3.36h-4.4v-5.04l-3.83.34v4.7h-2.89v3.36h2.89v8.29c0,4.26,2.05,6.15,6.58,6.15.67,0,1.48-.07,1.85-.14v-3.29c-.34.03-1.04.07-1.51.07-2.28,0-3.09-.87-3.09-2.82v-8.26ZM699.1,254.22c0,1.34,1.04,2.38,2.38,2.38s2.38-1.04,2.38-2.38-1.04-2.38-2.38-2.38-2.38,1.04-2.38,2.38M699.57,276.34h3.83v-17.39h-3.83v17.39ZM683.93,269.16l6.61-9.84v17.02h3.83v-23.51h-3.69l-7.99,11.95-7.99-11.95h-3.69v23.51h3.83v-17.02l6.61,9.84h2.49ZM643.94,264.79c.94-1.41,2.72-2.82,4.47-2.82,2.38,0,4,1.68,4,4.03v10.34h3.83v-10.54c0-4.36-2.89-7.25-7.09-7.25-1.98,0-3.93,1.01-5.21,2.42v-9.13h-3.83v24.51h3.83v-11.55ZM629.97,276.75c2.69,0,5-.94,6.72-2.52l-2.25-2.79c-1.21,1.11-2.75,1.88-4.47,1.88-3.19,0-5.67-2.48-5.67-5.67s2.48-5.68,5.67-5.68c1.71,0,3.16.77,4.4,1.78l1.98-2.99c-1.68-1.38-3.83-2.22-6.38-2.22-5.51,0-9.57,4.03-9.57,9.1s4.06,9.1,9.57,9.1M616.99,261.97c.57,0,1.21.1,1.78.3l.3-3.39c-.4-.2-1.01-.34-1.58-.34-2.18,0-3.79,1.08-5.1,2.62v-2.22h-3.83v17.39h3.83v-11.15c1.08-1.95,2.72-3.22,4.6-3.22M600.03,270.5c-.94,1.41-2.72,2.82-4.47,2.82-2.38,0-3.99-1.68-3.99-4.03v-10.34h-3.83v10.54c0,4.36,2.89,7.25,7.09,7.25,1.98,0,3.93-1.01,5.2-2.42v2.02h3.83v-17.39h-3.83v11.55ZM573.78,258.55c-5.17,0-8.9,4.16-8.9,9.1s3.73,9.1,8.9,9.1c2.22,0,4.23-.74,5.78-2.28v1.88h3.83v-24.51h-3.83v9c-1.54-1.54-3.56-2.28-5.78-2.28M574.45,273.32c-3.19,0-5.67-2.48-5.67-5.67s2.48-5.68,5.67-5.68c2.25,0,4.2,1.28,5.1,3.16v5.07c-.91,1.88-2.85,3.12-5.1,3.12M543.42,261.84c2.5,0,4.43,1.66,5.02,3.9h-10.33c.72-2.28,2.89-3.9,5.3-3.9M552.29,268.89c.1-.44.17-1.07.17-1.58,0-4.8-3.73-8.76-9.03-8.76s-9.37,4.03-9.37,9.1,3.86,9.1,9.64,9.1c3.09,0,5.78-1.08,7.69-3.16l-2.62-2.42c-1.38,1.41-3.19,2.28-5.17,2.28-2.87,0-5.19-1.91-5.62-4.57h14.32ZM526.06,254.22c0,1.34,1.04,2.38,2.38,2.38s2.38-1.04,2.38-2.38-1.04-2.38-2.38-2.38-2.38,1.04-2.38,2.38M526.53,276.34h3.83v-17.39h-3.83v17.39ZM508.8,258.95l-3.46,12.39-3.49-12.39h-3.96l5.44,17.39h3.96l3.49-12.49,3.49,12.49h3.96l5.44-17.39h-3.96l-3.49,12.39-3.46-12.39h-3.96ZM487.15,258.55c-5.51,0-9.57,4.03-9.57,9.1s4.06,9.1,9.57,9.1,9.57-4.03,9.57-9.1-4.06-9.1-9.57-9.1M487.15,273.32c-3.19,0-5.67-2.48-5.67-5.67s2.49-5.68,5.67-5.68,5.68,2.49,5.68,5.68-2.49,5.67-5.68,5.67M461.76,273.86c1.51,1.78,4.06,2.89,6.92,2.89,4.13,0,6.55-2.28,6.55-5.31s-1.81-4.7-5.91-5.54c-2.15-.44-3.09-1.31-3.09-2.38s1.11-1.68,2.58-1.68c1.38,0,2.45.67,3.66,1.65l2.05-2.58c-1.44-1.34-3.59-2.35-6.01-2.35-3.76,0-6.11,2.08-6.11,4.9s1.78,4.7,5.67,5.47c2.52.5,3.32,1.24,3.32,2.45,0,1.28-1.14,2.08-2.99,2.08s-3.43-.91-4.5-2.15l-2.15,2.55ZM436.21,264.79c.94-1.41,2.72-2.82,4.47-2.82,2.38,0,4,1.68,4,4.03v10.34h3.83v-10.54c0-4.36-2.89-7.25-7.08-7.25-1.98,0-3.93,1.01-5.2,2.42v-2.01h-3.83v17.39h3.83v-11.55ZM419.83,261.84c2.5,0,4.43,1.66,5.02,3.9h-10.33c.72-2.28,2.89-3.9,5.31-3.9M428.69,268.89c.1-.44.17-1.07.17-1.58,0-4.8-3.73-8.76-9.03-8.76s-9.37,4.03-9.37,9.1,3.86,9.1,9.64,9.1c3.09,0,5.77-1.08,7.69-3.16l-2.62-2.42c-1.38,1.41-3.19,2.28-5.17,2.28-2.87,0-5.19-1.91-5.62-4.57h14.32ZM402.47,254.22c0,1.34,1.04,2.38,2.38,2.38s2.38-1.04,2.38-2.38-1.04-2.38-2.38-2.38-2.38,1.04-2.38,2.38M402.94,276.34h3.83v-17.39h-3.83v17.39ZM388.46,258.55c-5.17,0-8.9,4.16-8.9,9.1s3.73,9.1,8.9,9.1c2.22,0,4.23-.74,5.77-2.28v1.88h3.83v-24.51h-3.83v9c-1.54-1.54-3.56-2.28-5.77-2.28M389.14,273.32c-3.19,0-5.67-2.48-5.67-5.67s2.48-5.68,5.67-5.68c2.25,0,4.2,1.28,5.1,3.16v5.07c-.91,1.88-2.85,3.12-5.1,3.12M368.18,261.84c2.5,0,4.43,1.66,5.02,3.9h-10.32c.72-2.28,2.89-3.9,5.3-3.9M377.05,268.89c.1-.44.17-1.07.17-1.58,0-4.8-3.73-8.76-9.03-8.76s-9.37,4.03-9.37,9.1,3.86,9.1,9.64,9.1c3.09,0,5.78-1.08,7.69-3.16l-2.62-2.42c-1.38,1.41-3.19,2.28-5.17,2.28-2.87,0-5.19-1.91-5.62-4.57h14.32ZM344.51,269.16l6.61-9.84v17.02h3.83v-23.51h-3.69l-7.99,11.95-7.99-11.95h-3.69v23.51h3.83v-17.02l6.62,9.84h2.48Z"/>
        <path class="cls-2" d="M1132.78,216.58c-5.17,0-8.9,4.16-8.9,9.1s3.73,9.1,8.9,9.1c2.22,0,4.23-.74,5.78-2.28v1.88h3.83v-24.51h-3.83v9c-1.54-1.54-3.56-2.28-5.78-2.28M1133.46,231.35c-3.19,0-5.67-2.49-5.67-5.68s2.48-5.67,5.67-5.67c2.25,0,4.2,1.28,5.1,3.16v5.07c-.91,1.88-2.85,3.12-5.1,3.12M1108.41,222.82c.94-1.41,2.72-2.82,4.47-2.82,2.38,0,4,1.68,4,4.03v10.34h3.83v-10.54c0-4.36-2.89-7.25-7.08-7.25-1.98,0-3.93,1.01-5.2,2.42v-2.01h-3.83v17.39h3.83v-11.55ZM1096.05,228.53c-.94,1.41-2.72,2.82-4.47,2.82-2.38,0-4-1.68-4-4.03v-10.34h-3.83v10.54c0,4.37,2.89,7.25,7.08,7.25,1.98,0,3.93-1.01,5.21-2.42v2.01h3.83v-17.39h-3.83v11.55ZM1068.85,220c.57,0,1.21.1,1.78.3l.3-3.39c-.4-.2-1.01-.34-1.58-.34-2.18,0-3.79,1.07-5.1,2.62v-2.22h-3.83v17.39h3.83v-11.15c1.08-1.95,2.72-3.22,4.6-3.22M1051.9,228.53c-.94,1.41-2.72,2.82-4.47,2.82-2.38,0-3.99-1.68-3.99-4.03v-10.34h-3.83v10.54c0,4.37,2.89,7.25,7.09,7.25,1.98,0,3.93-1.01,5.2-2.42v2.01h3.83v-17.39h-3.83v11.55ZM1032.07,220.34h4.4v-3.36h-4.4v-5.04l-3.83.34v4.7h-2.89v3.36h2.89v8.29c0,4.26,2.05,6.15,6.58,6.15.67,0,1.48-.07,1.85-.13v-3.29c-.34.03-1.04.07-1.51.07-2.28,0-3.09-.87-3.09-2.82v-8.26ZM1018.27,234.37h3.83v-24.51h-3.83v24.51ZM1009.57,228.53c-.94,1.41-2.72,2.82-4.47,2.82-2.38,0-4-1.68-4-4.03v-10.34h-3.83v10.54c0,4.37,2.89,7.25,7.09,7.25,1.98,0,3.93-1.01,5.2-2.42v2.01h3.83v-17.39h-3.83v11.55ZM982.18,210.87h-3.96v23.5h3.96v-10.11h1.54l7.76,10.11h4.63l-9.17-11.89,7.82-11.62h-4.5l-6.67,9.97h-1.43v-9.97ZM962.63,220c.57,0,1.21.1,1.78.3l.3-3.39c-.4-.2-1.01-.34-1.58-.34-2.18,0-3.79,1.07-5.1,2.62v-2.22h-3.83v17.39h3.83v-11.15c1.07-1.95,2.72-3.22,4.6-3.22M942.22,211.87c0,1.24.97,2.22,2.22,2.22s2.22-.97,2.22-2.22-.97-2.22-2.22-2.22-2.22.97-2.22,2.22M936.04,211.87c0,1.24.97,2.22,2.22,2.22s2.22-.97,2.22-2.22-.97-2.22-2.22-2.22-2.22.97-2.22,2.22M945.68,228.53c-.94,1.41-2.72,2.82-4.47,2.82-2.38,0-4-1.68-4-4.03v-10.34h-3.83v10.54c0,4.37,2.89,7.25,7.08,7.25,1.98,0,3.93-1.01,5.21-2.42v2.01h3.83v-17.39h-3.83v11.55ZM930.63,209.99c-.37-.07-1.17-.13-1.85-.13-4.53,0-6.58,1.88-6.58,6.14v.97h-2.75v3.36h2.75v14.03h3.83v-14.03h4.6v-3.36h-4.6v-.94c0-1.95.81-2.82,3.09-2.82.47,0,1.18.03,1.51.07v-3.29ZM906.29,216.98h-3.83v1.88c-1.55-1.54-3.56-2.28-5.78-2.28-5.17,0-8.9,4.16-8.9,9.1s3.73,9.1,8.9,9.1c2.22,0,4.23-.74,5.78-2.28v1.21c0,3.29-2.11,5.17-5.37,5.17-2.22,0-4.13-1.14-5.54-2.69l-2.52,2.45c1.91,2.18,4.77,3.53,8.09,3.53,6.11,0,9.17-3.49,9.17-8.73v-16.45ZM897.36,231.35c-3.19,0-5.67-2.49-5.67-5.68s2.48-5.67,5.67-5.67c2.25,0,4.2,1.28,5.1,3.16v5.07c-.91,1.88-2.85,3.12-5.1,3.12M872.31,222.82c.94-1.41,2.72-2.82,4.47-2.82,2.38,0,3.99,1.68,3.99,4.03v10.34h3.83v-10.54c0-4.36-2.89-7.25-7.08-7.25-1.98,0-3.93,1.01-5.2,2.42v-2.01h-3.83v17.39h3.83v-11.55ZM859.96,228.53c-.94,1.41-2.72,2.82-4.47,2.82-2.38,0-4-1.68-4-4.03v-10.34h-3.83v10.54c0,4.37,2.89,7.25,7.09,7.25,1.98,0,3.93-1.01,5.2-2.42v2.01h3.83v-17.39h-3.83v11.55ZM842.83,220c.57,0,1.21.1,1.78.3l.3-3.39c-.4-.2-1.01-.34-1.58-.34-2.18,0-3.8,1.07-5.1,2.62v-2.22h-3.83v17.39h3.83v-11.15c1.07-1.95,2.72-3.22,4.6-3.22M821.84,219.87c2.5,0,4.43,1.66,5.02,3.9h-10.33c.72-2.28,2.89-3.9,5.31-3.9M830.71,226.92c.1-.44.17-1.08.17-1.58,0-4.8-3.73-8.76-9.03-8.76s-9.37,4.03-9.37,9.1,3.86,9.1,9.64,9.1c3.09,0,5.77-1.08,7.69-3.16l-2.62-2.42c-1.38,1.41-3.19,2.28-5.17,2.28-2.87,0-5.19-1.91-5.62-4.57h14.32ZM804.49,212.24c0,1.34,1.04,2.38,2.38,2.38s2.38-1.04,2.38-2.38-1.04-2.38-2.38-2.38-2.38,1.04-2.38,2.38M804.96,234.37h3.83v-17.39h-3.83v17.39ZM800.09,216.98h-3.83v1.88c-1.54-1.54-3.56-2.28-5.78-2.28-5.17,0-8.9,4.16-8.9,9.1s3.73,9.1,8.9,9.1c2.22,0,4.23-.74,5.78-2.28v1.21c0,3.29-2.12,5.17-5.37,5.17-2.22,0-4.13-1.14-5.54-2.69l-2.52,2.45c1.91,2.18,4.77,3.53,8.09,3.53,6.11,0,9.17-3.49,9.17-8.73v-16.45ZM791.16,231.35c-3.19,0-5.67-2.49-5.67-5.68s2.48-5.67,5.67-5.67c2.25,0,4.2,1.28,5.1,3.16v5.07c-.91,1.88-2.85,3.12-5.1,3.12M770.2,219.87c2.5,0,4.43,1.66,5.02,3.9h-10.32c.72-2.28,2.89-3.9,5.31-3.9M779.07,226.92c.1-.44.17-1.08.17-1.58,0-4.8-3.73-8.76-9.03-8.76s-9.37,4.03-9.37,9.1,3.86,9.1,9.64,9.1c3.09,0,5.78-1.08,7.69-3.16l-2.62-2.42c-1.38,1.41-3.19,2.28-5.17,2.28-2.87,0-5.19-1.91-5.62-4.57h14.32ZM757.43,220c.57,0,1.21.1,1.78.3l.3-3.39c-.4-.2-1.01-.34-1.58-.34-2.18,0-3.79,1.07-5.1,2.62v-2.22h-3.83v17.39h3.83v-11.15c1.07-1.95,2.72-3.22,4.6-3.22M732.01,231.89c1.51,1.78,4.06,2.89,6.92,2.89,4.13,0,6.55-2.28,6.55-5.31s-1.81-4.7-5.91-5.54c-2.15-.44-3.09-1.31-3.09-2.38s1.11-1.68,2.58-1.68c1.38,0,2.45.67,3.66,1.65l2.05-2.59c-1.44-1.34-3.59-2.35-6.01-2.35-3.76,0-6.11,2.08-6.11,4.9s1.78,4.7,5.67,5.47c2.52.5,3.33,1.24,3.33,2.45,0,1.27-1.14,2.08-2.99,2.08s-3.43-.91-4.5-2.15l-2.15,2.55ZM720.63,219.87c2.5,0,4.43,1.66,5.02,3.9h-10.33c.72-2.28,2.89-3.9,5.31-3.9M729.49,226.92c.1-.44.17-1.08.17-1.58,0-4.8-3.73-8.76-9.03-8.76s-9.37,4.03-9.37,9.1,3.86,9.1,9.64,9.1c3.09,0,5.78-1.08,7.69-3.16l-2.62-2.42c-1.38,1.41-3.19,2.28-5.17,2.28-2.87,0-5.19-1.91-5.62-4.57h14.32ZM698.13,216.58c-5.17,0-8.9,4.16-8.9,9.1s3.73,9.1,8.9,9.1c2.22,0,4.23-.74,5.78-2.28v1.88h3.83v-24.51h-3.83v9c-1.54-1.54-3.56-2.28-5.78-2.28M698.8,231.35c-3.19,0-5.67-2.49-5.67-5.68s2.48-5.67,5.67-5.67c2.25,0,4.2,1.28,5.1,3.16v5.07c-.91,1.88-2.85,3.12-5.1,3.12M673.75,222.82c.94-1.41,2.72-2.82,4.47-2.82,2.38,0,4,1.68,4,4.03v10.34h3.83v-10.54c0-4.36-2.89-7.25-7.09-7.25-1.98,0-3.93,1.01-5.2,2.42v-2.01h-3.83v17.39h3.83v-11.55ZM661.4,228.53c-.94,1.41-2.72,2.82-4.47,2.82-2.38,0-4-1.68-4-4.03v-10.34h-3.83v10.54c0,4.37,2.89,7.25,7.09,7.25,1.98,0,3.93-1.01,5.2-2.42v2.01h3.83v-17.39h-3.83v11.55ZM641.89,227.39c0,2.18-1.31,3.56-3.19,3.56h-5.54v-7.12h5.54c1.88,0,3.19,1.34,3.19,3.56M640.54,217.41c0,2.08-1.24,3.12-3.02,3.12h-4.36v-6.24h4.36c1.78,0,3.02,1.04,3.02,3.12M639.03,234.37c4.26,0,6.88-2.79,6.88-6.85,0-3.02-1.88-5.1-4.1-5.71,1.61-.74,2.75-2.22,2.75-4.6,0-3.93-2.45-6.35-6.78-6.35h-8.6v23.5h9.84ZM613.62,220c.57,0,1.21.1,1.78.3l.3-3.39c-.4-.2-1.01-.34-1.58-.34-2.18,0-3.79,1.07-5.1,2.62v-2.22h-3.83v17.39h3.83v-11.15c1.08-1.95,2.72-3.22,4.6-3.22M592.63,219.87c2.5,0,4.43,1.66,5.02,3.9h-10.32c.72-2.28,2.89-3.9,5.3-3.9M601.49,226.92c.1-.44.17-1.08.17-1.58,0-4.8-3.73-8.76-9.03-8.76s-9.37,4.03-9.37,9.1,3.86,9.1,9.64,9.1c3.09,0,5.78-1.08,7.69-3.16l-2.62-2.42c-1.38,1.41-3.19,2.28-5.17,2.28-2.87,0-5.19-1.91-5.62-4.57h14.32ZM570.13,216.58c-5.17,0-8.9,4.16-8.9,9.1s3.73,9.1,8.9,9.1c2.22,0,4.23-.74,5.78-2.28v1.88h3.83v-24.51h-3.83v9c-1.54-1.54-3.56-2.28-5.78-2.28M570.8,231.35c-3.19,0-5.67-2.49-5.67-5.68s2.48-5.67,5.67-5.67c2.25,0,4.2,1.28,5.1,3.16v5.07c-.91,1.88-2.85,3.12-5.1,3.12M535.68,222.82c.94-1.41,2.72-2.82,4.47-2.82,2.38,0,3.99,1.68,3.99,4.03v10.34h3.83v-10.54c0-4.36-2.89-7.25-7.09-7.25-1.98,0-3.93,1.01-5.2,2.42v-2.01h-3.83v17.39h3.83v-11.55ZM519.3,219.87c2.5,0,4.43,1.66,5.02,3.9h-10.33c.72-2.28,2.89-3.9,5.31-3.9M528.16,226.92c.1-.44.17-1.08.17-1.58,0-4.8-3.73-8.76-9.03-8.76s-9.37,4.03-9.37,9.1,3.86,9.1,9.64,9.1c3.09,0,5.77-1.08,7.69-3.16l-2.62-2.42c-1.38,1.41-3.19,2.28-5.17,2.28-2.87,0-5.19-1.91-5.62-4.57h14.32ZM503.23,220.34h4.4v-3.36h-4.4v-5.04l-3.83.34v4.7h-2.89v3.36h2.89v8.29c0,4.26,2.05,6.15,6.58,6.15.67,0,1.48-.07,1.85-.13v-3.29c-.34.03-1.04.07-1.51.07-2.28,0-3.09-.87-3.09-2.82v-8.26ZM493.43,216.98h-3.83v1.88c-1.54-1.54-3.56-2.28-5.77-2.28-5.17,0-8.9,4.16-8.9,9.1s3.73,9.1,8.9,9.1c2.22,0,4.23-.74,5.77-2.28v1.21c0,3.29-2.11,5.17-5.37,5.17-2.22,0-4.13-1.14-5.54-2.69l-2.52,2.45c1.91,2.18,4.77,3.53,8.09,3.53,6.11,0,9.17-3.49,9.17-8.73v-16.45ZM484.5,231.35c-3.19,0-5.68-2.49-5.68-5.68s2.49-5.67,5.68-5.67c2.25,0,4.2,1.28,5.1,3.16v5.07c-.91,1.88-2.85,3.12-5.1,3.12M461.8,216.58c-5.17,0-8.9,4.16-8.9,9.1s3.73,9.1,8.9,9.1c2.22,0,4.23-.74,5.78-2.28v1.88h3.83v-17.39h-3.83v1.88c-1.54-1.54-3.56-2.28-5.78-2.28M462.47,231.35c-3.19,0-5.67-2.49-5.67-5.68s2.48-5.67,5.67-5.67c2.25,0,4.2,1.28,5.1,3.16v5.07c-.91,1.88-2.85,3.12-5.1,3.12M449.49,220c.57,0,1.21.1,1.78.3l.3-3.39c-.4-.2-1.01-.34-1.58-.34-2.18,0-3.79,1.07-5.1,2.62v-2.22h-3.83v17.39h3.83v-11.15c1.07-1.95,2.72-3.22,4.6-3.22M433.19,220.34h4.4v-3.36h-4.4v-5.04l-3.83.34v4.7h-2.89v3.36h2.89v8.29c0,4.26,2.05,6.15,6.58,6.15.67,0,1.48-.07,1.85-.13v-3.29c-.33.03-1.04.07-1.51.07-2.28,0-3.09-.87-3.09-2.82v-8.26ZM425,209.99c-.37-.07-1.17-.13-1.85-.13-4.53,0-6.58,1.88-6.58,6.14v.97h-2.75v3.36h2.75v14.03h3.83v-14.03h4.6v-3.36h-4.6v-.94c0-1.95.81-2.82,3.09-2.82.47,0,1.18.03,1.51.07v-3.29ZM406.9,228.53c-.94,1.41-2.72,2.82-4.46,2.82-2.38,0-4-1.68-4-4.03v-10.34h-3.83v10.54c0,4.37,2.89,7.25,7.08,7.25,1.98,0,3.93-1.01,5.2-2.42v2.01h3.83v-17.39h-3.83v11.55ZM380.64,216.58c-5.17,0-8.9,4.16-8.9,9.1s3.73,9.1,8.9,9.1c2.22,0,4.23-.74,5.78-2.28v1.88h3.83v-17.39h-3.83v1.88c-1.54-1.54-3.56-2.28-5.78-2.28M381.31,231.35c-3.19,0-5.67-2.49-5.67-5.68s2.49-5.67,5.67-5.67c2.25,0,4.2,1.28,5.1,3.16v5.07c-.91,1.88-2.85,3.12-5.1,3.12M360.36,219.87c2.5,0,4.43,1.66,5.02,3.9h-10.33c.72-2.28,2.89-3.9,5.31-3.9M369.22,226.92c.1-.44.17-1.08.17-1.58,0-4.8-3.73-8.76-9.03-8.76s-9.37,4.03-9.37,9.1,3.86,9.1,9.64,9.1c3.09,0,5.77-1.08,7.69-3.16l-2.62-2.42c-1.38,1.41-3.19,2.28-5.17,2.28-2.87,0-5.19-1.91-5.62-4.57h14.32ZM344.28,227.39c0,2.18-1.31,3.56-3.19,3.56h-5.54v-7.12h5.54c1.88,0,3.19,1.34,3.19,3.56M342.93,217.41c0,2.08-1.24,3.12-3.02,3.12h-4.37v-6.24h4.37c1.78,0,3.02,1.04,3.02,3.12M341.42,234.37c4.26,0,6.88-2.79,6.88-6.85,0-3.02-1.88-5.1-4.1-5.71,1.61-.74,2.75-2.22,2.75-4.6,0-3.93-2.45-6.35-6.78-6.35h-8.6v23.5h9.84Z"/>
        <path class="cls-2" d="M979.42,178.03c.57,0,1.21.1,1.78.3l.3-3.39c-.4-.2-1.01-.34-1.58-.34-2.18,0-3.79,1.07-5.1,2.62v-2.22h-3.83v17.39h3.83v-11.15c1.08-1.95,2.72-3.22,4.6-3.22M958.43,177.89c2.5,0,4.43,1.66,5.02,3.89h-10.33c.72-2.28,2.89-3.89,5.3-3.89M967.3,184.95c.1-.44.17-1.07.17-1.58,0-4.8-3.73-8.76-9.03-8.76s-9.37,4.03-9.37,9.1,3.86,9.1,9.64,9.1c3.09,0,5.78-1.07,7.69-3.16l-2.62-2.42c-1.38,1.41-3.19,2.28-5.17,2.28-2.87,0-5.19-1.91-5.62-4.57h14.32ZM935.94,174.6c-5.17,0-8.9,4.16-8.9,9.1s3.73,9.1,8.9,9.1c2.22,0,4.23-.74,5.77-2.28v1.88h3.83v-24.51h-3.83v9c-1.54-1.54-3.56-2.28-5.77-2.28M936.61,189.38c-3.19,0-5.67-2.49-5.67-5.67s2.48-5.67,5.67-5.67c2.25,0,4.2,1.28,5.1,3.16v5.07c-.91,1.88-2.85,3.12-5.1,3.12M909.44,192.4h3.83v-24.51h-3.83v24.51ZM896.72,177.89c2.5,0,4.43,1.66,5.02,3.89h-10.33c.72-2.28,2.89-3.89,5.3-3.89M905.58,184.95c.1-.44.17-1.07.17-1.58,0-4.8-3.73-8.76-9.03-8.76s-9.37,4.03-9.37,9.1,3.86,9.1,9.64,9.1c3.09,0,5.78-1.07,7.69-3.16l-2.62-2.42c-1.38,1.41-3.19,2.28-5.17,2.28-2.87,0-5.19-1.91-5.62-4.57h14.32ZM880.65,178.36h4.4v-3.36h-4.4v-5.04l-3.83.34v4.7h-2.89v3.36h2.89v8.29c0,4.26,2.05,6.14,6.58,6.14.67,0,1.48-.07,1.85-.13v-3.29c-.34.03-1.04.07-1.51.07-2.28,0-3.09-.87-3.09-2.82v-8.26ZM867.67,178.36h4.4v-3.36h-4.4v-5.04l-3.83.34v4.7h-2.89v3.36h2.89v8.29c0,4.26,2.05,6.14,6.58,6.14.67,0,1.48-.07,1.85-.13v-3.29c-.34.03-1.04.07-1.51.07-2.28,0-3.09-.87-3.09-2.82v-8.26ZM853.4,170.27c0,1.34,1.04,2.38,2.38,2.38s2.38-1.04,2.38-2.38-1.04-2.38-2.38-2.38-2.38,1.04-2.38,2.38M853.87,192.4h3.83v-17.39h-3.83v17.39ZM822.01,175.01v17.39h3.83v-11.48c1.04-1.54,2.62-2.89,4.33-2.89,2.18,0,3.59,1.68,3.59,3.96v10.41h3.83v-10.61c0-.27-.02-.54-.03-.81,1.04-1.61,2.65-2.96,4.37-2.96,2.18,0,3.59,1.68,3.59,3.96v10.41h3.83v-10.61c0-4.23-2.75-7.18-6.85-7.18-2.35,0-4.65,1.24-5.96,3.12-1.16-1.93-3.21-3.12-5.79-3.12-1.95,0-3.76,1.07-4.9,2.42v-2.01h-3.83ZM805.02,189.91c1.51,1.78,4.06,2.89,6.92,2.89,4.13,0,6.55-2.28,6.55-5.31s-1.81-4.7-5.91-5.54c-2.15-.44-3.09-1.31-3.09-2.38s1.11-1.68,2.58-1.68c1.38,0,2.45.67,3.66,1.65l2.05-2.59c-1.44-1.34-3.59-2.35-6.01-2.35-3.76,0-6.11,2.08-6.11,4.9s1.78,4.7,5.67,5.47c2.52.5,3.32,1.24,3.32,2.45,0,1.28-1.14,2.08-2.99,2.08s-3.43-.91-4.5-2.15l-2.15,2.55ZM793.64,177.89c2.5,0,4.43,1.66,5.02,3.89h-10.33c.72-2.28,2.89-3.89,5.31-3.89M802.5,184.95c.1-.44.17-1.07.17-1.58,0-4.8-3.73-8.76-9.03-8.76s-9.37,4.03-9.37,9.1,3.86,9.1,9.64,9.1c3.09,0,5.78-1.07,7.69-3.16l-2.62-2.42c-1.38,1.41-3.19,2.28-5.17,2.28-2.87,0-5.19-1.91-5.62-4.57h14.32ZM771.14,174.6c-5.17,0-8.9,4.16-8.9,9.1s3.73,9.1,8.9,9.1c2.22,0,4.23-.74,5.77-2.28v1.88h3.83v-24.51h-3.83v9c-1.54-1.54-3.56-2.28-5.77-2.28M771.81,189.38c-3.19,0-5.67-2.49-5.67-5.67s2.48-5.67,5.67-5.67c2.25,0,4.2,1.28,5.1,3.16v5.07c-.91,1.88-2.85,3.12-5.1,3.12M746.76,180.85c.94-1.41,2.72-2.82,4.47-2.82,2.38,0,3.99,1.68,3.99,4.03v10.34h3.83v-10.54c0-4.36-2.89-7.25-7.09-7.25-1.98,0-3.93,1.01-5.2,2.42v-2.01h-3.83v17.39h3.83v-11.55ZM734.41,186.56c-.94,1.41-2.72,2.82-4.47,2.82-2.38,0-4-1.68-4-4.03v-10.34h-3.83v10.54c0,4.36,2.89,7.25,7.08,7.25,1.98,0,3.93-1.01,5.21-2.42v2.01h3.83v-17.39h-3.83v11.55ZM714.9,185.42c0,2.18-1.31,3.56-3.19,3.56h-5.54v-7.12h5.54c1.88,0,3.19,1.34,3.19,3.56M713.56,175.44c0,2.08-1.24,3.12-3.02,3.12h-4.36v-6.25h4.36c1.78,0,3.02,1.04,3.02,3.12M712.04,192.4c4.27,0,6.88-2.79,6.88-6.85,0-3.02-1.88-5.1-4.1-5.71,1.61-.74,2.75-2.22,2.75-4.6,0-3.93-2.45-6.35-6.78-6.35h-8.6v23.5h9.84ZM675.14,180.85c.94-1.41,2.72-2.82,4.47-2.82,2.38,0,4,1.68,4,4.03v10.34h3.83v-10.54c0-4.36-2.89-7.25-7.09-7.25-1.98,0-3.93,1.01-5.21,2.42v-9.13h-3.83v24.51h3.83v-11.55ZM661.18,192.8c2.69,0,5-.94,6.72-2.52l-2.25-2.79c-1.21,1.11-2.75,1.88-4.47,1.88-3.19,0-5.67-2.49-5.67-5.67s2.48-5.67,5.67-5.67c1.71,0,3.16.77,4.4,1.78l1.98-2.99c-1.68-1.38-3.83-2.22-6.38-2.22-5.51,0-9.57,4.03-9.57,9.1s4.06,9.1,9.57,9.1M648.2,178.03c.57,0,1.21.1,1.78.3l.3-3.39c-.4-.2-1.01-.34-1.58-.34-2.18,0-3.79,1.07-5.1,2.62v-2.22h-3.83v17.39h3.83v-11.15c1.08-1.95,2.72-3.22,4.6-3.22M631.24,186.56c-.94,1.41-2.72,2.82-4.47,2.82-2.38,0-3.99-1.68-3.99-4.03v-10.34h-3.83v10.54c0,4.36,2.89,7.25,7.09,7.25,1.98,0,3.93-1.01,5.2-2.42v2.01h3.83v-17.39h-3.83v11.55ZM604.98,174.6c-5.17,0-8.9,4.16-8.9,9.1s3.73,9.1,8.9,9.1c2.22,0,4.23-.74,5.77-2.28v1.88h3.83v-24.51h-3.83v9c-1.54-1.54-3.56-2.28-5.77-2.28M605.66,189.38c-3.19,0-5.67-2.49-5.67-5.67s2.48-5.67,5.67-5.67c2.25,0,4.2,1.28,5.1,3.16v5.07c-.91,1.88-2.85,3.12-5.1,3.12M572.88,174.6c-5.17,0-8.9,4.16-8.9,9.1s3.73,9.1,8.9,9.1c2.22,0,4.23-.74,5.78-2.28v1.88h3.83v-24.51h-3.83v9c-1.54-1.54-3.56-2.28-5.78-2.28M573.56,189.38c-3.19,0-5.67-2.49-5.67-5.67s2.48-5.67,5.67-5.67c2.25,0,4.2,1.28,5.1,3.16v5.07c-.91,1.88-2.85,3.12-5.1,3.12M548.51,180.85c.94-1.41,2.72-2.82,4.47-2.82,2.38,0,4,1.68,4,4.03v10.34h3.83v-10.54c0-4.36-2.89-7.25-7.09-7.25-1.98,0-3.93,1.01-5.2,2.42v-2.01h-3.83v17.39h3.83v-11.55ZM536.15,186.56c-.94,1.41-2.72,2.82-4.47,2.82-2.38,0-3.99-1.68-3.99-4.03v-10.34h-3.83v10.54c0,4.36,2.89,7.25,7.09,7.25,1.98,0,3.93-1.01,5.2-2.42v2.01h3.83v-17.39h-3.83v11.55ZM497.14,189.91c1.51,1.78,4.06,2.89,6.92,2.89,4.13,0,6.55-2.28,6.55-5.31s-1.81-4.7-5.91-5.54c-2.15-.44-3.09-1.31-3.09-2.38s1.11-1.68,2.58-1.68c1.38,0,2.45.67,3.66,1.65l2.05-2.59c-1.44-1.34-3.59-2.35-6.01-2.35-3.76,0-6.11,2.08-6.11,4.9s1.78,4.7,5.67,5.47c2.52.5,3.32,1.24,3.32,2.45,0,1.28-1.14,2.08-2.99,2.08s-3.43-.91-4.5-2.15l-2.15,2.55ZM485.75,177.89c2.5,0,4.43,1.66,5.02,3.89h-10.32c.72-2.28,2.89-3.89,5.3-3.89M494.62,184.95c.1-.44.17-1.07.17-1.58,0-4.8-3.73-8.76-9.03-8.76s-9.37,4.03-9.37,9.1,3.86,9.1,9.64,9.1c3.09,0,5.78-1.07,7.69-3.16l-2.62-2.42c-1.38,1.41-3.19,2.28-5.17,2.28-2.87,0-5.19-1.91-5.62-4.57h14.32ZM469.69,178.36h4.4v-3.36h-4.4v-5.04l-3.83.34v4.7h-2.89v3.36h2.89v8.29c0,4.26,2.05,6.14,6.58,6.14.67,0,1.48-.07,1.85-.13v-3.29c-.34.03-1.04.07-1.51.07-2.28,0-3.09-.87-3.09-2.82v-8.26ZM455.89,192.4h3.83v-24.51h-3.83v24.51ZM441.41,174.6c-5.17,0-8.9,4.16-8.9,9.1s3.73,9.1,8.9,9.1c2.22,0,4.23-.74,5.78-2.28v1.88h3.83v-17.39h-3.83v1.88c-1.55-1.54-3.56-2.28-5.78-2.28M442.09,189.38c-3.19,0-5.67-2.49-5.67-5.67s2.48-5.67,5.67-5.67c2.25,0,4.2,1.28,5.1,3.16v5.07c-.91,1.88-2.85,3.12-5.1,3.12M417.04,180.85c.94-1.41,2.72-2.82,4.47-2.82,2.38,0,4,1.68,4,4.03v10.34h3.83v-10.54c0-4.36-2.89-7.25-7.08-7.25-1.98,0-3.93,1.01-5.2,2.42v-9.13h-3.83v24.51h3.83v-11.55ZM396.22,189.91c1.51,1.78,4.06,2.89,6.92,2.89,4.13,0,6.55-2.28,6.55-5.31s-1.81-4.7-5.91-5.54c-2.15-.44-3.09-1.31-3.09-2.38s1.11-1.68,2.59-1.68c1.38,0,2.45.67,3.66,1.65l2.05-2.59c-1.44-1.34-3.59-2.35-6.01-2.35-3.76,0-6.11,2.08-6.11,4.9s1.78,4.7,5.68,5.47c2.52.5,3.32,1.24,3.32,2.45,0,1.28-1.14,2.08-2.99,2.08s-3.42-.91-4.5-2.15l-2.15,2.55ZM388.87,186.56c-.94,1.41-2.72,2.82-4.47,2.82-2.38,0-4-1.68-4-4.03v-10.34h-3.83v10.54c0,4.36,2.89,7.25,7.08,7.25,1.98,0,3.93-1.01,5.2-2.42v2.01h3.83v-17.39h-3.83v11.55ZM362.61,174.6c-5.17,0-8.9,4.16-8.9,9.1s3.73,9.1,8.9,9.1c2.22,0,4.23-.74,5.77-2.28v1.88h3.83v-17.39h-3.83v1.88c-1.54-1.54-3.56-2.28-5.77-2.28M363.28,189.38c-3.19,0-5.67-2.49-5.67-5.67s2.48-5.67,5.67-5.67c2.25,0,4.2,1.28,5.1,3.16v5.07c-.91,1.88-2.85,3.12-5.1,3.12M331.58,192.4h3.96v-10.11h10.34v10.11h3.96v-23.5h-3.96v9.97h-10.34v-9.97h-3.96v23.5Z"/>
        <path class="cls-2" d="M1066.37,138.88c.94-1.41,2.72-2.82,4.47-2.82,2.38,0,3.99,1.68,3.99,4.03v10.34h3.83v-10.54c0-4.37-2.89-7.25-7.08-7.25-1.98,0-3.93,1.01-5.21,2.42v-2.01h-3.83v17.39h3.83v-11.55ZM1049.98,135.92c2.5,0,4.43,1.66,5.02,3.89h-10.33c.72-2.28,2.89-3.89,5.31-3.89M1058.85,142.97c.1-.44.17-1.07.17-1.58,0-4.8-3.73-8.76-9.03-8.76s-9.37,4.03-9.37,9.1,3.86,9.1,9.64,9.1c3.09,0,5.77-1.07,7.69-3.16l-2.62-2.42c-1.38,1.41-3.19,2.28-5.17,2.28-2.87,0-5.19-1.91-5.62-4.57h14.32ZM1025.14,138.88c.94-1.41,2.72-2.82,4.47-2.82,2.38,0,4,1.68,4,4.03v10.34h3.83v-10.54c0-4.37-2.89-7.25-7.09-7.25-1.98,0-3.93,1.01-5.2,2.42v-2.01h-3.83v17.39h3.83v-11.55ZM1008.75,135.92c2.5,0,4.43,1.66,5.02,3.89h-10.33c.72-2.28,2.89-3.89,5.31-3.89M1017.61,142.97c.1-.44.17-1.07.17-1.58,0-4.8-3.73-8.76-9.03-8.76s-9.37,4.03-9.37,9.1,3.86,9.1,9.64,9.1c3.09,0,5.78-1.07,7.69-3.16l-2.62-2.42c-1.38,1.41-3.19,2.28-5.17,2.28-2.87,0-5.19-1.91-5.62-4.57h14.32ZM983.57,147.94c1.51,1.78,4.06,2.89,6.92,2.89,4.13,0,6.55-2.28,6.55-5.31s-1.81-4.7-5.91-5.54c-2.15-.44-3.09-1.31-3.09-2.38s1.11-1.68,2.59-1.68c1.38,0,2.45.67,3.66,1.65l2.05-2.59c-1.44-1.34-3.59-2.35-6.01-2.35-3.76,0-6.11,2.08-6.11,4.9s1.78,4.7,5.67,5.47c2.52.5,3.32,1.24,3.32,2.45,0,1.28-1.14,2.08-2.99,2.08s-3.42-.91-4.5-2.15l-2.15,2.55ZM967.75,147.94c1.51,1.78,4.06,2.89,6.92,2.89,4.13,0,6.55-2.28,6.55-5.31s-1.81-4.7-5.91-5.54c-2.15-.44-3.09-1.31-3.09-2.38s1.11-1.68,2.59-1.68c1.38,0,2.45.67,3.66,1.65l2.05-2.59c-1.44-1.34-3.59-2.35-6.01-2.35-3.76,0-6.11,2.08-6.11,4.9s1.78,4.7,5.67,5.47c2.52.5,3.33,1.24,3.33,2.45,0,1.28-1.14,2.08-2.99,2.08s-3.42-.91-4.5-2.15l-2.15,2.55ZM955.83,132.63c-5.51,0-9.57,4.03-9.57,9.1s4.06,9.1,9.57,9.1,9.57-4.03,9.57-9.1-4.06-9.1-9.57-9.1M955.83,147.41c-3.19,0-5.67-2.49-5.67-5.68s2.48-5.67,5.67-5.67,5.67,2.48,5.67,5.67-2.48,5.68-5.67,5.68M938.74,150.43h3.83v-24.51h-3.83v24.51ZM921.92,138.88c.94-1.41,2.72-2.82,4.47-2.82,2.38,0,4,1.68,4,4.03v10.34h3.83v-10.54c0-4.37-2.89-7.25-7.09-7.25-1.98,0-3.93,1.01-5.21,2.42v-9.13h-3.83v24.51h3.83v-11.55ZM907.95,150.83c2.69,0,5-.94,6.72-2.52l-2.25-2.79c-1.21,1.11-2.75,1.88-4.47,1.88-3.19,0-5.67-2.49-5.67-5.68s2.48-5.67,5.67-5.67c1.71,0,3.16.77,4.4,1.78l1.98-2.99c-1.68-1.38-3.83-2.22-6.38-2.22-5.51,0-9.57,4.03-9.57,9.1s4.06,9.1,9.57,9.1M882.57,147.94c1.51,1.78,4.06,2.89,6.92,2.89,4.13,0,6.55-2.28,6.55-5.31s-1.81-4.7-5.91-5.54c-2.15-.44-3.09-1.31-3.09-2.38s1.11-1.68,2.59-1.68c1.38,0,2.45.67,3.66,1.65l2.05-2.59c-1.44-1.34-3.59-2.35-6.01-2.35-3.76,0-6.11,2.08-6.11,4.9s1.78,4.7,5.67,5.47c2.52.5,3.33,1.24,3.33,2.45,0,1.28-1.14,2.08-2.99,2.08s-3.42-.91-4.5-2.15l-2.15,2.55ZM871.18,135.92c2.5,0,4.43,1.66,5.02,3.89h-10.33c.72-2.28,2.89-3.89,5.3-3.89M880.05,142.97c.1-.44.17-1.07.17-1.58,0-4.8-3.73-8.76-9.03-8.76s-9.37,4.03-9.37,9.1,3.86,9.1,9.64,9.1c3.09,0,5.78-1.07,7.69-3.16l-2.62-2.42c-1.38,1.41-3.19,2.28-5.17,2.28-2.87,0-5.19-1.91-5.62-4.57h14.32ZM850.57,132.63c-2.22,0-4.23.74-5.78,2.28v-9h-3.83v24.51h3.83v-1.88c1.55,1.54,3.56,2.28,5.78,2.28,5.17,0,8.9-4.16,8.9-9.1s-3.73-9.1-8.9-9.1M849.9,147.41c-2.25,0-4.2-1.24-5.1-3.12v-5.07c.91-1.88,2.85-3.16,5.1-3.16,3.19,0,5.68,2.48,5.68,5.67s-2.49,5.68-5.68,5.68M826.19,133.03h-3.83v1.88c-1.54-1.54-3.56-2.28-5.78-2.28-5.17,0-8.9,4.16-8.9,9.1s3.73,9.1,8.9,9.1c2.22,0,4.23-.74,5.78-2.28v1.21c0,3.29-2.11,5.17-5.37,5.17-2.22,0-4.13-1.14-5.54-2.69l-2.52,2.45c1.91,2.18,4.77,3.53,8.09,3.53,6.11,0,9.17-3.49,9.17-8.73v-16.45ZM817.26,147.41c-3.19,0-5.67-2.49-5.67-5.68s2.49-5.67,5.67-5.67c2.25,0,4.2,1.28,5.1,3.16v5.07c-.91,1.88-2.85,3.12-5.1,3.12M794.56,132.63c-5.17,0-8.9,4.16-8.9,9.1s3.73,9.1,8.9,9.1c2.22,0,4.23-.74,5.78-2.28v1.88h3.83v-17.39h-3.83v1.88c-1.55-1.54-3.56-2.28-5.78-2.28M795.23,147.41c-3.19,0-5.68-2.49-5.68-5.68s2.49-5.67,5.68-5.67c2.25,0,4.2,1.28,5.1,3.16v5.07c-.91,1.88-2.85,3.12-5.1,3.12M778.97,136.39h4.4v-3.36h-4.4v-5.04l-3.83.34v4.7h-2.89v3.36h2.89v8.29c0,4.26,2.05,6.15,6.58,6.15.67,0,1.48-.07,1.85-.13v-3.29c-.34.03-1.04.07-1.51.07-2.28,0-3.09-.87-3.09-2.82v-8.26ZM759.56,132.63c-5.17,0-8.9,4.16-8.9,9.1s3.73,9.1,8.9,9.1c2.22,0,4.23-.74,5.78-2.28v1.88h3.83v-24.51h-3.83v9c-1.54-1.54-3.56-2.28-5.78-2.28M760.23,147.41c-3.19,0-5.67-2.49-5.67-5.68s2.49-5.67,5.67-5.67c2.25,0,4.2,1.28,5.1,3.16v5.07c-.91,1.88-2.85,3.12-5.1,3.12M735.18,138.88c.94-1.41,2.72-2.82,4.47-2.82,2.38,0,4,1.68,4,4.03v10.34h3.83v-10.54c0-4.37-2.89-7.25-7.09-7.25-1.98,0-3.93,1.01-5.2,2.42v-2.01h-3.83v17.39h3.83v-11.55ZM717.05,132.63c-5.17,0-8.9,4.16-8.9,9.1s3.73,9.1,8.9,9.1c2.22,0,4.23-.74,5.77-2.28v1.88h3.83v-17.39h-3.83v1.88c-1.54-1.54-3.56-2.28-5.77-2.28M717.72,147.41c-3.19,0-5.67-2.49-5.67-5.68s2.48-5.67,5.67-5.67c2.25,0,4.2,1.28,5.1,3.16v5.07c-.91,1.88-2.85,3.12-5.1,3.12M692.71,150.43h13.93v-3.43h-9.97v-20.08h-3.96v23.5ZM665.64,138.88c.94-1.41,2.72-2.82,4.47-2.82,2.38,0,4,1.68,4,4.03v10.34h3.83v-10.54c0-4.37-2.89-7.25-7.08-7.25-1.98,0-3.93,1.01-5.21,2.42v-2.01h-3.83v17.39h3.83v-11.55ZM649.26,135.92c2.5,0,4.43,1.66,5.02,3.89h-10.32c.72-2.28,2.89-3.89,5.3-3.89M658.12,142.97c.1-.44.17-1.07.17-1.58,0-4.8-3.73-8.76-9.03-8.76s-9.37,4.03-9.37,9.1,3.86,9.1,9.64,9.1c3.09,0,5.78-1.07,7.69-3.16l-2.62-2.42c-1.38,1.41-3.19,2.28-5.17,2.28-2.87,0-5.19-1.91-5.62-4.57h14.32ZM624.41,138.88c.94-1.41,2.72-2.82,4.47-2.82,2.38,0,4,1.68,4,4.03v10.34h3.83v-10.54c0-4.37-2.89-7.25-7.09-7.25-1.98,0-3.93,1.01-5.2,2.42v-9.13h-3.83v24.51h3.83v-11.55ZM610.44,150.83c2.69,0,5-.94,6.72-2.52l-2.25-2.79c-1.21,1.11-2.75,1.88-4.47,1.88-3.19,0-5.67-2.49-5.67-5.68s2.48-5.67,5.67-5.67c1.71,0,3.16.77,4.4,1.78l1.98-2.99c-1.68-1.38-3.83-2.22-6.38-2.22-5.51,0-9.57,4.03-9.57,9.1s4.06,9.1,9.57,9.1M585.06,147.94c1.51,1.78,4.06,2.89,6.92,2.89,4.13,0,6.55-2.28,6.55-5.31s-1.81-4.7-5.91-5.54c-2.15-.44-3.09-1.31-3.09-2.38s1.11-1.68,2.59-1.68c1.38,0,2.45.67,3.66,1.65l2.05-2.59c-1.44-1.34-3.59-2.35-6.01-2.35-3.76,0-6.11,2.08-6.11,4.9s1.78,4.7,5.67,5.47c2.52.5,3.32,1.24,3.32,2.45,0,1.28-1.14,2.08-2.99,2.08s-3.43-.91-4.5-2.15l-2.15,2.55ZM577.07,128.3c0,1.34,1.04,2.38,2.38,2.38s2.38-1.04,2.38-2.38-1.04-2.38-2.38-2.38-2.38,1.04-2.38,2.38M577.54,150.43h3.83v-17.39h-3.83v17.39ZM560.38,147.94c1.51,1.78,4.06,2.89,6.92,2.89,4.13,0,6.55-2.28,6.55-5.31s-1.81-4.7-5.91-5.54c-2.15-.44-3.09-1.31-3.09-2.38s1.11-1.68,2.59-1.68c1.38,0,2.45.67,3.66,1.65l2.05-2.59c-1.44-1.34-3.59-2.35-6.01-2.35-3.76,0-6.11,2.08-6.11,4.9s1.78,4.7,5.68,5.47c2.52.5,3.32,1.24,3.32,2.45,0,1.28-1.14,2.08-2.99,2.08s-3.42-.91-4.5-2.15l-2.15,2.55ZM544.9,138.88c.94-1.41,2.72-2.82,4.47-2.82,2.38,0,4,1.68,4,4.03v10.34h3.83v-10.54c0-4.37-2.89-7.25-7.09-7.25-1.98,0-3.93,1.01-5.2,2.42v-9.13h-3.83v24.51h3.83v-11.55ZM530.93,150.83c2.69,0,5-.94,6.72-2.52l-2.25-2.79c-1.21,1.11-2.75,1.88-4.47,1.88-3.19,0-5.67-2.49-5.67-5.68s2.49-5.67,5.67-5.67c1.71,0,3.16.77,4.4,1.78l1.98-2.99c-1.68-1.38-3.83-2.22-6.38-2.22-5.51,0-9.57,4.03-9.57,9.1s4.06,9.1,9.57,9.1M509.44,127.93c0,1.24.97,2.22,2.22,2.22s2.22-.97,2.22-2.22-.97-2.22-2.22-2.22-2.22.97-2.22,2.22M503.26,127.93c0,1.24.97,2.22,2.22,2.22s2.22-.97,2.22-2.22-.97-2.22-2.22-2.22-2.22.97-2.22,2.22M508.23,132.63c-5.17,0-8.9,4.16-8.9,9.1s3.73,9.1,8.9,9.1c2.22,0,4.23-.74,5.78-2.28v1.88h3.83v-17.39h-3.83v1.88c-1.54-1.54-3.56-2.28-5.78-2.28M508.91,147.41c-3.19,0-5.67-2.49-5.67-5.68s2.48-5.67,5.67-5.67c2.25,0,4.2,1.28,5.1,3.16v5.07c-.91,1.88-2.85,3.12-5.1,3.12M479.86,147.04c1.98,2.38,5.2,3.79,8.5,3.79,5.3,0,8.46-2.82,8.46-6.85,0-3.63-1.98-6.04-7.49-7.32-3.53-.81-4.94-2.01-4.94-3.9,0-1.68,1.61-2.75,3.8-2.75,2.01,0,3.63,1.01,5.07,2.32l2.35-2.82c-1.81-1.85-4.36-2.99-7.59-2.99-4.5,0-7.66,2.62-7.66,6.51,0,3.43,2.35,5.84,7.29,6.88,4.03.84,5.14,2.28,5.14,4.06,0,2.08-1.88,3.36-4.6,3.36-2.25,0-4.33-1.34-5.84-2.99l-2.48,2.69ZM438.8,133.03v17.39h3.83v-11.48c1.04-1.54,2.62-2.89,4.33-2.89,2.18,0,3.59,1.68,3.59,3.96v10.41h3.83v-10.61c0-.27-.02-.54-.03-.8,1.04-1.61,2.65-2.96,4.36-2.96,2.18,0,3.59,1.68,3.59,3.96v10.41h3.83v-10.61c0-4.23-2.75-7.18-6.85-7.18-2.35,0-4.65,1.24-5.96,3.12-1.16-1.93-3.21-3.12-5.79-3.12-1.95,0-3.76,1.07-4.9,2.42v-2.01h-3.83ZM425.7,132.63c-5.51,0-9.57,4.03-9.57,9.1s4.06,9.1,9.57,9.1,9.57-4.03,9.57-9.1-4.06-9.1-9.57-9.1M425.7,147.41c-3.19,0-5.67-2.49-5.67-5.68s2.49-5.67,5.67-5.67,5.67,2.48,5.67,5.67-2.49,5.68-5.67,5.68M414.96,133.03h-3.96l-4.57,12.42-4.57-12.42h-3.96l6.55,17.39h3.96l6.55-17.39ZM372.85,147.94c1.51,1.78,4.06,2.89,6.92,2.89,4.13,0,6.55-2.28,6.55-5.31s-1.81-4.7-5.91-5.54c-2.15-.44-3.09-1.31-3.09-2.38s1.11-1.68,2.58-1.68c1.38,0,2.45.67,3.66,1.65l2.05-2.59c-1.44-1.34-3.59-2.35-6.01-2.35-3.76,0-6.11,2.08-6.11,4.9s1.78,4.7,5.67,5.47c2.52.5,3.33,1.24,3.33,2.45,0,1.28-1.14,2.08-2.99,2.08s-3.42-.91-4.5-2.15l-2.15,2.55ZM361.47,135.92c2.5,0,4.43,1.66,5.02,3.89h-10.33c.72-2.28,2.89-3.89,5.31-3.89M370.33,142.97c.1-.44.17-1.07.17-1.58,0-4.8-3.73-8.76-9.03-8.76s-9.37,4.03-9.37,9.1,3.86,9.1,9.64,9.1c3.09,0,5.77-1.07,7.69-3.16l-2.62-2.42c-1.38,1.41-3.19,2.28-5.17,2.28-2.87,0-5.19-1.91-5.62-4.57h14.32ZM338.97,132.63c-5.17,0-8.9,4.16-8.9,9.1s3.73,9.1,8.9,9.1c2.22,0,4.23-.74,5.78-2.28v1.88h3.83v-24.51h-3.83v9c-1.55-1.54-3.56-2.28-5.78-2.28M339.64,147.41c-3.19,0-5.67-2.49-5.67-5.68s2.48-5.67,5.67-5.67c2.25,0,4.2,1.28,5.1,3.16v5.07c-.91,1.88-2.85,3.12-5.1,3.12"/>
        <path class="cls-2" d="M1165,93.95c2.5,0,4.43,1.66,5.02,3.9h-10.32c.72-2.28,2.89-3.9,5.3-3.9M1173.86,101c.1-.44.17-1.07.17-1.58,0-4.8-3.73-8.76-9.03-8.76s-9.37,4.03-9.37,9.1,3.86,9.1,9.64,9.1c3.09,0,5.77-1.07,7.69-3.16l-2.62-2.42c-1.38,1.41-3.19,2.28-5.17,2.28-2.87,0-5.19-1.91-5.62-4.57h14.32ZM1152.11,91.06h-3.83v1.88c-1.55-1.54-3.56-2.28-5.78-2.28-5.17,0-8.9,4.16-8.9,9.1s3.73,9.1,8.9,9.1c2.22,0,4.23-.74,5.78-2.28v1.21c0,3.29-2.12,5.17-5.37,5.17-2.22,0-4.13-1.14-5.54-2.69l-2.52,2.45c1.91,2.18,4.77,3.52,8.09,3.52,6.11,0,9.17-3.49,9.17-8.73v-16.45ZM1143.18,105.43c-3.19,0-5.68-2.49-5.68-5.67s2.48-5.68,5.68-5.68c2.25,0,4.2,1.28,5.1,3.16v5.07c-.91,1.88-2.85,3.12-5.1,3.12M1120.48,90.66c-5.17,0-8.9,4.16-8.9,9.1s3.73,9.1,8.9,9.1c2.22,0,4.23-.74,5.77-2.28v1.88h3.83v-17.39h-3.83v1.88c-1.54-1.54-3.56-2.28-5.77-2.28M1121.15,105.43c-3.19,0-5.67-2.49-5.67-5.67s2.48-5.68,5.67-5.68c2.25,0,4.2,1.28,5.1,3.16v5.07c-.91,1.88-2.85,3.12-5.1,3.12M1104.06,108.46h3.83v-24.51h-3.83v24.51ZM1089.59,90.66c-5.17,0-8.9,4.16-8.9,9.1s3.73,9.1,8.9,9.1c2.22,0,4.23-.74,5.78-2.28v1.88h3.83v-24.51h-3.83v9c-1.54-1.54-3.56-2.28-5.78-2.28M1090.26,105.43c-3.19,0-5.67-2.49-5.67-5.67s2.48-5.68,5.67-5.68c2.25,0,4.2,1.28,5.1,3.16v5.07c-.91,1.88-2.85,3.12-5.1,3.12M1065.21,96.91c.94-1.41,2.72-2.82,4.47-2.82,2.38,0,3.99,1.68,3.99,4.03v10.34h3.83v-10.54c0-4.37-2.89-7.25-7.08-7.25-1.98,0-3.93,1.01-5.21,2.42v-2.01h-3.83v17.39h3.83v-11.55ZM1052.85,102.61c-.94,1.41-2.72,2.82-4.47,2.82-2.38,0-4-1.68-4-4.03v-10.34h-3.83v10.54c0,4.37,2.89,7.25,7.08,7.25,1.98,0,3.93-1.01,5.21-2.42v2.01h3.83v-17.39h-3.83v11.55ZM1035.73,94.08c.57,0,1.21.1,1.78.3l.3-3.39c-.4-.2-1.01-.34-1.58-.34-2.18,0-3.79,1.07-5.1,2.62v-2.22h-3.83v17.39h3.83v-11.15c1.08-1.95,2.72-3.22,4.6-3.22M1014.47,88.04c2.38,0,4.1.91,5.91,2.12l1.98-2.99c-2.22-1.68-4.87-2.62-7.89-2.62-7.09,0-12.52,5.31-12.52,12.16s5.44,12.15,12.52,12.15c3.22,0,6.18-1.14,8.29-2.96v-10.21h-9.67v3.43h5.71v5.07c-1.17.74-2.85,1.18-4.33,1.18-4.73,0-8.49-3.76-8.49-8.66s3.76-8.66,8.49-8.66M987.71,94.08c.57,0,1.21.1,1.78.3l.3-3.39c-.4-.2-1.01-.34-1.58-.34-2.18,0-3.79,1.07-5.1,2.62v-2.22h-3.83v17.39h3.83v-11.15c1.07-1.95,2.72-3.22,4.6-3.22M966.73,93.95c2.5,0,4.43,1.66,5.02,3.9h-10.33c.72-2.28,2.89-3.9,5.3-3.9M975.59,101c.1-.44.17-1.07.17-1.58,0-4.8-3.73-8.76-9.03-8.76s-9.37,4.03-9.37,9.1,3.86,9.1,9.64,9.1c3.09,0,5.78-1.07,7.69-3.16l-2.62-2.42c-1.38,1.41-3.19,2.28-5.17,2.28-2.87,0-5.19-1.91-5.62-4.57h14.32ZM944.23,90.66c-5.17,0-8.9,4.16-8.9,9.1s3.73,9.1,8.9,9.1c2.22,0,4.23-.74,5.78-2.28v1.88h3.83v-24.51h-3.83v9c-1.54-1.54-3.56-2.28-5.78-2.28M944.9,105.43c-3.19,0-5.67-2.49-5.67-5.67s2.48-5.68,5.67-5.68c2.25,0,4.2,1.28,5.1,3.16v5.07c-.91,1.88-2.85,3.12-5.1,3.12M923.35,84.08c-.37-.07-1.18-.13-1.85-.13-4.53,0-6.58,1.88-6.58,6.14v.97h-2.75v3.36h2.75v14.04h3.83v-14.04h4.6v-3.36h-4.6v-.94c0-1.95.81-2.82,3.09-2.82.47,0,1.18.03,1.51.07v-3.29ZM905.25,102.61c-.94,1.41-2.72,2.82-4.47,2.82-2.38,0-4-1.68-4-4.03v-10.34h-3.83v10.54c0,4.37,2.89,7.25,7.08,7.25,1.98,0,3.93-1.01,5.21-2.42v2.01h3.83v-17.39h-3.83v11.55ZM878.99,90.66c-5.17,0-8.9,4.16-8.9,9.1s3.73,9.1,8.9,9.1c2.22,0,4.23-.74,5.78-2.28v1.88h3.83v-17.39h-3.83v1.88c-1.54-1.54-3.56-2.28-5.78-2.28M879.66,105.43c-3.19,0-5.67-2.49-5.67-5.67s2.48-5.68,5.67-5.68c2.25,0,4.2,1.28,5.1,3.16v5.07c-.91,1.88-2.85,3.12-5.1,3.12M852.5,108.46h3.83v-24.51h-3.83v24.51ZM839.77,93.95c2.5,0,4.43,1.66,5.02,3.9h-10.33c.72-2.28,2.89-3.9,5.31-3.9M848.64,101c.1-.44.17-1.07.17-1.58,0-4.8-3.73-8.76-9.03-8.76s-9.37,4.03-9.37,9.1,3.86,9.1,9.64,9.1c3.09,0,5.77-1.07,7.69-3.16l-2.62-2.42c-1.38,1.41-3.19,2.28-5.17,2.28-2.87,0-5.19-1.91-5.62-4.57h14.32ZM823.71,94.42h4.4v-3.36h-4.4v-5.04l-3.83.34v4.7h-2.89v3.36h2.89v8.29c0,4.26,2.05,6.15,6.58,6.15.67,0,1.48-.07,1.85-.13v-3.29c-.34.03-1.04.07-1.51.07-2.28,0-3.09-.87-3.09-2.82v-8.26ZM810.73,94.42h4.4v-3.36h-4.4v-5.04l-3.83.34v4.7h-2.89v3.36h2.89v8.29c0,4.26,2.05,6.15,6.58,6.15.67,0,1.48-.07,1.85-.13v-3.29c-.34.03-1.04.07-1.51.07-2.28,0-3.09-.87-3.09-2.82v-8.26ZM796.46,86.33c0,1.34,1.04,2.38,2.38,2.38s2.38-1.04,2.38-2.38-1.04-2.38-2.38-2.38-2.38,1.04-2.38,2.38M796.93,108.46h3.83v-17.39h-3.83v17.39ZM765.06,91.06v17.39h3.83v-11.48c1.04-1.54,2.62-2.89,4.33-2.89,2.18,0,3.59,1.68,3.59,3.96v10.41h3.83v-10.61c0-.27-.02-.54-.03-.81,1.04-1.61,2.65-2.96,4.36-2.96,2.18,0,3.59,1.68,3.59,3.96v10.41h3.83v-10.61c0-4.23-2.75-7.19-6.85-7.19-2.35,0-4.65,1.24-5.96,3.12-1.16-1.93-3.21-3.12-5.79-3.12-1.95,0-3.76,1.07-4.9,2.42v-2.01h-3.83ZM759.89,94.08c.57,0,1.21.1,1.78.3l.3-3.39c-.4-.2-1.01-.34-1.58-.34-2.18,0-3.79,1.07-5.1,2.62v-2.22h-3.83v17.39h3.83v-11.15c1.07-1.95,2.72-3.22,4.6-3.22M738.91,93.95c2.5,0,4.43,1.66,5.02,3.9h-10.33c.72-2.28,2.89-3.9,5.3-3.9M747.77,101c.1-.44.17-1.07.17-1.58,0-4.8-3.73-8.76-9.03-8.76s-9.37,4.03-9.37,9.1,3.86,9.1,9.64,9.1c3.09,0,5.77-1.07,7.69-3.16l-2.62-2.42c-1.38,1.41-3.19,2.28-5.17,2.28-2.87,0-5.19-1.91-5.62-4.57h14.32ZM722.19,102.61c-.94,1.41-2.72,2.82-4.47,2.82-2.38,0-4-1.68-4-4.03v-10.34h-3.83v10.54c0,4.37,2.89,7.25,7.08,7.25,1.98,0,3.93-1.01,5.21-2.42v2.01h3.83v-17.39h-3.83v11.55ZM697.67,93.95c2.5,0,4.43,1.66,5.02,3.9h-10.32c.72-2.28,2.89-3.9,5.3-3.9M706.54,101c.1-.44.17-1.07.17-1.58,0-4.8-3.73-8.76-9.03-8.76s-9.37,4.03-9.37,9.1,3.86,9.1,9.64,9.1c3.09,0,5.78-1.07,7.69-3.16l-2.62-2.42c-1.38,1.41-3.19,2.28-5.17,2.28-2.87,0-5.19-1.91-5.62-4.57h14.32ZM681.61,94.42h4.4v-3.36h-4.4v-5.04l-3.83.34v4.7h-2.89v3.36h2.89v8.29c0,4.26,2.05,6.15,6.58,6.15.67,0,1.48-.07,1.85-.13v-3.29c-.34.03-1.04.07-1.51.07-2.28,0-3.09-.87-3.09-2.82v-8.26ZM656.36,105.06c1.98,2.38,5.21,3.79,8.5,3.79,5.3,0,8.46-2.82,8.46-6.85,0-3.63-1.98-6.04-7.49-7.32-3.52-.81-4.94-2.01-4.94-3.9,0-1.68,1.61-2.75,3.79-2.75,2.01,0,3.63,1.01,5.07,2.32l2.35-2.82c-1.81-1.85-4.36-2.99-7.59-2.99-4.5,0-7.66,2.62-7.66,6.51,0,3.43,2.35,5.84,7.29,6.88,4.03.84,5.14,2.28,5.14,4.06,0,2.08-1.88,3.36-4.6,3.36-2.25,0-4.33-1.34-5.84-2.99l-2.48,2.69ZM630.34,96.91c.94-1.41,2.72-2.82,4.47-2.82,2.38,0,4,1.68,4,4.03v10.34h3.83v-10.54c0-4.37-2.89-7.25-7.09-7.25-1.98,0-3.93,1.01-5.2,2.42v-9.13h-3.83v24.51h3.83v-11.55ZM616.37,108.86c2.69,0,5-.94,6.72-2.52l-2.25-2.79c-1.21,1.11-2.75,1.88-4.47,1.88-3.19,0-5.67-2.49-5.67-5.67s2.48-5.68,5.67-5.68c1.71,0,3.16.77,4.4,1.78l1.98-2.99c-1.68-1.38-3.83-2.22-6.38-2.22-5.51,0-9.57,4.03-9.57,9.1s4.06,9.1,9.57,9.1M603.39,94.08c.57,0,1.21.1,1.78.3l.3-3.39c-.4-.2-1.01-.34-1.58-.34-2.18,0-3.79,1.07-5.1,2.62v-2.22h-3.83v17.39h3.83v-11.15c1.07-1.95,2.72-3.22,4.6-3.22M586.43,102.61c-.94,1.41-2.72,2.82-4.46,2.82-2.38,0-4-1.68-4-4.03v-10.34h-3.83v10.54c0,4.37,2.89,7.25,7.09,7.25,1.98,0,3.93-1.01,5.2-2.42v2.01h3.83v-17.39h-3.83v11.55ZM560.18,90.66c-5.17,0-8.9,4.16-8.9,9.1s3.73,9.1,8.9,9.1c2.22,0,4.23-.74,5.78-2.28v1.88h3.83v-24.51h-3.83v9c-1.54-1.54-3.56-2.28-5.78-2.28M560.85,105.43c-3.19,0-5.68-2.49-5.68-5.67s2.48-5.68,5.68-5.68c2.25,0,4.2,1.28,5.1,3.16v5.07c-.91,1.88-2.85,3.12-5.1,3.12M534.51,94.42h4.4v-3.36h-4.4v-5.04l-3.83.34v4.7h-2.89v3.36h2.89v8.29c0,4.26,2.05,6.15,6.58,6.15.67,0,1.48-.07,1.85-.13v-3.29c-.34.03-1.04.07-1.51.07-2.28,0-3.09-.87-3.09-2.82v-8.26ZM524.23,94.08c.57,0,1.21.1,1.78.3l.3-3.39c-.4-.2-1.01-.34-1.58-.34-2.18,0-3.79,1.07-5.1,2.62v-2.22h-3.83v17.39h3.83v-11.15c1.07-1.95,2.72-3.22,4.6-3.22M503.25,93.95c2.5,0,4.43,1.66,5.02,3.9h-10.33c.72-2.28,2.89-3.9,5.3-3.9M512.11,101c.1-.44.17-1.07.17-1.58,0-4.8-3.73-8.76-9.03-8.76s-9.37,4.03-9.37,9.1,3.86,9.1,9.64,9.1c3.09,0,5.77-1.07,7.69-3.16l-2.62-2.42c-1.38,1.41-3.19,2.28-5.17,2.28-2.87,0-5.19-1.91-5.62-4.57h14.32ZM485.89,86.33c0,1.34,1.04,2.38,2.38,2.38s2.38-1.04,2.38-2.38-1.04-2.38-2.38-2.38-2.38,1.04-2.38,2.38M486.36,108.46h3.83v-17.39h-3.83v17.39ZM468.29,108.46h13.87v-3.36h-9.27l8.93-10.68v-3.36h-13.09v3.36h8.49l-8.93,10.68v3.36ZM452.38,96.91c.94-1.41,2.72-2.82,4.47-2.82,2.38,0,4,1.68,4,4.03v10.34h3.83v-10.54c0-4.37-2.89-7.25-7.09-7.25-1.98,0-3.93,1.01-5.2,2.42v-2.01h-3.83v17.39h3.83v-11.55ZM434.25,90.66c-5.17,0-8.9,4.16-8.9,9.1s3.73,9.1,8.9,9.1c2.22,0,4.23-.74,5.78-2.28v1.88h3.83v-17.39h-3.83v1.88c-1.55-1.54-3.56-2.28-5.78-2.28M434.92,105.43c-3.19,0-5.67-2.49-5.67-5.67s2.48-5.68,5.67-5.68c2.25,0,4.2,1.28,5.1,3.16v5.07c-.91,1.88-2.85,3.12-5.1,3.12M409.87,96.91c.94-1.41,2.72-2.82,4.47-2.82,2.38,0,3.99,1.68,3.99,4.03v10.34h3.83v-10.54c0-4.37-2.89-7.25-7.08-7.25-1.98,0-3.93,1.01-5.2,2.42v-2.01h-3.83v17.39h3.83v-11.55ZM396.87,86.33c0,1.34,1.04,2.38,2.38,2.38s2.38-1.04,2.38-2.38-1.04-2.38-2.38-2.38-2.38,1.04-2.38,2.38M385.93,91.06h-2.75v3.36h2.75v14.04h3.83v-14.04h7.59v14.04h3.83v-17.39h-11.42v-.94c0-1.95.81-2.82,3.09-2.82.47,0,1.18.03,1.51.07v-3.29c-.37-.07-1.18-.13-1.85-.13-4.53,0-6.58,1.88-6.58,6.14v.97ZM376.91,94.42h4.4v-3.36h-4.4v-5.04l-3.83.34v4.7h-2.89v3.36h2.89v8.29c0,4.26,2.05,6.15,6.58,6.15.67,0,1.48-.07,1.85-.13v-3.29c-.34.03-1.04.07-1.51.07-2.28,0-3.09-.87-3.09-2.82v-8.26ZM362.64,86.33c0,1.34,1.04,2.38,2.38,2.38s2.38-1.04,2.38-2.38-1.04-2.38-2.38-2.38-2.38,1.04-2.38,2.38M363.11,108.46h3.83v-17.39h-3.83v17.39ZM331.25,91.06v17.39h3.83v-11.48c1.04-1.54,2.62-2.89,4.33-2.89,2.18,0,3.59,1.68,3.59,3.96v10.41h3.83v-10.61c0-.27-.02-.54-.03-.81,1.04-1.61,2.65-2.96,4.37-2.96,2.18,0,3.59,1.68,3.59,3.96v10.41h3.83v-10.61c0-4.23-2.75-7.19-6.85-7.19-2.35,0-4.65,1.24-5.96,3.12-1.16-1.93-3.21-3.12-5.79-3.12-1.95,0-3.76,1.07-4.9,2.42v-2.01h-3.83Z"/>
        <path class="cls-2" d="M1094.98,48.69c-5.17,0-8.9,4.16-8.9,9.1s3.73,9.1,8.9,9.1c2.22,0,4.23-.74,5.78-2.28v1.88h3.83v-24.51h-3.83v9c-1.55-1.54-3.56-2.28-5.78-2.28M1095.65,63.46c-3.19,0-5.68-2.49-5.68-5.68s2.48-5.67,5.68-5.67c2.25,0,4.2,1.28,5.1,3.16v5.07c-.91,1.88-2.85,3.12-5.1,3.12M1082.67,52.11c.57,0,1.21.1,1.78.3l.3-3.39c-.4-.2-1.01-.34-1.58-.34-2.18,0-3.8,1.07-5.1,2.62v-2.22h-3.83v17.39h3.83v-11.15c1.07-1.95,2.72-3.22,4.6-3.22M1065.08,44.36c0,1.34,1.04,2.38,2.38,2.38s2.38-1.04,2.38-2.38-1.04-2.38-2.38-2.38-2.38,1.04-2.38,2.38M1065.55,66.48h3.83v-17.39h-3.83v17.39ZM1047.82,49.09l-3.46,12.39-3.49-12.39h-3.96l5.44,17.39h3.96l3.49-12.49,3.49,12.49h3.96l5.44-17.39h-3.96l-3.49,12.39-3.46-12.39h-3.96ZM1016.29,51.98c2.5,0,4.43,1.66,5.02,3.9h-10.33c.72-2.28,2.89-3.9,5.3-3.9M1025.15,59.03c.1-.44.17-1.08.17-1.58,0-4.8-3.73-8.76-9.03-8.76s-9.37,4.03-9.37,9.1,3.86,9.1,9.64,9.1c3.09,0,5.77-1.07,7.69-3.16l-2.62-2.42c-1.38,1.41-3.19,2.28-5.17,2.28-2.87,0-5.19-1.91-5.62-4.57h14.32ZM976.4,49.09v17.39h3.83v-11.48c1.04-1.54,2.62-2.89,4.33-2.89,2.18,0,3.59,1.68,3.59,3.96v10.41h3.83v-10.61c0-.27-.02-.54-.03-.81,1.04-1.61,2.65-2.96,4.36-2.96,2.18,0,3.59,1.68,3.59,3.96v10.41h3.83v-10.61c0-4.23-2.75-7.19-6.85-7.19-2.35,0-4.65,1.24-5.96,3.12-1.16-1.93-3.21-3.12-5.79-3.12-1.95,0-3.76,1.07-4.9,2.42v-2.01h-3.83ZM959.74,54.93c.94-1.41,2.72-2.82,4.47-2.82,2.38,0,4,1.68,4,4.03v10.34h3.83v-10.54c0-4.37-2.89-7.25-7.09-7.25-1.98,0-3.93,1.01-5.21,2.42v-9.13h-3.83v24.51h3.83v-11.55ZM941.61,48.69c-5.17,0-8.9,4.16-8.9,9.1s3.73,9.1,8.9,9.1c2.22,0,4.23-.74,5.78-2.28v1.88h3.83v-17.39h-3.83v1.88c-1.55-1.54-3.56-2.28-5.78-2.28M942.28,63.46c-3.19,0-5.67-2.49-5.67-5.68s2.48-5.67,5.67-5.67c2.25,0,4.2,1.28,5.1,3.16v5.07c-.91,1.88-2.85,3.12-5.1,3.12M917.24,54.93c.94-1.41,2.72-2.82,4.47-2.82,2.38,0,3.99,1.68,3.99,4.03v10.34h3.83v-10.54c0-4.37-2.89-7.25-7.08-7.25-1.98,0-3.93,1.01-5.2,2.42v-2.01h-3.83v17.39h3.83v-11.55ZM892.99,66.48h3.96v-17.36c0-1.88,1.31-3.12,3.06-3.12s3.05,1.24,3.05,2.85c0,1.98-1.65,3.19-3.86,3.43v3.29c3.9.1,6.48,1.85,6.48,4.53,0,1.91-1.61,3.36-3.76,3.36-.94,0-2.02-.3-2.82-.84l-.94,3.46c1.07.54,2.48.81,3.76.81,4.43,0,7.79-2.96,7.79-6.78,0-3.29-2.69-5.84-6.21-6.41,2.32-.91,3.59-2.85,3.59-5,0-3.43-3.09-6.11-7.09-6.11s-7.02,2.62-7.02,6.71v17.19ZM878.52,48.69c-5.17,0-8.9,4.16-8.9,9.1s3.73,9.1,8.9,9.1c2.22,0,4.23-.74,5.78-2.28v1.88h3.83v-17.39h-3.83v1.88c-1.54-1.54-3.56-2.28-5.78-2.28M879.19,63.46c-3.19,0-5.67-2.49-5.67-5.68s2.48-5.67,5.67-5.67c2.25,0,4.2,1.28,5.1,3.16v5.07c-.91,1.88-2.85,3.12-5.1,3.12M855.32,59.3l6.61-9.84v17.02h3.83v-23.5h-3.69l-7.99,11.95-7.99-11.95h-3.69v23.5h3.83v-17.02l6.61,9.84h2.49ZM819.43,51.98c2.5,0,4.43,1.66,5.02,3.9h-10.33c.72-2.28,2.89-3.9,5.31-3.9M828.29,59.03c.1-.44.17-1.08.17-1.58,0-4.8-3.73-8.76-9.03-8.76s-9.37,4.03-9.37,9.1,3.86,9.1,9.64,9.1c3.09,0,5.78-1.07,7.69-3.16l-2.62-2.42c-1.38,1.41-3.19,2.28-5.17,2.28-2.87,0-5.19-1.91-5.62-4.57h14.32ZM794.24,64c1.51,1.78,4.06,2.89,6.92,2.89,4.13,0,6.55-2.28,6.55-5.3s-1.81-4.7-5.91-5.54c-2.15-.44-3.09-1.31-3.09-2.38s1.11-1.68,2.59-1.68c1.38,0,2.45.67,3.66,1.65l2.05-2.59c-1.44-1.34-3.59-2.35-6.01-2.35-3.76,0-6.11,2.08-6.11,4.9s1.78,4.7,5.67,5.47c2.52.5,3.32,1.24,3.32,2.45,0,1.27-1.14,2.08-2.99,2.08s-3.42-.91-4.5-2.15l-2.15,2.55ZM782.86,51.98c2.5,0,4.43,1.66,5.02,3.9h-10.32c.72-2.28,2.89-3.9,5.3-3.9M791.72,59.03c.1-.44.17-1.08.17-1.58,0-4.8-3.73-8.76-9.03-8.76s-9.37,4.03-9.37,9.1,3.86,9.1,9.64,9.1c3.09,0,5.78-1.07,7.69-3.16l-2.62-2.42c-1.38,1.41-3.19,2.28-5.17,2.28-2.87,0-5.19-1.91-5.62-4.57h14.32ZM765.5,44.36c0,1.34,1.04,2.38,2.38,2.38s2.38-1.04,2.38-2.38-1.04-2.38-2.38-2.38-2.38,1.04-2.38,2.38M765.97,66.48h3.83v-17.39h-3.83v17.39ZM750.32,46.47c4.53,0,7.76,2.55,7.76,8.26s-3.22,8.26-7.76,8.26h-4.3v-16.52h4.3ZM742.06,42.98v23.5h8.26c7.22,0,11.78-4.47,11.78-11.75s-4.57-11.75-11.78-11.75h-8.26ZM721.78,64.4c0,1.41,1.07,2.49,2.48,2.49s2.48-1.07,2.48-2.49-1.08-2.49-2.48-2.49-2.48,1.07-2.48,2.49M708.52,66.89c5.2,0,8.36-3.29,8.36-7.92s-3.52-7.66-7.52-7.66c-1.24,0-2.22.3-2.89.77l.67-5.67h8.86v-3.43h-12.32l-1.41,12.83,2.75.34c.64-.91,1.91-1.54,3.36-1.54,2.65,0,4.6,1.95,4.6,4.46s-1.95,4.47-4.6,4.47c-1.95,0-3.37-1.04-4.55-2.82l-2.8,2.25c1.66,2.6,4.36,3.93,7.49,3.93M693.01,56.81c2.42-2.65,3.53-4.53,3.53-7.29,0-4.3-3.22-6.95-7.56-6.95-3.79,0-6.28,2.05-7.32,5.14l3.24,1.39c.89-2.12,2.13-3.17,4.08-3.17,2.15,0,3.66,1.41,3.66,3.63,0,1.68-.74,3.09-2.65,5.17l-7.89,8.56v3.19h14.2v-3.36h-9.1l5.81-6.31ZM664.7,54.73c0-5.14,1.21-8.6,4.16-8.6s4.16,3.46,4.16,8.6-1.21,8.6-4.16,8.6-4.16-3.46-4.16-8.6M660.81,54.73c0,6.82,2.59,12.15,8.06,12.15s8.06-5.34,8.06-12.15-2.62-12.15-8.06-12.15-8.06,5.34-8.06,12.15M652.72,56.81c2.42-2.65,3.53-4.53,3.53-7.29,0-4.3-3.22-6.95-7.56-6.95-3.79,0-6.28,2.05-7.32,5.14l3.24,1.39c.89-2.12,2.13-3.17,4.08-3.17,2.15,0,3.66,1.41,3.66,3.63,0,1.68-.74,3.09-2.65,5.17l-7.89,8.56v3.19h14.2v-3.36h-9.1l5.81-6.31ZM613.03,66.48h13.87v-3.36h-9.27l8.93-10.68v-3.36h-13.1v3.36h8.49l-8.93,10.68v3.36ZM605.89,52.45h4.4v-3.36h-4.4v-5.04l-3.83.34v4.7h-2.89v3.36h2.89v8.29c0,4.26,2.05,6.15,6.58,6.15.67,0,1.48-.07,1.85-.13v-3.29c-.34.03-1.04.07-1.51.07-2.28,0-3.09-.87-3.09-2.82v-8.26ZM591.62,44.36c0,1.34,1.04,2.38,2.38,2.38s2.38-1.04,2.38-2.38-1.04-2.38-2.38-2.38-2.38,1.04-2.38,2.38M592.09,66.48h3.83v-17.39h-3.83v17.39ZM575.27,54.93c.94-1.41,2.72-2.82,4.47-2.82,2.38,0,3.99,1.68,3.99,4.03v10.34h3.83v-10.54c0-4.37-2.89-7.25-7.09-7.25-1.98,0-3.93,1.01-5.2,2.42v-2.01h-3.83v17.39h3.83v-11.55ZM539.75,49.09v17.39h3.83v-11.48c1.04-1.54,2.62-2.89,4.33-2.89,2.18,0,3.59,1.68,3.59,3.96v10.41h3.83v-10.61c0-.27-.02-.54-.03-.81,1.04-1.61,2.65-2.96,4.37-2.96,2.18,0,3.59,1.68,3.59,3.96v10.41h3.83v-10.61c0-4.23-2.75-7.19-6.85-7.19-2.35,0-4.65,1.24-5.96,3.12-1.16-1.93-3.21-3.12-5.79-3.12-1.95,0-3.76,1.07-4.9,2.42v-2.01h-3.83ZM527.19,51.98c2.5,0,4.43,1.66,5.02,3.9h-10.32c.72-2.28,2.89-3.9,5.3-3.9M536.05,59.03c.1-.44.17-1.08.17-1.58,0-4.8-3.73-8.76-9.03-8.76s-9.37,4.03-9.37,9.1,3.86,9.1,9.64,9.1c3.09,0,5.78-1.07,7.69-3.16l-2.62-2.42c-1.38,1.41-3.19,2.28-5.17,2.28-2.87,0-5.19-1.91-5.62-4.57h14.32ZM502.34,54.93c.94-1.41,2.72-2.82,4.47-2.82,2.38,0,4,1.68,4,4.03v10.34h3.83v-10.54c0-4.37-2.89-7.25-7.08-7.25-1.98,0-3.93,1.01-5.2,2.42v-9.13h-3.83v24.51h3.83v-11.55ZM492.91,61.11c-1.65,1.31-3.79,2.28-6.08,2.28-4.73,0-8.5-3.76-8.5-8.66s3.76-8.66,8.5-8.66c2.38,0,4.1.91,5.91,2.12l1.98-2.99c-2.22-1.68-4.87-2.62-7.89-2.62-7.08,0-12.52,5.3-12.52,12.15s5.44,12.15,12.52,12.15c3.16,0,5.98-1.04,8.16-2.82l-2.08-2.95ZM448.25,64c1.51,1.78,4.06,2.89,6.92,2.89,4.13,0,6.55-2.28,6.55-5.3s-1.81-4.7-5.91-5.54c-2.15-.44-3.09-1.31-3.09-2.38s1.11-1.68,2.59-1.68c1.38,0,2.45.67,3.66,1.65l2.05-2.59c-1.44-1.34-3.59-2.35-6.01-2.35-3.76,0-6.11,2.08-6.11,4.9s1.78,4.7,5.67,5.47c2.52.5,3.32,1.24,3.32,2.45,0,1.27-1.14,2.08-2.99,2.08s-3.42-.91-4.5-2.15l-2.15,2.55ZM435.12,48.69c-5.17,0-8.9,4.16-8.9,9.1s3.73,9.1,8.9,9.1c2.22,0,4.23-.74,5.77-2.28v1.88h3.83v-17.39h-3.83v1.88c-1.54-1.54-3.56-2.28-5.77-2.28M435.79,63.46c-3.19,0-5.67-2.49-5.67-5.68s2.49-5.67,5.67-5.67c2.25,0,4.2,1.28,5.1,3.16v5.07c-.91,1.88-2.85,3.12-5.1,3.12M414.97,48.69c-2.22,0-4.23.74-5.78,2.28v-1.88h-3.83v25.18h3.83v-9.67c1.54,1.54,3.56,2.28,5.78,2.28,5.17,0,8.9-4.16,8.9-9.1s-3.73-9.1-8.9-9.1M414.3,63.46c-2.25,0-4.2-1.24-5.1-3.12v-5.07c.91-1.88,2.85-3.16,5.1-3.16,3.19,0,5.67,2.49,5.67,5.67s-2.49,5.68-5.67,5.68M392.27,48.69c-5.51,0-9.57,4.03-9.57,9.1s4.06,9.1,9.57,9.1,9.57-4.03,9.57-9.1-4.06-9.1-9.57-9.1M392.27,63.46c-3.19,0-5.67-2.49-5.67-5.68s2.48-5.67,5.67-5.67,5.67,2.49,5.67,5.67-2.48,5.68-5.67,5.68M379.3,52.11c.57,0,1.21.1,1.78.3l.3-3.39c-.4-.2-1.01-.34-1.58-.34-2.18,0-3.8,1.07-5.1,2.62v-2.22h-3.83v17.39h3.83v-11.15c1.07-1.95,2.72-3.22,4.6-3.22M362.34,60.64c-.94,1.41-2.72,2.82-4.47,2.82-2.38,0-4-1.68-4-4.03v-10.34h-3.83v10.54c0,4.37,2.89,7.25,7.08,7.25,1.98,0,3.93-1.01,5.2-2.42v2.01h3.83v-17.39h-3.83v11.55ZM331.58,66.48h14.61v-3.43h-10.64v-6.68h9.54v-3.43h-9.54v-6.55h10.34v-3.43h-14.3v23.5Z"/>
        <path class="cls-2" d="M1048.07,10.48h4.4v-3.36h-4.4V2.08l-3.83.34v4.7h-2.89v3.36h2.89v8.29c0,4.27,2.05,6.15,6.58,6.15.67,0,1.48-.07,1.85-.13v-3.29c-.34.03-1.04.07-1.51.07-2.28,0-3.09-.87-3.09-2.82v-8.26ZM1028.66,6.72c-5.17,0-8.9,4.16-8.9,9.1s3.73,9.1,8.9,9.1c2.22,0,4.23-.74,5.77-2.28v1.88h3.83V0h-3.83v9c-1.54-1.54-3.56-2.28-5.77-2.28M1029.33,21.49c-3.19,0-5.67-2.48-5.67-5.67s2.49-5.67,5.67-5.67c2.25,0,4.2,1.28,5.1,3.16v5.07c-.91,1.88-2.85,3.12-5.1,3.12M1006.63,6.72c-5.17,0-8.9,4.16-8.9,9.1s3.73,9.1,8.9,9.1c2.22,0,4.23-.74,5.78-2.28v1.88h3.83V7.12h-3.83v1.88c-1.54-1.54-3.56-2.28-5.78-2.28M1007.31,21.49c-3.19,0-5.67-2.48-5.67-5.67s2.48-5.67,5.67-5.67c2.25,0,4.2,1.28,5.1,3.16v5.07c-.91,1.88-2.85,3.12-5.1,3.12M991.04,10.48h4.4v-3.36h-4.4V2.08l-3.83.34v4.7h-2.89v3.36h2.89v8.29c0,4.27,2.05,6.15,6.58,6.15.67,0,1.48-.07,1.85-.13v-3.29c-.34.03-1.04.07-1.51.07-2.28,0-3.09-.87-3.09-2.82v-8.26ZM969.28,22.03c1.51,1.78,4.06,2.89,6.92,2.89,4.13,0,6.55-2.28,6.55-5.31s-1.81-4.7-5.91-5.54c-2.15-.44-3.09-1.31-3.09-2.38s1.11-1.68,2.59-1.68c1.38,0,2.45.67,3.66,1.65l2.05-2.59c-1.44-1.34-3.59-2.35-6.01-2.35-3.76,0-6.11,2.08-6.11,4.9s1.78,4.7,5.67,5.47c2.52.5,3.33,1.24,3.33,2.45,0,1.27-1.14,2.08-2.99,2.08s-3.42-.91-4.5-2.15l-2.15,2.55ZM962.58,10.48h4.4v-3.36h-4.4V2.08l-3.83.34v4.7h-2.89v3.36h2.89v8.29c0,4.27,2.05,6.15,6.58,6.15.67,0,1.48-.07,1.85-.13v-3.29c-.33.03-1.04.07-1.51.07-2.28,0-3.09-.87-3.09-2.82v-8.26ZM945.56,6.72c-2.22,0-4.23.74-5.78,2.28v-1.88h-3.83v25.18h3.83v-9.67c1.54,1.54,3.56,2.28,5.78,2.28,5.17,0,8.9-4.16,8.9-9.1s-3.73-9.1-8.9-9.1M944.89,21.49c-2.25,0-4.2-1.24-5.1-3.12v-5.07c.91-1.88,2.85-3.16,5.1-3.16,3.19,0,5.67,2.49,5.67,5.67s-2.48,5.67-5.67,5.67M927.43,18.67c-.94,1.41-2.72,2.82-4.47,2.82-2.38,0-3.99-1.68-3.99-4.03V7.12h-3.83v10.54c0,4.37,2.89,7.25,7.09,7.25,1.98,0,3.93-1.01,5.2-2.42v2.02h3.83V7.12h-3.83v11.55ZM901.17,6.72c-5.17,0-8.9,4.16-8.9,9.1s3.73,9.1,8.9,9.1c2.22,0,4.23-.74,5.77-2.28v1.88h3.83V7.12h-3.83v1.88c-1.54-1.54-3.56-2.28-5.77-2.28M901.84,21.49c-3.19,0-5.67-2.48-5.67-5.67s2.49-5.67,5.67-5.67c2.25,0,4.2,1.28,5.1,3.16v5.07c-.91,1.88-2.85,3.12-5.1,3.12M876.79,12.96c.94-1.41,2.72-2.82,4.47-2.82,2.38,0,4,1.68,4,4.03v10.34h3.83v-10.54c0-4.36-2.89-7.25-7.08-7.25-1.98,0-3.93,1.01-5.21,2.42V0h-3.83v24.51h3.83v-11.55ZM867.79,10.14c.57,0,1.21.1,1.78.3l.3-3.39c-.4-.2-1.01-.34-1.58-.34-2.18,0-3.79,1.07-5.1,2.62v-2.22h-3.83v17.39h3.83v-11.15c1.08-1.95,2.72-3.22,4.6-3.22M850.84,18.67c-.94,1.41-2.72,2.82-4.47,2.82-2.38,0-3.99-1.68-3.99-4.03V7.12h-3.83v10.54c0,4.37,2.89,7.25,7.09,7.25,1.98,0,3.93-1.01,5.2-2.42v2.02h3.83V7.12h-3.83v11.55ZM831.01,10.48h4.4v-3.36h-4.4V2.08l-3.83.34v4.7h-2.89v3.36h2.89v8.29c0,4.27,2.05,6.15,6.58,6.15.67,0,1.48-.07,1.85-.13v-3.29c-.34.03-1.04.07-1.51.07-2.28,0-3.09-.87-3.09-2.82v-8.26ZM817.21,24.51h3.83V0h-3.83v24.51ZM808.51,18.67c-.94,1.41-2.72,2.82-4.47,2.82-2.38,0-4-1.68-4-4.03V7.12h-3.83v10.54c0,4.37,2.89,7.25,7.09,7.25,1.98,0,3.93-1.01,5.2-2.42v2.02h3.83V7.12h-3.83v11.55ZM781.11,1.01h-3.96v23.5h3.96v-10.11h1.55l7.76,10.11h4.63l-9.17-11.89,7.82-11.62h-4.5l-6.67,9.97h-1.43V1.01ZM761.57,10.14c.57,0,1.21.1,1.78.3l.3-3.39c-.4-.2-1.01-.34-1.58-.34-2.18,0-3.79,1.07-5.1,2.62v-2.22h-3.83v17.39h3.83v-11.15c1.08-1.95,2.72-3.22,4.6-3.22M740.59,10.01c2.5,0,4.43,1.66,5.02,3.9h-10.33c.72-2.28,2.89-3.9,5.31-3.9M749.45,17.06c.1-.44.17-1.07.17-1.58,0-4.8-3.73-8.76-9.03-8.76s-9.37,4.03-9.37,9.1,3.86,9.1,9.64,9.1c3.09,0,5.78-1.08,7.69-3.16l-2.62-2.42c-1.38,1.41-3.19,2.28-5.17,2.28-2.87,0-5.19-1.91-5.62-4.57h14.32ZM718.09,6.72c-5.17,0-8.9,4.16-8.9,9.1s3.73,9.1,8.9,9.1c2.22,0,4.23-.74,5.77-2.28v1.88h3.83V0h-3.83v9c-1.54-1.54-3.56-2.28-5.77-2.28M718.76,21.49c-3.19,0-5.68-2.48-5.68-5.67s2.48-5.67,5.68-5.67c2.25,0,4.2,1.28,5.1,3.16v5.07c-.91,1.88-2.85,3.12-5.1,3.12M683.64,12.96c.94-1.41,2.72-2.82,4.47-2.82,2.38,0,4,1.68,4,4.03v10.34h3.83v-10.54c0-4.36-2.89-7.25-7.09-7.25-1.98,0-3.93,1.01-5.21,2.42v-2.01h-3.83v17.39h3.83v-11.55ZM667.25,10.01c2.5,0,4.43,1.66,5.02,3.9h-10.33c.72-2.28,2.89-3.9,5.3-3.9M676.12,17.06c.1-.44.17-1.07.17-1.58,0-4.8-3.73-8.76-9.03-8.76s-9.37,4.03-9.37,9.1,3.86,9.1,9.64,9.1c3.09,0,5.77-1.08,7.69-3.16l-2.62-2.42c-1.38,1.41-3.19,2.28-5.17,2.28-2.87,0-5.19-1.91-5.62-4.57h14.32ZM627.36,7.12v17.39h3.83v-11.48c1.04-1.54,2.62-2.89,4.33-2.89,2.18,0,3.59,1.68,3.59,3.96v10.41h3.83v-10.61c0-.27-.02-.54-.03-.81,1.04-1.61,2.65-2.95,4.36-2.95,2.18,0,3.59,1.68,3.59,3.96v10.41h3.83v-10.61c0-4.23-2.75-7.18-6.85-7.18-2.35,0-4.65,1.24-5.96,3.12-1.16-1.93-3.21-3.12-5.79-3.12-1.95,0-3.76,1.07-4.9,2.42v-2.01h-3.83ZM610.71,12.96c.94-1.41,2.72-2.82,4.47-2.82,2.38,0,4,1.68,4,4.03v10.34h3.83v-10.54c0-4.36-2.89-7.25-7.08-7.25-1.98,0-3.93,1.01-5.2,2.42V0h-3.83v24.51h3.83v-11.55ZM592.58,6.72c-5.17,0-8.9,4.16-8.9,9.1s3.73,9.1,8.9,9.1c2.22,0,4.23-.74,5.78-2.28v1.88h3.83V7.12h-3.83v1.88c-1.54-1.54-3.56-2.28-5.78-2.28M593.25,21.49c-3.19,0-5.67-2.48-5.67-5.67s2.48-5.67,5.67-5.67c2.25,0,4.2,1.28,5.1,3.16v5.07c-.91,1.88-2.86,3.12-5.1,3.12M572.9,4.43c2.79,0,4.26,1.58,4.26,4.06s-1.48,4.06-4.26,4.06h-3.8V4.43h3.8ZM565.15,1.01v23.5h3.96v-8.53h2.33l5.86,8.53h4.36l-6.08-8.8c3.54-.84,5.61-3.49,5.61-7.22,0-4.53-3.05-7.49-8.12-7.49h-7.92ZM523.04,7.12v17.39h3.83v-11.48c1.04-1.54,2.62-2.89,4.33-2.89,2.18,0,3.59,1.68,3.59,3.96v10.41h3.83v-10.61c0-.27-.02-.54-.03-.81,1.04-1.61,2.65-2.95,4.36-2.95,2.18,0,3.59,1.68,3.59,3.96v10.41h3.83v-10.61c0-4.23-2.75-7.18-6.85-7.18-2.35,0-4.65,1.24-5.96,3.12-1.16-1.93-3.21-3.12-5.79-3.12-1.95,0-3.76,1.07-4.9,2.42v-2.01h-3.83ZM513.87,2.38c0,1.34,1.04,2.38,2.38,2.38s2.38-1.04,2.38-2.38S517.6,0,516.26,0s-2.38,1.04-2.38,2.38M514.34,24.51h3.83V7.12h-3.83v17.39ZM496.23,10.48h4.4v-3.36h-4.4V2.08l-3.83.34v4.7h-2.89v3.36h2.89v8.29c0,4.27,2.05,6.15,6.58,6.15.67,0,1.48-.07,1.85-.13v-3.29c-.34.03-1.04.07-1.51.07-2.28,0-3.09-.87-3.09-2.82v-8.26ZM484.58,24.51h4.36l-6.45-9.67,5.54-7.72h-4.5l-4.18,6.08h-1.7V0h-3.83v24.51h3.83v-8.02h1.65l5.27,8.02ZM461.28,10.01c2.5,0,4.43,1.66,5.02,3.9h-10.33c.72-2.28,2.89-3.9,5.31-3.9M470.14,17.06c.1-.44.17-1.07.17-1.58,0-4.8-3.73-8.76-9.03-8.76s-9.37,4.03-9.37,9.1,3.86,9.1,9.64,9.1c3.09,0,5.78-1.08,7.69-3.16l-2.62-2.42c-1.38,1.41-3.19,2.28-5.17,2.28-2.87,0-5.19-1.91-5.62-4.57h14.32ZM444.39,26.32c0,1.98-.74,2.62-2.32,2.62h-.87v3.29c.3.03.87.07,1.34.07,4,0,5.67-1.68,5.67-6.04V7.12h-3.83v19.21ZM443.92,2.38c0,1.34,1.04,2.38,2.38,2.38s2.39-1.04,2.39-2.38S447.64,0,446.3,0s-2.38,1.04-2.38,2.38M431.12,6.72c-5.51,0-9.57,4.03-9.57,9.1s4.06,9.1,9.57,9.1,9.57-4.03,9.57-9.1-4.06-9.1-9.57-9.1M431.12,21.49c-3.19,0-5.67-2.48-5.67-5.67s2.49-5.67,5.67-5.67,5.67,2.49,5.67,5.67-2.48,5.67-5.67,5.67M418.14,10.14c.57,0,1.21.1,1.78.3l.3-3.39c-.4-.2-1.01-.34-1.58-.34-2.18,0-3.79,1.07-5.1,2.62v-2.22h-3.83v17.39h3.83v-11.15c1.08-1.95,2.72-3.22,4.6-3.22M402.16,8.49c0,2.48-1.48,4.06-4.27,4.06h-3.79V4.43h3.79c2.79,0,4.27,1.58,4.27,4.06M398.07,15.98c5.07,0,8.13-2.96,8.13-7.49s-3.06-7.49-8.13-7.49h-7.92v23.5h3.96v-8.53h3.96ZM363.08,12.96c.94-1.41,2.72-2.82,4.47-2.82,2.38,0,4,1.68,4,4.03v10.34h3.83v-10.54c0-4.36-2.89-7.25-7.08-7.25-1.98,0-3.93,1.01-5.21,2.42v-2.01h-3.83v17.39h3.83v-11.55ZM350.08,2.38c0,1.34,1.04,2.38,2.38,2.38s2.38-1.04,2.38-2.38S353.81,0,352.47,0s-2.38,1.04-2.38,2.38M350.55,24.51h3.83V7.12h-3.83v17.39ZM331.58,24.51h14.61v-3.42h-10.64v-6.68h9.54v-3.43h-9.54v-6.55h10.34V1.01h-14.3v23.5Z"/>
      </g>
    </g>
  </g>
</svg>