<?xml version="1.0" encoding="UTF-8"?>
<svg id="Ebene_2" data-name="Ebene 2" xmlns="http://www.w3.org/2000/svg" xmlns:xlink="http://www.w3.org/1999/xlink" viewBox="0 0 943.77 292.43">
  <defs>
    <style>
      .cls-1 {
        fill: none;
      }

      .cls-2 {
        fill: #1d1d1b;
      }

      .cls-3 {
        clip-path: url(#clippath-1);
      }

      .cls-4 {
        clip-path: url(#clippath-3);
      }

      .cls-5 {
        clip-path: url(#clippath-4);
      }

      .cls-6 {
        clip-path: url(#clippath-2);
      }

      .cls-7 {
        opacity: .56;
      }

      .cls-8 {
        opacity: .21;
      }

      .cls-9 {
        clip-path: url(#clippath);
      }
    </style>
    <clipPath id="clippath">
      <rect class="cls-1" width="943.77" height="292.43"/>
    </clipPath>
    <clipPath id="clippath-1">
      <rect class="cls-1" width="943.77" height="292.43"/>
    </clipPath>
    <clipPath id="clippath-2">
      <rect class="cls-1" width="943.77" height="292.43"/>
    </clipPath>
    <clipPath id="clippath-3">
      <rect class="cls-1" x="132.18" y="92.54" width="34.79" height="104.94"/>
    </clipPath>
    <clipPath id="clippath-4">
      <rect class="cls-1" x="132.17" y="188.48" width="34.79" height="104.96"/>
    </clipPath>
  </defs>
  <g id="Ebene_1-2" data-name="Ebene 1">
    <g class="cls-9">
      <g class="cls-3">
        <path class="cls-2" d="M193.66,42.96V3.57h7.43c3.19,0,5.99.34,8.36,1.03,2.38.69,4.36,1.77,5.93,3.26,1.58,1.49,2.75,3.42,3.51,5.79.76,2.38,1.14,5.27,1.14,8.66,0,3.61-.45,6.73-1.36,9.32-.91,2.61-2.21,4.76-3.88,6.43-1.67,1.67-3.72,2.91-6.14,3.71-2.41.8-5.12,1.2-8.13,1.2h-6.85ZM198.63,7.51v31.34h1.88c2.28,0,4.3-.3,6.05-.88,1.76-.6,3.24-1.55,4.46-2.85,1.22-1.32,2.15-3.03,2.77-5.14.63-2.11.93-4.67.93-7.67,0-2.78-.3-5.11-.91-7-.61-1.88-1.49-3.4-2.65-4.56s-2.59-1.99-4.28-2.48c-1.7-.49-3.62-.74-5.79-.74h-2.46ZM230.88,42.96h-4.62V15.56h4.62v27.41ZM228.59,8.94c-.95,0-1.7-.31-2.28-.91-.57-.62-.85-1.41-.85-2.4s.28-1.73.85-2.34c.58-.61,1.33-.91,2.28-.91s1.66.31,2.23.91c.58.62.86,1.4.86,2.34,0,1-.29,1.79-.86,2.4-.57.61-1.31.91-2.23.91M255.54,24.81c0,1.18-.03,2.2-.11,3.06-.07.85-.15,1.6-.23,2.25h-13.99c.15,3.24.84,5.62,2.09,7.14,1.23,1.52,3.02,2.28,5.34,2.28.8,0,1.52-.09,2.17-.28.65-.2,1.21-.42,1.68-.69.47-.27.87-.53,1.2-.8.32-.27.55-.47.71-.63l1.71,3.25c-.19.18-.47.46-.85.82-.38.37-.9.73-1.55,1.09s-1.44.68-2.39.94-2.07.4-3.37.4c-1.71,0-3.27-.29-4.65-.86-1.39-.57-2.57-1.45-3.54-2.65-.96-1.2-1.71-2.72-2.25-4.57-.53-1.85-.8-4.07-.8-6.65,0-2.43.28-4.54.82-6.31.55-1.77,1.3-3.22,2.26-4.36.96-1.14,2.05-1.99,3.31-2.55,1.26-.54,2.61-.82,4.06-.82,2.63,0,4.68.82,6.17,2.48,1.48,1.65,2.22,4.14,2.22,7.45M246.86,18.65c-1.63,0-2.95.68-3.93,2.05-1,1.36-1.56,3.35-1.72,5.93h9.99c.04-.2.06-.46.08-.83.02-.36.03-.75.03-1.17,0-1.9-.38-3.37-1.14-4.42-.76-1.05-1.87-1.57-3.32-1.57M295.45,13.61c0,1.38-.16,2.58-.51,3.6-.34,1.03-.8,1.91-1.4,2.65-.59.74-1.27,1.35-2.05,1.8-.78.46-1.59.8-2.42,1.03v.12c1.03.18,1.98.54,2.88,1.08.9.53,1.68,1.2,2.34,2,.67.8,1.2,1.74,1.6,2.82.4,1.09.6,2.27.6,3.56,0,1.56-.26,2.99-.79,4.28s-1.37,2.42-2.49,3.37c-1.13.95-2.55,1.69-4.25,2.23-1.72.53-3.75.8-6.11.8h-8.05V3.57h7.59c2.32,0,4.31.24,5.97.72,1.66.47,3.02,1.15,4.09,2.02,1.07.87,1.84,1.93,2.31,3.16.47,1.24.71,2.62.71,4.14M290.42,13.79c0-1.83-.65-3.33-1.94-4.51-1.29-1.18-3.33-1.77-6.11-1.77h-2.62v13.59h2.57c2.66,0,4.68-.65,6.05-1.94,1.37-1.29,2.05-3.08,2.05-5.37M291.16,31.95c0-2.14-.69-3.82-2.08-5.05-1.4-1.23-3.38-1.86-5.97-1.86h-3.37v13.82h3.08c2.93,0,5.05-.59,6.37-1.75,1.32-1.16,1.96-2.89,1.96-5.17M320.17,24.81c0,1.18-.04,2.2-.12,3.06-.07.85-.14,1.6-.23,2.25h-13.99c.15,3.24.85,5.62,2.08,7.14,1.24,1.52,3.02,2.28,5.34,2.28.8,0,1.52-.09,2.17-.28.65-.2,1.21-.42,1.68-.69.48-.27.87-.53,1.2-.8.32-.27.57-.47.71-.63l1.72,3.25c-.18.18-.47.46-.85.82-.38.37-.89.73-1.54,1.09s-1.45.68-2.4.94c-.94.27-2.07.4-3.37.4-1.71,0-3.27-.29-4.65-.86-1.39-.57-2.57-1.45-3.54-2.65-.97-1.2-1.71-2.72-2.25-4.57-.53-1.85-.8-4.07-.8-6.65,0-2.43.28-4.54.83-6.31.54-1.77,1.3-3.22,2.25-4.36.95-1.14,2.05-1.99,3.32-2.55,1.25-.54,2.61-.82,4.05-.82,2.63,0,4.68.82,6.17,2.48,1.48,1.65,2.23,4.14,2.23,7.45M311.5,18.65c-1.64,0-2.96.68-3.94,2.05-.99,1.36-1.56,3.35-1.71,5.93h9.99c.04-.2.07-.46.08-.83.02-.36.03-.75.03-1.17,0-1.9-.38-3.37-1.14-4.42-.76-1.05-1.87-1.57-3.31-1.57M324.73,36c0-1.6.31-2.94.92-3.99.62-1.07,1.43-1.93,2.45-2.6,1.03-.67,2.24-1.15,3.62-1.43,1.4-.29,2.87-.43,4.43-.43h1.43v-2.63c0-2.32-.41-3.91-1.22-4.8-.82-.87-1.97-1.32-3.46-1.32-1.36,0-2.51.3-3.42.89-.91.58-1.64,1.11-2.17,1.56l-1.94-3.08c.3-.3.69-.65,1.16-1.03.48-.38,1.06-.74,1.74-1.08.69-.35,1.47-.64,2.34-.86.87-.23,1.87-.34,2.97-.34,2.81,0,4.95.78,6.4,2.34,1.45,1.56,2.17,4.07,2.17,7.54v12.5c0,1.18.04,2.33.11,3.45.08,1.13.15,1.88.23,2.26h-4.4l-.16-3.03h-.12c-.14.35-.38.74-.68,1.17-.31.44-.69.84-1.14,1.2-.46.36-1.02.68-1.66.94s-1.41.4-2.28.4c-1.03,0-1.99-.2-2.89-.57-.89-.38-1.67-.91-2.34-1.6-.67-.68-1.18-1.49-1.54-2.42-.36-.93-.55-1.95-.55-3.05M333.01,39.71c.65,0,1.22-.09,1.71-.29.49-.19.92-.41,1.28-.68.37-.27.67-.56.91-.89.25-.32.47-.6.66-.82v-6.05l-1.48.05c-2.21.08-3.88.46-5.03,1.14-1.14.69-1.71,1.79-1.71,3.32,0,1.41.32,2.46.96,3.16.65.71,1.54,1.06,2.68,1.06M368.29,42.96h-4.22v-3.08h-.11c-.11.23-.37.55-.75,1-.38.44-.86.85-1.45,1.25-.6.4-1.3.76-2.15,1.06-.83.31-1.77.46-2.79.46-1.22,0-2.31-.19-3.29-.54-.97-.36-1.8-.94-2.49-1.75-.68-.8-1.2-1.84-1.57-3.11-.36-1.27-.53-2.84-.53-4.7V15.56h4.62v17.64c0,2.29.37,3.91,1.11,4.89.75.97,1.9,1.45,3.46,1.45,1.32,0,2.45-.33,3.37-1,.91-.67,1.63-1.33,2.17-1.97V15.56h4.62v27.41ZM386.9,19.32h-5.59v23.64h-4.63v-23.64h-3.31v-3.08l3.31-.63v-5.48c0-1.48.21-2.75.64-3.82.41-1.07.96-1.94,1.65-2.63.68-.69,1.48-1.18,2.39-1.48.91-.31,1.89-.46,2.92-.46s1.83.13,2.51.4c.69.27,1.15.47,1.38.63l-.98,3.83c-.23-.15-.54-.32-.96-.49-.42-.16-.93-.26-1.54-.26-1.11,0-1.94.35-2.52,1.03-.58.69-.85,1.94-.85,3.77v4.91h6.16l-.57,3.77ZM403.18,19.32h-6v15.19c0,1.94.25,3.26.74,3.97.5.7,1.34,1.05,2.52,1.05.69,0,1.27-.09,1.77-.28.5-.2.86-.37,1.09-.51l.63,3.71c-.18.15-.65.39-1.37.71-.73.33-1.69.49-2.92.49-2.36,0-4.13-.66-5.31-1.97-1.18-1.31-1.77-3.49-1.77-6.54v-15.81h-3.32v-3.08l3.32-.69.51-7.64h4.11v7.64h6.57l-.57,3.77ZM420.47,19.61c-.11-.07-.36-.16-.74-.29-.38-.11-.89-.16-1.54-.16-1.45,0-2.58.39-3.4,1.17-.81.78-1.4,1.62-1.74,2.54v20.1h-4.63V15.56h4.23v3.72h.11c.18-.53.44-1.06.74-1.57.31-.51.69-.98,1.14-1.37.46-.4,1.01-.72,1.63-.95.63-.23,1.38-.35,2.25-.35.65,0,1.17.06,1.57.17.4.11.72.22.95.29l-.58,4.11ZM423.16,36c0-1.6.3-2.94.91-3.99.61-1.07,1.43-1.93,2.45-2.6,1.03-.67,2.23-1.15,3.63-1.43,1.39-.29,2.87-.43,4.43-.43h1.43v-2.63c0-2.32-.41-3.91-1.23-4.8-.82-.87-1.97-1.32-3.45-1.32-1.38,0-2.52.3-3.43.89-.91.58-1.63,1.11-2.17,1.56l-1.94-3.08c.31-.3.7-.65,1.17-1.03.47-.38,1.06-.74,1.74-1.08.69-.35,1.47-.64,2.34-.86.88-.23,1.87-.34,2.97-.34,2.82,0,4.95.78,6.4,2.34,1.45,1.56,2.17,4.07,2.17,7.54v12.5c0,1.18.04,2.33.11,3.45.08,1.13.15,1.88.24,2.26h-4.4l-.17-3.03h-.11c-.15.35-.38.74-.69,1.17-.31.44-.69.84-1.14,1.2-.46.36-1.01.68-1.65.94-.65.27-1.41.4-2.29.4-1.03,0-1.98-.2-2.88-.57-.9-.38-1.68-.91-2.34-1.6-.67-.68-1.18-1.49-1.54-2.42-.37-.93-.54-1.95-.54-3.05M431.44,39.71c.65,0,1.21-.09,1.71-.29.49-.19.91-.41,1.28-.68.36-.27.67-.56.91-.89.25-.32.46-.6.66-.82v-6.05l-1.49.05c-2.21.08-3.88.46-5.02,1.14-1.14.69-1.72,1.79-1.72,3.32,0,1.41.32,2.46.98,3.16.65.71,1.54,1.06,2.68,1.06M467.18,19.16h-3.43c.88,1.45,1.31,3.08,1.31,4.91,0,1.45-.24,2.75-.71,3.91-.48,1.16-1.14,2.14-2,2.94-.85.8-1.86,1.41-3.02,1.83-1.16.42-2.41.63-3.75.63h-.74c-.23,0-.47-.02-.74-.06-.46.2-.93.5-1.43.91-.49.42-.74.98-.74,1.66,0,.57.22,1.04.66,1.4.43.36,1.15.54,2.13.54h3.48c1.29,0,2.49.13,3.59.4,1.11.27,2.06.69,2.88,1.28.82.59,1.46,1.34,1.91,2.25.46.91.69,2.02.69,3.32,0,1.48-.31,2.83-.95,4.05-.63,1.22-1.51,2.27-2.65,3.14s-2.54,1.56-4.17,2.05-3.46.75-5.48.75c-2.93,0-5.16-.64-6.68-1.92-1.52-1.27-2.29-3.11-2.29-5.51,0-1.03.19-1.91.55-2.66.37-.74.79-1.39,1.28-1.94.5-.54,1.01-.99,1.52-1.31.51-.32.92-.58,1.22-.77v-.11c-1.18-.87-1.77-2.15-1.77-3.82,0-.73.14-1.36.43-1.89.28-.53.61-.96.97-1.3.36-.35.73-.63,1.09-.83.36-.22.64-.35.82-.43v-.11c-1.41-.65-2.54-1.66-3.39-3.05-.86-1.4-1.29-3.17-1.29-5.34,0-1.52.26-2.87.75-4.02.49-1.16,1.16-2.13,1.99-2.89.84-.76,1.82-1.33,2.95-1.71,1.12-.38,2.33-.57,3.62-.57s2.51.23,3.65.68h8.34l-.63,3.6ZM454.44,42.11c-.8,0-1.5-.06-2.1-.18-.35.19-.68.42-1.01.69-.32.27-.62.59-.88.96-.27.38-.48.83-.66,1.35-.18.51-.26,1.11-.26,1.8,0,2.93,1.62,4.4,4.86,4.4,2.77,0,4.83-.54,6.16-1.62,1.33-1.09,2-2.33,2-3.75,0-1.33-.42-2.27-1.26-2.83-.83-.55-1.96-.82-3.37-.82h-3.48ZM460.55,24.07c0-1.98-.46-3.39-1.4-4.23-.93-.83-2.02-1.25-3.29-1.25-1.33,0-2.47.42-3.42,1.25-.95.84-1.43,2.25-1.43,4.23s.47,3.39,1.43,4.22c.95.84,2.05,1.26,3.31,1.26,1.33,0,2.46-.42,3.4-1.26.93-.83,1.4-2.24,1.4-4.22M484.13,19.32h-6v15.19c0,1.94.25,3.26.75,3.97.49.7,1.32,1.05,2.51,1.05.69,0,1.27-.09,1.78-.28.49-.2.85-.37,1.08-.51l.63,3.71c-.18.15-.65.39-1.37.71-.72.33-1.7.49-2.92.49-2.35,0-4.13-.66-5.31-1.97-1.17-1.31-1.77-3.49-1.77-6.54v-15.81h-3.31v-3.08l3.31-.69.51-7.64h4.11v7.64h6.57l-.58,3.77ZM506.57,24.81c0,1.18-.04,2.2-.11,3.06-.08.85-.15,1.6-.23,2.25h-13.99c.14,3.24.84,5.62,2.07,7.14,1.24,1.52,3.02,2.28,5.34,2.28.8,0,1.52-.09,2.18-.28.65-.2,1.2-.42,1.68-.69.47-.27.87-.53,1.19-.8.33-.27.56-.47.72-.63l1.71,3.25c-.19.18-.48.46-.86.82-.38.37-.89.73-1.54,1.09s-1.45.68-2.39.94c-.96.27-2.07.4-3.37.4-1.71,0-3.26-.29-4.66-.86-1.39-.57-2.57-1.45-3.53-2.65-.98-1.2-1.73-2.72-2.26-4.57-.53-1.85-.8-4.07-.8-6.65,0-2.43.28-4.54.83-6.31.55-1.77,1.3-3.22,2.26-4.36.95-1.14,2.05-1.99,3.31-2.55,1.25-.54,2.61-.82,4.06-.82,2.62,0,4.68.82,6.16,2.48,1.49,1.65,2.23,4.14,2.23,7.45M497.89,18.65c-1.63,0-2.95.68-3.94,2.05-.99,1.36-1.56,3.35-1.7,5.93h9.98c.04-.2.07-.46.09-.83.02-.36.03-.75.03-1.17,0-1.9-.39-3.37-1.15-4.42-.76-1.05-1.86-1.57-3.31-1.57M523.58,29.67c0-2.78.36-5.1,1.08-6.97.73-1.86,1.65-3.37,2.8-4.51,1.14-1.14,2.43-1.95,3.88-2.42,1.45-.47,2.89-.72,4.33-.72.87,0,1.64.07,2.29.2.65.13,1.17.3,1.59.48V2.61l4.63-.51v40.87h-4.23v-2.92h-.11c-.11.24-.32.54-.63.94-.31.4-.73.8-1.25,1.2-.53.4-1.2.74-2,1.03-.8.29-1.74.43-2.79.43-1.29,0-2.53-.26-3.69-.77-1.16-.51-2.18-1.33-3.05-2.46-.88-1.13-1.57-2.58-2.09-4.34-.51-1.77-.77-3.91-.77-6.42M534.43,39.53c.72,0,1.37-.09,1.94-.28.58-.2,1.07-.43,1.48-.72.42-.29.78-.58,1.06-.88.29-.31.5-.58.66-.8v-16.89c-.42-.27-.9-.5-1.45-.69-.56-.19-1.25-.29-2.09-.29-1.07,0-2.07.18-3,.54-.93.36-1.75.95-2.43,1.8-.68.84-1.22,1.92-1.62,3.26-.4,1.33-.6,2.97-.6,4.91s.15,3.49.48,4.76c.32,1.27.77,2.3,1.35,3.08.56.78,1.21,1.35,1.94,1.68.72.35,1.48.51,2.28.51M568.85,24.81c0,1.18-.03,2.2-.11,3.06-.07.85-.15,1.6-.22,2.25h-13.99c.15,3.24.84,5.62,2.09,7.14,1.23,1.52,3.01,2.28,5.34,2.28.79,0,1.52-.09,2.17-.28.65-.2,1.2-.42,1.68-.69.47-.27.87-.53,1.2-.8.32-.27.55-.47.71-.63l1.72,3.25c-.2.18-.48.46-.86.82-.38.37-.89.73-1.54,1.09-.65.36-1.45.68-2.39.94-.95.27-2.08.4-3.37.4-1.71,0-3.27-.29-4.65-.86-1.4-.57-2.57-1.45-3.54-2.65-.97-1.2-1.72-2.72-2.26-4.57-.52-1.85-.79-4.07-.79-6.65,0-2.43.27-4.54.82-6.31.55-1.77,1.3-3.22,2.26-4.36.95-1.14,2.05-1.99,3.31-2.55,1.26-.54,2.61-.82,4.06-.82,2.63,0,4.68.82,6.16,2.48,1.49,1.65,2.23,4.14,2.23,7.45M560.17,18.65c-1.63,0-2.95.68-3.93,2.05-1,1.36-1.56,3.35-1.72,5.93h9.99c.03-.2.06-.46.08-.83.02-.36.03-.75.03-1.17,0-1.9-.38-3.37-1.14-4.42-.77-1.05-1.87-1.57-3.32-1.57M587.07,19.61c-.11-.07-.37-.16-.75-.29-.38-.11-.89-.16-1.54-.16-1.45,0-2.58.39-3.39,1.17-.82.78-1.41,1.62-1.75,2.54v20.1h-4.62V15.56h4.22v3.72h.11c.2-.53.44-1.06.74-1.57.31-.51.69-.98,1.15-1.37.45-.4,1-.72,1.62-.95.63-.23,1.38-.35,2.26-.35.65,0,1.17.06,1.57.17.39.11.71.22.93.29l-.56,4.11ZM624.06,13.61c0,1.38-.17,2.58-.51,3.6-.34,1.03-.81,1.91-1.4,2.65-.6.74-1.27,1.35-2.05,1.8-.78.46-1.59.8-2.43,1.03v.12c1.04.18,1.99.54,2.89,1.08.89.53,1.67,1.2,2.34,2,.67.8,1.2,1.74,1.6,2.82.4,1.09.6,2.27.6,3.56,0,1.56-.27,2.99-.8,4.28s-1.35,2.42-2.48,3.37c-1.12.95-2.54,1.69-4.25,2.23-1.7.53-3.75.8-6.11.8h-8.04V3.57h7.59c2.32,0,4.31.24,5.97.72,1.65.47,3.02,1.15,4.08,2.02,1.07.87,1.84,1.93,2.32,3.16.47,1.24.71,2.62.71,4.14M619.04,13.79c0-1.83-.65-3.33-1.94-4.51-1.29-1.18-3.33-1.77-6.11-1.77h-2.63v13.59h2.57c2.67,0,4.68-.65,6.06-1.94,1.37-1.29,2.05-3.08,2.05-5.37M619.78,31.95c0-2.14-.69-3.82-2.08-5.05-1.39-1.23-3.38-1.86-5.97-1.86h-3.37v13.82h3.08c2.94,0,5.06-.59,6.37-1.75,1.31-1.16,1.97-2.89,1.97-5.17M650.38,42.96h-4.22v-3.08h-.12c-.11.23-.36.55-.74,1-.38.44-.86.85-1.46,1.25-.59.4-1.3.76-2.14,1.06-.84.31-1.77.46-2.79.46-1.22,0-2.32-.19-3.29-.54-.97-.36-1.8-.94-2.48-1.75-.69-.8-1.21-1.84-1.57-3.11-.36-1.27-.54-2.84-.54-4.7V15.56h4.63v17.64c0,2.29.37,3.91,1.11,4.89.74.97,1.89,1.45,3.45,1.45,1.34,0,2.45-.33,3.37-1,.91-.67,1.64-1.33,2.18-1.97V15.56h4.62v27.41ZM672.41,42.96v-17.64c0-2.32-.39-3.98-1.17-4.99-.78-1.02-1.97-1.52-3.57-1.52-1.37,0-2.51.35-3.42,1.03-.91.69-1.63,1.36-2.17,2v21.12h-4.63V15.56h4.23v3.09h.11c.11-.24.36-.56.74-1.01.38-.43.87-.85,1.49-1.25.61-.4,1.33-.75,2.17-1.06.83-.3,1.79-.45,2.85-.45,1.21,0,2.32.17,3.31.54,1,.36,1.83.93,2.52,1.74s1.22,1.84,1.6,3.11c.38,1.27.57,2.85.57,4.71v17.98h-4.62ZM682.69,29.67c0-2.78.36-5.1,1.08-6.97.73-1.86,1.65-3.37,2.8-4.51,1.14-1.14,2.43-1.95,3.88-2.42,1.45-.47,2.89-.72,4.33-.72.87,0,1.64.07,2.29.2.65.13,1.17.3,1.59.48V2.61l4.63-.51v40.87h-4.23v-2.92h-.11c-.11.24-.32.54-.63.94-.31.4-.73.8-1.25,1.2-.53.4-1.2.74-2,1.03-.8.29-1.74.43-2.79.43-1.29,0-2.53-.26-3.69-.77-1.16-.51-2.18-1.33-3.05-2.46-.88-1.13-1.57-2.58-2.08-4.34-.51-1.77-.77-3.91-.77-6.42M693.54,39.53c.72,0,1.37-.09,1.94-.28.57-.2,1.07-.43,1.48-.72.42-.29.78-.58,1.06-.88.29-.31.5-.58.66-.8v-16.89c-.42-.27-.9-.5-1.46-.69-.54-.19-1.24-.29-2.08-.29-1.07,0-2.07.18-3,.54-.93.36-1.75.95-2.43,1.8-.68.84-1.22,1.92-1.62,3.26-.4,1.33-.6,2.97-.6,4.91s.15,3.49.48,4.76c.32,1.27.77,2.3,1.33,3.08.58.78,1.22,1.35,1.94,1.68.73.35,1.49.51,2.29.51M727.96,24.81c0,1.18-.04,2.2-.11,3.06-.07.85-.15,1.6-.23,2.25h-13.99c.15,3.24.84,5.62,2.09,7.14,1.23,1.52,3.01,2.28,5.33,2.28.8,0,1.53-.09,2.18-.28.65-.2,1.2-.42,1.68-.69.47-.27.87-.53,1.2-.8.32-.27.56-.47.71-.63l1.71,3.25c-.2.18-.48.46-.86.82-.38.37-.89.73-1.54,1.09-.65.36-1.45.68-2.39.94-.96.27-2.07.4-3.37.4-1.72,0-3.27-.29-4.65-.86-1.4-.57-2.57-1.45-3.54-2.65-.98-1.2-1.72-2.72-2.26-4.57-.53-1.85-.79-4.07-.79-6.65,0-2.43.27-4.54.82-6.31.55-1.77,1.3-3.22,2.26-4.36.94-1.14,2.05-1.99,3.31-2.55,1.26-.54,2.61-.82,4.06-.82,2.63,0,4.68.82,6.16,2.48,1.49,1.65,2.23,4.14,2.23,7.45M719.28,18.65c-1.63,0-2.95.68-3.93,2.05-1,1.36-1.56,3.35-1.72,5.93h9.99c.03-.2.06-.46.08-.83.02-.36.03-.75.03-1.17,0-1.9-.38-3.37-1.14-4.42-.77-1.05-1.87-1.57-3.32-1.57M745.94,21.1c-.3-.35-.85-.81-1.65-1.4-.8-.6-1.85-.89-3.14-.89-1.21,0-2.15.29-2.79.86-.65.57-.98,1.25-.98,2.05,0,1.03.3,1.87.89,2.54.58.67,1.49,1.39,2.71,2.15l1.7,1.03c1.87,1.1,3.34,2.29,4.41,3.56,1.06,1.27,1.59,2.93,1.59,4.94,0,2.17-.75,3.99-2.25,5.48-1.51,1.48-3.67,2.23-6.48,2.23-1.11,0-2.07-.11-2.92-.35-.83-.23-1.57-.49-2.2-.79-.63-.31-1.15-.65-1.57-1.01-.42-.36-.76-.69-1.03-1l2.23-3.66c.23.23.5.49.83.8.32.31.71.6,1.17.88.45.29.97.52,1.54.72.57.18,1.23.28,1.99.28,1.38,0,2.42-.3,3.14-.91.72-.61,1.09-1.35,1.09-2.22,0-.65-.09-1.21-.26-1.68-.17-.48-.43-.9-.77-1.28-.35-.38-.77-.75-1.26-1.09-.49-.34-1.07-.72-1.72-1.14l-1.7-1.09c-1.71-1.1-3.06-2.26-4.03-3.48-.97-1.22-1.46-2.78-1.46-4.68,0-1.03.2-1.97.6-2.82.4-.85.96-1.6,1.68-2.23.73-.63,1.57-1.12,2.55-1.48.97-.37,2-.54,3.11-.54s1.97.1,2.74.31c.76.22,1.42.48,1.96.8.56.33,1.02.65,1.38.98.36.32.66.6.88.82l-2,3.32ZM766.15,19.61c-.11-.07-.36-.16-.74-.29-.38-.11-.89-.16-1.54-.16-1.45,0-2.58.39-3.4,1.17-.81.78-1.4,1.62-1.74,2.54v20.1h-4.63V15.56h4.23v3.72h.11c.18-.53.43-1.06.74-1.57.31-.51.69-.98,1.14-1.37.46-.4,1.01-.72,1.63-.95.63-.23,1.38-.35,2.25-.35.65,0,1.17.06,1.57.17.4.11.72.22.94.29l-.57,4.11ZM787.62,24.81c0,1.18-.04,2.2-.11,3.06-.08.85-.15,1.6-.24,2.25h-13.99c.16,3.24.85,5.62,2.09,7.14,1.24,1.52,3.02,2.28,5.34,2.28.8,0,1.52-.09,2.17-.28.65-.2,1.21-.42,1.68-.69.48-.27.88-.53,1.2-.8.33-.27.57-.47.72-.63l1.71,3.25c-.18.18-.47.46-.85.82-.38.37-.89.73-1.54,1.09s-1.45.68-2.4.94c-.94.27-2.07.4-3.37.4-1.71,0-3.27-.29-4.65-.86-1.39-.57-2.57-1.45-3.53-2.65-.98-1.2-1.73-2.72-2.26-4.57-.53-1.85-.8-4.07-.8-6.65,0-2.43.28-4.54.83-6.31.54-1.77,1.3-3.22,2.25-4.36.96-1.14,2.05-1.99,3.32-2.55,1.25-.54,2.61-.82,4.05-.82,2.63,0,4.68.82,6.17,2.48,1.48,1.65,2.23,4.14,2.23,7.45M778.95,18.65c-1.64,0-2.96.68-3.94,2.05-.99,1.36-1.56,3.35-1.71,5.93h9.99c.04-.2.07-.46.09-.83,0-.36.02-.75.02-1.17,0-1.9-.38-3.37-1.14-4.42-.76-1.05-1.86-1.57-3.31-1.57M813.43,19.16h-3.43c.87,1.45,1.31,3.08,1.31,4.91,0,1.45-.24,2.75-.72,3.91-.47,1.16-1.14,2.14-1.99,2.94-.86.8-1.87,1.41-3.03,1.83-1.16.42-2.4.63-3.74.63h-.74c-.24,0-.48-.02-.75-.06-.45.2-.92.5-1.43.91-.49.42-.74.98-.74,1.66,0,.57.22,1.04.66,1.4.44.36,1.15.54,2.15.54h3.48c1.29,0,2.48.13,3.59.4,1.1.27,2.06.69,2.89,1.28.81.59,1.45,1.34,1.91,2.25.45.91.69,2.02.69,3.32,0,1.48-.32,2.83-.94,4.05-.63,1.22-1.51,2.27-2.66,3.14-1.14.87-2.53,1.56-4.16,2.05-1.64.49-3.47.75-5.48.75-2.94,0-5.15-.64-6.68-1.92-1.52-1.27-2.28-3.11-2.28-5.51,0-1.03.19-1.91.55-2.66.36-.74.79-1.39,1.28-1.94.49-.54,1-.99,1.51-1.31.51-.32.92-.58,1.23-.77v-.11c-1.18-.87-1.78-2.15-1.78-3.82,0-.73.14-1.36.43-1.89.29-.53.61-.96.98-1.3.36-.35.72-.63,1.08-.83.37-.22.64-.35.83-.43v-.11c-1.41-.65-2.54-1.66-3.4-3.05-.85-1.4-1.28-3.17-1.28-5.34,0-1.52.25-2.87.74-4.02.49-1.16,1.16-2.13,2-2.89.83-.76,1.82-1.33,2.94-1.71,1.13-.38,2.33-.57,3.62-.57s2.52.23,3.65.68h8.34l-.63,3.6ZM800.7,42.11c-.8,0-1.51-.06-2.12-.18-.34.19-.68.42-1,.69-.33.27-.62.59-.88.96-.27.38-.49.83-.66,1.35-.17.51-.26,1.11-.26,1.8,0,2.93,1.61,4.4,4.85,4.4,2.78,0,4.84-.54,6.17-1.62,1.33-1.09,1.99-2.33,1.99-3.75,0-1.33-.42-2.27-1.25-2.83-.84-.55-1.96-.82-3.37-.82h-3.48ZM806.81,24.07c0-1.98-.47-3.39-1.41-4.23-.92-.83-2.02-1.25-3.28-1.25-1.34,0-2.48.42-3.43,1.25-.94.84-1.43,2.25-1.43,4.23s.48,3.39,1.43,4.22c.95.84,2.05,1.26,3.32,1.26,1.32,0,2.46-.42,3.39-1.26.93-.83,1.41-2.24,1.41-4.22M823.3,42.96h-4.62V15.56h4.62v27.41ZM821.02,8.94c-.96,0-1.71-.31-2.28-.91-.58-.62-.86-1.41-.86-2.4s.29-1.73.86-2.34c.56-.61,1.32-.91,2.28-.91s1.65.31,2.23.91c.57.62.85,1.4.85,2.34,0,1-.29,1.79-.85,2.4-.58.61-1.32.91-2.23.91M847.97,24.81c0,1.18-.04,2.2-.11,3.06-.08.85-.15,1.6-.23,2.25h-13.99c.14,3.24.84,5.62,2.07,7.14,1.24,1.52,3.02,2.28,5.34,2.28.8,0,1.52-.09,2.18-.28.65-.2,1.2-.42,1.68-.69.47-.27.87-.53,1.19-.8.33-.27.57-.47.72-.63l1.72,3.25c-.2.18-.48.46-.86.82-.38.37-.89.73-1.54,1.09-.65.36-1.45.68-2.39.94-.96.27-2.07.4-3.37.4-1.71,0-3.27-.29-4.66-.86-1.39-.57-2.57-1.45-3.53-2.65-.98-1.2-1.72-2.72-2.26-4.57-.53-1.85-.8-4.07-.8-6.65,0-2.43.28-4.54.83-6.31.55-1.77,1.3-3.22,2.26-4.36.94-1.14,2.05-1.99,3.31-2.55,1.25-.54,2.61-.82,4.06-.82,2.62,0,4.68.82,6.16,2.48,1.49,1.65,2.23,4.14,2.23,7.45M839.29,18.65c-1.63,0-2.95.68-3.94,2.05-.99,1.36-1.56,3.35-1.71,5.93h9.98c.04-.2.07-.46.09-.83.02-.36.03-.75.03-1.17,0-1.9-.38-3.37-1.15-4.42-.76-1.05-1.86-1.57-3.31-1.57M866.17,19.61c-.11-.07-.36-.16-.74-.29-.38-.11-.89-.16-1.54-.16-1.45,0-2.58.39-3.4,1.17-.81.78-1.4,1.62-1.73,2.54v20.1h-4.63V15.56h4.23v3.72h.11c.18-.53.43-1.06.74-1.57.31-.51.69-.98,1.14-1.37.46-.4,1.01-.72,1.63-.95.63-.23,1.38-.35,2.25-.35.65,0,1.17.06,1.57.17.4.11.72.22.95.29l-.58,4.11ZM889.93,42.96h-4.22v-3.08h-.11c-.12.23-.37.55-.75,1-.38.44-.86.85-1.45,1.25-.6.4-1.3.76-2.15,1.06-.83.31-1.77.46-2.79.46-1.22,0-2.31-.19-3.29-.54-.97-.36-1.8-.94-2.48-1.75-.69-.8-1.21-1.84-1.57-3.11-.36-1.27-.54-2.84-.54-4.7V15.56h4.63v17.64c0,2.29.37,3.91,1.11,4.89.74.97,1.9,1.45,3.46,1.45,1.33,0,2.46-.33,3.37-1,.9-.67,1.63-1.33,2.17-1.97V15.56h4.62v27.41ZM911.96,42.96v-17.64c0-2.32-.39-3.98-1.17-4.99-.78-1.02-1.97-1.52-3.56-1.52-1.38,0-2.52.35-3.43,1.03-.91.69-1.63,1.36-2.17,2v21.12h-4.63V15.56h4.23v3.09h.11c.11-.24.36-.56.74-1.01.38-.43.87-.85,1.49-1.25.61-.4,1.33-.75,2.17-1.06.84-.3,1.79-.45,2.85-.45,1.22,0,2.32.17,3.31.54,1,.36,1.83.93,2.52,1.74s1.22,1.84,1.6,3.11c.38,1.27.57,2.85.57,4.71v17.98h-4.62ZM943.13,19.16h-3.42c.87,1.45,1.32,3.08,1.32,4.91,0,1.45-.24,2.75-.72,3.91-.47,1.16-1.14,2.14-1.99,2.94-.86.8-1.87,1.41-3.03,1.83-1.16.42-2.4.63-3.74.63h-.74c-.24,0-.48-.02-.75-.06-.45.2-.92.5-1.43.91-.49.42-.74.98-.74,1.66,0,.57.22,1.04.66,1.4.44.36,1.15.54,2.14.54h3.49c1.29,0,2.49.13,3.59.4,1.1.27,2.07.69,2.89,1.28.81.59,1.45,1.34,1.91,2.25.45.91.69,2.02.69,3.32,0,1.48-.32,2.83-.94,4.05-.63,1.22-1.52,2.27-2.66,3.14-1.14.87-2.53,1.56-4.17,2.05-1.63.49-3.46.75-5.47.75-2.94,0-5.16-.64-6.69-1.92-1.52-1.27-2.28-3.11-2.28-5.51,0-1.03.18-1.91.54-2.66.36-.74.79-1.39,1.28-1.94.49-.54,1-.99,1.51-1.31.51-.32.93-.58,1.23-.77v-.11c-1.18-.87-1.78-2.15-1.78-3.82,0-.73.14-1.36.43-1.89.29-.53.61-.96.98-1.3.36-.35.72-.63,1.08-.83.36-.22.64-.35.83-.43v-.11c-1.41-.65-2.55-1.66-3.4-3.05-.85-1.4-1.28-3.17-1.28-5.34,0-1.52.25-2.87.74-4.02.49-1.16,1.16-2.13,2-2.89.83-.76,1.82-1.33,2.94-1.71,1.12-.38,2.33-.57,3.62-.57s2.52.23,3.66.68h8.34l-.64,3.6ZM930.41,42.11c-.8,0-1.51-.06-2.12-.18-.34.19-.68.42-1,.69-.33.27-.63.59-.88.96-.27.38-.49.83-.66,1.35-.17.51-.26,1.11-.26,1.8,0,2.93,1.61,4.4,4.85,4.4,2.78,0,4.84-.54,6.17-1.62,1.32-1.09,1.99-2.33,1.99-3.75,0-1.33-.42-2.27-1.25-2.83-.84-.55-1.96-.82-3.37-.82h-3.48ZM936.52,24.07c0-1.98-.47-3.39-1.41-4.23-.93-.83-2.02-1.25-3.28-1.25-1.34,0-2.47.42-3.43,1.25-.95.84-1.43,2.25-1.43,4.23s.47,3.39,1.43,4.22c.96.84,2.05,1.26,3.32,1.26s2.46-.42,3.39-1.26c.93-.83,1.41-2.24,1.41-4.22M204.22,76.89h-5.6v23.64h-4.62v-23.64h-3.31v-3.08l3.31-.63v-5.48c0-1.48.21-2.75.63-3.82.42-1.07.98-1.94,1.65-2.63.69-.69,1.49-1.18,2.4-1.48.91-.31,1.88-.46,2.91-.46s1.83.13,2.52.4c.69.27,1.14.47,1.37.63l-.97,3.83c-.23-.15-.55-.32-.98-.49-.41-.16-.92-.26-1.54-.26-1.1,0-1.94.35-2.51,1.03-.57.69-.86,1.94-.86,3.77v4.91h6.17l-.57,3.77ZM227.98,100.53h-4.23v-3.08h-.11c-.11.23-.36.55-.74,1-.38.44-.86.85-1.46,1.25-.58.4-1.3.76-2.14,1.06-.84.31-1.78.46-2.8.46-1.21,0-2.31-.18-3.28-.54-.98-.36-1.8-.94-2.49-1.75-.69-.8-1.21-1.84-1.57-3.11-.36-1.27-.54-2.85-.54-4.7v-17.99h4.63v17.64c0,2.29.37,3.91,1.11,4.89.74.97,1.89,1.45,3.45,1.45,1.33,0,2.45-.33,3.37-1,.91-.67,1.64-1.33,2.18-1.97v-21.01h4.62v27.41ZM216.62,65.25c0,.88-.27,1.58-.8,2.11-.53.53-1.18.8-1.94.8s-1.41-.27-1.94-.8c-.53-.53-.8-1.23-.8-2.11s.27-1.58.8-2.11c.53-.53,1.18-.8,1.94-.8s1.41.27,1.94.8c.53.52.8,1.23.8,2.11M225.41,65.25c0,.88-.27,1.58-.8,2.11-.53.53-1.18.8-1.94.8s-1.41-.27-1.94-.8c-.53-.53-.8-1.23-.8-2.11s.27-1.58.8-2.11c.53-.53,1.18-.8,1.94-.8s1.41.27,1.94.8c.53.52.8,1.23.8,2.11M247.1,77.18c-.11-.07-.36-.18-.74-.29-.38-.11-.89-.16-1.54-.16-1.45,0-2.58.39-3.4,1.17-.82.78-1.4,1.62-1.74,2.54v20.1h-4.63v-27.41h4.23v3.72h.11c.18-.54.43-1.06.74-1.57.31-.51.69-.98,1.14-1.38.46-.39,1-.71,1.63-.93.63-.23,1.38-.35,2.25-.35.65,0,1.17.06,1.57.18.4.11.72.21.95.29l-.58,4.11ZM275.53,80.37l13.36,20.16h-6.11l-11.42-17.93h-2.97v17.93h-4.97v-39.39h4.97v17.53h3.03l11.01-17.53h5.55l-12.45,19.23ZM311.33,100.53h-4.23v-3.08h-.11c-.11.23-.36.55-.74,1-.38.44-.87.85-1.46,1.25-.59.4-1.31.76-2.15,1.06-.83.31-1.77.46-2.79.46-1.22,0-2.31-.18-3.29-.54-.96-.36-1.8-.94-2.48-1.75-.69-.8-1.21-1.84-1.57-3.11-.37-1.27-.54-2.85-.54-4.7v-17.99h4.62v17.64c0,2.29.37,3.91,1.12,4.89.74.97,1.89,1.45,3.45,1.45,1.33,0,2.45-.33,3.37-1,.91-.67,1.63-1.33,2.17-1.97v-21.01h4.63v27.41ZM322.98,94.13c0,1.14.15,1.94.48,2.4.32.45.88.69,1.68.69.42,0,.77-.04,1.06-.12.29-.07.5-.14.66-.23l.4,3.43c-.24.11-.65.27-1.26.45-.61.2-1.43.29-2.46.29-1.56,0-2.81-.47-3.77-1.43-.94-.95-1.43-2.65-1.43-5.08v-34.37l4.63-.51v34.48ZM343.13,76.89h-6v15.19c0,1.94.25,3.26.75,3.97.49.7,1.33,1.05,2.51,1.05.69,0,1.27-.09,1.78-.28.49-.19.85-.37,1.08-.51l.63,3.71c-.18.15-.65.39-1.37.71-.72.33-1.69.49-2.92.49-2.35,0-4.13-.66-5.31-1.97-1.18-1.31-1.77-3.49-1.77-6.54v-15.81h-3.31v-3.08l3.31-.69.51-7.64h4.11v7.64h6.57l-.57,3.77ZM367.55,100.53h-4.22v-3.08h-.11c-.11.23-.36.55-.74,1-.38.44-.87.85-1.46,1.25-.59.4-1.3.76-2.15,1.06-.83.31-1.77.46-2.79.46-1.22,0-2.31-.18-3.29-.54-.96-.36-1.8-.94-2.48-1.75-.69-.8-1.21-1.84-1.57-3.11-.37-1.27-.54-2.85-.54-4.7v-17.99h4.62v17.64c0,2.29.37,3.91,1.12,4.89.74.97,1.89,1.45,3.45,1.45,1.34,0,2.46-.33,3.37-1,.91-.67,1.63-1.33,2.17-1.97v-21.01h4.62v27.41ZM386.69,77.18c-.11-.07-.36-.18-.74-.29-.38-.11-.89-.16-1.54-.16-1.45,0-2.59.39-3.4,1.17-.82.78-1.4,1.62-1.74,2.54v20.1h-4.62v-27.41h4.22v3.72h.11c.2-.54.44-1.06.75-1.57.3-.51.68-.98,1.14-1.38.45-.39,1-.71,1.62-.93.63-.23,1.39-.35,2.26-.35.65,0,1.17.06,1.57.18.4.11.71.21.93.29l-.57,4.11ZM421.22,100.53h-4.22v-3.08h-.11c-.11.23-.36.55-.74,1-.39.44-.87.85-1.46,1.25-.59.4-1.3.76-2.15,1.06-.83.31-1.77.46-2.79.46-1.22,0-2.31-.18-3.29-.54-.97-.36-1.8-.94-2.48-1.75-.68-.8-1.2-1.84-1.56-3.11-.37-1.27-.54-2.85-.54-4.7v-17.99h4.62v17.64c0,2.29.37,3.91,1.11,4.89.75.97,1.9,1.45,3.46,1.45,1.33,0,2.45-.33,3.37-1,.91-.67,1.63-1.33,2.17-1.97v-21.01h4.62v27.41ZM443.26,100.53v-17.64c0-2.32-.39-3.99-1.17-4.99-.78-1.02-1.97-1.52-3.56-1.52-1.38,0-2.52.35-3.43,1.03-.91.69-1.63,1.36-2.17,2v21.12h-4.62v-27.41h4.22v3.09h.11c.11-.24.36-.57.74-1.01.38-.43.88-.85,1.49-1.25.61-.4,1.34-.75,2.17-1.06.84-.3,1.79-.45,2.85-.45,1.22,0,2.32.18,3.32.54.99.36,1.83.93,2.51,1.74.69.8,1.22,1.84,1.6,3.11.38,1.27.58,2.85.58,4.71v17.98h-4.63ZM453.54,87.23c0-2.78.36-5.1,1.09-6.97.72-1.86,1.65-3.37,2.79-4.51,1.14-1.14,2.43-1.95,3.88-2.42,1.45-.47,2.9-.72,4.33-.72.88,0,1.64.07,2.29.21.65.13,1.18.3,1.6.48v-13.13l4.62-.51v40.88h-4.23v-2.92h-.11c-.11.24-.32.55-.63.95-.31.4-.72.8-1.25,1.2-.53.4-1.2.74-2,1.03-.8.29-1.73.43-2.79.43-1.29,0-2.53-.26-3.69-.77-1.16-.51-2.18-1.34-3.05-2.45-.87-1.13-1.57-2.58-2.08-4.34-.51-1.77-.77-3.91-.77-6.42M464.38,97.1c.73,0,1.38-.09,1.94-.28.57-.19,1.07-.43,1.49-.72.42-.29.77-.58,1.06-.88.28-.31.5-.57.66-.8v-16.89c-.42-.27-.91-.5-1.46-.69-.55-.2-1.25-.29-2.08-.29-1.07,0-2.07.18-3,.54-.93.36-1.75.96-2.42,1.8-.69.83-1.23,1.92-1.63,3.25-.4,1.34-.6,2.97-.6,4.91s.16,3.49.48,4.76c.33,1.27.77,2.3,1.35,3.08.57.78,1.21,1.35,1.94,1.68.72.35,1.48.51,2.28.51M527.13,61.14v39.39h-4.8v-22.21c0-1.14.01-2.21.03-3.19.02-.99.04-1.87.08-2.63.04-.76.07-1.35.11-1.77h-.17c-.18.87-.58,2.29-1.17,4.25-.59,1.96-1.26,4.07-2.02,6.3l-6.51,19.24h-3.93l-6.51-19.24c-.76-2.24-1.44-4.35-2.02-6.3-.6-1.96-.99-3.38-1.17-4.25h-.17c.04.45.07,1.07.11,1.83.04.76.07,1.62.08,2.6.02.96.03,2.02.03,3.16v22.21h-4.8v-39.39h5.54l9.31,27.17c.41,1.26.79,2.49,1.11,3.69.33,1.2.52,2.24.6,3.11h.12c.03-.87.21-1.91.53-3.08.33-1.18.7-2.4,1.12-3.66l9.3-27.23h5.2ZM552.53,82.38c0,1.18-.04,2.2-.11,3.05-.08.86-.15,1.61-.24,2.26h-13.99c.15,3.24.85,5.62,2.09,7.14,1.24,1.52,3.02,2.28,5.34,2.28.8,0,1.52-.09,2.17-.28.65-.19,1.21-.42,1.68-.69.48-.27.88-.53,1.2-.8.33-.27.57-.47.72-.63l1.7,3.26c-.18.18-.47.46-.85.82-.38.37-.89.73-1.54,1.09-.65.36-1.45.68-2.4.94-.95.27-2.07.4-3.37.4-1.71,0-3.26-.29-4.65-.86-1.39-.57-2.57-1.46-3.53-2.65-.98-1.2-1.72-2.72-2.26-4.57-.53-1.85-.8-4.07-.8-6.65,0-2.43.28-4.54.83-6.3.55-1.77,1.3-3.23,2.25-4.37.96-1.14,2.06-1.99,3.32-2.55,1.25-.54,2.61-.82,4.06-.82,2.62,0,4.67.82,6.16,2.49,1.49,1.65,2.23,4.14,2.23,7.45M543.86,76.22c-1.64,0-2.95.68-3.94,2.05-.99,1.37-1.56,3.35-1.72,5.93h9.99c.04-.19.07-.46.09-.83.01-.36.02-.75.02-1.17,0-1.9-.38-3.38-1.14-4.42-.76-1.05-1.86-1.57-3.31-1.57M557.44,87.23c0-2.78.36-5.1,1.09-6.97.72-1.86,1.65-3.37,2.79-4.51,1.14-1.14,2.43-1.95,3.88-2.42,1.45-.47,2.9-.72,4.33-.72.88,0,1.64.07,2.29.21.65.13,1.18.3,1.6.48v-13.13l4.62-.51v40.88h-4.23v-2.92h-.11c-.11.24-.32.55-.63.95-.31.4-.72.8-1.25,1.2-.54.4-1.2.74-2,1.03-.8.29-1.73.43-2.79.43-1.29,0-2.53-.26-3.69-.77-1.16-.51-2.18-1.34-3.05-2.45-.87-1.13-1.57-2.58-2.08-4.34-.51-1.77-.77-3.91-.77-6.42M568.29,97.1c.73,0,1.38-.09,1.94-.28.58-.19,1.07-.43,1.49-.72.42-.29.77-.58,1.06-.88.28-.31.5-.57.66-.8v-16.89c-.42-.27-.91-.5-1.46-.69-.55-.2-1.25-.29-2.08-.29-1.07,0-2.06.18-3,.54-.93.36-1.75.96-2.42,1.8-.69.83-1.23,1.92-1.63,3.25-.4,1.34-.6,2.97-.6,4.91s.16,3.49.48,4.76c.33,1.27.77,2.3,1.34,3.08.57.78,1.21,1.35,1.94,1.68.72.35,1.48.51,2.28.51M589.75,100.53h-4.62v-27.41h4.62v27.41ZM587.47,66.51c-.96,0-1.71-.31-2.28-.92-.58-.61-.86-1.42-.86-2.4s.29-1.74.86-2.34c.56-.61,1.32-.91,2.28-.91s1.65.31,2.23.91c.58.61.85,1.39.85,2.34s-.28,1.79-.85,2.4c-.58.61-1.32.92-2.23.92M614.42,82.38c0,1.18-.04,2.2-.11,3.05-.07.86-.15,1.61-.23,2.26h-13.99c.15,3.24.84,5.62,2.08,7.14,1.23,1.52,3.01,2.28,5.33,2.28.8,0,1.53-.09,2.18-.28.65-.19,1.2-.42,1.68-.69.47-.27.87-.53,1.19-.8.33-.27.57-.47.72-.63l1.72,3.26c-.2.18-.48.46-.86.82-.38.37-.89.73-1.54,1.09-.65.36-1.45.68-2.39.94-.96.27-2.07.4-3.37.4-1.72,0-3.27-.29-4.65-.86-1.4-.57-2.57-1.46-3.54-2.65-.98-1.2-1.73-2.72-2.26-4.57-.53-1.85-.79-4.07-.79-6.65,0-2.43.27-4.54.82-6.3.55-1.77,1.3-3.23,2.26-4.37.94-1.14,2.05-1.99,3.31-2.55,1.25-.54,2.61-.82,4.06-.82,2.63,0,4.68.82,6.16,2.49,1.49,1.65,2.23,4.14,2.23,7.45M605.74,76.22c-1.63,0-2.95.68-3.93,2.05-1,1.37-1.56,3.35-1.71,5.93h9.99c.03-.19.06-.46.08-.83.02-.36.03-.75.03-1.17,0-1.9-.38-3.38-1.14-4.42-.77-1.05-1.87-1.57-3.32-1.57M635.54,100.53v-17.64c0-2.32-.39-3.99-1.17-4.99-.78-1.02-1.97-1.52-3.56-1.52-1.38,0-2.52.35-3.43,1.03-.91.69-1.63,1.36-2.17,2v21.12h-4.62v-27.41h4.22v3.09h.11c.11-.24.36-.57.74-1.01.38-.43.88-.85,1.49-1.25.61-.4,1.34-.75,2.17-1.06.84-.3,1.79-.45,2.86-.45,1.22,0,2.32.18,3.32.54.99.36,1.82.93,2.51,1.74.69.8,1.22,1.84,1.6,3.11.38,1.27.56,2.85.56,4.71v17.98h-4.62Z"/>
        <path class="cls-2" d="M67.64,39.79c.13-1.08.21-2.19.21-3.32,0-.62.01-1.34-.07-2.16,9.56-.13,17.95-7.02,17.95-14.94,0-4.03-2.63-7.07-4.12-8.88.34-.07.67-.15,1.01-.24,1.41,1.22,5.38,5.55,5.38,11.01,0,9.51-9.5,18.33-20.35,18.53M58.01,6.7c-.17-1.06-.58-2.02-1.19-2.84.03-.97.43-1.9,1.98-1.13-.84.86-.18,2.39-.18,2.39,0,0,1.73-.8,1.37-1.94,2.56.61.72,4.05-1.97,3.52M55.79,11.57c-.35-1.42-1.08-2.88-2-3.97-.84-1-2.24-2.19-4.12-2.19-.86,0-2.3.4-3.21.79-.34-.62-1.01-2.13-1.01-2.8s1.17-1.4,3.42-1.4c4.96,0,7.91,2.24,7.91,5.99,0,1.32-.52,2.52-.99,3.58M68.51,75.39c.58,0,.85.08,1.18.22,1.43,3.87,6.92,11.18,7.16,11.5l.04.06.08-.02c1.35-.21,4.79-.73,7.67-.73h.06c.32,0,.67,0,.89.21.18.2.28.51.28.99,0,.71-.3,1.94-.67,2.46-1.01-1.1-2.64-1.59-5.26-1.59-.79,0-1.72.24-2.22.37l-.22.05-.23.06,1.51,1.51c2.33,2.33,4.34,4.34,4.34,5.68,0,.8-.79,1.86-1.51,2.32-.15-2.45-2.63-5.73-5.04-7.57l-.21-.15-.04.86c-.03.58-.08,1.46-.08,2.4,0,4.67-.48,5.38-2.1,5.38-.25,0-.63-.07-.86-.16.91-1.13,1.27-2.61,1.27-5.22l-.02-1.21v-.96c-.01-1.07.1-1.86.18-2.5l.05-.37-.26-.03c-.76-.1-2.17-.3-3.24-.3-2.31,0-3.87.22-5.01,1.28-.75-.61-1.51-1.65-1.51-2.31,0-.98.6-1.05,1.4-1.05.4,0,.78.06,1.29.12,1,.14,2.49.37,5.57.37h.19l-.06-.19c-.77-2.23-2.92-5.47-6.35-9.64.31-1.11.62-1.84,1.69-1.84M38.88,86.87l-.06.19h.19c3.07,0,4.57-.23,5.56-.37.52-.06.89-.12,1.29-.12.8,0,1.41.07,1.41,1.05,0,.66-.77,1.7-1.51,2.31-1.14-1.07-2.7-1.28-5.01-1.28-1.08,0-2.49.2-3.24.3l-.12.02h-.13s.04.38.04.38c.09.64.21,1.43.21,2.5l-.02.96v1.21c0,2.61.35,4.09,1.26,5.22-.24.09-.62.16-.86.16-1.62,0-2.09-.71-2.09-5.38,0-.94-.05-1.82-.08-2.4l-.05-.87-.2.16c-2.41,1.84-4.9,5.11-5.04,7.57-.73-.46-1.51-1.52-1.51-2.32,0-1.33,2.01-3.35,4.34-5.68l1.51-1.51-.44-.11c-.5-.13-1.44-.37-2.23-.37-2.61,0-4.24.49-5.26,1.59-.36-.51-.67-1.75-.67-2.46,0-.47.09-.79.28-.99.22-.21.58-.21.89-.21h.07c2.88,0,6.33.51,7.66.73l.08.02.05-.06c.24-.32,5.72-7.63,7.16-11.5.32-.13.6-.22,1.18-.22,1.08,0,1.38.73,1.69,1.84-3.44,4.17-5.58,7.41-6.36,9.64M24.05,21.27c0-5.46,3.97-9.79,5.37-11.01.34.08.68.16,1.02.24-1.49,1.82-4.12,4.86-4.12,8.88,0,8,8.54,14.95,18.23,14.95-.06.69-.09,1.41-.09,2.15,0,1.18.06,2.28.17,3.32-10.95-.07-20.58-8.95-20.58-18.53M97.47,38.12c4.92,7.77,8.76,7.64,14.56,7.64-4.8-3.68-7.98-8.39-9.49-10.8l-8.97-14.36c-.87-4.43-3.16-8.57-6.6-11.65,1.16-.44,2.11-.9,2.69-1.33-5.85,0-11.65-2.98-14.86-2.98-2.04,0-3.37,1.23-3.37,2.85.13,1.81,1.99,3.65,5.43,3.65.78,0,1.78-.1,2.86-.29,1.87,2.6,3.37,4.94,3.37,8.29,0,6.28-7.52,11.18-15.1,11.18-.43,0-.84-.02-1.27-.04-.69-1.56-2.97-4.18-2.97-7.15,0-5,3.26-9.08,3.26-14.02,0-3.08-1.5-4.98-2.07-5.78.93-.86,1.95-1.92,2.19-2.65-.54.24-1.18.27-2.11.27C61.37.94,58.41,0,55.51,0c-1.64,0-2.08.5-2.08,1,0,.17.02.36.07.44-.62-.24-1.19-.4-1.88-.52-.85-.16-1.77-.25-2.75-.25-3.51,0-4.76,1.48-4.76,2.73,0,1.07.84,3.02,1.8,4.51,1.37-.7,3.01-1.16,3.76-1.16,1.87,0,3.52,1.78,4.4,3.88-1.25.15-1.49.21-2.75.21-3.42,0-5.75-1.22-6.23-1.22-.04,0-.13.02-.13.09,0,.48.98,1.75,2.89,2.44,2.52.92,6.28,1.3,6.91,1.41,0,.11-.64,1.3-1.35,1.54-.14.04-.27.05-.44.01-2.63-.52-3.36-.74-6.7-2-.1-.04-.16.02-.16.12,0,1.32,3.42,4.23,6.48,5.35-2.56,3.27-5.75,6.6-7.26,11.7-.42.02-.83.04-1.26.04-7.59,0-15.1-4.9-15.1-11.18,0-3.35,1.5-5.69,3.36-8.29,1.1.18,2.08.29,2.88.29,3.44,0,5.3-1.84,5.43-3.65,0-1.62-1.33-2.85-3.38-2.85-3.19,0-9,2.98-14.86,2.98.57.43,1.54.89,2.69,1.33-3.43,3.08-5.73,7.23-6.6,11.65l-8.96,14.36C7.99,37.37,4.8,42.08,0,45.76c5.8,0,9.65.13,14.56-7.64l4.6-7.35c.34.96.76,1.88,1.25,2.79l-9.15,14.63c-1.52,2.43-4.67,7.11-9.5,10.81,5.81,0,9.65.13,14.57-7.63l7.87-12.61c.59.63,1.21,1.24,1.86,1.83l-11.11,17.79c-1.52,2.43-4.66,7.1-9.49,10.79,5.8,0,9.65.14,14.56-7.62l10.83-17.35c.71.45,1.44.88,2.2,1.29l-13.23,21.17c-1.52,2.43-4.66,7.09-9.49,10.79,5.8,0,9.65.13,14.56-7.63l13.62-21.79c.8.31,1.62.61,2.46.87l-15.39,24.62c-1.5,2.39-4.7,7.13-9.49,10.79,5.8,0,9.65.13,14.56-7.63l16.4-26.24c.16.02.33.05.49.08.44,1.42.76,2.74.76,4.07,0,8.25-5.41,15.53-11.91,21.14.42.18,1.14.25,1.81.25,1.34,0,2.21-.07,2.82-.17-1.51,3.42-4.74,7.84-6.38,10.12-2.13-.39-5.22-.69-7.24-.69-2.13,0-2.36,1.24-2.36,2.35,0,1.92.9,3.45,1.95,4.3.39-.98,1.18-2.29,5.09-2.29.08,0,.22,0,.4.02-1.15,1.27-4.73,4.17-4.73,6.5,0,1.54,1.69,3.86,3.93,3.86-.13-.5-.12-.96-.12-1.3,0-1.89,1.67-4.1,3.09-5.65-.04.46-.02.42-.02.95,0,4.47.41,6.52,3.25,6.52,1.39,0,2.35-.76,2.68-1-1.85-1.7-1.94-3.03-1.94-5.53.01-.66.01-1.29.02-2.18,0-.57,0-1.32-.09-1.88,1.01-.13,1.42-.13,2.2-.13,0,0,4.03-.33,5,1.78,1.1-1.01,2.68-2.42,2.68-3.98,0-1.03-.48-2.2-2.57-2.2-.78,0-3.26.48-5.32.48.55-1.23,3.03-4.85,5.18-7.48.32,1.02.82,2.12,1.95,3.02.15-1.68,1.14-7.02,3.78-10.16.31,2.12.72,4.28.72,8.84,0,11.1-2.66,19.3-8.33,20.87.74,1.27,2.3,2.43,3.91,2.43,2.07,0,3.2-2.34,4.35-4.56.6,1.63,2.25,5.64,3.91,5.64s3.32-4,3.92-5.64c1.14,2.22,2.28,4.56,4.34,4.56,1.62,0,3.18-1.16,3.92-2.43-5.67-1.57-8.34-9.77-8.34-20.87,0-4.56.41-6.73.72-8.84,2.64,3.13,3.64,8.47,3.78,10.16,1.13-.9,1.64-2,1.96-3.02,2.14,2.63,4.61,6.24,5.18,7.48-2.07,0-4.55-.48-5.33-.48-2.07,0-2.56,1.17-2.56,2.2,0,1.56,1.58,2.98,2.68,3.98.97-2.11,5-1.78,5-1.78.77,0,1.18,0,2.2.13-.09.56-.09,1.31-.09,1.88,0,.88,0,1.52,0,2.18,0,2.5-.09,3.83-1.93,5.53.33.24,1.28,1,2.68,1,2.83,0,3.25-2.05,3.25-6.52,0-.53.01-.49-.03-.95,1.42,1.55,3.09,3.76,3.09,5.65,0,.35.02.8-.11,1.3,2.23,0,3.93-2.32,3.93-3.86,0-2.33-3.58-5.23-4.73-6.5.18-.02.32-.02.39-.02,3.92,0,4.71,1.31,5.1,2.29,1.05-.85,1.95-2.38,1.95-4.3,0-1.11-.25-2.35-2.36-2.35s-5.11.3-7.25.69c-1.63-2.29-4.86-6.7-6.37-10.12.61.1,1.48.17,2.81.17.68,0,1.4-.06,1.81-.25-6.49-5.62-11.9-12.9-11.9-21.14,0-1.32.31-2.65.76-4.07.15-.03.33-.06.49-.08l16.39,26.24c4.91,7.76,8.77,7.63,14.56,7.63-4.78-3.67-7.99-8.4-9.49-10.79l-15.38-24.62c.83-.27,1.65-.57,2.45-.87l13.62,21.79c4.91,7.76,8.76,7.63,14.56,7.63-4.84-3.71-7.97-8.36-9.5-10.79l-13.22-21.17c.75-.41,1.48-.84,2.19-1.29l10.84,17.35c4.91,7.76,8.75,7.62,14.56,7.62-4.84-3.7-7.97-8.36-9.5-10.79l-11.11-17.79c.66-.59,1.27-1.2,1.86-1.83l7.88,12.61c4.91,7.76,8.76,7.63,14.56,7.63-4.83-3.71-7.97-8.38-9.5-10.81l-9.14-14.63c.49-.92.9-1.84,1.25-2.79l4.59,7.35Z"/>
      </g>
      <rect class="cls-2" x="141.17" y="4.58" width="16.79" height="95.96"/>
      <g class="cls-6">
        <g class="cls-7">
          <g class="cls-4">
            <rect class="cls-2" x="141.18" y="100.54" width="16.79" height="95.95"/>
          </g>
        </g>
        <g class="cls-8">
          <g class="cls-5">
            <rect class="cls-2" x="141.17" y="196.48" width="16.79" height="95.96"/>
          </g>
        </g>
      </g>
    </g>
  </g>
</svg>