<?xml version="1.0" encoding="UTF-8"?>
<svg id="Ebene_2" data-name="Ebene 2" xmlns="http://www.w3.org/2000/svg" xmlns:xlink="http://www.w3.org/1999/xlink" viewBox="0 0 383.05 293.87">
  <defs>
    <style>
      .cls-1 {
        fill: none;
      }

      .cls-2 {
        fill: #1d1d1b;
      }

      .cls-3 {
        clip-path: url(#clippath-1);
      }

      .cls-4 {
        clip-path: url(#clippath-3);
      }

      .cls-5 {
        clip-path: url(#clippath-2);
      }

      .cls-6 {
        clip-path: url(#clippath);
      }
    </style>
    <clipPath id="clippath">
      <rect class="cls-1" width="383.05" height="293.87"/>
    </clipPath>
    <clipPath id="clippath-1">
      <rect class="cls-1" width="383.05" height="293.87"/>
    </clipPath>
    <clipPath id="clippath-2">
      <rect class="cls-1" width="383.05" height="293.87"/>
    </clipPath>
    <clipPath id="clippath-3">
      <rect class="cls-1" width="383.05" height="293.87"/>
    </clipPath>
  </defs>
  <g id="Ebene_1-2" data-name="Ebene 1">
    <g>
      <g class="cls-6">
        <path class="cls-2" d="M0,18.15C0,8.69,7.62,1.35,17.55,1.35c4.43,0,8.29,1.42,11.38,3.88l-3.9,5.66c-2.07-1.62-4.46-2.85-7.48-2.85-5.53,0-9.8,4.36-9.8,10.12s4.27,10.12,9.8,10.12c2.95,0,5.73-1.37,7.73-3.13l4.07,5.62c-3.13,2.67-7.23,4.21-11.8,4.21C7.62,34.97,0,27.63,0,18.15"/>
        <path class="cls-2" d="M41.17,34.41h-7.47V.51h7.47v12.33c1.44-1.84,3.81-3.04,6.32-3.04,5.48,0,9.43,3.95,9.43,9.54v15.07h-7.48v-14.07c0-2.09-1.44-3.99-4.01-3.99-1.75,0-3.42,1.31-4.25,2.72v15.34Z"/>
        <path class="cls-2" d="M68.41,19.74h10.7c-.58-2.65-2.46-4.32-5.22-4.32s-4.78,1.62-5.48,4.32M74.44,29.35c2.44,0,4.69-1.12,6.5-2.86l4.04,4.11c-2.65,2.88-6.36,4.37-10.63,4.37-8.01,0-13.56-5.53-13.56-12.58s5.69-12.58,13.18-12.58,12.72,5.43,12.72,12.19c0,.81-.14,1.77-.35,2.46h-18.06c.51,3.04,2.87,4.9,6.15,4.9"/>
        <path class="cls-2" d="M98.52,10.36v2.48c1.42-1.81,3.6-2.95,6.18-2.95,3.32,0,6.01,1.48,7.64,3.95,1.6-2.35,4.47-4.04,7.66-4.04,5.41,0,9.26,3.99,9.26,9.5v15.11h-7.48v-14.09c0-2.06-1.39-3.97-3.74-3.97-1.72,0-3.27,1.26-4.18,2.81.03.63.03,1.37.03,2.05v13.21h-7.48v-14.09c0-2.27-1.49-3.97-3.73-3.97-1.72,0-3.25,1.26-4.16,2.77v15.29h-7.47V10.36h7.47Z"/>
        <path class="cls-2" d="M142.13,34.41h-7.48V10.36h7.48v2.48c1.44-1.84,3.81-3.04,6.31-3.04,5.48,0,9.43,3.95,9.43,9.54v15.07h-7.47v-14.07c0-2.09-1.44-3.99-4.02-3.99-1.74,0-3.41,1.31-4.25,2.72v15.34Z"/>
        <path class="cls-2" d="M163.28,10.36h7.48v24.05h-7.48V10.36ZM167.02,0c2.41,0,4.27,1.77,4.27,4.07s-1.86,4.06-4.27,4.06-4.27-1.76-4.27-4.06S164.6,0,167.02,0"/>
        <path class="cls-2" d="M185.64,25.7c0,1.9.91,2.81,3.09,2.81.79,0,1.81-.05,2.46-.14v6.11c-.95.3-2.58.49-4.11.49-5.64,0-8.91-3.12-8.91-8.5v-9.65h-3.48v-6.45h3.48v-6.32l7.47-.65v6.97h5.28v6.45h-5.28v8.89Z"/>
      </g>
      <polygon class="cls-2" points="194.21 28.7 204.7 16.77 194.81 16.77 194.81 10.36 213.85 10.36 213.85 16.07 203.35 28 214.31 28 214.31 34.41 194.21 34.41 194.21 28.7"/>
      <polygon class="cls-2" points="7.48 63.83 9.45 63.83 18.67 50.04 24.89 50.04 14.07 66.11 26.74 82.54 20.34 82.54 9.61 68.57 7.48 68.57 7.48 82.54 2 82.54 2 50.04 7.48 50.04 7.48 63.83"/>
      <g class="cls-3">
        <path class="cls-2" d="M45.37,58.49h5.29v24.05h-5.29v-2.79c-1.76,1.95-4.46,3.35-7.19,3.35-5.81,0-9.8-3.99-9.8-10.03v-14.57h5.29v14.3c0,3.25,2.23,5.57,5.53,5.57,2.41,0,4.87-1.95,6.17-3.9v-15.97Z"/>
      </g>
      <rect class="cls-2" x="57.4" y="48.65" width="5.29" height="33.9"/>
      <g class="cls-5">
        <path class="cls-2" d="M76.49,74.55c0,2.7,1.12,3.9,4.27,3.9.65,0,1.63-.05,2.1-.1v4.55c-.51.09-1.62.19-2.56.19-6.27,0-9.1-2.61-9.1-8.5v-11.46h-3.99v-4.64h3.99v-6.5l5.29-.46v6.96h6.08v4.64h-6.08v11.41Z"/>
        <path class="cls-2" d="M103.9,58.49h5.29v24.05h-5.29v-2.79c-1.76,1.95-4.46,3.35-7.19,3.35-5.81,0-9.8-3.99-9.8-10.03v-14.57h5.29v14.3c0,3.25,2.23,5.57,5.53,5.57,2.41,0,4.87-1.95,6.17-3.9v-15.97Z"/>
        <path class="cls-2" d="M121,67.12v15.42h-5.29v-24.05h5.29v3.06c1.81-2.14,4.04-3.62,7.05-3.62.79,0,1.62.19,2.18.46l-.41,4.69c-.8-.28-1.67-.42-2.47-.42-2.6,0-4.87,1.77-6.36,4.46"/>
        <path class="cls-2" d="M139.8,82.54h-5.29v-33.9h5.29v12.63c1.77-1.95,4.46-3.35,7.2-3.35,5.8,0,9.8,3.99,9.8,10.03v14.58h-5.29v-14.3c0-3.26-2.23-5.58-5.53-5.58-2.41,0-4.87,1.96-6.18,3.91v15.97Z"/>
        <path class="cls-2" d="M181.51,74.04v-7.01c-1.25-2.6-3.95-4.37-7.05-4.37-4.42,0-7.85,3.44-7.85,7.85s3.44,7.84,7.85,7.84c3.11,0,5.8-1.71,7.05-4.32M181.51,61.09v-2.6h5.29v24.05h-5.29v-2.6c-2.13,2.14-4.92,3.16-7.99,3.16-7.14,0-12.3-5.76-12.3-12.58s5.15-12.58,12.3-12.58c3.07,0,5.85,1.02,7.99,3.16"/>
        <path class="cls-2" d="M209.83,58.49h5.29v24.05h-5.29v-2.79c-1.76,1.95-4.46,3.35-7.19,3.35-5.81,0-9.8-3.99-9.8-10.03v-14.57h5.29v14.3c0,3.25,2.22,5.57,5.52,5.57,2.42,0,4.88-1.95,6.18-3.9v-15.97Z"/>
        <path class="cls-2" d="M241.83,70.52c0-4.41-3.43-7.85-7.84-7.85-3.11,0-5.8,1.77-7.06,4.37v7.01c1.26,2.61,3.95,4.32,7.06,4.32,4.41,0,7.84-3.43,7.84-7.84M247.22,70.52c0,6.83-5.15,12.58-12.31,12.58-3.06,0-5.85-1.02-7.99-3.16v13.37h-5.29v-34.82h5.29v2.6c2.14-2.14,4.93-3.16,7.99-3.16,7.15,0,12.31,5.76,12.31,12.58"/>
        <path class="cls-2" d="M258.46,74.55c0,2.7,1.12,3.9,4.27,3.9.65,0,1.63-.05,2.09-.1v4.55c-.51.09-1.62.19-2.56.19-6.27,0-9.1-2.61-9.1-8.5v-11.46h-3.99v-4.64h3.99v-6.5l5.29-.46v6.96h6.08v4.64h-6.08v11.41Z"/>
        <path class="cls-2" d="M270.7,75.58c1.49,1.72,3.71,2.97,6.22,2.97s4.13-1.11,4.13-2.87-1.11-2.7-4.6-3.39c-5.38-1.06-7.84-3.57-7.84-7.57s3.25-6.78,8.44-6.78c3.35,0,6.32,1.4,8.31,3.25l-2.83,3.58c-1.67-1.35-3.16-2.27-5.06-2.27-2.05,0-3.58.88-3.58,2.31s1.31,2.69,4.28,3.3c5.66,1.16,8.17,3.58,8.17,7.66s-3.35,7.34-9.05,7.34c-3.95,0-7.48-1.53-9.56-3.99l2.97-3.53Z"/>
        <path class="cls-2" d="M297.81,74.55c0,2.7,1.12,3.9,4.27,3.9.65,0,1.63-.05,2.09-.1v4.55c-.51.09-1.62.19-2.56.19-6.27,0-9.1-2.61-9.1-8.5v-11.46h-3.99v-4.64h3.99v-6.5l5.29-.46v6.96h6.08v4.64h-6.08v11.41Z"/>
        <path class="cls-2" d="M327.37,74.04v-7.01c-1.25-2.6-3.95-4.37-7.05-4.37-4.41,0-7.84,3.44-7.84,7.85s3.43,7.84,7.84,7.84c3.11,0,5.8-1.71,7.05-4.32M327.37,61.09v-2.6h5.29v24.05h-5.29v-2.6c-2.14,2.14-4.92,3.16-7.98,3.16-7.15,0-12.31-5.76-12.31-12.58s5.15-12.58,12.31-12.58c3.06,0,5.85,1.02,7.98,3.16"/>
        <path class="cls-2" d="M357.84,74.04v-7.01c-1.25-2.6-3.95-4.37-7.05-4.37-4.42,0-7.85,3.44-7.85,7.85s3.43,7.84,7.85,7.84c3.11,0,5.8-1.71,7.05-4.32M357.84,61.09v-12.45h5.29v33.9h-5.29v-2.6c-2.14,2.14-4.92,3.16-7.99,3.16-7.14,0-12.3-5.76-12.3-12.58s5.16-12.58,12.3-12.58c3.07,0,5.85,1.02,7.99,3.16"/>
        <path class="cls-2" d="M376.69,74.55c0,2.7,1.11,3.9,4.27,3.9.65,0,1.62-.05,2.09-.1v4.55c-.51.09-1.62.19-2.55.19-6.27,0-9.1-2.61-9.1-8.5v-11.46h-3.99v-4.64h3.99v-6.5l5.29-.46v6.96h6.08v4.64h-6.08v11.41Z"/>
      </g>
      <polygon class="cls-2" points="2 98.18 21.77 98.18 21.77 102.91 7.48 102.91 7.48 111.96 20.66 111.96 20.66 116.71 7.48 116.71 7.48 125.94 22.2 125.94 22.2 130.68 2 130.68 2 98.18"/>
      <g class="cls-4">
        <path class="cls-2" d="M44.53,106.63h5.29v24.05h-5.29v-2.78c-1.76,1.95-4.46,3.34-7.19,3.34-5.81,0-9.8-3.99-9.8-10.03v-14.57h5.29v14.3c0,3.25,2.23,5.57,5.53,5.57,2.41,0,4.87-1.95,6.17-3.9v-15.97Z"/>
        <path class="cls-2" d="M61.62,115.26v15.42h-5.28v-24.05h5.28v3.06c1.82-2.14,4.04-3.62,7.06-3.62.79,0,1.62.19,2.18.46l-.42,4.69c-.79-.28-1.67-.42-2.46-.42-2.6,0-4.88,1.77-6.36,4.46"/>
        <path class="cls-2" d="M93.79,118.65c0-4.41-3.43-7.85-7.85-7.85s-7.84,3.44-7.84,7.85,3.43,7.84,7.84,7.84,7.85-3.43,7.85-7.84M99.17,118.65c0,7.01-5.62,12.58-13.23,12.58s-13.23-5.58-13.23-12.58,5.62-12.58,13.23-12.58,13.23,5.57,13.23,12.58"/>
        <path class="cls-2" d="M124.25,118.65c0-4.41-3.43-7.85-7.84-7.85-3.11,0-5.81,1.77-7.06,4.37v7.01c1.26,2.61,3.95,4.32,7.06,4.32,4.41,0,7.84-3.43,7.84-7.84M129.64,118.65c0,6.82-5.15,12.58-12.31,12.58-3.06,0-5.85-1.02-7.99-3.16v13.37h-5.29v-34.82h5.29v2.6c2.14-2.14,4.93-3.16,7.99-3.16,7.15,0,12.31,5.76,12.31,12.58"/>
        <path class="cls-2" d="M153.17,122.18v-7.01c-1.25-2.6-3.95-4.37-7.05-4.37-4.41,0-7.84,3.44-7.84,7.85s3.43,7.84,7.84,7.84c3.11,0,5.8-1.71,7.05-4.32M153.17,109.23v-2.6h5.29v24.05h-5.29v-2.6c-2.13,2.14-4.92,3.16-7.98,3.16-7.15,0-12.31-5.76-12.31-12.58s5.15-12.58,12.31-12.58c3.06,0,5.85,1.02,7.98,3.16"/>
        <path class="cls-2" d="M166.33,123.71c1.49,1.72,3.71,2.97,6.22,2.97s4.13-1.11,4.13-2.87-1.11-2.7-4.6-3.39c-5.38-1.06-7.84-3.57-7.84-7.57s3.25-6.78,8.44-6.78c3.35,0,6.32,1.4,8.31,3.25l-2.83,3.58c-1.67-1.35-3.16-2.28-5.06-2.28-2.05,0-3.58.88-3.58,2.32s1.31,2.69,4.28,3.3c5.66,1.16,8.17,3.58,8.17,7.66s-3.35,7.34-9.05,7.34c-3.95,0-7.48-1.54-9.56-3.99l2.97-3.53Z"/>
        <path class="cls-2" d="M181.65,173.12c4.63,5.42,8.1,11.54,10.41,18.06h35.39v-26.21h-54.4c3.1,2.4,5.99,5.1,8.59,8.15"/>
        <path class="cls-2" d="M98.82,231.92c6.62,0,12.33,3.64,15.43,8.98l22.7-13.11c-7.62-13.17-21.82-22.05-38.13-22.05s-30.51,8.88-38.13,22.05c-3.75,6.48-5.93,13.98-5.93,22.01s2.18,15.53,5.93,22.01c7.62,13.16,21.82,22.05,38.13,22.05s30.51-8.88,38.13-22.05l-22.7-13.11c-3.09,5.35-8.81,8.98-15.43,8.98s-12.33-3.63-15.43-8.98c-1.52-2.63-2.46-5.65-2.46-8.91s.94-6.27,2.46-8.91c3.09-5.35,8.81-8.98,15.43-8.98"/>
        <path class="cls-2" d="M197.18,205.44h-11.33c-.98-9.66-4.83-18.79-11.28-26.32-8.35-9.77-20.01-15.7-32.81-16.69-8.91-.72-17.58,1.08-25.33,5.01v32.6l7.36-6.3c4.45-3.8,10.15-5.63,15.93-5.19,5.83.45,11.13,3.15,14.93,7.6,5.87,6.85,6.74,16.31,3.08,23.85-.24.51-.58,1-.9,1.49-.17.29-.35.58-.54.87-1.78,2.33-4.08,4.18-4.35,4.43l-7.95,6.69c.05.13.06.27.11.41.83,2.35,1.49,4.78,1.94,7.28,0,.05.01.1.02.15.49,2.76.79,5.59.79,8.49,0,6.74-1.39,13.14-3.89,18.95l12.09-10.19,14.23-11.64c5.04-4.31,9.03-9.51,11.88-15.29h16.01c9.29,0,16.85,7.56,16.85,16.85s-7.56,16.85-16.85,16.85h-11.74v26.2h11.74c23.74,0,43.05-19.31,43.05-43.05s-19.31-43.05-43.05-43.05"/>
        <path class="cls-2" d="M71.89,204.35c-1.18-9.19-4.98-17.85-11.14-25.06-8.35-9.77-20.01-15.69-32.81-16.69-9.93-.81-17.74-.25-26.02,4.57v33.37l8.05-6.62c4.44-3.8,10.09-5.64,15.93-5.19,5.83.45,11.13,3.15,14.93,7.6,7.85,9.17,6.77,23.03-2.41,30.88l-36.41,30.25v34.49l44.11-36.84c-.18-1.78-.28-3.6-.28-5.43,0-19.35,10.48-36.2,26.05-45.32"/>
      </g>
    </g>
  </g>
</svg>