<?xml version="1.0" encoding="UTF-8"?>
<svg id="Ebene_2" data-name="Ebene 2" xmlns="http://www.w3.org/2000/svg" xmlns:xlink="http://www.w3.org/1999/xlink" viewBox="0 0 465.98 292.43">
  <defs>
    <style>
      .cls-1 {
        fill: none;
      }

      .cls-2 {
        fill: #1d1d1b;
      }

      .cls-3 {
        clip-path: url(#clippath-1);
      }

      .cls-4 {
        clip-path: url(#clippath-3);
      }

      .cls-5 {
        clip-path: url(#clippath-4);
      }

      .cls-6 {
        clip-path: url(#clippath-2);
      }

      .cls-7 {
        clip-path: url(#clippath-6);
      }

      .cls-8 {
        clip-path: url(#clippath-5);
      }

      .cls-9 {
        clip-path: url(#clippath);
      }
    </style>
    <clipPath id="clippath">
      <rect class="cls-1" width="465.98" height="292.43"/>
    </clipPath>
    <clipPath id="clippath-1">
      <rect class="cls-1" width="465.98" height="292.43"/>
    </clipPath>
    <clipPath id="clippath-2">
      <rect class="cls-1" width="465.98" height="292.43"/>
    </clipPath>
    <clipPath id="clippath-3">
      <rect class="cls-1" width="465.98" height="292.43"/>
    </clipPath>
    <clipPath id="clippath-4">
      <rect class="cls-1" width="465.98" height="292.43"/>
    </clipPath>
    <clipPath id="clippath-5">
      <rect class="cls-1" width="465.98" height="292.43"/>
    </clipPath>
    <clipPath id="clippath-6">
      <rect class="cls-1" width="465.98" height="292.43"/>
    </clipPath>
  </defs>
  <g id="Ebene_1-2" data-name="Ebene 1">
    <g>
      <path class="cls-2" d="M110.95,3.27h246.16v164.11H110.95V3.27ZM107.68,0v170.65h252.7V0H107.68Z"/>
      <polygon class="cls-2" points="233.88 21.53 235.91 27.87 242.54 27.84 237.15 31.72 239.24 38.03 233.88 34.1 228.52 38.03 230.6 31.72 225.2 27.84 231.85 27.87 233.88 21.53"/>
      <polygon class="cls-2" points="233.88 131 235.91 137.33 242.54 137.3 237.15 141.18 239.24 147.49 233.88 143.56 228.52 147.49 230.6 141.18 225.2 137.3 231.85 137.33 233.88 131"/>
      <polygon class="cls-2" points="206.66 28.82 208.68 35.14 215.32 35.11 209.93 39 212.01 45.31 206.66 41.37 201.3 45.31 203.37 39 197.98 35.11 204.62 35.14 206.66 28.82"/>
      <polygon class="cls-2" points="186.61 48.9 188.63 55.23 195.28 55.2 189.89 59.08 191.97 65.39 186.61 61.47 181.25 65.4 183.33 59.08 177.94 55.2 184.58 55.23 186.61 48.9"/>
      <polygon class="cls-2" points="179.21 76.2 181.24 82.53 187.88 82.5 182.48 86.38 184.58 92.68 179.21 88.76 173.86 92.68 175.93 86.38 170.54 82.5 177.2 82.53 179.21 76.2"/>
      <polygon class="cls-2" points="186.53 103.5 188.56 109.83 195.2 109.81 189.82 113.69 191.9 120 186.53 116.07 181.18 120 183.25 113.69 177.86 109.81 184.51 109.83 186.53 103.5"/>
      <polygon class="cls-2" points="206.66 123.58 208.68 129.91 215.32 129.89 209.93 133.77 212.01 140.08 206.66 136.15 201.3 140.08 203.37 133.77 197.98 129.89 204.62 129.91 206.66 123.58"/>
      <polygon class="cls-2" points="261.12 28.82 259.11 35.14 252.46 35.11 257.85 39 255.76 45.31 261.12 41.37 266.49 45.31 264.41 39 269.8 35.11 263.16 35.14 261.12 28.82"/>
      <polygon class="cls-2" points="281.18 48.9 279.15 55.23 272.5 55.2 277.9 59.08 275.82 65.39 281.18 61.47 286.54 65.4 284.45 59.08 289.85 55.2 283.2 55.23 281.18 48.9"/>
      <polygon class="cls-2" points="288.57 76.2 286.54 82.53 279.89 82.5 285.3 86.38 283.21 92.68 288.57 88.76 293.93 92.68 291.85 86.38 297.24 82.5 290.59 82.53 288.57 76.2"/>
      <polygon class="cls-2" points="281.25 103.5 279.22 109.83 272.58 109.81 277.98 113.69 275.9 120 281.25 116.07 286.61 120 284.53 113.69 289.93 109.81 283.28 109.83 281.25 103.5"/>
      <polygon class="cls-2" points="261.12 123.58 259.11 129.91 252.46 129.89 257.85 133.77 255.76 140.08 261.12 136.15 266.49 140.08 264.41 133.77 269.8 129.89 263.16 129.91 261.12 123.58"/>
      <polygon class="cls-2" points="16.56 199.65 4.45 217.38 4.45 199.65 0 199.65 0 232.25 4.45 232.25 4.45 223.41 8.78 217.25 17.98 232.25 22.9 232.25 11.77 213.78 21.52 199.65 16.56 199.65"/>
      <g class="cls-9">
        <path class="cls-2" d="M29.07,199.65h4.45v22.33c0,1.98.63,3.62,1.9,4.9,1.26,1.29,2.93,1.92,5.01,1.92,2.19,0,3.92-.62,5.18-1.87,1.26-1.24,1.9-2.94,1.9-5.07v-22.22h4.45v22.68c0,3.3-1.04,5.87-3.09,7.71-2.05,1.85-4.86,2.77-8.4,2.77s-6.47-.9-8.44-2.71c-1.97-1.81-2.96-4.41-2.96-7.79v-22.66Z"/>
      </g>
      <polygon class="cls-2" points="61.75 232.26 61.75 199.65 66.2 199.65 66.2 228.25 80.94 228.25 80.94 232.26 61.75 232.26"/>
      <polygon class="cls-2" points="96.24 203.65 96.24 232.25 91.79 232.25 91.79 203.65 81.42 203.65 81.42 199.64 107.08 199.64 107.08 203.65 96.24 203.65"/>
      <g class="cls-3">
        <path class="cls-2" d="M114.13,199.65h4.45v22.33c0,1.98.63,3.62,1.89,4.9,1.26,1.29,2.93,1.92,5.01,1.92,2.19,0,3.92-.62,5.18-1.87,1.26-1.24,1.9-2.94,1.9-5.07v-22.22h4.45v22.68c0,3.3-1.03,5.87-3.09,7.71-2.05,1.85-4.86,2.77-8.4,2.77s-6.46-.9-8.44-2.71c-1.97-1.81-2.96-4.41-2.96-7.79v-22.66Z"/>
        <path class="cls-2" d="M164.79,232.26l-8.71-14c-.99,0-2.57-.08-4.72-.23v14.23h-4.45v-32.61c.16,0,1.32-.06,3.47-.17,2.14-.11,3.7-.17,4.68-.17,7.84,0,11.76,3.12,11.76,9.36,0,2.04-.64,3.89-1.9,5.53-1.26,1.64-2.76,2.66-4.5,3.06l9.46,15h-5.1ZM151.37,203.66v10.59c1.07.15,2.11.23,3.12.23,2.67,0,4.61-.43,5.83-1.29s1.83-2.4,1.83-4.61c0-1.83-.65-3.14-1.96-3.94-1.3-.8-3.37-1.2-6.19-1.2-.44,0-1.31.07-2.63.23"/>
      </g>
      <polygon class="cls-2" points="195.46 232.26 195.46 216.5 181.21 216.5 181.21 232.26 176.76 232.26 176.76 199.65 181.21 199.65 181.21 212.71 195.46 212.71 195.46 199.65 199.91 199.65 199.91 232.26 195.46 232.26"/>
      <path class="cls-2" d="M228.61,232.26l-2.25-6.88h-12.13l-2.4,6.88h-4.99l13.25-33.05h1.17l12.29,33.05h-4.94ZM220.46,207.75l-5.05,14.36h9.69l-4.63-14.36Z"/>
      <g class="cls-6">
        <path class="cls-2" d="M239.26,199.65h4.45v22.33c0,1.98.63,3.62,1.9,4.9,1.26,1.29,2.93,1.92,5.01,1.92,2.19,0,3.92-.62,5.18-1.87,1.26-1.24,1.9-2.94,1.9-5.07v-22.22h4.45v22.68c0,3.3-1.03,5.87-3.09,7.71-2.05,1.85-4.86,2.77-8.4,2.77s-6.46-.9-8.44-2.71c-1.97-1.81-2.96-4.41-2.96-7.79v-22.66Z"/>
        <path class="cls-2" d="M276.38,219.7v12.56h-4.45v-32.61c3.36-.16,5.4-.23,6.1-.23,9.47,0,14.21,3.17,14.21,9.5,0,7.33-4.19,11-12.56,11-.5,0-1.6-.08-3.3-.23M276.38,203.65v12.04c1.89.15,2.88.23,2.98.23,5.52,0,8.28-2.17,8.28-6.52,0-3.98-2.94-5.97-8.83-5.97-.59,0-1.4.07-2.43.22"/>
      </g>
      <polygon class="cls-2" points="312.83 203.65 312.83 232.25 308.37 232.25 308.37 203.65 298 203.65 298 199.64 323.67 199.64 323.67 203.65 312.83 203.65"/>
      <g class="cls-4">
        <path class="cls-2" d="M329.75,230.77l1.63-4.1c.83.61,1.86,1.11,3.1,1.52,1.24.41,2.35.62,3.33.62,1.73,0,3.13-.48,4.18-1.43,1.05-.95,1.57-2.16,1.57-3.63,0-1.1-.29-2.12-.87-3.06-.59-.95-2.06-1.97-4.43-3.09l-2.63-1.22c-2.23-1.04-3.78-2.27-4.66-3.7-.88-1.42-1.32-3.14-1.32-5.14,0-2.43.86-4.45,2.58-6.05,1.71-1.61,3.93-2.41,6.64-2.41,3.6,0,6.11.59,7.52,1.76l-1.31,3.87c-.6-.43-1.51-.84-2.72-1.24-1.22-.41-2.34-.61-3.38-.61-1.51,0-2.7.44-3.57,1.3-.86.86-1.3,1.96-1.3,3.31,0,.83.15,1.59.46,2.27.31.69.75,1.26,1.31,1.72.56.46,1.69,1.1,3.42,1.93l2.67,1.27c2.23,1.05,3.79,2.31,4.69,3.77.9,1.46,1.35,3.32,1.35,5.57,0,2.45-.98,4.53-2.95,6.24-1.96,1.7-4.6,2.56-7.89,2.56-2.9,0-5.36-.68-7.41-2.04"/>
      </g>
      <polygon class="cls-2" points="368.34 203.65 368.34 232.25 363.89 232.25 363.89 203.65 353.51 203.65 353.51 199.64 379.18 199.64 379.18 203.65 368.34 203.65"/>
      <path class="cls-2" d="M400.96,232.26l-2.24-6.88h-12.14l-2.4,6.88h-4.99l13.25-33.05h1.17l12.29,33.05h-4.94ZM392.81,207.75l-5.05,14.36h9.69l-4.64-14.36Z"/>
      <g class="cls-5">
        <path class="cls-2" d="M419.36,232.26h-6.57v-32.61c4.18-.15,6.86-.23,8.04-.23,4.56,0,8.16,1.38,10.82,4.16,2.66,2.76,3.98,6.44,3.98,11.05,0,11.75-5.42,17.63-16.27,17.63M417.25,203.66v24.37c.99.15,2.23.22,3.7.22,3.11,0,5.56-1.16,7.35-3.5,1.77-2.34,2.67-5.58,2.67-9.74,0-7.71-3.47-11.57-10.39-11.57-.42,0-1.53.07-3.32.23"/>
      </g>
      <polygon class="cls-2" points="440.31 199.65 440.31 203.65 450.69 203.65 450.69 232.25 455.14 232.25 455.14 203.65 465.98 203.65 465.98 199.65 440.31 199.65"/>
      <polygon class="cls-2" points="134.2 259.26 134.2 291.87 153.42 291.87 153.42 287.86 138.64 287.86 138.64 276.11 149.42 276.11 149.42 272.33 138.64 272.33 138.64 263.27 153.67 263.27 153.67 259.26 134.2 259.26"/>
      <g class="cls-8">
        <path class="cls-2" d="M161.33,259.26h4.45v22.33c0,1.98.63,3.62,1.9,4.9,1.26,1.29,2.93,1.92,5.01,1.92,2.19,0,3.92-.62,5.18-1.87,1.26-1.24,1.9-2.94,1.9-5.07v-22.22h4.45v22.68c0,3.3-1.03,5.87-3.09,7.71-2.05,1.85-4.86,2.77-8.4,2.77s-6.46-.9-8.44-2.71c-1.97-1.81-2.96-4.41-2.96-7.79v-22.66Z"/>
        <path class="cls-2" d="M211.99,291.87l-8.7-14c-.99,0-2.57-.08-4.72-.23v14.23h-4.45v-32.61c.16,0,1.32-.06,3.47-.17,2.14-.11,3.71-.17,4.68-.17,7.84,0,11.76,3.12,11.76,9.36,0,2.04-.63,3.89-1.89,5.53-1.26,1.64-2.76,2.66-4.5,3.06l9.46,15h-5.1ZM198.56,263.27v10.59c1.07.15,2.11.23,3.12.23,2.67,0,4.61-.43,5.83-1.3,1.22-.86,1.83-2.39,1.83-4.61,0-1.83-.65-3.14-1.96-3.94-1.3-.8-3.37-1.2-6.19-1.2-.44,0-1.31.07-2.63.23"/>
        <path class="cls-2" d="M221.37,275.29c0-4.72,1.18-8.67,3.55-11.84,2.37-3.17,5.57-4.76,9.58-4.76,4.53,0,8,1.46,10.41,4.39,2.41,2.92,3.62,6.99,3.62,12.22s-1.21,9.56-3.63,12.58c-2.42,3.04-5.89,4.56-10.4,4.56-4.1,0-7.32-1.6-9.64-4.81-2.32-3.21-3.49-7.31-3.49-12.33M226.05,275.29c0,3.74.73,6.86,2.21,9.37,1.48,2.5,3.56,3.76,6.24,3.76,3.04,0,5.37-1.15,6.96-3.44,1.6-2.3,2.39-5.53,2.39-9.69,0-8.4-3.11-12.6-9.35-12.6-2.76,0-4.86,1.13-6.29,3.38-1.44,2.26-2.16,5.33-2.16,9.22"/>
        <path class="cls-2" d="M261.37,279.32v12.56h-4.45v-32.61c3.36-.16,5.4-.23,6.1-.23,9.47,0,14.21,3.17,14.21,9.5,0,7.33-4.19,11-12.56,11-.51,0-1.6-.08-3.3-.23M261.37,263.26v12.04c1.89.15,2.88.23,2.98.23,5.52,0,8.28-2.17,8.28-6.52,0-3.98-2.94-5.97-8.83-5.97-.59,0-1.4.07-2.43.22"/>
      </g>
      <path class="cls-2" d="M293.04,267.36l4.63,14.36h-9.68l5.05-14.36ZM292.66,258.81l-13.24,33.06h4.98l2.41-6.89h12.13l2.25,6.89h4.94l-12.29-33.06h-1.18Z"/>
      <g class="cls-7">
        <path class="cls-2" d="M312.13,290.38l1.63-4.1c.83.61,1.86,1.11,3.1,1.52,1.23.41,2.35.62,3.33.62,1.73,0,3.13-.48,4.18-1.43,1.05-.95,1.57-2.16,1.57-3.63,0-1.1-.29-2.12-.87-3.06-.59-.95-2.06-1.97-4.43-3.09l-2.63-1.23c-2.23-1.03-3.78-2.27-4.66-3.7-.88-1.42-1.32-3.14-1.32-5.14,0-2.44.86-4.45,2.58-6.05,1.71-1.6,3.93-2.41,6.63-2.41,3.61,0,6.12.59,7.53,1.76l-1.31,3.87c-.6-.43-1.5-.84-2.72-1.24-1.22-.4-2.34-.6-3.38-.6-1.51,0-2.7.43-3.57,1.29-.86.86-1.3,1.97-1.3,3.31,0,.84.15,1.59.46,2.27.31.69.75,1.26,1.3,1.72.56.46,1.7,1.1,3.42,1.93l2.67,1.27c2.23,1.05,3.79,2.31,4.69,3.77.9,1.46,1.35,3.32,1.35,5.57,0,2.45-.98,4.53-2.95,6.23-1.96,1.7-4.6,2.57-7.89,2.57-2.9,0-5.37-.69-7.41-2.05"/>
      </g>
    </g>
  </g>
</svg>