<?xml version="1.0" encoding="UTF-8"?>
<svg id="Ebene_2" data-name="Ebene 2" xmlns="http://www.w3.org/2000/svg" xmlns:xlink="http://www.w3.org/1999/xlink" viewBox="0 0 654.79 210.93">
  <defs>
    <style>
      .cls-1 {
        fill: none;
      }

      .cls-2 {
        fill: #1d1d1b;
      }

      .cls-3 {
        clip-path: url(#clippath-1);
      }

      .cls-4 {
        clip-path: url(#clippath-3);
      }

      .cls-5 {
        clip-path: url(#clippath-4);
      }

      .cls-6 {
        clip-path: url(#clippath-2);
      }

      .cls-7 {
        clip-path: url(#clippath-7);
      }

      .cls-8 {
        clip-path: url(#clippath-6);
      }

      .cls-9 {
        clip-path: url(#clippath-8);
      }

      .cls-10 {
        clip-path: url(#clippath-5);
      }

      .cls-11 {
        clip-path: url(#clippath);
      }
    </style>
    <clipPath id="clippath">
      <rect class="cls-1" width="654.79" height="210.93"/>
    </clipPath>
    <clipPath id="clippath-1">
      <rect class="cls-1" width="654.79" height="210.93"/>
    </clipPath>
    <clipPath id="clippath-2">
      <rect class="cls-1" width="654.79" height="210.93"/>
    </clipPath>
    <clipPath id="clippath-3">
      <rect class="cls-1" width="654.79" height="210.93"/>
    </clipPath>
    <clipPath id="clippath-4">
      <rect class="cls-1" width="654.79" height="210.93"/>
    </clipPath>
    <clipPath id="clippath-5">
      <rect class="cls-1" width="654.79" height="210.93"/>
    </clipPath>
    <clipPath id="clippath-6">
      <rect class="cls-1" width="654.79" height="210.93"/>
    </clipPath>
    <clipPath id="clippath-7">
      <rect class="cls-1" width="654.79" height="210.93"/>
    </clipPath>
    <clipPath id="clippath-8">
      <rect class="cls-1" width="654.79" height="210.93"/>
    </clipPath>
  </defs>
  <g id="Ebene_1-2" data-name="Ebene 1">
    <g>
      <g class="cls-11">
        <path class="cls-2" d="M169.83,71.38C169.83,44.92,161.67,20.34,147.74,0h-54.29c.97.82,1.97,1.6,2.9,2.48,7.46,7.02,13.06,17.09,16.79,30.23l-32.8,7.84c-1.94-8.51-6.01-15.23-12.21-20.15-6.12-4.93-13.58-7.39-22.39-7.39-12.17,0-22.06,4.37-29.67,13.1-7.54,8.73-11.31,22.88-11.31,42.43,0,20.75,3.73,35.53,11.2,44.33,7.46,8.81,17.16,13.21,29.11,13.21,8.81,0,16.38-2.8,22.73-8.39,6.34-5.6,10.89-14.4,13.66-26.42l32.13,10.19c-4.93,17.91-13.14,31.23-24.63,39.97-11.42,8.66-25.94,12.98-43.55,12.99C27.69,154.41,12.59,149.42,0,139.6v50.87c13.48,4.9,28.01,7.58,43.16,7.58,69.85,0,126.67-56.83,126.67-126.67M171.89,0c11.78,21.16,18.51,45.49,18.51,71.38,0,64.81-42.1,119.93-100.38,139.56h120.9V0h-39.04Z"/>
        <path class="cls-2" d="M559.68,185.31c1.68-2.47,2.65-5.67,2.65-8.78,0-7.31-5.41-12.83-12.58-12.83s-12.64,5.51-12.64,12.83v2.72h6.4v-2.72c0-3.98,2.51-6.65,6.23-6.65s6.17,2.67,6.17,6.65c0,1.78-.67,3.97-1.67,5.43l-16.21,23.05v5h24.66v-6.18h-16.09l13.06-18.52Z"/>
        <path class="cls-2" d="M373.34,183.62h-6.55v-12.94h6.55c4.51,0,7.1,2.34,7.1,6.41s-2.65,6.53-7.1,6.53M386.97,177.08c0-6.26-4.21-12.58-13.63-12.58h-12.95v45.51h6.4v-20.28h2.39l14.85,20.28h7.77l-15.32-20.49c7.22-1.25,10.48-6.97,10.48-12.43"/>
        <path class="cls-2" d="M621.19,185.31c1.68-2.47,2.65-5.67,2.65-8.78,0-7.31-5.41-12.83-12.58-12.83s-12.64,5.51-12.64,12.83v2.72h6.4v-2.72c0-3.98,2.51-6.65,6.23-6.65s6.17,2.67,6.17,6.65c0,1.79-.67,3.97-1.67,5.43l-16.21,23.05v5h24.66v-6.18h-16.08l13.06-18.52Z"/>
        <path class="cls-2" d="M346.59,195.77c0,5.46-3.25,8.98-8.28,8.98s-8.34-3.53-8.34-8.98v-31.27h-6.4v31.27c0,9.03,5.92,15.1,14.74,15.1s14.68-6.07,14.68-15.1v-31.27h-6.4v31.27Z"/>
      </g>
      <polygon class="cls-2" points="293.01 164.5 293.01 210.01 318.28 210.01 318.28 203.83 299.41 203.83 299.41 189.73 314.45 189.73 314.45 183.62 299.41 183.62 299.41 170.68 318.28 170.68 318.28 164.5 293.01 164.5"/>
      <g class="cls-3">
        <path class="cls-2" d="M641.96,179.63c-2.6,0-4.69.56-6.42,1.74v-10.7h17.39v-6.18h-23.79v28.23h6.15v-1.25c0-3.39,2.43-5.68,6.05-5.68,3.9,0,6.42,2.66,6.42,6.78v5.27c0,4.12-2.5,6.78-6.36,6.78s-6.3-2.24-6.3-5.86v-1.49h-6.4v1.49c0,6.97,5.34,12.03,12.7,12.03s12.82-5.45,12.82-12.95v-5.27c0-7.5-5.16-12.95-12.27-12.95"/>
      </g>
      <path class="cls-2" d="M472.1,175.51l5.2,16.99h-10.35l5.15-16.99ZM469.2,164.5l-14.37,45.51h6.88l3.4-11.33h14.05l3.53,11.33h6.75l-14.37-45.51h-5.86Z"/>
      <g class="cls-6">
        <path class="cls-2" d="M508.62,184.65l-4.64-1.59c-4.9-1.7-6.81-3.67-6.81-7.02,0-4.34,3.63-6.29,7.23-6.29,4.88,0,8.03,3.21,8.03,8.19v1.92h6.34v-1.99c0-8.52-5.78-14.24-14.37-14.24-7.93,0-13.69,5.29-13.69,12.58,0,6.07,3.42,10.19,10.46,12.59l4.57,1.53c5.33,1.82,7.3,3.85,7.3,7.51,0,4-3.53,6.9-8.4,6.9s-8.52-3.44-8.52-8.37v-2.23h-6.4v2.29c0,8.36,6.28,14.42,14.93,14.42s14.81-5.67,14.81-13.2c0-8.34-6.18-11.42-10.83-13.02"/>
        <path class="cls-2" d="M416.7,178.98v16.54c0,5.6-3.49,9.23-8.9,9.23s-8.9-3.62-8.9-9.23v-16.54c0-5.65,3.41-9.17,8.9-9.17s8.9,3.43,8.9,9.17M407.81,163.64c-9.01,0-15.3,6.31-15.3,15.34v16.6c0,9,6.29,15.28,15.3,15.28s15.36-6.14,15.36-15.28v-16.6c0-9.18-6.17-15.34-15.36-15.34"/>
        <path class="cls-2" d="M450.3,178.19c0,4.89-2.86,7.69-7.84,7.69h-6.36v-15.21h6.36c5.06,0,7.84,2.67,7.84,7.51M442.46,164.5h-12.76v45.51h6.4v-18.01h6.36c8.86,0,14.37-5.29,14.37-13.81s-5.64-13.69-14.37-13.69"/>
        <path class="cls-2" d="M587.61,177.15v20.09c0,4.49-2.69,7.39-6.85,7.39s-6.79-2.9-6.79-7.39v-20.09c0-4.42,2.67-7.27,6.79-7.27s6.85,2.85,6.85,7.27M580.82,163.71c-7.68,0-13.26,5.65-13.26,13.44v20.09c0,7.86,5.58,13.57,13.26,13.57s13.26-5.71,13.26-13.57v-20.09c0-7.79-5.57-13.44-13.26-13.44"/>
        <path class="cls-2" d="M652.6,1.56h-36.45v9.69h23.82l-24.67,41.55v8.6h37.13v-9.69h-24.76l24.92-41.55V1.56ZM610.47,1.56h-39.34v9.69h14.5v50.14h10.34V11.25h14.5V1.56ZM553.08,61.4h10.34V1.56h-10.34v59.83ZM540.96,1.56h-10.34v38.01L509.33,1.56h-9.67v59.83h10.34V22.12l21.62,39.27h9.32V1.56ZM461.1,42.27h2.2l13.82-19.47v38.6h10.34V1.56h-7.04l-18.23,26.55-18.14-26.55h-7.04v59.83h10.34V22.8l13.73,19.47ZM427.02,11.25V1.56h-33.4v59.83h33.4v-9.69h-23.06v-16.18h17.89v-9.69h-17.89v-14.58h23.06ZM371.07,1.56v24.27h-19.33V1.56h-10.34v59.83h10.34v-25.87h19.33v25.87h10.34V1.56h-10.34ZM332.24,41.34h-10.43v.93c0,5.98-3.48,10.79-9.92,10.79s-9.75-4.8-9.75-10.79v-21.57c0-5.9,3.39-10.79,9.66-10.79s9.75,4.8,9.75,10.53v.42h10.34v-.34c0-11.21-7.55-20.31-20.09-20.31s-20.01,9.19-20.01,20.48v21.57c0,11.29,7.54,20.48,20.09,20.48s20.35-9.19,20.35-20.48v-.93Z"/>
      </g>
      <polygon class="cls-2" points="346.16 100.16 342.14 100.16 342.14 131.26 357.94 131.26 357.94 127.37 346.16 127.37 346.16 100.16"/>
      <g class="cls-4">
        <path class="cls-2" d="M419.09,108.67c0,2.95-1.89,4.71-5.05,4.71h-4.67v-9.34h4.67c3.16,0,5.05,1.73,5.05,4.63M423.19,108.67c0-4.24-2.83-8.51-9.15-8.51h-8.68v31.1h4.01v-14.03h1.91l10.17,14.03h4.86l-10.46-14.13c5.06-.74,7.33-4.69,7.33-8.46"/>
      </g>
      <polygon class="cls-2" points="444.82 113.38 433.15 113.38 433.15 100.16 429.13 100.16 429.13 131.26 433.15 131.26 433.15 117.27 444.82 117.27 444.82 131.26 448.84 131.26 448.84 100.16 444.82 100.16 444.82 113.38"/>
      <polygon class="cls-2" points="355.67 104.04 363.59 104.04 363.59 131.26 367.61 131.26 367.61 104.04 375.58 104.04 375.58 100.16 355.67 100.16 355.67 104.04"/>
      <polygon class="cls-2" points="312.57 100.16 307.67 100.16 297.02 114.68 297.02 100.16 293.01 100.16 293.01 131.26 297.02 131.26 297.02 120.83 300.03 116.67 308.4 131.26 313.12 131.26 302.72 113.45 312.57 100.16"/>
      <g class="cls-5">
        <path class="cls-2" d="M331.84,121.6c0,3.89-2.3,6.41-5.86,6.41s-5.9-2.51-5.9-6.41v-21.45h-4.02v21.45c0,6.13,3.99,10.25,9.91,10.25s9.87-4.12,9.87-10.25v-21.45h-4.01v21.45Z"/>
        <path class="cls-2" d="M395.05,121.6c0,3.89-2.3,6.41-5.86,6.41s-5.9-2.51-5.9-6.41v-21.45h-4.01v21.45c0,6.13,3.98,10.25,9.91,10.25s9.87-4.12,9.87-10.25v-21.45h-4.02v21.45Z"/>
      </g>
      <polygon class="cls-2" points="587.97 100.16 568.06 100.16 568.06 104.04 575.99 104.04 575.99 131.26 580 131.26 580 104.04 587.97 104.04 587.97 100.16"/>
      <path class="cls-2" d="M601.76,119.53h-7.59l3.78-12.6,3.82,12.6ZM596.09,100.16l-9.72,31.1h4.32l2.33-7.84h9.9l2.42,7.84h4.23l-9.73-31.1h-3.75Z"/>
      <g class="cls-10">
        <path class="cls-2" d="M628.52,110.11v11.19c0,3.86-2.37,6.07-6.49,6.07h-5.01v-23.33h5.01c4.19,0,6.49,2.16,6.49,6.07M621.98,100.16h-9.03v31.1h9.03c6.51,0,10.55-3.82,10.55-9.96v-11.24c0-6.12-4.04-9.91-10.55-9.91"/>
      </g>
      <polygon class="cls-2" points="634.88 100.16 634.88 104.04 642.8 104.04 642.8 131.26 646.82 131.26 646.82 104.04 654.79 104.04 654.79 100.16 634.88 100.16"/>
      <g class="cls-8">
        <path class="cls-2" d="M494.17,121.6c0,3.89-2.3,6.41-5.86,6.41s-5.9-2.51-5.9-6.41v-21.45h-4.02v21.45c0,6.13,3.98,10.25,9.92,10.25s9.87-4.12,9.87-10.25v-21.45h-4.02v21.45Z"/>
      </g>
      <path class="cls-2" d="M467.71,119.53h-7.59l3.78-12.6,3.82,12.6ZM462.04,100.16l-9.73,31.1h4.32l2.33-7.84h9.9l2.42,7.84h4.23l-9.73-31.1h-3.75Z"/>
      <g class="cls-7">
        <path class="cls-2" d="M518.59,109.43c0,3.51-2.03,5.52-5.56,5.52h-4.54v-10.91h4.54c3.59,0,5.56,1.92,5.56,5.39M513.03,100.16h-8.56v31.1h4.02v-12.46h4.54c5.96,0,9.66-3.59,9.66-9.36s-3.79-9.28-9.66-9.28"/>
      </g>
      <polygon class="cls-2" points="524.52 104.04 532.45 104.04 532.45 131.26 536.46 131.26 536.46 104.04 544.43 104.04 544.43 100.16 524.52 100.16 524.52 104.04"/>
      <g class="cls-9">
        <path class="cls-2" d="M558.94,114.09l-3.18-1.1c-3.45-1.21-4.8-2.62-4.8-5.04,0-3.14,2.58-4.54,5.14-4.54,3.46,0,5.69,2.3,5.69,5.86v1.14h3.97v-1.18c0-5.78-3.88-9.66-9.66-9.66-5.33,0-9.19,3.58-9.19,8.51,0,4.11,2.3,6.9,7.04,8.53l3.14,1.06c3.74,1.29,5.13,2.75,5.13,5.38,0,2.88-2.5,4.97-5.94,4.97s-6.03-2.46-6.03-5.98v-1.35h-4.02v1.39c0,5.67,4.22,9.79,10.04,9.79s9.96-3.76,9.96-8.94c0-5.65-4.16-7.74-7.29-8.83"/>
      </g>
    </g>
  </g>
</svg>