<?xml version="1.0" encoding="UTF-8"?>
<svg id="Ebene_2" data-name="Ebene 2" xmlns="http://www.w3.org/2000/svg" viewBox="0 0 260.87 305.75">
  <g id="Ebene_1-2" data-name="Ebene 1">
    <g>
      <path d="M238.52.03c-22.13,1.3-62.45,24.95-106.09,62.24l-1.81,1.55-2.43-2.05c-21.78-18.38-43.31-33.85-62.01-44.56C50.36,8.17,37.02,2.69,26.81,1.06c-2.51-.4-3.17-.45-5.98-.45-2.37,0-2.76.02-3.73.17-4.77.75-8.12,2.85-10.07,6.34-3.25,5.78-2.46,15.36,2.29,27.86,8.64,22.7,30.07,54.46,58.58,86.81.91,1.04,1.64,1.91,1.63,1.95-.02.03-.79.92-1.73,1.98C32.44,165.46,7.82,203.84,2.52,227.44c-1.46,6.5-1.46,11.97,0,15.87,1.82,4.9,5.66,7.64,11.73,8.37,1.07.12,4.53.13,5.79,0,10.76-1.09,24.47-6.46,41.67-16.31,19.92-11.41,43.13-28.41,66.76-48.9,2.1-1.83,2.44-2.09,2.54-2.01.07.06.98.83,2.01,1.73,36.61,31.43,71.08,53.8,95.27,61.85,10.04,3.33,17.7,4.07,23.39,2.26,1.06-.33,2.86-1.26,3.71-1.88,3.02-2.26,4.69-5.55,5.15-10.14.1-1.01.1-3.74,0-4.98-.78-9.54-5.8-22.59-14.66-38.14-11.82-20.73-30.35-45.5-52.36-69.98-.83-.93-1.53-1.72-1.54-1.74,0-.03.5-.65,1.14-1.38,35.48-40.73,58.78-78.43,62.36-100.94.29-1.83.39-3,.43-4.94.08-3.54-.31-5.97-1.3-8.31-1.91-4.48-5.71-7.08-11.32-7.71-1.26-.14-3.41-.2-4.76-.12h0ZM234.72,13.29c7.21.66,10.47,5.53,9.39,14.05-2.3,18.02-23.01,50.83-55.48,87.87-1.1,1.25-2.01,2.28-2.04,2.29-.02,0-1.17-1.19-2.55-2.65-11.29-12.04-23.85-24.46-36.25-35.84-2.35-2.15-6.84-6.2-8.57-7.71-.71-.63-1.29-1.16-1.29-1.19.02-.07,2.18-1.92,5.35-4.56,34.76-29.05,65.89-48.18,84.18-51.73,2.82-.55,5.21-.72,7.27-.53h0ZM31.96,14.27c16.82,1.53,46.93,19.08,82.14,47.87,2.96,2.42,8.65,7.18,9.33,7.8.08.08-.26.41-1.55,1.56-15,13.39-30.97,29.07-44.83,44.02-.96,1.04-1.79,1.89-1.82,1.89-.19,0-8.06-9.24-12.42-14.57C38.13,72.68,22.4,46.54,19.29,30.54c-.43-2.22-.49-2.88-.5-5.19,0-2.38.1-3.14.6-4.68,1.2-3.68,4.07-5.84,8.44-6.37.99-.12,3.02-.14,4.13-.04h0ZM133.13,78.42c15.1,13.44,30.75,28.75,44.8,43.79,1.21,1.3,2.21,2.4,2.21,2.43,0,.07-2.07,2.32-5.22,5.69-9.54,10.18-20.91,21.56-31.5,31.5-4.71,4.42-12.7,11.67-12.8,11.64-.2-.08-8.69-7.9-12.67-11.67-7.87-7.46-17.8-17.37-25.14-25.06-4.95-5.2-11.33-12.12-11.29-12.24.03-.08,4.25-4.6,6.46-6.91,7.79-8.18,18.13-18.47,26.27-26.16,6.22-5.87,16.37-15.1,16.54-15.04.03.02,1.09.94,2.35,2.06h0ZM187.39,132.56c20.51,22.94,37.7,45.82,48.1,64.07,2.24,3.93,4.84,8.96,6.3,12.19,5.78,12.81,7.06,21.84,3.78,26.79-.51.78-1.53,1.8-2.26,2.29-3.97,2.63-10.19,2.49-19.15-.44-19.53-6.39-49.52-26.06-81.76-53.65-2.9-2.48-5.49-4.73-5.49-4.78,0,0,.88-.82,1.95-1.79,15.42-13.99,31.54-30.06,45.02-44.87.92-1.01,1.67-1.83,1.68-1.83s.83.91,1.82,2.02h0ZM78.18,133.19c13.13,14.28,29.25,30.19,44.13,43.56,1.11.99,2.07,1.86,2.14,1.94.14.13.03.23-2.69,2.55-3.22,2.76-5.4,4.59-7.9,6.65-29.75,24.58-56.72,41.81-75.04,47.94-7.96,2.66-14.05,3.13-18.06,1.41-.98-.42-1.76-.94-2.56-1.7-1.5-1.42-2.36-3.12-2.8-5.53-.22-1.18-.24-4.38-.04-5.81.89-6.34,3.38-13.18,8.21-22.59,5.39-10.51,14.15-23.91,24.61-37.68,6.64-8.74,14.05-17.78,22.04-26.93,2.1-2.4,3.95-4.49,4.96-5.59l.67-.74.24.25c.14.14,1.07,1.15,2.09,2.26h0Z"/>
      <path d="M129.46,102.2c-.12.02-.53.07-.91.11-4.28.52-8.46,2.6-11.73,5.86-3.25,3.22-5.57,7.57-6.5,12.17-.4,1.98-.46,2.64-.46,5.2s.07,3.29.46,5.22c.61,2.92,1.89,6.06,3.5,8.48,3.15,4.74,7.78,8.06,12.82,9.19,1.73.39,2.4.45,4.41.46,2.45,0,3.97-.23,6.02-.89,8.28-2.69,14.18-10.38,15.18-19.8.22-2.04.12-5.06-.23-7.09-1.04-6.02-4.31-11.49-8.93-14.93-2.81-2.09-5.69-3.3-9.17-3.87-.7-.11-3.91-.21-4.45-.14h0Z"/>
      <g>
        <path d="M13.86,265.59h9.99l13.8,39.83h-11.11l-2.41-7.8h-10.6l-2.36,7.8H0l13.86-39.83ZM22.38,290.33l-3.53-12.34-3.7,12.34h7.24Z"/>
        <path d="M68.33,275.12h-11.44v30.29h-10.94v-30.29h-11.5v-9.54h33.89v9.54Z"/>
        <path d="M89.65,305.75c-3.03,0-5.78-.58-8.25-1.74-2.47-1.16-4.58-2.68-6.34-4.57-1.76-1.89-3.12-4.05-4.1-6.48-.97-2.43-1.46-4.94-1.46-7.52s.5-5.14,1.51-7.57c1.01-2.43,2.42-4.57,4.24-6.42,1.81-1.85,3.96-3.33,6.45-4.43,2.49-1.1,5.21-1.66,8.16-1.66s5.78.58,8.25,1.74c2.47,1.16,4.58,2.69,6.34,4.6,1.76,1.91,3.11,4.08,4.07,6.51.95,2.43,1.43,4.92,1.43,7.46s-.5,5.13-1.51,7.55-2.41,4.54-4.21,6.4-3.94,3.34-6.42,4.46-5.21,1.68-8.16,1.68ZM80.62,285.56c0,1.35.19,2.65.56,3.9.37,1.25.93,2.37,1.68,3.34.75.97,1.69,1.76,2.83,2.36,1.14.6,2.5.9,4.07.9s2.94-.31,4.1-.93c1.16-.62,2.1-1.42,2.83-2.41.73-.99,1.27-2.12,1.63-3.39s.53-2.56.53-3.87-.19-2.65-.56-3.9c-.37-1.25-.94-2.36-1.71-3.31-.77-.95-1.72-1.72-2.86-2.3-1.14-.58-2.48-.87-4.01-.87s-2.93.3-4.07.9c-1.14.6-2.09,1.39-2.83,2.38-.75.99-1.3,2.11-1.66,3.37-.36,1.25-.53,2.53-.53,3.84Z"/>
        <path d="M144.74,305.42v-20.98l-6.68,14.75h-5.83l-6.68-14.75v20.98h-10.94v-39.83h11.95l8.58,18.74,8.64-18.74h11.89v39.83h-10.94Z"/>
        <path d="M162.52,305.42v-39.83h10.94v39.83h-10.94Z"/>
        <path d="M191.25,285.84v19.58h-10.94v-39.83h8.53l15.99,20.25v-20.25h10.94v39.83h-8.7l-15.82-19.58Z"/>
        <path d="M240.56,305.75c-3.03,0-5.78-.58-8.25-1.74-2.47-1.16-4.58-2.68-6.34-4.57s-3.12-4.05-4.1-6.48c-.97-2.43-1.46-4.94-1.46-7.52s.5-5.14,1.51-7.57c1.01-2.43,2.42-4.57,4.24-6.42,1.81-1.85,3.96-3.33,6.45-4.43,2.49-1.1,5.21-1.66,8.16-1.66s5.78.58,8.25,1.74c2.47,1.16,4.58,2.69,6.34,4.6,1.76,1.91,3.11,4.08,4.07,6.51.95,2.43,1.43,4.92,1.43,7.46s-.5,5.13-1.51,7.55c-1.01,2.41-2.41,4.54-4.21,6.4s-3.94,3.34-6.42,4.46-5.21,1.68-8.16,1.68ZM231.53,285.56c0,1.35.19,2.65.56,3.9.37,1.25.93,2.37,1.68,3.34.75.97,1.69,1.76,2.83,2.36,1.14.6,2.5.9,4.07.9s2.94-.31,4.1-.93,2.1-1.42,2.83-2.41c.73-.99,1.27-2.12,1.63-3.39s.53-2.56.53-3.87-.19-2.65-.56-3.9c-.38-1.25-.95-2.36-1.71-3.31-.77-.95-1.72-1.72-2.86-2.3-1.14-.58-2.48-.87-4.01-.87s-2.93.3-4.07.9c-1.14.6-2.08,1.39-2.83,2.38-.75.99-1.3,2.11-1.66,3.37-.36,1.25-.53,2.53-.53,3.84Z"/>
      </g>
    </g>
  </g>
</svg>